<svg width="183" height="28" viewBox="0 0 183 28" fill="none" xmlns="http://www.w3.org/2000/svg">
<path d="M56.3029 21.2463C54.7433 21.2463 53.3683 20.9077 52.178 20.2305C50.9877 19.5532 50.0437 18.6092 49.3459 17.3984C48.6687 16.1876 48.3301 14.8023 48.3301 13.2427C48.3301 11.683 48.6687 10.2977 49.3459 9.0869C50.0437 7.87611 50.9877 6.93209 52.178 6.25486C53.3683 5.57763 54.7433 5.23901 56.3029 5.23901C58.2526 5.23901 59.8943 5.75207 61.2283 6.77818C62.5622 7.78376 63.4139 9.1793 63.7833 10.9647H59.6275C59.4223 10.2259 59.0119 9.6513 58.3962 9.2408C57.8011 8.80987 57.093 8.59439 56.2722 8.59439C55.1845 8.59439 54.261 9.0048 53.5017 9.8257C52.7423 10.6466 52.3627 11.7856 52.3627 13.2427C52.3627 14.6997 52.7423 15.8387 53.5017 16.6596C54.261 17.4805 55.1845 17.8909 56.2722 17.8909C57.093 17.8909 57.8011 17.6857 58.3962 17.2753C59.0119 16.8648 59.4223 16.2799 59.6275 15.5206H63.7833C63.4139 17.2445 62.5622 18.6297 61.2283 19.6764C59.8943 20.723 58.2526 21.2463 56.3029 21.2463Z" fill="#343434"/>
<path d="M73.9913 21.2463C72.5137 21.2463 71.1798 20.9077 69.9895 20.2305C68.8197 19.5532 67.8859 18.6195 67.1882 17.4292C66.511 16.2184 66.1723 14.8229 66.1723 13.2427C66.1723 11.6625 66.5212 10.2772 67.219 9.0869C67.9167 7.87611 68.8505 6.93209 70.0203 6.25486C71.2105 5.57763 72.5445 5.23901 74.0221 5.23901C75.4792 5.23901 76.7926 5.57763 77.9623 6.25486C79.1526 6.93209 80.0864 7.87611 80.7636 9.0869C81.4614 10.2772 81.8102 11.6625 81.8102 13.2427C81.8102 14.8229 81.4614 16.2184 80.7636 17.4292C80.0864 18.6195 79.1526 19.5532 77.9623 20.2305C76.772 20.9077 75.4484 21.2463 73.9913 21.2463ZM73.9913 17.8294C75.0174 17.8294 75.9101 17.4497 76.6694 16.6904C77.4288 15.9105 77.8084 14.7613 77.8084 13.2427C77.8084 11.724 77.4288 10.585 76.6694 9.8257C75.9101 9.0459 75.0277 8.65596 74.0221 8.65596C72.9754 8.65596 72.0725 9.0459 71.3132 9.8257C70.5744 10.585 70.205 11.724 70.205 13.2427C70.205 14.7613 70.5744 15.9105 71.3132 16.6904C72.0725 17.4497 72.9652 17.8294 73.9913 17.8294Z" fill="#343434"/>
<path d="M84.7176 20.8769V5.60841H88.196L88.535 7.67089C89.027 6.93209 89.674 6.34721 90.474 5.91625C91.295 5.46476 92.239 5.23901 93.306 5.23901C95.666 5.23901 97.339 6.15225 98.324 7.97872C98.878 7.13731 99.617 6.47034 100.54 5.97781C101.484 5.48528 102.51 5.23901 103.619 5.23901C105.609 5.23901 107.138 5.83416 108.205 7.02444C109.272 8.21473 109.806 9.9591 109.806 12.2576V20.8769H105.866V12.627C105.866 11.3136 105.609 10.308 105.096 9.6102C104.604 8.91248 103.834 8.56361 102.787 8.56361C101.72 8.56361 100.858 8.95353 100.202 9.7334C99.565 10.5132 99.247 11.6009 99.247 12.9964V20.8769H95.307V12.627C95.307 11.3136 95.05 10.308 94.537 9.6102C94.024 8.91248 93.234 8.56361 92.167 8.56361C91.12 8.56361 90.269 8.95353 89.612 9.7334C88.976 10.5132 88.658 11.6009 88.658 12.9964V20.8769H84.7176Z" fill="#343434"/>
<path d="M112.931 27.6492V5.60841H116.44L116.871 7.79402C117.364 7.11679 118.01 6.52165 118.811 6.00859C119.632 5.49554 120.689 5.23901 121.981 5.23901C123.418 5.23901 124.701 5.58789 125.829 6.28564C126.958 6.9834 127.851 7.93768 128.507 9.1485C129.164 10.3593 129.493 11.7343 129.493 13.2734C129.493 14.8126 129.164 16.1876 128.507 17.3984C127.851 18.5887 126.958 19.5327 125.829 20.2305C124.701 20.9077 123.418 21.2463 121.981 21.2463C120.832 21.2463 119.827 21.0308 118.965 20.5999C118.103 20.1689 117.405 19.5635 116.871 18.7836V27.6492H112.931ZM121.15 17.7986C122.402 17.7986 123.439 17.3779 124.259 16.5365C125.08 15.6951 125.491 14.6074 125.491 13.2734C125.491 11.9395 125.08 10.8416 124.259 9.9796C123.439 9.1177 122.402 8.68674 121.15 8.68674C119.878 8.68674 118.831 9.1177 118.01 9.9796C117.21 10.821 116.81 11.9087 116.81 13.2427C116.81 14.5766 117.21 15.6745 118.01 16.5365C118.831 17.3779 119.878 17.7986 121.15 17.7986Z" fill="#343434"/>
<path d="M137.661 21.2463C136.347 21.2463 135.27 21.0411 134.428 20.6306C133.587 20.1997 132.961 19.6353 132.551 18.9376C132.14 18.2398 131.935 17.4702 131.935 16.6288C131.935 15.2128 132.489 14.0635 133.597 13.1811C134.706 12.2986 136.368 11.8574 138.584 11.8574H142.463V11.488C142.463 10.4414 142.165 9.6718 141.57 9.1793C140.975 8.68674 140.236 8.44047 139.354 8.44047C138.553 8.44047 137.856 8.63543 137.261 9.0254C136.665 9.3948 136.296 9.9489 136.152 10.6877H132.304C132.407 9.5795 132.776 8.61491 133.413 7.79402C134.069 6.97314 134.911 6.34721 135.937 5.91625C136.963 5.46476 138.112 5.23901 139.385 5.23901C141.56 5.23901 143.274 5.78285 144.525 6.87053C145.777 7.9582 146.403 9.4974 146.403 11.488V20.8769H143.048L142.678 18.4142C142.227 19.2351 141.591 19.9124 140.77 20.4459C139.969 20.9795 138.933 21.2463 137.661 21.2463ZM138.553 18.168C139.682 18.168 140.554 17.7986 141.17 17.0598C141.806 16.321 142.206 15.4077 142.371 14.3201H139.015C137.969 14.3201 137.219 14.515 136.768 14.905C136.317 15.2744 136.091 15.7361 136.091 16.2902C136.091 16.8853 136.317 17.3471 136.768 17.6755C137.219 18.0038 137.815 18.168 138.553 18.168Z" fill="#343434"/>
<path d="M149.548 20.8769V5.60841H153.026L153.334 8.19421C153.806 7.29123 154.483 6.57295 155.366 6.03938C156.269 5.5058 157.326 5.23901 158.536 5.23901C160.424 5.23901 161.892 5.83416 162.938 7.02444C163.985 8.21473 164.508 9.9591 164.508 12.2576V20.8769H160.568V12.627C160.568 11.3136 160.301 10.308 159.768 9.6102C159.234 8.91248 158.403 8.56361 157.274 8.56361C156.166 8.56361 155.253 8.95353 154.534 9.7334C153.837 10.5132 153.488 11.6009 153.488 12.9964V20.8769H149.548Z" fill="#343434"/>
<path d="M169.058 27.6492L172.598 19.8611H171.675L165.733 5.60841H170.012L174.291 16.3518L178.755 5.60841H182.941L173.244 27.6492H169.058Z" fill="#343434"/>
<path d="M14.3732 25.0424C13.3696 26.0459 11.7421 26.0445 10.7403 25.0392L0.808633 15.0734C-0.190758 14.0706 -0.189369 12.4479 0.811733 11.4468L10.7434 1.51513C11.7445 0.51402 13.3672 0.51263 14.3701 1.51201L24.3359 11.4437C25.3411 12.4455 25.3425 14.073 24.339 15.0765L14.3732 25.0424Z" fill="#626262"/>
<path d="M27.9723 25.0383C26.9705 26.0435 25.343 26.0449 24.3395 25.0414L14.3736 15.0756C13.3701 14.072 13.3715 12.4445 14.3768 11.4427L24.3426 1.51104C25.3454 0.511649 26.9681 0.513039 27.9692 1.51415L37.9009 11.4458C38.902 12.4469 38.9034 14.0696 37.904 15.0724L27.9723 25.0383Z" fill="#CACACA"/>
</svg>
