<svg width="170" height="29" viewBox="0 0 170 29" fill="none" xmlns="http://www.w3.org/2000/svg">
<path d="M59.2701 15.5704C58.0412 17.5639 56.2935 18.7109 54.0269 18.7109C50.75 18.7109 48.3469 16.062 48.3469 12.6485C48.3469 9.23497 50.6407 6.6134 54.0816 6.6134C56.2662 6.6134 58.2324 7.84226 59.2155 9.69921L62.3832 7.18687C60.772 4.31953 57.8501 2.59912 54.1362 2.59912C48.183 2.59912 44.0049 7.02302 44.0049 12.6485C44.0049 18.2739 48.2649 22.7251 54.0816 22.7251C57.7408 22.7251 60.7993 20.7863 62.4651 18.0282L59.2701 15.5704Z" fill="#343434"/>
<path d="M71.1397 8.06073C66.7704 8.06073 63.63 11.2285 63.63 15.3793C63.63 19.5028 66.7704 22.7251 71.1397 22.7251C75.509 22.7251 78.6494 19.5028 78.6494 15.3793C78.6494 11.2285 75.509 8.06073 71.1397 8.06073ZM71.1397 11.7473C73.0239 11.7473 74.444 13.1946 74.444 15.3793C74.444 17.5639 73.0239 19.0386 71.1397 19.0386C69.2554 19.0386 67.8354 17.5639 67.8354 15.3793C67.8354 13.1946 69.2554 11.7473 71.1397 11.7473Z" fill="#343434"/>
<path d="M81.3625 8.38843V22.3974H85.5133V15.1062C85.5133 13.2766 86.4691 11.72 88.2168 11.72C89.7461 11.72 90.7292 12.6758 90.7292 14.5054V22.3974H94.88V15.1062C94.88 13.2766 95.8358 11.72 97.5835 11.72C99.1127 11.72 100.069 12.6758 100.069 14.5054V22.3974H104.219V13.8773C104.219 10.2454 102.171 8.06073 98.8123 8.06073C96.4365 8.06073 95.0984 9.09843 94.088 10.5185C93.1323 8.96189 91.603 8.06073 89.4457 8.06073C87.616 8.06073 86.2506 8.77074 85.3495 10.1908V8.38843H81.3625Z" fill="#343434"/>
<path d="M115.11 11.72C116.885 11.72 118.359 13.1673 118.359 15.4339C118.359 17.6185 116.885 19.0659 115.11 19.0659C113.253 19.0659 111.805 17.6459 111.805 15.4339C111.805 13.14 113.253 11.72 115.11 11.72ZM111.614 8.38843H107.764V27.8591H111.915V20.8682C112.789 22.179 114.454 22.7251 115.956 22.7251C119.779 22.7251 122.537 19.5574 122.537 15.3793C122.537 11.0646 119.561 8.06073 115.984 8.06073C114.618 8.06073 112.707 8.6342 111.614 10.3273V8.38843Z" fill="#343434"/>
<path d="M132.522 13.6862L128.699 14.4235C125.75 15.0516 124.138 16.4716 124.138 18.547C124.138 20.9774 126.05 22.7251 128.781 22.7251C130.638 22.7251 132.003 21.9059 132.659 20.677V22.3974H136.509V13.577C136.509 10.1634 134.188 8.06073 130.283 8.06073C127.661 8.06073 125.558 9.15305 124.275 10.7096L126.432 13.3312C127.279 12.3754 128.48 11.6381 130.037 11.6381C131.457 11.6381 132.522 12.1842 132.522 13.577V13.6862ZM129.709 19.6393C128.726 19.6393 128.098 19.0932 128.098 18.3012C128.098 17.5366 128.644 17.0451 129.764 16.8539L132.549 16.3078V16.7174C132.549 18.3832 131.43 19.6393 129.709 19.6393Z" fill="#343434"/>
<path d="M140.005 8.38843V22.3974H144.156V15.1062C144.156 13.2766 145.112 11.72 146.914 11.72C148.444 11.72 149.427 12.6758 149.427 14.5054V22.3974H153.578V13.8773C153.578 10.2454 151.502 8.06073 148.143 8.06073C146.259 8.06073 144.894 8.77074 143.992 10.1908V8.38843H140.005Z" fill="#343434"/>
<path d="M160.355 21.8786L160.191 22.3428C159.59 24.3363 158.58 24.6913 157.488 24.6913C157.023 24.6913 156.313 24.6367 155.576 24.2271V27.6679C156.204 27.9683 157.105 28.1868 158.088 28.1868C160.737 28.1868 162.43 26.9306 163.823 23.5444L169.94 8.38843H165.707L162.43 17.5639L159.181 8.38843H154.839L160.355 21.8786Z" fill="#343434"/>
<path d="M19.3079 0.702393H14.9083C14.4646 0.702393 14.105 1.06205 14.105 1.50572V24.7502C14.105 25.1938 14.4646 25.5535 14.9083 25.5535H19.3079C19.7515 25.5535 20.1112 25.1938 20.1112 24.7502V1.50572C20.1112 1.06206 19.7515 0.702393 19.3079 0.702393Z" fill="#343434"/>
<path d="M28.1699 25.5532C30.9896 25.5532 33.2754 23.2674 33.2754 20.4478C33.2754 17.6281 30.9896 15.3423 28.1699 15.3423C25.3503 15.3423 23.0645 17.6281 23.0645 20.4478C23.0645 23.2674 25.3503 25.5532 28.1699 25.5532Z" fill="#626262"/>
<path d="M28.1699 10.9133C30.9896 10.9133 33.2754 8.62754 33.2754 5.80786C33.2754 2.98819 30.9896 0.702393 28.1699 0.702393C25.3503 0.702393 23.0645 2.98819 23.0645 5.80786C23.0645 8.62754 25.3503 10.9133 28.1699 10.9133Z" fill="#626262"/>
<path d="M6.04688 25.5532C8.86655 25.5532 11.1523 23.2674 11.1523 20.4478C11.1523 17.6281 8.86655 15.3423 6.04688 15.3423C3.2272 15.3423 0.941406 17.6281 0.941406 20.4478C0.941406 23.2674 3.2272 25.5532 6.04688 25.5532Z" fill="#626262"/>
</svg>
