<svg width="195" height="29" viewBox="0 0 195 29" fill="none" xmlns="http://www.w3.org/2000/svg">
<path d="M68.3029 22.2463C66.7433 22.2463 65.3683 21.9077 64.178 21.2305C62.9877 20.5532 62.0437 19.6092 61.3459 18.3984C60.6687 17.1876 60.3301 15.8023 60.3301 14.2427C60.3301 12.683 60.6687 11.2977 61.3459 10.0869C62.0437 8.87611 62.9877 7.93209 64.178 7.25486C65.3683 6.57763 66.7433 6.23901 68.3029 6.23901C70.2526 6.23901 71.8943 6.75207 73.2283 7.77818C74.5622 8.78376 75.4139 10.1793 75.7833 11.9647H71.6275C71.4223 11.2259 71.0119 10.6513 70.3962 10.2408C69.8011 9.80987 69.093 9.59439 68.2722 9.59439C67.1845 9.59439 66.261 10.0048 65.5017 10.8257C64.7423 11.6466 64.3627 12.7856 64.3627 14.2427C64.3627 15.6997 64.7423 16.8387 65.5017 17.6596C66.261 18.4805 67.1845 18.8909 68.2722 18.8909C69.093 18.8909 69.8011 18.6857 70.3962 18.2753C71.0119 17.8648 71.4223 17.2799 71.6275 16.5206H75.7833C75.4139 18.2445 74.5622 19.6297 73.2283 20.6764C71.8943 21.723 70.2526 22.2463 68.3029 22.2463Z" fill="#343434"/>
<path d="M85.9913 22.2463C84.5137 22.2463 83.1798 21.9077 81.9895 21.2305C80.8197 20.5532 79.8859 19.6195 79.1882 18.4292C78.511 17.2184 78.1723 15.8229 78.1723 14.2427C78.1723 12.6625 78.5212 11.2772 79.219 10.0869C79.9167 8.87611 80.8505 7.93209 82.0203 7.25486C83.2105 6.57763 84.5445 6.23901 86.0221 6.23901C87.4792 6.23901 88.7926 6.57763 89.9623 7.25486C91.1526 7.93209 92.0864 8.87611 92.7636 10.0869C93.4614 11.2772 93.8102 12.6625 93.8102 14.2427C93.8102 15.8229 93.4614 17.2184 92.7636 18.4292C92.0864 19.6195 91.1526 20.5532 89.9623 21.2305C88.772 21.9077 87.4484 22.2463 85.9913 22.2463ZM85.9913 18.8294C87.0174 18.8294 87.9101 18.4497 88.6694 17.6904C89.4288 16.9105 89.8084 15.7613 89.8084 14.2427C89.8084 12.724 89.4288 11.585 88.6694 10.8257C87.9101 10.0459 87.0277 9.65596 86.0221 9.65596C84.9754 9.65596 84.0725 10.0459 83.3132 10.8257C82.5744 11.585 82.205 12.724 82.205 14.2427C82.205 15.7613 82.5744 16.9105 83.3132 17.6904C84.0725 18.4497 84.9652 18.8294 85.9913 18.8294Z" fill="#343434"/>
<path d="M96.7176 21.8769V6.60841H100.196L100.535 8.67089C101.027 7.93209 101.674 7.34721 102.474 6.91625C103.295 6.46476 104.239 6.23901 105.306 6.23901C107.666 6.23901 109.339 7.15225 110.324 8.97872C110.878 8.13731 111.617 7.47034 112.54 6.97781C113.484 6.48528 114.51 6.23901 115.619 6.23901C117.609 6.23901 119.138 6.83416 120.205 8.02444C121.272 9.21473 121.806 10.9591 121.806 13.2576V21.8769H117.866V13.627C117.866 12.3136 117.609 11.308 117.096 10.6102C116.604 9.91248 115.834 9.56361 114.787 9.56361C113.72 9.56361 112.858 9.95353 112.202 10.7334C111.565 11.5132 111.247 12.6009 111.247 13.9964V21.8769H107.307V13.627C107.307 12.3136 107.05 11.308 106.537 10.6102C106.024 9.91248 105.234 9.56361 104.167 9.56361C103.12 9.56361 102.269 9.95353 101.612 10.7334C100.976 11.5132 100.658 12.6009 100.658 13.9964V21.8769H96.7176Z" fill="#343434"/>
<path d="M124.931 28.6492V6.60841H128.44L128.871 8.79402C129.364 8.11679 130.01 7.52165 130.811 7.00859C131.632 6.49554 132.689 6.23901 133.981 6.23901C135.418 6.23901 136.701 6.58789 137.829 7.28564C138.958 7.9834 139.851 8.93768 140.507 10.1485C141.164 11.3593 141.493 12.7343 141.493 14.2734C141.493 15.8126 141.164 17.1876 140.507 18.3984C139.851 19.5887 138.958 20.5327 137.829 21.2305C136.701 21.9077 135.418 22.2463 133.981 22.2463C132.832 22.2463 131.827 22.0308 130.965 21.5999C130.103 21.1689 129.405 20.5635 128.871 19.7836V28.6492H124.931ZM133.15 18.7986C134.402 18.7986 135.439 18.3779 136.259 17.5365C137.08 16.6951 137.491 15.6074 137.491 14.2734C137.491 12.9395 137.08 11.8416 136.259 10.9796C135.439 10.1177 134.402 9.68674 133.15 9.68674C131.878 9.68674 130.831 10.1177 130.01 10.9796C129.21 11.821 128.81 12.9087 128.81 14.2427C128.81 15.5766 129.21 16.6745 130.01 17.5365C130.831 18.3779 131.878 18.7986 133.15 18.7986Z" fill="#343434"/>
<path d="M149.661 22.2463C148.347 22.2463 147.27 22.0411 146.428 21.6306C145.587 21.1997 144.961 20.6353 144.551 19.9376C144.14 19.2398 143.935 18.4702 143.935 17.6288C143.935 16.2128 144.489 15.0635 145.597 14.1811C146.706 13.2986 148.368 12.8574 150.584 12.8574H154.463V12.488C154.463 11.4414 154.165 10.6718 153.57 10.1793C152.975 9.68674 152.236 9.44047 151.354 9.44047C150.553 9.44047 149.856 9.63543 149.261 10.0254C148.665 10.3948 148.296 10.9489 148.152 11.6877H144.304C144.407 10.5795 144.776 9.61491 145.413 8.79402C146.069 7.97314 146.911 7.34721 147.937 6.91625C148.963 6.46476 150.112 6.23901 151.385 6.23901C153.56 6.23901 155.274 6.78285 156.525 7.87053C157.777 8.9582 158.403 10.4974 158.403 12.488V21.8769H155.048L154.678 19.4142C154.227 20.2351 153.591 20.9124 152.77 21.4459C151.969 21.9795 150.933 22.2463 149.661 22.2463ZM150.553 19.168C151.682 19.168 152.554 18.7986 153.17 18.0598C153.806 17.321 154.206 16.4077 154.371 15.3201H151.015C149.969 15.3201 149.219 15.515 148.768 15.905C148.317 16.2744 148.091 16.7361 148.091 17.2902C148.091 17.8853 148.317 18.3471 148.768 18.6755C149.219 19.0038 149.815 19.168 150.553 19.168Z" fill="#343434"/>
<path d="M161.548 21.8769V6.60841H165.026L165.334 9.19421C165.806 8.29123 166.483 7.57295 167.366 7.03938C168.269 6.5058 169.326 6.23901 170.536 6.23901C172.424 6.23901 173.892 6.83416 174.938 8.02444C175.985 9.21473 176.508 10.9591 176.508 13.2576V21.8769H172.568V13.627C172.568 12.3136 172.301 11.308 171.768 10.6102C171.234 9.91248 170.403 9.56361 169.274 9.56361C168.166 9.56361 167.253 9.95353 166.534 10.7334C165.837 11.5132 165.488 12.6009 165.488 13.9964V21.8769H161.548Z" fill="#343434"/>
<path d="M181.058 28.6492L184.598 20.8611H183.675L177.733 6.60841H182.012L186.291 17.3518L190.755 6.60841H194.941L185.244 28.6492H181.058Z" fill="#343434"/>
<path d="M15.3732 26.0424C14.3696 27.0459 12.7421 27.0445 11.7403 26.0392L1.80865 16.0734C0.809259 15.0706 0.810648 13.4479 1.81175 12.4468L11.7434 2.51513C12.7445 1.51402 14.3672 1.51263 15.3701 2.51201L25.3359 12.4437C26.3411 13.4455 26.3425 15.073 25.339 16.0765L15.3732 26.0424Z" fill="#626262"/>
<path d="M28.9723 26.0383C27.9705 27.0435 26.343 27.0449 25.3395 26.0414L15.3736 16.0756C14.3701 15.072 14.3715 13.4445 15.3768 12.4427L25.3426 2.51104C26.3454 1.51165 27.9681 1.51304 28.9692 2.51415L38.9009 12.4458C39.902 13.4469 39.9034 15.0696 38.904 16.0724L28.9723 26.0383Z" fill="#343434"/>
<path d="M39.0525 26.0402C38.0499 27.0444 36.4226 27.0444 35.4199 26.0402L25.4695 16.0741C24.4678 15.0709 24.4692 13.4456 25.4726 12.4441L35.4231 2.51219C36.425 1.51212 38.0475 1.51212 39.0494 2.51219L48.9999 12.4441C50.0032 13.4456 50.0046 15.0709 49.003 16.0741L39.0525 26.0402Z" fill="#626262"/>
</svg>
