<svg width="173" height="29" viewBox="0 0 173 29" fill="none" xmlns="http://www.w3.org/2000/svg">
<path d="M22.4073 12.5342C18.7485 12.5342 15.7785 9.57548 15.7785 5.93923C15.7785 5.46494 15.835 5.01323 15.9253 4.56152H7.11704C3.70665 4.56152 0.939941 7.31694 0.939941 10.7047V22.0539C0.939941 25.453 3.70665 28.1971 7.11704 28.1971H18.5226C21.9443 28.1971 24.6997 25.4417 24.6997 22.0539V12.1163C23.9996 12.3761 23.2204 12.5342 22.4073 12.5342Z" fill="#343434"/>
<path d="M24.7105 22.0539V12.1163C23.999 12.3761 23.2199 12.5342 22.4181 12.5342C18.7592 12.5342 15.7893 9.57548 15.7893 5.93923C15.7893 5.46494 15.8457 5.01323 15.9361 4.56152H7.12778C3.73998 4.56152 0.995854 7.27177 0.950684 10.637C9.08142 13.9909 17.438 18.0676 24.6653 22.8331C24.6879 22.5734 24.7105 22.3136 24.7105 22.0539Z" fill="#343434"/>
<path d="M22.9146 10.256C25.5684 10.256 27.714 8.12169 27.714 5.4792C27.714 2.848 25.5684 0.702393 22.9146 0.702393C20.2608 0.702393 18.1152 2.83671 18.1152 5.4792C18.1152 8.11039 20.2608 10.256 22.9146 10.256Z" fill="#626262"/>
<path d="M51.9924 16.3325C51.8035 17.1353 51.4848 17.9145 51.0362 18.67C50.5876 19.402 50.0327 20.0631 49.3716 20.6534C48.7105 21.22 47.9549 21.6804 47.1049 22.0346C46.2549 22.3652 45.3459 22.5304 44.3778 22.5304C43.2681 22.5304 42.2174 22.318 41.2257 21.8929C40.2577 21.4443 39.3958 20.8422 38.6403 20.0867C37.9083 19.3311 37.3181 18.4575 36.8694 17.4658C36.4444 16.4506 36.2319 15.3644 36.2319 14.2075C36.2319 13.0505 36.4444 11.9762 36.8694 10.9846C37.3181 9.96927 37.9083 9.08384 38.6403 8.32829C39.3958 7.57273 40.2577 6.98244 41.2257 6.55744C42.2174 6.10883 43.2681 5.88452 44.3778 5.88452C45.3459 5.88452 46.2549 6.06161 47.1049 6.41577C47.9549 6.74633 48.7105 7.20675 49.3716 7.79703C50.0327 8.3637 50.5876 9.02482 51.0362 9.78038C51.4848 10.5123 51.8035 11.2797 51.9924 12.0825H47.9195C47.7306 11.6575 47.4709 11.2797 47.1403 10.9491C46.857 10.6658 46.491 10.4061 46.0424 10.17C45.5938 9.91024 45.0389 9.78038 44.3778 9.78038C43.2209 9.78038 42.2528 10.1818 41.4736 10.9846C40.6945 11.7873 40.3049 12.8616 40.3049 14.2075C40.3049 15.5533 40.6945 16.6276 41.4736 17.4304C42.2528 18.2332 43.2209 18.6346 44.3778 18.6346C45.0389 18.6346 45.5938 18.5165 46.0424 18.2804C46.491 18.0443 46.857 17.7846 47.1403 17.5013C47.4709 17.1707 47.7306 16.7811 47.9195 16.3325H51.9924Z" fill="#343434"/>
<path d="M58.7216 14.2075C58.7216 15.5533 59.1112 16.6276 59.8904 17.4304C60.6696 18.2332 61.6376 18.6346 62.7946 18.6346C63.9515 18.6346 64.9196 18.2332 65.6988 17.4304C66.4779 16.6276 66.8675 15.5533 66.8675 14.2075C66.8675 12.8616 66.4779 11.7873 65.6988 10.9846C64.9196 10.1818 63.9515 9.78038 62.7946 9.78038C61.6376 9.78038 60.6696 10.1818 59.8904 10.9846C59.1112 11.7873 58.7216 12.8616 58.7216 14.2075ZM70.9405 14.2075C70.9405 15.3644 70.7162 16.4506 70.2675 17.4658C69.8425 18.4575 69.2523 19.3311 68.4967 20.0867C67.7647 20.8422 66.9029 21.4443 65.9113 21.8929C64.9432 22.318 63.9043 22.5304 62.7946 22.5304C61.6849 22.5304 60.6342 22.318 59.6425 21.8929C58.6744 21.4443 57.8126 20.8422 57.0571 20.0867C56.3251 19.3311 55.7348 18.4575 55.2862 17.4658C54.8612 16.4506 54.6487 15.3644 54.6487 14.2075C54.6487 13.0505 54.8612 11.9762 55.2862 10.9846C55.7348 9.96927 56.3251 9.08384 57.0571 8.32829C57.8126 7.57273 58.6744 6.98244 59.6425 6.55744C60.6342 6.10883 61.6849 5.88452 62.7946 5.88452C63.9043 5.88452 64.9432 6.10883 65.9113 6.55744C66.9029 6.98244 67.7647 7.57273 68.4967 8.32829C69.2523 9.08384 69.8425 9.96927 70.2675 10.9846C70.7162 11.9762 70.9405 13.0505 70.9405 14.2075Z" fill="#343434"/>
<path d="M82.2573 5.88452C83.0836 5.88452 83.792 6.00258 84.3823 6.23869C84.9725 6.45119 85.4566 6.6873 85.8344 6.94703C86.2594 7.25397 86.6017 7.60814 86.8614 8.00953C87.2392 7.60814 87.676 7.25397 88.1719 6.94703C88.5969 6.6873 89.1045 6.45119 89.6948 6.23869C90.2851 6.00258 90.9344 5.88452 91.6427 5.88452C93.4136 5.88452 94.8302 6.45119 95.8927 7.58453C96.9553 8.71787 97.4865 10.3943 97.4865 12.6137V22.3534H93.4136V12.9679C93.4136 11.9762 93.142 11.1971 92.599 10.6304C92.0795 10.0637 91.4656 9.78038 90.7573 9.78038C90.049 9.78038 89.4233 10.0637 88.8802 10.6304C88.3608 11.1971 88.101 11.9762 88.101 12.9679V22.3534H84.0281V12.9679C84.0281 11.9762 83.7566 11.1971 83.2135 10.6304C82.6941 10.0637 82.0802 9.78038 81.3718 9.78038C80.6635 9.78038 80.0378 10.0637 79.4947 10.6304C78.9753 11.1971 78.7156 11.9762 78.7156 12.9679V22.3534H74.6426V6.06161H77.6531L78.3614 7.65536C78.692 7.32481 79.0579 7.02967 79.4593 6.76994C79.7899 6.55744 80.1913 6.35675 80.6635 6.16786C81.1357 5.97897 81.667 5.88452 82.2573 5.88452Z" fill="#343434"/>
<path d="M110.237 5.88452C111.252 5.88452 112.22 6.09702 113.141 6.52203C114.062 6.92342 114.864 7.50189 115.549 8.25745C116.257 8.9894 116.812 9.86302 117.214 10.8783C117.639 11.8936 117.851 13.0033 117.851 14.2075C117.851 15.4117 117.639 16.5214 117.214 17.5367C116.812 18.552 116.257 19.4374 115.549 20.1929C114.864 20.9249 114.062 21.5034 113.141 21.9284C112.22 22.3298 111.252 22.5304 110.237 22.5304C109.552 22.5304 108.95 22.4478 108.43 22.2825C107.934 22.1173 107.498 21.9402 107.12 21.7513C106.695 21.5152 106.317 21.2436 105.987 20.9367V28.0201H101.914V6.06161H104.924L105.632 7.65536C105.987 7.32481 106.4 7.02967 106.872 6.76994C107.273 6.55744 107.757 6.35675 108.324 6.16786C108.891 5.97897 109.528 5.88452 110.237 5.88452ZM105.632 14.2075C105.632 15.5533 106.022 16.6276 106.801 17.4304C107.58 18.2332 108.548 18.6346 109.705 18.6346C110.862 18.6346 111.83 18.2332 112.61 17.4304C113.389 16.6276 113.778 15.5533 113.778 14.2075C113.778 12.8616 113.389 11.7873 112.61 10.9846C111.83 10.1818 110.862 9.78038 109.705 9.78038C108.548 9.78038 107.58 10.1818 106.801 10.9846C106.022 11.7873 105.632 12.8616 105.632 14.2075Z" fill="#343434"/>
<path d="M128.305 5.88452C129.226 5.88452 130.076 6.0498 130.855 6.38036C131.634 6.6873 132.307 7.12411 132.873 7.69078C133.44 8.25745 133.877 8.93037 134.184 9.70954C134.514 10.4887 134.68 11.3387 134.68 12.2596V22.3534H131.669L130.961 20.7596C130.583 21.0902 130.17 21.3853 129.721 21.645C129.32 21.8811 128.836 22.0936 128.269 22.2825C127.703 22.4478 127.065 22.5304 126.357 22.5304C124.586 22.5304 123.228 22.1054 122.284 21.2554C121.339 20.3818 120.867 19.2721 120.867 17.9263C120.867 17.1235 121.021 16.3915 121.328 15.7304C121.658 15.0457 122.201 14.4672 122.957 13.995C123.712 13.4991 124.704 13.1214 125.932 12.8616C127.183 12.5783 128.742 12.4366 130.607 12.4366C130.607 11.5394 130.359 10.8429 129.863 10.347C129.391 9.85121 128.753 9.60329 127.951 9.60329C127.407 9.60329 126.971 9.69774 126.64 9.88663C126.333 10.0755 126.085 10.2762 125.896 10.4887C125.684 10.7484 125.542 11.0436 125.471 11.3741H121.398C121.493 10.6186 121.705 9.91024 122.036 9.24912C122.39 8.58801 122.862 8.00953 123.453 7.5137C124.043 7.01786 124.739 6.62828 125.542 6.34494C126.369 6.03799 127.289 5.88452 128.305 5.88452ZM127.065 19.3429C128.128 19.3429 128.978 19.036 129.615 18.4221C130.276 17.7846 130.607 16.97 130.607 15.9783V15.27C129.403 15.27 128.435 15.329 127.703 15.4471C126.971 15.5415 126.392 15.695 125.967 15.9075C125.566 16.0964 125.294 16.3325 125.153 16.6158C125.011 16.8992 124.94 17.2179 124.94 17.5721C124.94 18.0207 125.141 18.4339 125.542 18.8117C125.944 19.1658 126.451 19.3429 127.065 19.3429Z" fill="#343434"/>
<path d="M147.416 5.88452C148.384 5.88452 149.269 6.0498 150.072 6.38036C150.875 6.6873 151.56 7.14772 152.126 7.76162C152.717 8.3519 153.165 9.07204 153.472 9.92204C153.803 10.772 153.968 11.7283 153.968 12.7908V22.3534H149.895V13.3221C149.895 12.2596 149.576 11.4096 148.939 10.772C148.325 10.1109 147.522 9.78038 146.531 9.78038C145.539 9.78038 144.724 10.1109 144.087 10.772C143.473 11.4096 143.166 12.2596 143.166 13.3221V22.3534H139.093V6.06161H142.103L142.812 7.65536C143.213 7.32481 143.65 7.02967 144.122 6.76994C144.524 6.55744 144.996 6.35675 145.539 6.16786C146.106 5.97897 146.731 5.88452 147.416 5.88452Z" fill="#343434"/>
<path d="M156.638 6.06161H160.888L164.961 16.6867L168.68 6.06161H172.93C171.773 9.03662 170.722 11.7283 169.778 14.1367C169.376 15.1755 168.975 16.1908 168.574 17.1825C168.196 18.1742 167.854 19.0832 167.547 19.9096C167.24 20.7124 166.98 21.3853 166.767 21.9284C166.555 22.4714 166.425 22.7902 166.378 22.8846C165.976 23.8527 165.575 24.6673 165.174 25.3284C164.796 26.0131 164.383 26.568 163.934 26.993C163.485 27.418 163.001 27.7249 162.482 27.9138C161.963 28.1027 161.372 28.1971 160.711 28.1971C160.522 28.1971 160.333 28.1853 160.144 28.1617C159.979 28.1617 159.838 28.1499 159.719 28.1263C159.554 28.1027 159.413 28.0673 159.294 28.0201V24.6555C160.192 24.6555 160.876 24.4548 161.349 24.0534C161.844 23.652 162.222 23.1443 162.482 22.5304L162.836 21.645L156.638 6.06161Z" fill="#343434"/>
</svg>
