<?xml version="1.0" encoding="utf-8"?>
<!-- Generator: Adobe Illustrator 24.0.1, SVG Export Plug-In . SVG Version: 6.00 Build 0)  -->
<svg version="1.1" id="Layer_1" xmlns="http://www.w3.org/2000/svg" xmlns:xlink="http://www.w3.org/1999/xlink" x="0px" y="0px"
	 viewBox="0 0 170 29" style="enable-background:new 0 0 170 29;" xml:space="preserve">
<style type="text/css">
	.st0{fill:#343434;}
	.st1{fill:#626262;}
</style>
<path class="st0" d="M59.3,15.6c-1.2,2-3,3.1-5.2,3.1c-3.3,0-5.7-2.6-5.7-6.1c0-3.4,2.3-6,5.7-6c2.2,0,4.2,1.2,5.1,3.1l3.2-2.5
	c-1.6-2.9-4.5-4.6-8.2-4.6c-6,0-10.1,4.4-10.1,10c0,5.6,4.3,10.1,10.1,10.1c3.7,0,6.7-1.9,8.4-4.7L59.3,15.6z"/>
<path class="st0" d="M71.1,8.1c-4.4,0-7.5,3.2-7.5,7.3c0,4.1,3.1,7.3,7.5,7.3s7.5-3.2,7.5-7.3C78.6,11.2,75.5,8.1,71.1,8.1z
	 M71.1,11.7c1.9,0,3.3,1.4,3.3,3.6c0,2.2-1.4,3.7-3.3,3.7c-1.9,0-3.3-1.5-3.3-3.7C67.8,13.2,69.3,11.7,71.1,11.7z"/>
<path class="st0" d="M81.4,8.4v14h4.2v-7.3c0-1.8,1-3.4,2.7-3.4c1.5,0,2.5,1,2.5,2.8v7.9h4.2v-7.3c0-1.8,1-3.4,2.7-3.4
	c1.5,0,2.5,1,2.5,2.8v7.9h4.2v-8.5c0-3.6-2-5.8-5.4-5.8c-2.4,0-3.7,1-4.7,2.5c-1-1.6-2.5-2.5-4.6-2.5c-1.8,0-3.2,0.7-4.1,2.1V8.4
	H81.4z"/>
<path class="st0" d="M115.1,11.7c1.8,0,3.2,1.4,3.2,3.7c0,2.2-1.5,3.6-3.2,3.6c-1.9,0-3.3-1.4-3.3-3.6
	C111.8,13.1,113.3,11.7,115.1,11.7z M111.6,8.4h-3.8v19.5h4.2v-7c0.9,1.3,2.5,1.9,4,1.9c3.8,0,6.6-3.2,6.6-7.3c0-4.3-3-7.3-6.6-7.3
	c-1.4,0-3.3,0.6-4.4,2.3V8.4z"/>
<path class="st0" d="M132.5,13.7l-3.8,0.7c-2.9,0.6-4.6,2-4.6,4.1c0,2.4,1.9,4.2,4.6,4.2c1.9,0,3.2-0.8,3.9-2v1.7h3.9v-8.8
	c0-3.4-2.3-5.5-6.2-5.5c-2.6,0-4.7,1.1-6,2.6l2.2,2.6c0.8-1,2-1.7,3.6-1.7c1.4,0,2.5,0.5,2.5,1.9V13.7z M129.7,19.6
	c-1,0-1.6-0.5-1.6-1.3c0-0.8,0.5-1.3,1.7-1.4l2.8-0.5v0.4C132.5,18.4,131.4,19.6,129.7,19.6z"/>
<path class="st0" d="M140,8.4v14h4.2v-7.3c0-1.8,1-3.4,2.8-3.4c1.5,0,2.5,1,2.5,2.8v7.9h4.2v-8.5c0-3.6-2.1-5.8-5.4-5.8
	c-1.9,0-3.2,0.7-4.2,2.1V8.4H140z"/>
<path class="st0" d="M160.4,21.9l-0.2,0.5c-0.6,2-1.6,2.3-2.7,2.3c-0.5,0-1.2-0.1-1.9-0.5v3.4c0.6,0.3,1.5,0.5,2.5,0.5
	c2.6,0,4.3-1.3,5.7-4.6l6.1-15.2h-4.2l-3.3,9.2l-3.2-9.2h-4.3L160.4,21.9z"/>
<path class="st0" d="M19.3,0.7h-4.4c-0.4,0-0.8,0.4-0.8,0.8v23.2c0,0.4,0.4,0.8,0.8,0.8h4.4c0.4,0,0.8-0.4,0.8-0.8V1.5
	C20.1,1.1,19.8,0.7,19.3,0.7z"/>
<path class="st1" d="M6,25.6c2.8,0,5.1-2.3,5.1-5.1c0-2.8-2.3-5.1-5.1-5.1c-2.8,0-5.1,2.3-5.1,5.1C0.9,23.3,3.2,25.6,6,25.6z"/>
<path class="st1" d="M29,24.6c-0.8,0.8-2.1,0.8-2.9,0l-7.8-7.9c-0.8-0.8-0.8-2.1,0-2.9l7.8-7.8c0.8-0.8,2.1-0.8,2.9,0l7.9,7.8
	c0.8,0.8,0.8,2.1,0,2.9L29,24.6z"/>
</svg>
