<?xml version="1.0" encoding="utf-8"?>
<!-- Generator: Adobe Illustrator 24.0.1, SVG Export Plug-In . SVG Version: 6.00 Build 0)  -->
<svg version="1.1" id="Layer_1" xmlns="http://www.w3.org/2000/svg" xmlns:xlink="http://www.w3.org/1999/xlink" x="0px" y="0px"
	 viewBox="0 0 183 28" style="enable-background:new 0 0 183 28;" xml:space="preserve">
<style type="text/css">
	.st0{fill:#343434;}
	.st1{fill:#626262;}
	.st2{fill:#CACACA;}
	.st3{fill:#AAAAAA;}
</style>
<path class="st0" d="M53.4,22.6c-2,0-3.8-0.4-5.3-1.3c-1.5-0.9-2.8-2.1-3.7-3.7c-0.9-1.6-1.3-3.4-1.3-5.4c0-2,0.4-3.8,1.3-5.4
	c0.9-1.6,2.1-2.8,3.7-3.7c1.5-0.9,3.3-1.3,5.3-1.3c2.5,0,4.6,0.7,6.4,2c1.7,1.3,2.8,3.1,3.3,5.4h-5.4c-0.3-1-0.8-1.7-1.6-2.2
	c-0.8-0.6-1.7-0.8-2.7-0.8c-1.4,0-2.6,0.5-3.6,1.6c-1,1.1-1.5,2.5-1.5,4.4c0,1.9,0.5,3.4,1.5,4.4c1,1.1,2.2,1.6,3.6,1.6
	c1.1,0,2-0.3,2.7-0.8c0.8-0.5,1.3-1.3,1.6-2.3h5.4c-0.5,2.2-1.6,4-3.3,5.4C58,21.9,55.9,22.6,53.4,22.6z"/>
<path class="st0" d="M74,21.2c-1.5,0-2.8-0.3-4-1c-1.2-0.7-2.1-1.6-2.8-2.8c-0.7-1.2-1-2.6-1-4.2s0.3-3,1-4.2
	c0.7-1.2,1.6-2.2,2.8-2.8c1.2-0.7,2.5-1,4-1c1.5,0,2.8,0.3,3.9,1c1.2,0.7,2.1,1.6,2.8,2.8c0.7,1.2,1,2.6,1,4.2s-0.3,3-1,4.2
	c-0.7,1.2-1.6,2.1-2.8,2.8C76.8,20.9,75.4,21.2,74,21.2z M74,17.8c1,0,1.9-0.4,2.7-1.1c0.8-0.8,1.1-1.9,1.1-3.4
	c0-1.5-0.4-2.7-1.1-3.4C75.9,9,75,8.7,74,8.7c-1,0-1.9,0.4-2.7,1.2c-0.7,0.8-1.1,1.9-1.1,3.4c0,1.5,0.4,2.7,1.1,3.4
	C72.1,17.4,73,17.8,74,17.8z"/>
<path class="st0" d="M84.7,20.9V5.6h3.5l0.3,2.1c0.5-0.7,1.1-1.3,1.9-1.8c0.8-0.5,1.8-0.7,2.8-0.7c2.4,0,4,0.9,5,2.7
	c0.6-0.8,1.3-1.5,2.2-2c0.9-0.5,2-0.7,3.1-0.7c2,0,3.5,0.6,4.6,1.8c1.1,1.2,1.6,2.9,1.6,5.2v8.6h-3.9v-8.2c0-1.3-0.3-2.3-0.8-3
	c-0.5-0.7-1.3-1-2.3-1c-1.1,0-1.9,0.4-2.6,1.2c-0.6,0.8-1,1.9-1,3.3v7.9h-3.9v-8.2c0-1.3-0.3-2.3-0.8-3c-0.5-0.7-1.3-1-2.4-1
	c-1,0-1.9,0.4-2.6,1.2c-0.6,0.8-1,1.9-1,3.3v7.9H84.7z"/>
<path class="st0" d="M112.9,27.6v-22h3.5l0.4,2.2c0.5-0.7,1.1-1.3,1.9-1.8c0.8-0.5,1.9-0.8,3.2-0.8c1.4,0,2.7,0.3,3.8,1
	c1.1,0.7,2,1.7,2.7,2.9c0.7,1.2,1,2.6,1,4.1c0,1.5-0.3,2.9-1,4.1c-0.7,1.2-1.5,2.1-2.7,2.8c-1.1,0.7-2.4,1-3.8,1
	c-1.1,0-2.2-0.2-3-0.6c-0.9-0.4-1.6-1-2.1-1.8v8.9H112.9z M121.2,17.8c1.3,0,2.3-0.4,3.1-1.3c0.8-0.8,1.2-1.9,1.2-3.3
	c0-1.3-0.4-2.4-1.2-3.3c-0.8-0.9-1.9-1.3-3.1-1.3c-1.3,0-2.3,0.4-3.1,1.3c-0.8,0.8-1.2,1.9-1.2,3.3c0,1.3,0.4,2.4,1.2,3.3
	C118.8,17.4,119.9,17.8,121.2,17.8z"/>
<path class="st0" d="M137.7,21.2c-1.3,0-2.4-0.2-3.2-0.6c-0.8-0.4-1.5-1-1.9-1.7c-0.4-0.7-0.6-1.5-0.6-2.3c0-1.4,0.6-2.6,1.7-3.4
	c1.1-0.9,2.8-1.3,5-1.3h3.9v-0.4c0-1-0.3-1.8-0.9-2.3c-0.6-0.5-1.3-0.7-2.2-0.7c-0.8,0-1.5,0.2-2.1,0.6c-0.6,0.4-1,0.9-1.1,1.7h-3.8
	c0.1-1.1,0.5-2.1,1.1-2.9c0.7-0.8,1.5-1.4,2.5-1.9c1-0.5,2.2-0.7,3.4-0.7c2.2,0,3.9,0.5,5.1,1.6c1.3,1.1,1.9,2.6,1.9,4.6v9.4H143
	l-0.4-2.5c-0.5,0.8-1.1,1.5-1.9,2C140,21,138.9,21.2,137.7,21.2z M138.6,18.2c1.1,0,2-0.4,2.6-1.1c0.6-0.7,1-1.7,1.2-2.7H139
	c-1,0-1.8,0.2-2.2,0.6c-0.5,0.4-0.7,0.8-0.7,1.4c0,0.6,0.2,1.1,0.7,1.4C137.2,18,137.8,18.2,138.6,18.2z"/>
<path class="st0" d="M149.5,20.9V5.6h3.5l0.3,2.6c0.5-0.9,1.1-1.6,2-2.2c0.9-0.5,2-0.8,3.2-0.8c1.9,0,3.4,0.6,4.4,1.8
	c1,1.2,1.6,2.9,1.6,5.2v8.6h-3.9v-8.2c0-1.3-0.3-2.3-0.8-3c-0.5-0.7-1.4-1-2.5-1c-1.1,0-2,0.4-2.7,1.2c-0.7,0.8-1,1.9-1,3.3v7.9
	H149.5z"/>
<path class="st0" d="M169.1,27.6l3.5-7.8h-0.9l-5.9-14.3h4.3l4.3,10.7l4.5-10.7h4.2l-9.7,22H169.1z"/>
<path class="st1" d="M14.4,25c-1,1-2.6,1-3.6,0l-9.9-10c-1-1-1-2.6,0-3.6l9.9-9.9c1-1,2.6-1,3.6,0l10,9.9c1,1,1,2.6,0,3.6L14.4,25z"
	/>
<path class="st2" d="M26.9,20.4c-1,1-2.6,1-3.6,0l-10-10c-1-1-1-2.6,0-3.6l10-9.9c1-1,2.6-1,3.6,0l9.9,9.9c1,1,1,2.6,0,3.6
	L26.9,20.4z"/>
<path class="st3" d="M26.9,30.9c-1,1-2.6,1-3.6,0l-10-10c-1-1-1-2.6,0-3.6l10-9.9c1-1,2.6-1,3.6,0l9.9,9.9c1,1,1,2.6,0,3.6
	L26.9,30.9z"/>
</svg>
