<svg width="176" height="29" viewBox="0 0 176 29" fill="none" xmlns="http://www.w3.org/2000/svg">
<path d="M39.5923 11.8221C39.5923 9.97336 40.0051 8.32205 40.8308 6.86819C41.6744 5.39638 42.8141 4.25663 44.25 3.44892C45.7039 2.62327 47.3283 2.21045 49.1232 2.21045C51.2232 2.21045 53.0629 2.74892 54.6424 3.82585C56.222 4.90279 57.3258 6.39255 57.954 8.29513H53.6194C53.1886 7.39769 52.5783 6.7246 51.7886 6.27588C51.0168 5.82716 50.1193 5.60279 49.0962 5.60279C48.0013 5.60279 47.0231 5.86305 46.1616 6.38357C45.318 6.88614 44.6539 7.6041 44.1693 8.53744C43.7026 9.47079 43.4693 10.5657 43.4693 11.8221C43.4693 13.0606 43.7026 14.1555 44.1693 15.1067C44.6539 16.0401 45.318 16.767 46.1616 17.2875C47.0231 17.7901 48.0013 18.0414 49.0962 18.0414C50.1193 18.0414 51.0168 17.817 51.7886 17.3683C52.5783 16.9016 53.1886 16.2196 53.6194 15.3221H57.954C57.3258 17.2427 56.222 18.7414 54.6424 19.8183C53.0809 20.8773 51.2411 21.4068 49.1232 21.4068C47.3283 21.4068 45.7039 21.003 44.25 20.1953C42.8141 19.3696 41.6744 18.2299 40.8308 16.776C40.0051 15.3221 39.5923 13.6708 39.5923 11.8221Z" fill="#343434"/>
<path d="M67.7966 21.4876C66.3607 21.4876 65.0684 21.1735 63.9197 20.5453C62.7709 19.8991 61.8645 18.9927 61.2004 17.826C60.5542 16.6593 60.2311 15.3132 60.2311 13.7875C60.2311 12.2618 60.5632 10.9157 61.2273 9.74899C61.9094 8.58231 62.8337 7.68487 64.0004 7.05666C65.1671 6.4105 66.4684 6.08742 67.9043 6.08742C69.3402 6.08742 70.6415 6.4105 71.8082 7.05666C72.9749 7.68487 73.8903 8.58231 74.5544 9.74899C75.2364 10.9157 75.5775 12.2618 75.5775 13.7875C75.5775 15.3132 75.2275 16.6593 74.5275 17.826C73.8454 18.9927 72.9121 19.8991 71.7274 20.5453C70.5607 21.1735 69.2505 21.4876 67.7966 21.4876ZM67.7966 18.2029C68.4787 18.2029 69.1159 18.0414 69.7082 17.7183C70.3184 17.3773 70.8031 16.8747 71.162 16.2106C71.521 15.5465 71.7005 14.7388 71.7005 13.7875C71.7005 12.3695 71.3236 11.2836 70.5697 10.5298C69.8338 9.75797 68.9274 9.37207 67.8505 9.37207C66.7735 9.37207 65.8671 9.75797 65.1312 10.5298C64.4132 11.2836 64.0543 12.3695 64.0543 13.7875C64.0543 15.2055 64.4043 16.3003 65.1043 17.0722C65.8222 17.826 66.7197 18.2029 67.7966 18.2029Z" fill="#343434"/>
<path d="M96.8656 6.11434C98.6964 6.11434 100.168 6.67973 101.281 7.81051C102.412 8.92334 102.977 10.4849 102.977 12.4952V21.2453H99.208V13.0067C99.208 11.84 98.9118 10.9516 98.3195 10.3413C97.7272 9.7131 96.9195 9.39899 95.8964 9.39899C94.8733 9.39899 94.0566 9.7131 93.4464 10.3413C92.8541 10.9516 92.5579 11.84 92.5579 13.0067V21.2453H88.7886V13.0067C88.7886 11.84 88.4925 10.9516 87.9002 10.3413C87.3079 9.7131 86.5002 9.39899 85.4771 9.39899C84.436 9.39899 83.6104 9.7131 83.0001 10.3413C82.4078 10.9516 82.1116 11.84 82.1116 13.0067V21.2453H78.3424V6.32973H82.1116V8.13359C82.5963 7.50538 83.2155 7.01178 83.9694 6.6528C84.7412 6.29383 85.5848 6.11434 86.5001 6.11434C87.6668 6.11434 88.7079 6.36562 89.6233 6.86819C90.5387 7.35281 91.2476 8.05282 91.7502 8.96822C92.2348 8.10667 92.9348 7.41563 93.8502 6.89511C94.7836 6.3746 95.7887 6.11434 96.8656 6.11434Z" fill="#343434"/>
<path d="M110.323 8.48359C110.808 7.80154 111.472 7.23615 112.316 6.78742C113.177 6.32075 114.155 6.08742 115.25 6.08742C116.525 6.08742 117.673 6.40152 118.696 7.02973C119.738 7.65795 120.554 8.55539 121.147 9.72207C121.757 10.8708 122.062 12.208 122.062 13.7337C122.062 15.2593 121.757 16.6145 121.147 17.7991C120.554 18.9658 119.738 19.8722 118.696 20.5183C117.673 21.1645 116.525 21.4876 115.25 21.4876C114.155 21.4876 113.186 21.2632 112.343 20.8145C111.517 20.3658 110.844 19.8004 110.323 19.1183V28.353H106.554V6.32973H110.323V8.48359ZM118.212 13.7337C118.212 12.8362 118.023 12.0644 117.646 11.4182C117.288 10.7541 116.803 10.2516 116.193 9.91053C115.6 9.5695 114.954 9.39899 114.254 9.39899C113.572 9.39899 112.926 9.57848 112.316 9.93746C111.723 10.2785 111.239 10.7811 110.862 11.4452C110.503 12.1093 110.323 12.8901 110.323 13.7875C110.323 14.6849 110.503 15.4657 110.862 16.1298C111.239 16.7939 111.723 17.3055 112.316 17.6645C112.926 18.0055 113.572 18.176 114.254 18.176C114.954 18.176 115.6 17.9965 116.193 17.6375C116.803 17.2786 117.288 16.767 117.646 16.1029C118.023 15.4388 118.212 14.649 118.212 13.7337Z" fill="#343434"/>
<path d="M123.832 13.7337C123.832 12.2259 124.128 10.8887 124.72 9.72207C125.33 8.55539 126.147 7.65795 127.17 7.02973C128.211 6.40152 129.369 6.08742 130.643 6.08742C131.756 6.08742 132.725 6.31178 133.551 6.7605C134.395 7.20922 135.068 7.77461 135.57 8.45667V6.32973H139.366V21.2453H135.57V19.0645C135.086 19.7645 134.413 20.3478 133.551 20.8145C132.707 21.2632 131.729 21.4876 130.616 21.4876C129.36 21.4876 128.211 21.1645 127.17 20.5183C126.147 19.8722 125.33 18.9658 124.72 17.7991C124.128 16.6145 123.832 15.2593 123.832 13.7337ZM135.57 13.7875C135.57 12.8721 135.391 12.0913 135.032 11.4452C134.673 10.7811 134.188 10.2785 133.578 9.93746C132.968 9.57848 132.313 9.39899 131.613 9.39899C130.913 9.39899 130.266 9.5695 129.674 9.91053C129.082 10.2516 128.597 10.7541 128.22 11.4182C127.861 12.0644 127.682 12.8362 127.682 13.7337C127.682 14.6311 127.861 15.4209 128.22 16.1029C128.597 16.767 129.082 17.2786 129.674 17.6375C130.284 17.9965 130.931 18.176 131.613 18.176C132.313 18.176 132.968 18.0055 133.578 17.6645C134.188 17.3055 134.673 16.8029 135.032 16.1568C135.391 15.4926 135.57 14.7029 135.57 13.7875Z" fill="#343434"/>
<path d="M151.313 6.11434C153.09 6.11434 154.526 6.67973 155.621 7.81051C156.716 8.92334 157.263 10.4849 157.263 12.4952V21.2453H153.494V13.0067C153.494 11.8221 153.198 10.9157 152.606 10.2875C152.013 9.6413 151.206 9.31822 150.183 9.31822C149.141 9.31822 148.316 9.6413 147.706 10.2875C147.113 10.9157 146.817 11.8221 146.817 13.0067V21.2453H143.048V6.32973H146.817V8.18744C147.32 7.54128 147.957 7.03871 148.729 6.67973C149.518 6.3028 150.38 6.11434 151.313 6.11434Z" fill="#343434"/>
<path d="M175.117 6.32973L165.882 28.2992H161.871L165.102 20.8683L159.125 6.32973H163.352L167.202 16.7491L171.106 6.32973H175.117Z" fill="#343434"/>
<path d="M11.332 28.1543C5.57704 28.1543 0.930176 23.4716 0.930176 17.7524C0.930176 12.0332 5.57704 7.35059 11.332 7.35059C17.0512 7.35059 21.7338 11.9975 21.7338 17.7524C21.6981 23.4716 17.0512 28.1543 11.332 28.1543Z" fill="#343434"/>
<path d="M26.7495 0.702393H12.965C12.0631 0.702393 11.332 1.4335 11.332 2.33537V16.1199C11.332 17.0217 12.0631 17.7528 12.965 17.7528H26.7495C27.6514 17.7528 28.3825 17.0217 28.3825 16.1198V2.33536C28.3825 1.4335 27.6514 0.702393 26.7495 0.702393Z" fill="#626262"/>
</svg>
