<?xml version="1.0" encoding="utf-8"?>
<!-- Generator: Adobe Illustrator 24.0.1, SVG Export Plug-In . SVG Version: 6.00 Build 0)  -->
<svg version="1.1" id="Layer_1" xmlns="http://www.w3.org/2000/svg" xmlns:xlink="http://www.w3.org/1999/xlink" x="0px" y="0px"
	 viewBox="0 0 173 31" style="enable-background:new 0 0 173 31;" xml:space="preserve">
<style type="text/css">
	.st0{fill:#343434;}
	.st1{fill:#626262;}
</style>
<path class="st0" d="M37.2,13c0-1.8,0.4-3.5,1.2-5c0.8-1.5,2-2.6,3.4-3.4c1.5-0.8,3.1-1.2,4.9-1.2c2.1,0,3.9,0.5,5.5,1.6
	c1.6,1.1,2.7,2.6,3.3,4.5h-4.3c-0.4-0.9-1-1.6-1.8-2c-0.8-0.4-1.7-0.7-2.7-0.7c-1.1,0-2.1,0.3-2.9,0.8c-0.8,0.5-1.5,1.2-2,2.2
	c-0.5,0.9-0.7,2-0.7,3.3c0,1.2,0.2,2.3,0.7,3.3c0.5,0.9,1.1,1.7,2,2.2c0.9,0.5,1.8,0.8,2.9,0.8c1,0,1.9-0.2,2.7-0.7
	c0.8-0.5,1.4-1.1,1.8-2h4.3C55,18.5,53.9,20,52.3,21c-1.6,1.1-3.4,1.6-5.5,1.6c-1.8,0-3.4-0.4-4.9-1.2c-1.4-0.8-2.6-2-3.4-3.4
	C37.7,16.5,37.2,14.9,37.2,13z"/>
<path class="st0" d="M65.4,22.7c-1.4,0-2.7-0.3-3.9-0.9c-1.1-0.6-2.1-1.6-2.7-2.7c-0.6-1.2-1-2.5-1-4c0-1.5,0.3-2.9,1-4
	c0.7-1.2,1.6-2.1,2.8-2.7c1.2-0.6,2.5-1,3.9-1s2.7,0.3,3.9,1c1.2,0.6,2.1,1.5,2.7,2.7c0.7,1.2,1,2.5,1,4c0,1.5-0.3,2.9-1.1,4
	c-0.7,1.2-1.6,2.1-2.8,2.7C68.2,22.4,66.9,22.7,65.4,22.7z M65.4,19.4c0.7,0,1.3-0.2,1.9-0.5c0.6-0.3,1.1-0.8,1.5-1.5
	c0.4-0.7,0.5-1.5,0.5-2.4c0-1.4-0.4-2.5-1.1-3.3c-0.7-0.8-1.6-1.2-2.7-1.2c-1.1,0-2,0.4-2.7,1.2c-0.7,0.8-1.1,1.8-1.1,3.3
	c0,1.4,0.3,2.5,1,3.3C63.5,19,64.4,19.4,65.4,19.4z"/>
<path class="st0" d="M94.5,7.3c1.8,0,3.3,0.6,4.4,1.7c1.1,1.1,1.7,2.7,1.7,4.7v8.8h-3.8v-8.2c0-1.2-0.3-2.1-0.9-2.7
	c-0.6-0.6-1.4-0.9-2.4-0.9c-1,0-1.8,0.3-2.5,0.9c-0.6,0.6-0.9,1.5-0.9,2.7v8.2h-3.8v-8.2c0-1.2-0.3-2.1-0.9-2.7
	c-0.6-0.6-1.4-0.9-2.4-0.9c-1,0-1.9,0.3-2.5,0.9c-0.6,0.6-0.9,1.5-0.9,2.7v8.2H76V7.6h3.8v1.8c0.5-0.6,1.1-1.1,1.9-1.5
	c0.8-0.4,1.6-0.5,2.5-0.5c1.2,0,2.2,0.3,3.1,0.8c0.9,0.5,1.6,1.2,2.1,2.1c0.5-0.9,1.2-1.6,2.1-2.1C92.4,7.6,93.4,7.3,94.5,7.3z"/>
<path class="st0" d="M108,9.7c0.5-0.7,1.1-1.2,2-1.7c0.9-0.5,1.8-0.7,2.9-0.7c1.3,0,2.4,0.3,3.4,0.9c1,0.6,1.9,1.5,2.4,2.7
	c0.6,1.1,0.9,2.5,0.9,4c0,1.5-0.3,2.9-0.9,4.1c-0.6,1.2-1.4,2.1-2.4,2.7c-1,0.6-2.2,1-3.4,1c-1.1,0-2.1-0.2-2.9-0.7
	c-0.8-0.4-1.5-1-2-1.7v9.2h-3.8v-22h3.8V9.7z M115.9,15c0-0.9-0.2-1.7-0.6-2.3c-0.4-0.7-0.8-1.2-1.5-1.5c-0.6-0.3-1.2-0.5-1.9-0.5
	c-0.7,0-1.3,0.2-1.9,0.5c-0.6,0.3-1.1,0.8-1.5,1.5c-0.4,0.7-0.5,1.4-0.5,2.3c0,0.9,0.2,1.7,0.5,2.3c0.4,0.7,0.9,1.2,1.5,1.5
	c0.6,0.3,1.3,0.5,1.9,0.5c0.7,0,1.3-0.2,1.9-0.5c0.6-0.4,1.1-0.9,1.5-1.5C115.7,16.7,115.9,15.9,115.9,15z"/>
<path class="st0" d="M121.5,15c0-1.5,0.3-2.8,0.9-4c0.6-1.2,1.4-2.1,2.4-2.7c1-0.6,2.2-0.9,3.5-0.9c1.1,0,2.1,0.2,2.9,0.7
	c0.8,0.4,1.5,1,2,1.7V7.6h3.8v14.9h-3.8v-2.2c-0.5,0.7-1.2,1.3-2,1.8c-0.8,0.4-1.8,0.7-2.9,0.7c-1.3,0-2.4-0.3-3.4-1
	c-1-0.6-1.8-1.6-2.4-2.7C121.8,17.8,121.5,16.5,121.5,15z M133.2,15c0-0.9-0.2-1.7-0.5-2.3c-0.4-0.7-0.8-1.2-1.5-1.5
	c-0.6-0.4-1.3-0.5-2-0.5s-1.3,0.2-1.9,0.5c-0.6,0.3-1.1,0.8-1.5,1.5c-0.4,0.6-0.5,1.4-0.5,2.3c0,0.9,0.2,1.7,0.5,2.4
	c0.4,0.7,0.9,1.2,1.5,1.5c0.6,0.4,1.3,0.5,1.9,0.5c0.7,0,1.4-0.2,2-0.5c0.6-0.4,1.1-0.9,1.5-1.5C133,16.7,133.2,15.9,133.2,15z"/>
<path class="st0" d="M149,7.3c1.8,0,3.2,0.6,4.3,1.7c1.1,1.1,1.6,2.7,1.6,4.7v8.8h-3.8v-8.2c0-1.2-0.3-2.1-0.9-2.7
	c-0.6-0.6-1.4-1-2.4-1c-1,0-1.9,0.3-2.5,1c-0.6,0.6-0.9,1.5-0.9,2.7v8.2h-3.8V7.6h3.8v1.9c0.5-0.6,1.1-1.1,1.9-1.5
	C147.2,7.5,148,7.3,149,7.3z"/>
<path class="st0" d="M172.8,7.6l-9.2,22h-4l3.2-7.4l-6-14.5h4.2l3.8,10.4l3.9-10.4H172.8z"/>
<path class="st0" d="M2.8,30.6H0.1V11.8h10.1v11.4C10.2,27.3,6.9,30.6,2.8,30.6z"/>
<path class="st0" d="M23.6,11.8C23.6,5.3,18.4,0,11.9,0c-0.6,0-1.1,0-1.7,0.1v11.6H23.6L23.6,11.8z"/>
<path class="st1" d="M6.6,9.5c2-0.8,2.9-3.1,2.1-5.1c-0.8-2-3.1-2.9-5.1-2.1c-2,0.8-2.9,3.1-2.1,5.1C2.4,9.3,4.6,10.3,6.6,9.5z"/>
<path class="st1" d="M15.3,25.3c-0.8,0-1.4-0.6-1.4-1.4l0-7.6c0-0.8,0.6-1.4,1.4-1.4l7.5,0c0.8,0,1.4,0.6,1.4,1.4l0,7.6
	c0,0.8-0.6,1.4-1.4,1.4L15.3,25.3z"/>
</svg>
