<svg xmlns="http://www.w3.org/2000/svg" width="129" height="72" viewBox="0 0 129 72">
  <g fill="none" fill-rule="evenodd">
    <rect width="129" height="72"/>
    <path fill="#7B8BA2" d="M118.428326 6.68970086C119.601634 7.0142209 120.622912 8.10050534 121.338721 9.17027909 122.114397 10.3293023 122.550407 11.2998374 122.877984 12.1323386 123.206279 12.9667051 123.307036 14.1284074 123.369217 15.0319989 123.432832 15.9393212 123.146716 18.065928 123.074348 18.9185903 122.999518 19.7731541 122.741519 21.5659498 122.589625 22.3308353 121.39155 21.3633458 120.075815 20.2504332 119.172096 19.5999728 118.270839 18.9476109 117.116213 17.8965667 116.471837 17.4748523 115.828042 17.0518823 114.930161 16.2283647 114.696422 15.2274262 114.457758 14.2302908 114.396039 13.5715042 114.498627 13.0188902 115.519773 13.8972125 117.187007 14.7975396 117.924077 15.0976684 118.657832 15.3947122 119.661784 16.0677643 120.043924 16.5161924 119.956841 14.9665105 120.107256 13.347929 120.068729 12.3591344 120.01937 11.0625768 119.371751 8.57562613 118.428326 6.68970086zM125.097833 16.0159666C126.022997 17.2615073 126.610393 18.4203593 126.910039 19.8561557 127.205946 21.2965842 127.363474 22.9531224 127.318451 24.0658333 127.274643 25.1759207 126.722583 26.7980021 126.23648 27.8473919 125.750985 28.89547 124.262074 31.5485878 123.747422 32.2396321 122.831952 30.7287542 121.899491 28.8793294 121.150776 28.0136512 120.431958 27.1763793 119.383133 25.943057 118.756215 24.9349311 118.131916 23.9280348 117.290611 21.6167584 117.294948 20.3715644 118.659221 21.8120494 120.125629 22.9012362 120.811323 23.5552776 121.495612 24.2054658 123.086925 25.5241601 123.407862 26.3838638 123.750986 24.441727 124.399902 22.641536 124.578836 21.5357904 124.753935 20.4314386 125.196703 17.4996457 125.097833 16.0159666zM128.302075 26.8853879C128.600658 28.2210085 128.855394 29.5967538 128.706813 31.3762392 128.560827 33.1569421 128.004462 35.0703365 127.327887 36.0571678 126.650719 37.0452777 125.742267 38.1100548 124.940505 38.9649624 124.140632 39.8192001 122.575334 41.2045085 121.988609 42.0280466 121.842315 40.0603328 121.442325 38.6880071 121.035574 37.4666097 120.606053 36.1784866 119.939447 34.3899254 119.267948 32.6971328 118.597634 31.001783 118.109503 28.9778984 118.742661 27.9893654 119.60334 29.1374287 120.676582 30.3821587 121.285874 31.4355671 121.893165 32.4864795 122.341379 33.420691 122.610237 34.0979298 122.854662 34.7154445 123.205781 35.4468631 123.307042 36.216655 123.996225 34.8481501 124.552139 33.6412367 125.137842 32.8608036 125.723545 32.0803704 126.414509 31.0318032 126.880929 30.0521706 127.352199 29.0654753 127.973805 27.6792583 128.302075 26.8853879zM118.889436 36.0348076C119.173122 37.4922942 119.456824 38.9902016 119.833179 40.2813484 120.210817 41.5730973 120.792084 44.1883822 120.914704 45.4676738 121.800515 44.4892166 122.790164 43.6574269 123.757692 42.7655137 124.726012 41.878635 125.764387 40.7697253 126.432141 39.9484884 127.100685 39.132286 128.126372 37.8619831 128.750045 37.0853379 128.899769 37.7835843 128.967715 38.4931831 128.942731 39.2011273 128.900757 40.3705155 128.616493 41.5303119 128.075212 42.6145388 127.20163 44.3588222 125.643672 46.2792491 124.4998 47.2888979 123.357111 48.2959932 121.916606 49.335825 121.002827 49.9296605 120.087075 50.5210151 118.626799 51.1956159 118.066053 51.4251299 118.238315 49.6609577 118.212733 47.2552235 118.017982 45.6731672 117.821457 44.0949411 117.559445 42.044534 117.612347 40.5616308 117.670281 39.0779804 118.006535 36.8856186 118.889436 36.0348076zM115.463702 54.4333855C116.121957 54.2086515 117.182028 53.7872404 117.803895 53.430153 118.423732 53.0705334 119.84173 52.3639435 121.125677 51.652854 122.414544 50.9345998 124.102535 49.8526027 125.854852 48.2133853 125.872885 49.0319149 125.655232 50.3177512 125.271564 51.3361694 124.889097 52.3519935 123.484656 53.9697563 122.139722 55.1133069 120.750795 56.293053 119.003025 57.2032941 117.329015 57.7676017 115.656433 58.3357384 113.233184 58.6020332 110.96655 58.706563 111.349939 57.6437997 111.860818 55.3792025 112.126184 54.0526002 112.388432 52.7292715 112.923581 49.8175929 113.275391 48.4115589 113.629004 47.0016338 114.168466 45.2147014 115.640066 44.1227135 115.530503 44.8087106 115.739023 46.3293371 115.718421 46.933926 115.697706 47.5353033 115.822954 48.9694687 115.778249 50.2622725 115.736775 51.5550142 115.638896 53.0628765 115.463702 54.4333855zM119.958137 58.6609567C119.530802 59.9950973 118.854414 60.9784801 117.922391 61.8619973 116.994156 62.7441956 115.771619 63.3287312 114.723642 63.6839239 113.419923 64.1281394 109.939228 64.6515652 108.023629 64.5747075 106.258072 64.5032366 104.298171 63.8805819 103.387621 63.5755047 102.508857 63.280702 101.310798 62.8313725 100.799994 62.6752237 102.073578 61.8947379 102.780295 61.0928493 103.7704 59.6620381 104.761684 58.2286828 105.815925 56.1620471 106.715665 54.9366054 107.612921 53.7130951 109.391413 51.8563429 110.878912 51.173174 110.307599 52.9244652 109.73222 54.8457507 109.392611 56.1002744 109.054307 57.3554107 108.202865 59.8966675 107.424439 61.3850295 109.459306 61.0672085 112.100932 60.6160653 113.574957 60.3152889 115.050749 60.0106963 117.479765 59.4628488 118.131688 59.2423195 118.785505 59.0211307 119.433859 58.8872004 119.958137 58.6609567zM111.390688 5C112.441119 5.18979109 113.970332 5.58158111 115.176454 6.55416137 116.387343 7.51988095 117.586002 8.91356874 118.079932 10.3115878 118.576899 11.706483 118.767402 12.9529713 118.579942 13.5807476 117.451666 12.9995619 115.802482 12.0464727 115.028131 11.3190317 114.254934 10.5890994 113.405256 9.30008482 112.854693 8.24398304 112.309779 7.18598343 111.721674 5.87114083 111.390688 5zM10.5194695 6.68970086C9.57604508 8.57562613 8.92842568 11.0625768 8.8790665 12.3591344 8.84054 13.347929 8.99095496 14.9665105 8.90387174 16.5161924 9.28601186 16.0677643 10.2899642 15.3947122 11.0237187 15.0976684 11.7607884 14.7975396 13.4280228 13.8972125 14.4491685 13.0188902 14.5517567 13.5715042 14.4900374 14.2302908 14.2513737 15.2274262 14.0176345 16.2283647 13.1197538 17.0518823 12.4759593 17.4748523 11.8315832 17.8965667 10.6769573 18.9476109 9.7757003 19.5999728 8.8719811 20.2504332 7.55624584 21.3633458 6.35817108 22.3308353 6.206277 21.5659498 5.94827792 19.7731541 5.87344777 18.9185903 5.80107987 18.065928 5.51496353 15.9393212 5.57857878 15.0319989 5.64075942 14.1284074 5.74151707 12.9667051 6.06981185 12.1323386 6.39738933 11.2998374 6.83339897 10.3293023 7.60907485 9.17027909 8.32488352 8.10050534 9.34616161 7.0142209 10.5194695 6.68970086zM3.84996243 16.0159666C3.75109303 17.4996457 4.19386131 20.4314386 4.36895996 21.5357904 4.54789348 22.641536 5.19681029 24.441727 5.53993431 26.3838638 5.86087043 25.5241601 7.45218367 24.2054658 8.13647327 23.5552776 8.82216722 22.9012362 10.2885746 21.8120494 11.6528476 20.3715644 11.6571846 21.6167584 10.8158796 23.9280348 10.1915812 24.9349311 9.56466317 25.943057 8.51583833 27.1763793 7.79701962 28.0136512 7.04830476 28.8793294 6.11584433 30.7287542 5.20037381 32.2396321 4.68572218 31.5485878 3.19681112 28.89547 2.71131586 27.8473919 2.22521298 26.7980021 1.67315244 25.1759207 1.62934463 24.0658333 1.58432156 22.9531224 1.74185002 21.2965842 2.03775649 19.8561557 2.33740328 18.4203593 2.92479901 17.2615073 3.84996243 16.0159666zM.645720852 26.8853879C.973991231 27.6792583 1.59559643 29.0654753 2.06686676 30.0521706 2.53328668 31.0318032 3.22425075 32.0803704 3.80995405 32.8608036 4.39565734 33.6412367 4.95157138 34.8481501 5.64075364 36.216655 5.74201539 35.4468631 6.09313421 34.7154445 6.33755864 34.0979298 6.60641737 33.420691 7.0546307 32.4864795 7.66192155 31.4355671 8.27121375 30.3821587 9.34445638 29.1374287 10.2051352 27.9893654 10.838293 28.9778984 10.3501614 31.001783 9.67984753 32.6971328 9.00834911 34.3899254 8.34174337 36.1784866 7.91222212 37.4666097 7.50547064 38.6880071 7.10548137 40.0603328 6.95918731 42.0280466 6.37246221 41.2045085 4.80716359 39.8192001 4.00729059 38.9649624 3.20552851 38.1100548 2.29707704 37.0452777 1.6199092 36.0571678.943333625 35.0703365.386969158 33.1569421.24098246 31.3762392.0924021506 29.5967538.347137854 28.2210085.645720852 26.8853879zM10.0583602 36.0348076C10.9412611 36.8856186 11.2775152 39.0779804 11.3354485 40.5616308 11.3883509 42.044534 11.1263384 44.0949411 10.9298137 45.6731672 10.7350631 47.2552235 10.7094809 49.6609577 10.8817427 51.4251299 10.3209972 51.1956159 8.86072087 50.5210151 7.94496854 49.9296605 7.03119019 49.335825 5.5906851 48.2959932 4.4479961 47.2888979 3.30412427 46.2792491 1.74616591 44.3588222.872583705 42.6145388.331303157 41.5303119.0470384012 40.3705155.00506516563 39.2011273-.0199190611 38.4931831.0480269695 37.7835843.197750678 37.0853379.821424038 37.8619831 1.84711054 39.132286 2.51565517 39.9484884 3.18340867 40.7697253 4.22178422 41.878635 5.19010347 42.7655137 6.15763159 43.6574269 7.1472806 44.4892166 8.03309227 45.4676738 8.15571158 44.1883822 8.73697856 41.5730973 9.11461652 40.2813484 9.49097177 38.9902016 9.77467372 37.4922942 10.0583602 36.0348076zM13.484094 54.4333855C13.3088996 53.0628765 13.2110204 51.5550142 13.1695472 50.2622725 13.1248421 48.9694687 13.2500898 47.5353033 13.2293746 46.933926 13.2087732 46.3293371 13.4172931 44.8087106 13.3077303 44.1227135 14.7793295 45.2147014 15.3187923 47.0016338 15.672405 48.4115589 16.0242152 49.8175929 16.5593636 52.7292715 16.8216116 54.0526002 17.0869776 55.3792025 17.5978571 57.6437997 17.9812462 58.706563 15.7146118 58.6020332 13.2913624 58.3357384 11.6187811 57.7676017 9.94477045 57.2032941 8.19700124 56.293053 6.80807346 55.1133069 5.46313946 53.9697563 4.05869872 52.3519935 3.67623218 51.3361694 3.29256401 50.3177512 3.0749106 49.0319149 3.09294414 48.2133853 4.84526048 49.8526027 6.53325216 50.9345998 7.82211917 51.652854 9.10606571 52.3639435 10.5240638 53.0705334 11.1439006 53.430153 11.7657677 53.7872404 12.8258387 54.2086515 13.484094 54.4333855zM8.98965905 58.6609567C9.51393708 58.8872004 10.1622906 59.0211307 10.8161079 59.2423195 11.4680308 59.4628488 13.8970467 60.0106963 15.3728392 60.3152889 16.8468639 60.6160653 19.48849 61.0672085 21.5233565 61.3850295 20.7449311 59.8966675 19.893489 57.3554107 19.555185 56.1002744 19.2155759 54.8457507 18.6401971 52.9244652 18.0688842 51.173174 19.5563831 51.8563429 21.3348751 53.7130951 22.2321314 54.9366054 23.1318713 56.1620471 24.1861117 58.2286828 25.1773954 59.6620381 26.1675007 61.0928493 26.8742184 61.8947379 28.1478019 62.6752237 27.636998 62.8313725 26.4389389 63.280702 25.560175 63.5755047 24.6496252 63.8805819 22.6897238 64.5032366 20.9241666 64.5747075 19.008568 64.6515652 15.5278733 64.1281394 14.2241541 63.6839239 13.1761773 63.3287312 11.9536396 62.7441956 11.0254051 61.8619973 10.0933819 60.9784801 9.41699434 59.9950973 8.98965905 58.6609567zM17.5571078 5C17.2261216 5.87114083 16.6380167 7.18598343 16.0931027 8.24398304 15.5425399 9.30008482 14.6928614 10.5890994 13.9196649 11.3190317 13.1453143 12.0464727 11.4961297 12.9995619 10.3678536 13.5807476 10.1803939 12.9529713 10.3708973 11.706483 10.8678642 10.3115878 11.3617942 8.91356874 12.560453 7.51988095 13.7713424 6.55416137 14.9774638 5.58158111 16.5066769 5.18979109 17.5571078 5z"/>
    <path stroke="#C0CDDF" stroke-linecap="round" stroke-linejoin="round" stroke-width=".8" d="M31.5,39.5 L97.5,39.5"/>
    <path fill="#7B8BA2" d="M38.957 15.39C39.2930017 15.39 39.5694989 15.3491671 39.7865 15.2675 40.0035011 15.1858329 40.1773327 15.077334 40.308 14.942 40.4386673 14.806666 40.5296664 14.6515009 40.581 14.4765 40.6323336 14.3014991 40.658 14.1206676 40.658 13.934 40.658 13.7286656 40.627667 13.5443342 40.567 13.381 40.506333 13.2176658 40.408334 13.0788339 40.273 12.9645 40.137666 12.8501661 39.9615011 12.762667 39.7445 12.702 39.5274989 12.641333 39.2603349 12.611 38.943 12.611L37.158 12.611 37.158 15.39 38.957 15.39zM37.158 8.439L37.158 11.183 38.537 11.183C38.8310015 11.183 39.0923322 11.1585002 39.321 11.1095 39.5496678 11.0604998 39.7409992 10.9823339 39.895 10.875 40.0490008 10.7676661 40.1668329 10.6265009 40.2485 10.4515 40.3301671 10.2764991 40.371 10.0653346 40.371 9.818 40.371 9.56599874 40.337167 9.35133422 40.2695 9.174 40.201833 8.99666578 40.0980007 8.85433387 39.958 8.747 39.8179993 8.63966613 39.6406677 8.56150024 39.426 8.5125 39.2113323 8.46349976 38.9570015 8.439 38.663 8.439L37.158 8.439zM38.663 6.843C39.3443367 6.843 39.9264976 6.90716602 40.4095 7.0355 40.8925024 7.16383397 41.2868318 7.34583215 41.5925 7.5815 41.8981682 7.81716785 42.1209993 8.10299832 42.261 8.439 42.4010007 8.77500168 42.471 9.15066459 42.471 9.566 42.471 9.7993345 42.437167 10.0233323 42.3695 10.238 42.301833 10.4526677 42.196834 10.6544991 42.0545 10.8435 41.912166 11.0325009 41.7290011 11.2039992 41.505 11.358 41.2809989 11.5120008 41.0150015 11.6426661 40.707 11.75 41.3976701 11.9133342 41.908665 12.1793315 42.24 12.548 42.571335 12.9166685 42.737 13.3949971 42.737 13.983 42.737 14.4123355 42.6541675 14.8113315 42.4885 15.18 42.3228325 15.5486685 42.0813349 15.868332 41.764 16.139 41.4466651 16.409668 41.0558357 16.6208326 40.5915 16.7725 40.1271643 16.9241674 39.594003 17 38.992 17L35.058 17 35.058 6.843 38.663 6.843zM48.659 12.541C48.659 12.3403323 48.6321669 12.1490009 48.5785 11.967 48.5248331 11.7849991 48.4396672 11.6240007 48.323 11.484 48.2063328 11.3439993 48.0593342 11.2331671 47.882 11.1515 47.7046658 11.0698329 47.4923346 11.029 47.245 11.029 46.7829977 11.029 46.4213346 11.1596654 46.16 11.421 45.8986654 11.6823346 45.7283337 12.0556642 45.649 12.541L48.659 12.541zM45.621 13.689C45.681667 14.3656701 45.874165 14.8603318 46.1985 15.173 46.522835 15.4856682 46.9463307 15.642 47.469 15.642 47.7350013 15.642 47.9648324 15.6105003 48.1585 15.5475 48.3521676 15.4844997 48.5224993 15.4145004 48.6695 15.3375 48.8165007 15.2604996 48.9494994 15.1905003 49.0685 15.1275 49.1875006 15.0644997 49.3053328 15.033 49.422 15.033 49.5713341 15.033 49.6879996 15.0889994 49.772 15.201L50.332 15.901C50.1266656 16.1390012 49.9003346 16.3361659 49.653 16.4925 49.4056654 16.6488341 49.1490013 16.7724995 48.883 16.8635 48.6169987 16.9545005 48.348668 17.0174998 48.078 17.0525 47.807332 17.0875002 47.5460013 17.105 47.294 17.105 46.7899975 17.105 46.3198355 17.0221675 45.8835 16.8565 45.4471645 16.6908325 45.066835 16.445835 44.7425 16.1215 44.418165 15.797165 44.1626676 15.3946691 43.976 14.914 43.7893324 14.4333309 43.696 13.8756698 43.696 13.241 43.696 12.7509976 43.7764992 12.2890022 43.9375 11.855 44.0985008 11.4209978 44.3306652 11.0430016 44.634 10.721 44.9373348 10.3989984 45.3059978 10.1435009 45.74 9.9545 46.1740022 9.76549905 46.6639973 9.671 47.21 9.671 47.6720023 9.671 48.0978314 9.74449927 48.4875 9.8915 48.8771686 10.0385007 49.2131653 10.2519986 49.4955 10.532 49.7778347 10.8120014 49.9971659 11.1561646 50.1535 11.5645 50.3098341 11.9728354 50.388 12.4383307 50.388 12.961 50.388 13.1056674 50.3810001 13.2246662 50.367 13.318 50.3529999 13.4113338 50.3296668 13.4859997 50.297 13.542 50.2643332 13.5980003 50.2200003 13.6364999 50.164 13.6575 50.1079997 13.6785001 50.0356671 13.689 49.947 13.689L45.621 13.689zM56.072 11.267C56.0206664 11.3463337 55.9681669 11.4034998 55.9145 11.4385 55.8608331 11.4735002 55.7873338 11.491 55.694 11.491 55.6006662 11.491 55.5050005 11.4676669 55.407 11.421 55.3089995 11.3743331 55.1993339 11.3241669 55.078 11.2705 54.9566661 11.2168331 54.8178341 11.1666669 54.6615 11.12 54.5051659 11.0733331 54.3243344 11.05 54.119 11.05 53.8063318 11.05 53.5636675 11.114166 53.391 11.2425 53.2183325 11.370834 53.132 11.5399989 53.132 11.75 53.132 11.8946674 53.1809995 12.0159995 53.279 12.114 53.3770005 12.2120005 53.5064992 12.2971663 53.6675 12.3695 53.8285008 12.4418337 54.0116656 12.5094997 54.217 12.5725 54.4223344 12.6355003 54.6334989 12.704333 54.8505 12.779 55.0675011 12.853667 55.2786656 12.9399995 55.484 13.038 55.6893344 13.1360005 55.8724992 13.2584993 56.0335 13.4055 56.1945008 13.5525007 56.3239995 13.7298323 56.422 13.9375 56.5200005 14.1451677 56.569 14.3959985 56.569 14.69 56.569 15.0400018 56.504834 15.3631652 56.3765 15.6595 56.248166 15.9558348 56.0603346 16.2113323 55.813 16.426 55.5656654 16.6406677 55.2576685 16.8086661 54.889 16.93 54.5203315 17.0513339 54.0956691 17.112 53.615 17.112 53.3676654 17.112 53.1226679 17.0898336 52.88 17.0455 52.6373321 17.0011664 52.4063344 16.9381671 52.187 16.8565 51.9676656 16.7748329 51.7623343 16.6803339 51.571 16.573 51.3796657 16.4656661 51.2140007 16.3490006 51.074 16.223L51.522 15.502C51.5733336 15.4179996 51.6374996 15.3526669 51.7145 15.306 51.7915004 15.2593331 51.8906661 15.236 52.012 15.236 52.1286673 15.236 52.2359995 15.2651664 52.334 15.3235 52.4320005 15.3818336 52.5416661 15.444833 52.663 15.5125 52.7843339 15.580167 52.9278325 15.6431664 53.0935 15.7015 53.2591675 15.7598336 53.4656654 15.789 53.713 15.789 53.8996676 15.789 54.060666 15.7680002 54.196 15.726 54.331334 15.6839998 54.4409996 15.6268337 54.525 15.5545 54.6090004 15.4821663 54.6708331 15.4005005 54.7105 15.3095 54.7501669 15.2184995 54.77 15.1240005 54.77 15.026 54.77 14.8673325 54.7198338 14.7378338 54.6195 14.6375 54.5191662 14.5371662 54.3885008 14.449667 54.2275 14.375 54.0664992 14.300333 53.8810011 14.232667 53.671 14.172 53.460999 14.111333 53.2475011 14.043667 53.0305 13.969 52.8134989 13.894333 52.6011677 13.8056672 52.3935 13.703 52.1858323 13.6003328 52.0015008 13.4708341 51.8405 13.3145 51.6794992 13.1581659 51.5488338 12.9656678 51.4485 12.737 51.3481662 12.5083322 51.298 12.2306683 51.298 11.904 51.298 11.6053318 51.3563328 11.3218347 51.473 11.0535 51.5896673 10.7851653 51.7646655 10.5483344 51.998 10.343 52.2313345 10.1376656 52.5218316 9.97433394 52.8695 9.853 53.2171684 9.73166606 53.6196644 9.671 54.077 9.671 54.5903359 9.671 55.0569979 9.75499916 55.477 9.923 55.8970021 10.0910008 56.242332 10.310332 56.513 10.581L56.072 11.267zM60.272 17.112C59.9453317 17.112 59.6560013 17.0641671 59.404 16.9685 59.1519987 16.8728329 58.9396675 16.7363342 58.767 16.559 58.5943325 16.3816658 58.4636671 16.1670013 58.375 15.915 58.2863329 15.6629987 58.242 15.3783349 58.242 15.061L58.242 11.169 57.563 11.169C57.4603328 11.169 57.3728337 11.1363337 57.3005 11.071 57.2281663 11.0056663 57.192 10.9076673 57.192 10.777L57.192 10.021 58.347 9.811 58.739 7.942C58.7903336 7.73199895 58.9326655 7.627 59.166 7.627L60.174 7.627 60.174 9.825 62.036 9.825 62.036 11.169 60.174 11.169 60.174 14.935C60.174 15.1356677 60.2218329 15.2943328 60.3175 15.411 60.4131671 15.5276673 60.5496658 15.586 60.727 15.586 60.8203338 15.586 60.8996663 15.5755001 60.965 15.5545 61.0303337 15.5334999 61.0863331 15.5101668 61.133 15.4845 61.1796669 15.4588332 61.2228331 15.4355001 61.2625 15.4145 61.3021669 15.3934999 61.3429998 15.383 61.385 15.383 61.4410003 15.383 61.4876665 15.3958332 61.525 15.4215 61.5623335 15.4471668 61.5996665 15.490333 61.637 15.551L62.218 16.475C61.9519987 16.6850011 61.6510017 16.8436661 61.315 16.951 60.9789983 17.0583339 60.6313351 17.112 60.272 17.112zM70.814 15.32C71.1546684 15.32 71.460332 15.2628339 71.731 15.1485 72.001668 15.0341661 72.2303324 14.8720011 72.417 14.662 72.6036676 14.451999 72.7459995 14.1976682 72.844 13.899 72.9420005 13.6003318 72.991 13.2643352 72.991 12.891L72.991 6.843 75.091 6.843 75.091 12.891C75.091 13.5070031 74.9918343 14.0728308 74.7935 14.5885 74.5951657 15.1041692 74.3116685 15.5486648 73.943 15.922 73.5743315 16.2953352 73.126336 16.586999 72.599 16.797 72.071664 17.007001 71.47667 17.112 70.814 17.112 70.15133 17.112 69.5551693 17.007001 69.0255 16.797 68.4958307 16.586999 68.0466685 16.2953352 67.678 15.922 67.3093315 15.5486648 67.0258343 15.1041692 66.8275 14.5885 66.6291657 14.0728308 66.53 13.5070031 66.53 12.891L66.53 6.843 68.63 6.843 68.63 12.891C68.63 13.2643352 68.6789995 13.6003318 68.777 13.899 68.8750005 14.1976682 69.0173324 14.451999 69.204 14.662 69.3906676 14.8720011 69.619332 15.0341661 69.89 15.1485 70.160668 15.2628339 70.4686649 15.32 70.814 15.32zM81.314 11.267C81.2626664 11.3463337 81.2101669 11.4034998 81.1565 11.4385 81.1028331 11.4735002 81.0293338 11.491 80.936 11.491 80.8426662 11.491 80.7470005 11.4676669 80.649 11.421 80.5509995 11.3743331 80.4413339 11.3241669 80.32 11.2705 80.1986661 11.2168331 80.0598341 11.1666669 79.9035 11.12 79.7471659 11.0733331 79.5663344 11.05 79.361 11.05 79.0483318 11.05 78.8056675 11.114166 78.633 11.2425 78.4603325 11.370834 78.374 11.5399989 78.374 11.75 78.374 11.8946674 78.4229995 12.0159995 78.521 12.114 78.6190005 12.2120005 78.7484992 12.2971663 78.9095 12.3695 79.0705008 12.4418337 79.2536656 12.5094997 79.459 12.5725 79.6643344 12.6355003 79.8754989 12.704333 80.0925 12.779 80.3095011 12.853667 80.5206656 12.9399995 80.726 13.038 80.9313344 13.1360005 81.1144992 13.2584993 81.2755 13.4055 81.4365008 13.5525007 81.5659995 13.7298323 81.664 13.9375 81.7620005 14.1451677 81.811 14.3959985 81.811 14.69 81.811 15.0400018 81.746834 15.3631652 81.6185 15.6595 81.490166 15.9558348 81.3023346 16.2113323 81.055 16.426 80.8076654 16.6406677 80.4996685 16.8086661 80.131 16.93 79.7623315 17.0513339 79.3376691 17.112 78.857 17.112 78.6096654 17.112 78.3646679 17.0898336 78.122 17.0455 77.8793321 17.0011664 77.6483344 16.9381671 77.429 16.8565 77.2096656 16.7748329 77.0043343 16.6803339 76.813 16.573 76.6216657 16.4656661 76.4560007 16.3490006 76.316 16.223L76.764 15.502C76.8153336 15.4179996 76.8794996 15.3526669 76.9565 15.306 77.0335004 15.2593331 77.1326661 15.236 77.254 15.236 77.3706672 15.236 77.4779995 15.2651664 77.576 15.3235 77.6740005 15.3818336 77.7836661 15.444833 77.905 15.5125 78.0263339 15.580167 78.1698325 15.6431664 78.3355 15.7015 78.5011675 15.7598336 78.7076654 15.789 78.955 15.789 79.1416676 15.789 79.302666 15.7680002 79.438 15.726 79.573334 15.6839998 79.6829996 15.6268337 79.767 15.5545 79.8510004 15.4821663 79.9128331 15.4005005 79.9525 15.3095 79.9921669 15.2184995 80.012 15.1240005 80.012 15.026 80.012 14.8673325 79.9618338 14.7378338 79.8615 14.6375 79.7611662 14.5371662 79.6305008 14.449667 79.4695 14.375 79.3084992 14.300333 79.123001 14.232667 78.913 14.172 78.7029989 14.111333 78.4895011 14.043667 78.2725 13.969 78.0554989 13.894333 77.8431677 13.8056672 77.6355 13.703 77.4278323 13.6003328 77.2435008 13.4708341 77.0825 13.3145 76.9214992 13.1581659 76.7908338 12.9656678 76.6905 12.737 76.5901662 12.5083322 76.54 12.2306683 76.54 11.904 76.54 11.6053318 76.5983327 11.3218347 76.715 11.0535 76.8316672 10.7851653 77.0066655 10.5483344 77.24 10.343 77.4733345 10.1376656 77.7638316 9.97433394 78.1115 9.853 78.4591684 9.73166606 78.8616644 9.671 79.319 9.671 79.8323359 9.671 80.2989979 9.75499916 80.719 9.923 81.1390021 10.0910008 81.484332 10.310332 81.755 10.581L81.314 11.267zM87.6 12.541C87.6 12.3403323 87.5731669 12.1490009 87.5195 11.967 87.4658331 11.7849991 87.3806673 11.6240007 87.264 11.484 87.1473328 11.3439993 87.0003342 11.2331671 86.823 11.1515 86.6456658 11.0698329 86.4333346 11.029 86.186 11.029 85.7239977 11.029 85.3623346 11.1596654 85.101 11.421 84.8396654 11.6823346 84.6693337 12.0556642 84.59 12.541L87.6 12.541zM84.562 13.689C84.622667 14.3656701 84.815165 14.8603318 85.1395 15.173 85.463835 15.4856682 85.8873307 15.642 86.41 15.642 86.6760013 15.642 86.9058324 15.6105003 87.0995 15.5475 87.2931676 15.4844997 87.4634993 15.4145004 87.6105 15.3375 87.7575007 15.2604996 87.8904994 15.1905003 88.0095 15.1275 88.1285006 15.0644997 88.2463327 15.033 88.363 15.033 88.5123341 15.033 88.6289996 15.0889994 88.713 15.201L89.273 15.901C89.0676656 16.1390012 88.8413346 16.3361659 88.594 16.4925 88.3466654 16.6488341 88.0900013 16.7724995 87.824 16.8635 87.5579987 16.9545005 87.289668 17.0174998 87.019 17.0525 86.748332 17.0875002 86.4870013 17.105 86.235 17.105 85.7309975 17.105 85.2608355 17.0221675 84.8245 16.8565 84.3881645 16.6908325 84.007835 16.445835 83.6835 16.1215 83.359165 15.797165 83.1036676 15.3946691 82.917 14.914 82.7303324 14.4333309 82.637 13.8756698 82.637 13.241 82.637 12.7509976 82.7174992 12.2890022 82.8785 11.855 83.0395008 11.4209978 83.2716651 11.0430016 83.575 10.721 83.8783348 10.3989984 84.2469978 10.1435009 84.681 9.9545 85.1150022 9.76549905 85.6049973 9.671 86.151 9.671 86.6130023 9.671 87.0388314 9.74449927 87.4285 9.8915 87.8181686 10.0385007 88.1541653 10.2519986 88.4365 10.532 88.7188347 10.8120014 88.9381659 11.1561646 89.0945 11.5645 89.2508341 11.9728354 89.329 12.4383307 89.329 12.961 89.329 13.1056674 89.3220001 13.2246662 89.308 13.318 89.2939999 13.4113338 89.2706668 13.4859997 89.238 13.542 89.2053332 13.5980003 89.1610003 13.6364999 89.105 13.6575 89.0489997 13.6785001 88.9766671 13.689 88.888 13.689L84.562 13.689zM92.339 10.973C92.5676678 10.5623313 92.8313318 10.2380012 93.13 10 93.4286682 9.76199881 93.7786647 9.643 94.18 9.643 94.5066683 9.643 94.7726656 9.71999923 94.978 9.874L94.852 11.302C94.8286665 11.3953338 94.7925002 11.4594998 94.7435 11.4945 94.6944998 11.5295002 94.6280004 11.547 94.544 11.547 94.469333 11.547 94.3620007 11.5365001 94.222 11.5155 94.0819993 11.4944999 93.9513339 11.484 93.83 11.484 93.6526658 11.484 93.4951674 11.5096664 93.3575 11.561 93.2198326 11.6123336 93.0973339 11.6846662 92.99 11.778 92.8826661 11.8713338 92.7858338 11.985666 92.6995 12.121 92.6131662 12.256334 92.532667 12.4103325 92.458 12.583L92.458 17 90.526 17 90.526 9.783 91.667 9.783C91.863001 9.783 91.998333 9.81799965 92.073 9.888 92.147667 9.95800035 92.2013332 10.0793325 92.234 10.252L92.339 10.973zM32.867 23.488L32.867 26.099 36.255 26.099 36.255 27.688 32.867 27.688 32.867 30.355 37.221 30.355 37.221 32 30.753 32 30.753 21.843 37.221 21.843 37.221 23.488 32.867 23.488zM45.18 32L43.325 32C43.1849993 32 43.0718338 31.9650004 42.9855 31.895 42.8991662 31.8249996 42.8303336 31.7433338 42.779 31.65L41.358 29.277C41.3159998 29.4356675 41.2553337 29.5756661 41.176 29.697L39.958 31.65C39.9019997 31.7386671 39.8331671 31.8191663 39.7515 31.8915 39.6698329 31.9638337 39.5660006 32 39.44 32L37.718 32 40.168 28.276 37.816 24.783 39.671 24.783C39.8110007 24.783 39.9136663 24.8016665 39.979 24.839 40.0443337 24.8763335 40.1026664 24.9369996 40.154 25.021L41.568 27.31C41.5913335 27.2306663 41.6216665 27.1501671 41.659 27.0685 41.6963335 26.9868329 41.7406664 26.9063337 41.792 26.827L42.877 25.056C42.9890006 24.8739991 43.1336658 24.783 43.311 24.783L45.082 24.783 42.73 28.192 45.18 32zM47.903 30.096C48.0850009 30.306001 48.2821656 30.4529996 48.4945 30.537 48.7068344 30.6210004 48.9343321 30.663 49.177 30.663 49.4103345 30.663 49.6226657 30.6186671 49.814 30.53 50.0053343 30.4413329 50.1698326 30.3025009 50.3075 30.1135 50.4451674 29.9244991 50.551333 29.6830015 50.626 29.389 50.700667 29.0949985 50.738 28.745002 50.738 28.339 50.738 27.9376647 50.7065003 27.5970014 50.6435 27.317 50.5804997 27.0369986 50.4918339 26.8106675 50.3775 26.638 50.2631661 26.4653325 50.1243341 26.3405004 49.961 26.2635 49.7976659 26.1864996 49.6156677 26.148 49.415 26.148 49.0743316 26.148 48.7885012 26.2144993 48.5575 26.3475 48.3264988 26.4805007 48.1083344 26.6753321 47.903 26.932L47.903 30.096zM47.791 25.728C47.9356674 25.5693325 48.0896659 25.4235007 48.253 25.2905 48.4163341 25.1574993 48.5913324 25.0431671 48.778 24.9475 48.9646676 24.8518329 49.1653323 24.7771669 49.38 24.7235 49.5946677 24.6698331 49.8279987 24.643 50.08 24.643 50.4673353 24.643 50.823165 24.7258325 51.1475 24.8915 51.471835 25.0571675 51.7506655 25.2974984 51.984 25.6125 52.2173345 25.9275016 52.3993327 26.3136644 52.53 26.771 52.6606673 27.2283356 52.726 27.7509971 52.726 28.339 52.726 28.880336 52.6525007 29.380831 52.5055 29.8405 52.3584993 30.300169 52.149668 30.6979983 51.879 31.034 51.608332 31.3700017 51.2828352 31.6324991 50.9025 31.8215 50.5221648 32.0105009 50.098669 32.105 49.632 32.105 49.239998 32.105 48.9075014 32.0466672 48.6345 31.93 48.3614986 31.8133328 48.1176677 31.6546677 47.903 31.454L47.903 34.331 45.971 34.331 45.971 24.783 47.161 24.783C47.4036679 24.783 47.5646663 24.8949989 47.644 25.119L47.791 25.728zM58.543 27.541C58.543 27.3403323 58.5161669 27.1490009 58.4625 26.967 58.4088331 26.7849991 58.3236672 26.6240007 58.207 26.484 58.0903328 26.3439993 57.9433342 26.2331671 57.766 26.1515 57.5886658 26.0698329 57.3763346 26.029 57.129 26.029 56.6669977 26.029 56.3053346 26.1596654 56.044 26.421 55.7826654 26.6823346 55.6123337 27.0556642 55.533 27.541L58.543 27.541zM55.505 28.689C55.565667 29.36567 55.758165 29.8603318 56.0825 30.173 56.406835 30.4856682 56.8303307 30.642 57.353 30.642 57.6190013 30.642 57.8488324 30.6105003 58.0425 30.5475 58.2361676 30.4844997 58.4064993 30.4145004 58.5535 30.3375 58.7005007 30.2604996 58.8334994 30.1905003 58.9525 30.1275 59.0715006 30.0644997 59.1893328 30.033 59.306 30.033 59.4553341 30.033 59.5719996 30.0889994 59.656 30.201L60.216 30.901C60.0106656 31.1390012 59.7843346 31.3361659 59.537 31.4925 59.2896654 31.6488341 59.0330013 31.7724995 58.767 31.8635 58.5009987 31.9545005 58.232668 32.0174998 57.962 32.0525 57.691332 32.0875002 57.4300013 32.105 57.178 32.105 56.6739975 32.105 56.2038355 32.0221675 55.7675 31.8565 55.3311645 31.6908325 54.950835 31.445835 54.6265 31.1215 54.302165 30.797165 54.0466676 30.3946691 53.86 29.914 53.6733324 29.4333309 53.58 28.8756698 53.58 28.241 53.58 27.7509976 53.6604992 27.2890022 53.8215 26.855 53.9825008 26.4209978 54.2146652 26.0430016 54.518 25.721 54.8213348 25.3989984 55.1899978 25.1435009 55.624 24.9545 56.0580022 24.7654991 56.5479973 24.671 57.094 24.671 57.5560023 24.671 57.9818314 24.7444993 58.3715 24.8915 58.7611686 25.0385007 59.0971653 25.2519986 59.3795 25.532 59.6618347 25.8120014 59.8811659 26.1561646 60.0375 26.5645 60.1938341 26.9728354 60.272 27.4383307 60.272 27.961 60.272 28.1056674 60.2650001 28.2246662 60.251 28.318 60.2369999 28.4113338 60.2136668 28.4859997 60.181 28.542 60.1483332 28.5980003 60.1040003 28.6364999 60.048 28.6575 59.9919997 28.6785001 59.9196671 28.689 59.831 28.689L55.505 28.689zM63.282 25.973C63.5106678 25.5623313 63.7743318 25.2380012 64.073 25 64.3716682 24.7619988 64.7216647 24.643 65.123 24.643 65.4496683 24.643 65.7156656 24.7199992 65.921 24.874L65.795 26.302C65.7716666 26.3953338 65.7355002 26.4594998 65.6865 26.4945 65.6374998 26.5295002 65.5710004 26.547 65.487 26.547 65.412333 26.547 65.3050007 26.5365001 65.165 26.5155 65.0249993 26.4944999 64.8943339 26.484 64.773 26.484 64.5956658 26.484 64.4381674 26.5096664 64.3005 26.561 64.1628326 26.6123336 64.0403339 26.6846662 63.933 26.778 63.8256661 26.8713338 63.7288338 26.985666 63.6425 27.121 63.5561662 27.256334 63.475667 27.4103325 63.401 27.583L63.401 32 61.469 32 61.469 24.783 62.61 24.783C62.806001 24.783 62.941333 24.8179996 63.016 24.888 63.090667 24.9580003 63.1443332 25.0793325 63.177 25.252L63.282 25.973zM68.735 24.783L68.735 32 66.803 32 66.803 24.783 68.735 24.783zM68.966 22.732C68.966 22.8953342 68.9333337 23.0469993 68.868 23.187 68.8026663 23.3270007 68.7151672 23.4506661 68.6055 23.558 68.4958328 23.6653339 68.3675007 23.749333 68.2205 23.81 68.0734993 23.870667 67.9160008 23.901 67.748 23.901 67.5893325 23.901 67.438834 23.870667 67.2965 23.81 67.154166 23.749333 67.0293339 23.6653339 66.922 23.558 66.8146661 23.4506661 66.7295003 23.3270007 66.6665 23.187 66.6034997 23.0469993 66.572 22.8953342 66.572 22.732 66.572 22.5686659 66.6034997 22.415834 66.6665 22.2735 66.7295003 22.131166 66.8146661 22.0063339 66.922 21.899 67.0293339 21.7916661 67.154166 21.707667 67.2965 21.647 67.438834 21.586333 67.5893325 21.556 67.748 21.556 67.9160008 21.556 68.0734993 21.586333 68.2205 21.647 68.3675007 21.707667 68.4958328 21.7916661 68.6055 21.899 68.7151672 22.0063339 68.8026663 22.131166 68.868 22.2735 68.9333337 22.415834 68.966 22.5686659 68.966 22.732zM74.965 27.541C74.965 27.3403323 74.9381669 27.1490009 74.8845 26.967 74.8308331 26.7849991 74.7456672 26.6240007 74.629 26.484 74.5123328 26.3439993 74.3653342 26.2331671 74.188 26.1515 74.0106658 26.0698329 73.7983346 26.029 73.551 26.029 73.0889977 26.029 72.7273346 26.1596654 72.466 26.421 72.2046654 26.6823346 72.0343337 27.0556642 71.955 27.541L74.965 27.541zM71.927 28.689C71.987667 29.36567 72.180165 29.8603318 72.5045 30.173 72.828835 30.4856682 73.2523307 30.642 73.775 30.642 74.0410013 30.642 74.2708324 30.6105003 74.4645 30.5475 74.6581676 30.4844997 74.8284993 30.4145004 74.9755 30.3375 75.1225007 30.2604996 75.2554994 30.1905003 75.3745 30.1275 75.4935006 30.0644997 75.6113328 30.033 75.728 30.033 75.8773341 30.033 75.9939996 30.0889994 76.078 30.201L76.638 30.901C76.4326656 31.1390012 76.2063346 31.3361659 75.959 31.4925 75.7116654 31.6488341 75.4550013 31.7724995 75.189 31.8635 74.9229987 31.9545005 74.654668 32.0174998 74.384 32.0525 74.113332 32.0875002 73.8520013 32.105 73.6 32.105 73.0959975 32.105 72.6258355 32.0221675 72.1895 31.8565 71.7531645 31.6908325 71.372835 31.445835 71.0485 31.1215 70.724165 30.797165 70.4686676 30.3946691 70.282 29.914 70.0953324 29.4333309 70.002 28.8756698 70.002 28.241 70.002 27.7509976 70.0824992 27.2890022 70.2435 26.855 70.4045008 26.4209978 70.6366651 26.0430016 70.94 25.721 71.2433348 25.3989984 71.6119978 25.1435009 72.046 24.9545 72.4800022 24.7654991 72.9699973 24.671 73.516 24.671 73.9780023 24.671 74.4038314 24.7444993 74.7935 24.8915 75.1831686 25.0385007 75.5191653 25.2519986 75.8015 25.532 76.0838347 25.8120014 76.3031659 26.1561646 76.4595 26.5645 76.6158341 26.9728354 76.694 27.4383307 76.694 27.961 76.694 28.1056674 76.6870001 28.2246662 76.673 28.318 76.6589999 28.4113338 76.6356668 28.4859997 76.603 28.542 76.5703332 28.5980003 76.5260003 28.6364999 76.47 28.6575 76.4139997 28.6785001 76.3416671 28.689 76.253 28.689L71.927 28.689zM79.683 25.623C79.8276674 25.4829993 79.9781659 25.3546672 80.1345 25.238 80.2908341 25.1213328 80.4564991 25.0210004 80.6315 24.937 80.8065009 24.8529996 80.995499 24.7876669 81.1985 24.741 81.401501 24.6943331 81.6219988 24.671 81.86 24.671 82.252002 24.671 82.5996652 24.738666 82.903 24.874 83.2063349 25.009334 83.4618323 25.1983321 83.6695 25.441 83.8771677 25.6836679 84.0334995 25.9729983 84.1385 26.309 84.2435005 26.6450017 84.296 27.0136647 84.296 27.415L84.296 32 82.371 32 82.371 27.415C82.371 27.0136647 82.2776676 26.7021678 82.091 26.4805 81.9043324 26.2588322 81.6290018 26.148 81.265 26.148 80.994332 26.148 80.7400012 26.2063328 80.502 26.323 80.2639988 26.4396672 80.0376677 26.6029989 79.823 26.813L79.823 32 77.891 32 77.891 24.783 79.081 24.783C79.3236679 24.783 79.4846663 24.8949989 79.564 25.119L79.683 25.623zM91.065 26.393C91.0089997 26.467667 90.9530003 26.5248331 90.897 26.5645 90.8409997 26.6041669 90.7616672 26.624 90.659 26.624 90.5656662 26.624 90.4758338 26.5971669 90.3895 26.5435 90.3031662 26.4898331 90.2040006 26.4315003 90.092 26.3685 89.9799994 26.3054997 89.8470008 26.2471669 89.693 26.1935 89.5389992 26.1398331 89.3476678 26.113 89.119 26.113 88.8296652 26.113 88.5788344 26.1654995 88.3665 26.2705 88.1541656 26.3755005 87.9780007 26.525999 87.838 26.722 87.6979993 26.918001 87.594167 27.1559986 87.5265 27.436 87.458833 27.7160014 87.425 28.0309982 87.425 28.381 87.425 29.118337 87.5731652 29.682998 87.8695 30.075 88.1658348 30.467002 88.5706641 30.663 89.084 30.663 89.2613342 30.663 89.414166 30.6478335 89.5425 30.6175 89.670834 30.5871665 89.7828329 30.5486669 89.8785 30.502 89.9741671 30.4553331 90.0569997 30.4040003 90.127 30.348 90.1970004 30.2919997 90.2634997 30.2406669 90.3265 30.194 90.3895003 30.1473331 90.4524997 30.1088335 90.5155 30.0785 90.5785003 30.0481665 90.6496663 30.033 90.729 30.033 90.8783341 30.033 90.9949996 30.0889994 91.079 30.201L91.632 30.901C91.4266656 31.1390012 91.2073345 31.3361659 90.974 31.4925 90.7406655 31.6488341 90.4991679 31.7724995 90.2495 31.8635 89.9998321 31.9545005 89.746668 32.0174998 89.49 32.0525 89.2333321 32.0875002 88.9790013 32.105 88.727 32.105 88.2836645 32.105 87.8636687 32.0221675 87.467 31.8565 87.0703314 31.6908325 86.7226682 31.4493349 86.424 31.132 86.1253318 30.8146651 85.8885009 30.4250023 85.7135 29.963 85.5384991 29.5009977 85.451 28.9736696 85.451 28.381 85.451 27.853664 85.5279992 27.3636689 85.682 26.911 85.8360008 26.4583311 86.0623318 26.066335 86.361 25.735 86.6596682 25.403665 87.0294978 25.1435009 87.4705 24.9545 87.9115022 24.7654991 88.4213304 24.671 89 24.671 89.5506694 24.671 90.0336646 24.7596658 90.449 24.937 90.8643354 25.1143342 91.237665 25.3709983 91.569 25.707L91.065 26.393zM97.183 27.541C97.183 27.3403323 97.1561669 27.1490009 97.1025 26.967 97.0488331 26.7849991 96.9636673 26.6240007 96.847 26.484 96.7303328 26.3439993 96.5833342 26.2331671 96.406 26.1515 96.2286658 26.0698329 96.0163346 26.029 95.769 26.029 95.3069977 26.029 94.9453346 26.1596654 94.684 26.421 94.4226654 26.6823346 94.2523337 27.0556642 94.173 27.541L97.183 27.541zM94.145 28.689C94.205667 29.36567 94.398165 29.8603318 94.7225 30.173 95.046835 30.4856682 95.4703307 30.642 95.993 30.642 96.2590013 30.642 96.4888324 30.6105003 96.6825 30.5475 96.8761676 30.4844997 97.0464993 30.4145004 97.1935 30.3375 97.3405007 30.2604996 97.4734994 30.1905003 97.5925 30.1275 97.7115006 30.0644997 97.8293328 30.033 97.946 30.033 98.0953341 30.033 98.2119996 30.0889994 98.296 30.201L98.856 30.901C98.6506656 31.1390012 98.4243346 31.3361659 98.177 31.4925 97.9296654 31.6488341 97.6730013 31.7724995 97.407 31.8635 97.1409987 31.9545005 96.872668 32.0174998 96.602 32.0525 96.331332 32.0875002 96.0700013 32.105 95.818 32.105 95.3139975 32.105 94.8438355 32.0221675 94.4075 31.8565 93.9711645 31.6908325 93.590835 31.445835 93.2665 31.1215 92.942165 30.797165 92.6866676 30.3946691 92.5 29.914 92.3133324 29.4333309 92.22 28.8756698 92.22 28.241 92.22 27.7509976 92.3004992 27.2890022 92.4615 26.855 92.6225008 26.4209978 92.8546652 26.0430016 93.158 25.721 93.4613349 25.3989984 93.8299978 25.1435009 94.264 24.9545 94.6980022 24.7654991 95.1879973 24.671 95.734 24.671 96.1960023 24.671 96.6218314 24.7444993 97.0115 24.8915 97.4011686 25.0385007 97.7371653 25.2519986 98.0195 25.532 98.3018347 25.8120014 98.5211659 26.1561646 98.6775 26.5645 98.8338341 26.9728354 98.912 27.4383307 98.912 27.961 98.912 28.1056674 98.9050001 28.2246662 98.891 28.318 98.8769999 28.4113338 98.8536668 28.4859997 98.821 28.542 98.7883332 28.5980003 98.7440003 28.6364999 98.688 28.6575 98.6319997 28.6785001 98.5596671 28.689 98.471 28.689L94.145 28.689zM37.665 53.986C37.7810006 53.986 37.8729997 54.0199997 37.941 54.088 38.0090003 54.1560003 38.043 54.2439995 38.043 54.352L38.043 55 32.307 55 32.307 54.634C32.307 54.5579996 32.3229998 54.4800004 32.355 54.4 32.3870002 54.3199996 32.4369997 54.2460003 32.505 54.178L35.259 51.412C35.4870011 51.1799988 35.6949991 50.9570011 35.883 50.743 36.0710009 50.5289989 36.2309993 50.3140011 36.363 50.098 36.4950007 49.8819989 36.5969996 49.6630011 36.669 49.441 36.7410004 49.2189989 36.777 48.9820013 36.777 48.73 36.777 48.4779987 36.7370004 48.2570009 36.657 48.067 36.5769996 47.8769991 36.4680007 47.7200006 36.33 47.596 36.1919993 47.4719994 36.0290009 47.3790003 35.841 47.317 35.6529991 47.2549997 35.4510011 47.224 35.235 47.224 35.0149989 47.224 34.8130009 47.2559997 34.629 47.32 34.4449991 47.3840003 34.2820007 47.4729994 34.14 47.587 33.9979993 47.7010006 33.8790005 47.8359992 33.783 47.992 33.6869995 48.1480008 33.6190002 48.3199991 33.579 48.508 33.5309998 48.6480007 33.4660004 48.7409998 33.384 48.787 33.3019996 48.8330002 33.1870007 48.8460001 33.039 48.826L32.481 48.73C32.5370003 48.337998 32.6459992 47.9910015 32.808 47.689 32.9700008 47.3869985 33.1739988 47.134001 33.42 46.93 33.6660012 46.725999 33.9469984 46.5710005 34.263 46.465 34.5790016 46.3589995 34.9209982 46.306 35.289 46.306 35.6530018 46.306 35.9929984 46.3599995 36.309 46.468 36.6250016 46.5760005 36.8989988 46.732999 37.131 46.939 37.3630012 47.145001 37.5449993 47.3959985 37.677 47.692 37.8090007 47.9880015 37.875 48.3239981 37.875 48.7 37.875 49.0200016 37.8270005 49.3169986 37.731 49.591 37.6349995 49.8650014 37.5050008 50.1259988 37.341 50.374 37.1769992 50.6220012 36.9880011 50.8639988 36.774 51.1 36.5599989 51.3360012 36.3330012 51.5739988 36.093 51.814L33.825 54.13C33.9850008 54.0859998 34.1469992 54.0510001 34.311 54.025 34.4750008 53.9989999 34.6329992 53.986 34.785 53.986L37.665 53.986zM45.303 50.704C45.303 51.4560038 45.2220008 52.1069972 45.06 52.657 44.8979992 53.2070028 44.6770014 53.6619982 44.397 54.022 44.1169986 54.3820018 43.7860019 54.6499991 43.404 54.826 43.0219981 55.0020009 42.6130022 55.09 42.177 55.09 41.7369978 55.09 41.3280019 55.0020009 40.95 54.826 40.5719981 54.6499991 40.2430014 54.3820018 39.963 54.022 39.6829986 53.6619982 39.4630008 53.2070028 39.303 52.657 39.1429992 52.1069972 39.063 51.4560038 39.063 50.704 39.063 49.9519962 39.1429992 49.3000028 39.303 48.748 39.4630008 48.1959972 39.6829986 47.7390018 39.963 47.377 40.2430014 47.0149982 40.5719981 46.7460009 40.95 46.57 41.3280019 46.3939991 41.7369978 46.306 42.177 46.306 42.6130022 46.306 43.0219981 46.3939991 43.404 46.57 43.7860019 46.7460009 44.1169986 47.0149982 44.397 47.377 44.6770014 47.7390018 44.8979992 48.1959972 45.06 48.748 45.2220008 49.3000028 45.303 49.9519962 45.303 50.704zM44.193 50.704C44.193 50.0479967 44.1380006 49.4970022 44.028 49.051 43.9179995 48.6049978 43.7700009 48.2460014 43.584 47.974 43.3979991 47.7019986 43.1830012 47.5070006 42.939 47.389 42.6949988 47.2709994 42.4410013 47.212 42.177 47.212 41.9129987 47.212 41.6590012 47.2709994 41.415 47.389 41.1709988 47.5070006 40.9570009 47.7019986 40.773 47.974 40.5889991 48.2460014 40.4420006 48.6049978 40.332 49.051 40.2219995 49.4970022 40.167 50.0479967 40.167 50.704 40.167 51.3600033 40.2219995 51.9099978 40.332 52.354 40.4420006 52.7980022 40.5889991 53.1559986 40.773 53.428 40.9570009 53.7000014 41.1709988 53.8949994 41.415 54.013 41.6590012 54.1310006 41.9129987 54.19 42.177 54.19 42.4410013 54.19 42.6949988 54.1310006 42.939 54.013 43.1830012 53.8949994 43.3979991 53.7000014 43.584 53.428 43.7700009 53.1559986 43.9179995 52.7980022 44.028 52.354 44.1380006 51.9099978 44.193 51.3600033 44.193 50.704zM51.771 54.184L51.771 55 47.163 55 47.163 54.184 49.005 54.184 49.005 48.322C49.005 48.1459991 49.0109999 47.9680009 49.023 47.788L47.493 49.102C47.4409997 49.1460002 47.3890003 49.1729999 47.337 49.183 47.2849997 49.1930001 47.2370002 49.194 47.193 49.186 47.1489998 49.178 47.1080002 49.1620001 47.07 49.138 47.0319998 49.1139999 47.0030001 49.0880001 46.983 49.06L46.647 48.598 49.209 46.384 50.079 46.384 50.079 54.184 51.771 54.184zM59.109 46.402L59.109 46.882C59.109 47.0180007 59.0940001 47.1299996 59.064 47.218 59.0339999 47.3060004 59.0050001 47.3799997 58.977 47.44L55.413 54.622C55.3609997 54.7260005 55.2890005 54.8149996 55.197 54.889 55.1049995 54.9630004 54.9830008 55 54.831 55L54.063 55 57.675 47.908C57.7270003 47.8079995 57.7809997 47.7160004 57.837 47.632 57.8930003 47.5479996 57.9529997 47.4680004 58.017 47.392L53.529 47.392C53.4609997 47.392 53.4010003 47.3650003 53.349 47.311 53.2969997 47.2569997 53.271 47.1960003 53.271 47.128L53.271 46.402 59.109 46.402zM68.319 51.808L66.969 48.31C66.9289998 48.2059995 66.8870002 48.0850007 66.843 47.947 66.7989998 47.8089993 66.7570002 47.6620008 66.717 47.506 66.6329996 47.8300016 66.5470004 48.0999989 66.459 48.316L65.109 51.808 68.319 51.808zM70.743 55L69.843 55C69.7389995 55 69.6550003 54.9740003 69.591 54.922 69.5269997 54.8699997 69.4790002 54.8040004 69.447 54.724L68.643 52.648 64.785 52.648 63.981 54.724C63.9569999 54.7960004 63.9110003 54.8599997 63.843 54.916 63.7749997 54.9720003 63.6910005 55 63.591 55L62.691 55 66.129 46.402 67.305 46.402 70.743 55zM80.007 48.922L78.039 55 77.193 55C77.0889995 55 77.0170002 54.9320007 76.977 54.796L75.633 50.674C75.6009998 50.5819995 75.5750001 50.4890005 75.555 50.395 75.5349999 50.3009995 75.5150001 50.2080005 75.495 50.116 75.4749999 50.2080005 75.4550001 50.3009995 75.435 50.395 75.4149999 50.4890005 75.3890002 50.5839995 75.357 50.68L73.989 54.796C73.9529998 54.9320007 73.8730006 55 73.749 55L72.945 55 70.977 48.922 71.817 48.922C71.9010004 48.922 71.9719997 48.9439998 72.03 48.988 72.0880003 49.0320002 72.1269999 49.0839997 72.147 49.144L73.311 53.056C73.3790003 53.3440014 73.4329998 53.6159987 73.473 53.872 73.5090002 53.7399993 73.5459998 53.6060007 73.584 53.47 73.6220002 53.3339993 73.6629998 53.1960007 73.707 53.056L74.991 49.12C75.0110001 49.0599997 75.0459997 49.0100002 75.096 48.97 75.1460003 48.9299998 75.2069996 48.91 75.279 48.91L75.747 48.91C75.8270004 48.91 75.8929997 48.9299998 75.945 48.97 75.9970003 49.0100002 76.0329999 49.0599997 76.053 49.12L77.307 53.056C77.3510002 53.1960007 77.3909998 53.3339993 77.427 53.47 77.4630002 53.6060007 77.4969998 53.7399993 77.529 53.872 77.5490001 53.7399993 77.5739999 53.6070007 77.604 53.473 77.6340001 53.3389993 77.6669998 53.2000007 77.703 53.056L78.891 49.144C78.9110001 49.0799997 78.9489997 49.0270002 79.005 48.985 79.0610003 48.9429998 79.1269996 48.922 79.203 48.922L80.007 48.922zM84.345 52.264C83.8529975 52.2800001 83.4340017 52.3189997 83.088 52.381 82.7419983 52.4430003 82.4600011 52.5239995 82.242 52.624 82.0239989 52.7240005 81.8660005 52.8419993 81.768 52.978 81.6699995 53.1140007 81.621 53.2659992 81.621 53.434 81.621 53.5940008 81.6469997 53.7319994 81.699 53.848 81.7510003 53.9640006 81.8219996 54.0589996 81.912 54.133 82.0020004 54.2070004 82.1079994 54.2609998 82.23 54.295 82.3520006 54.3290002 82.4829993 54.346 82.623 54.346 82.8110009 54.346 82.9829992 54.3270002 83.139 54.289 83.2950008 54.2509998 83.4419993 54.1960004 83.58 54.124 83.7180007 54.0519996 83.8499994 53.9660005 83.976 53.866 84.1020006 53.7659995 84.2249994 53.6520006 84.345 53.524L84.345 52.264zM80.895 49.78C81.2310017 49.4559984 81.5929981 49.2140008 81.981 49.054 82.3690019 48.8939992 82.7989976 48.814 83.271 48.814 83.6110017 48.814 83.9129987 48.8699994 84.177 48.982 84.4410013 49.0940006 84.6629991 49.249999 84.843 49.45 85.0230009 49.650001 85.1589995 49.8919986 85.251 50.176 85.3430005 50.4600014 85.389 50.7719983 85.389 51.112L85.389 55 84.915 55C84.8109995 55 84.7310003 54.9830002 84.675 54.949 84.6189997 54.9149998 84.5750002 54.8480005 84.543 54.748L84.423 54.172C84.2629992 54.3200007 84.1070008 54.4509994 83.955 54.565 83.8029992 54.6790006 83.6430008 54.7749996 83.475 54.853 83.3069992 54.9310004 83.128001 54.9909998 82.938 55.033 82.7479991 55.0750002 82.5370012 55.096 82.305 55.096 82.0689988 55.096 81.847001 55.0630003 81.639 54.997 81.430999 54.9309997 81.2500008 54.8320007 81.096 54.7 80.9419992 54.5679993 80.8200004 54.401001 80.73 54.199 80.6399995 53.996999 80.595 53.7580014 80.595 53.482 80.595 53.2419988 80.6609993 53.0110011 80.793 52.789 80.9250007 52.5669989 81.1389985 52.3700009 81.435 52.198 81.7310015 52.0259991 82.1169976 51.8850006 82.593 51.775 83.0690024 51.6649994 83.6529965 51.6020001 84.345 51.586L84.345 51.112C84.345 50.6399976 84.243001 50.2830012 84.039 50.041 83.834999 49.7989988 83.537002 49.678 83.145 49.678 82.8809987 49.678 82.6600009 49.7109997 82.482 49.777 82.3039991 49.8430003 82.1500006 49.9169996 82.02 49.999 81.8899993 50.0810004 81.7780005 50.1549997 81.684 50.221 81.5899995 50.2870003 81.4970005 50.32 81.405 50.32 81.3329996 50.32 81.2710003 50.3010002 81.219 50.263 81.1669997 50.2249998 81.1230002 50.1780003 81.087 50.122L80.895 49.78zM88.029 50.14C88.221001 49.7239979 88.4569986 49.3990012 88.737 49.165 89.0170014 48.9309988 89.358998 48.814 89.763 48.814 89.8910006 48.814 90.0139994 48.8279999 90.132 48.856 90.2500006 48.8840001 90.3549995 48.9279997 90.447 48.988L90.369 49.786C90.3449999 49.8860005 90.2850005 49.936 90.189 49.936 90.1329997 49.936 90.0510005 49.9240001 89.943 49.9 89.8349995 49.8759999 89.7130007 49.864 89.577 49.864 89.384999 49.864 89.2140007 49.8919997 89.064 49.948 88.9139992 50.0040003 88.7800006 50.0869995 88.662 50.197 88.5439994 50.3070005 88.4380005 50.4429992 88.344 50.605 88.2499995 50.7670008 88.1650004 50.951999 88.089 51.16L88.089 55 87.015 55 87.015 48.922 87.627 48.922C87.7430006 48.922 87.8229998 48.9439998 87.867 48.988 87.9110002 49.0320002 87.9409999 49.1079995 87.957 49.216L88.029 50.14zM95.343 50.368C95.142999 50.0999987 94.9270012 49.9130005 94.695 49.807 94.4629988 49.7009995 94.2030014 49.648 93.915 49.648 93.3509972 49.648 92.9170015 49.849998 92.613 50.254 92.3089985 50.658002 92.157 51.2339963 92.157 51.982 92.157 52.378002 92.1909997 52.7169986 92.259 52.999 92.3270003 53.2810014 92.4269993 53.5129991 92.559 53.695 92.6910007 53.8770009 92.852999 54.0099996 93.045 54.094 93.237001 54.1780004 93.4549988 54.22 93.699 54.22 94.0510018 54.22 94.3579987 54.1400008 94.62 53.98 94.8820013 53.8199992 95.1229989 53.5940015 95.343 53.302L95.343 50.368zM96.411 46.162L96.411 55 95.775 55C95.6229992 55 95.5270002 54.9260007 95.487 54.778L95.391 54.04C95.1309987 54.3520016 94.8350017 54.603999 94.503 54.796 94.1709983 54.988001 93.7870022 55.084 93.351 55.084 93.0029983 55.084 92.6870014 55.0170007 92.403 54.883 92.1189986 54.7489993 91.877001 54.5520013 91.677 54.292 91.476999 54.0319987 91.3230005 53.7080019 91.215 53.32 91.1069995 52.9319981 91.053 52.4860025 91.053 51.982 91.053 51.5339978 91.1129994 51.1170019 91.233 50.731 91.3530006 50.3449981 91.5249989 50.0100014 91.749 49.726 91.9730011 49.4419986 92.2479984 49.2190008 92.574 49.057 92.9000016 48.8949992 93.266998 48.814 93.675 48.814 94.0470019 48.814 94.3659987 48.8769994 94.632 49.003 94.8980013 49.1290006 95.134999 49.3039989 95.343 49.528L95.343 46.162 96.411 46.162zM34.09525 62.224L34.09525 64.12875 36.57475 64.12875 36.57475 65.24975 34.09525 65.24975 34.09525 68 32.66075 68 32.66075 61.10775 37.04975 61.10775 37.04975 62.224 34.09525 62.224zM39.20625 63.10275L39.20625 68 37.89525 68 37.89525 63.10275 39.20625 63.10275zM39.363 61.711C39.363 61.8218339 39.3408336 61.9247495 39.2965 62.01975 39.2521664 62.1147505 39.192792 62.1986663 39.118375 62.2715 39.043958 62.3443337 38.9568755 62.4013331 38.857125 62.4425 38.7573745 62.4836669 38.6505006 62.50425 38.5365 62.50425 38.4288328 62.50425 38.3267088 62.4836669 38.230125 62.4425 38.1335412 62.4013331 38.0488337 62.3443337 37.976 62.2715 37.9031663 62.1986663 37.8453752 62.1147505 37.802625 62.01975 37.7598748 61.9247495 37.7385 61.8218339 37.7385 61.711 37.7385 61.6001661 37.7598748 61.4964588 37.802625 61.399875 37.8453752 61.3032912 37.9031663 61.2185837 37.976 61.14575 38.0488337 61.0729163 38.1335412 61.0159169 38.230125 60.97475 38.3267088 60.9335831 38.4288328 60.913 38.5365 60.913 38.6505006 60.913 38.7573745 60.9335831 38.857125 60.97475 38.9568755 61.0159169 39.043958 61.0729163 39.118375 61.14575 39.192792 61.2185837 39.2521664 61.3032912 39.2965 61.399875 39.3408336 61.4964588 39.363 61.6001661 39.363 61.711zM41.54325 63.67275C41.6414172 63.5777495 41.7435411 63.4906671 41.849625 63.4115 41.9557089 63.3323329 42.0681244 63.2642503 42.186875 63.20725 42.3056256 63.1502497 42.4338743 63.1059168 42.571625 63.07425 42.7093757 63.0425832 42.8589992 63.02675 43.0205 63.02675 43.2865013 63.02675 43.5224156 63.0726662 43.72825 63.1645 43.9340844 63.2563338 44.1074576 63.3845825 44.248375 63.54925 44.3892924 63.7139175 44.4953746 63.9102489 44.566625 64.13825 44.6378754 64.3662511 44.6735 64.6164153 44.6735 64.88875L44.6735 68 43.36725 68 43.36725 64.88875C43.36725 64.6164153 43.3039173 64.4050424 43.17725 64.254625 43.0505827 64.1042076 42.8637512 64.029 42.61675 64.029 42.4330824 64.029 42.2605008 64.0685829 42.099 64.14775 41.9374992 64.2269171 41.7839174 64.3377493 41.63825 64.48025L41.63825 68 40.32725 68 40.32725 63.10275 41.13475 63.10275C41.2994175 63.10275 41.4086664 63.1787492 41.4625 63.33075L41.54325 63.67275zM48.274 65.95275C47.9541651 65.9685834 47.6881677 65.9962915 47.476 66.035875 47.2638323 66.0754585 47.095209 66.1269164 46.970125 66.19025 46.845041 66.2535836 46.7563753 66.3256246 46.704125 66.406375 46.6518747 66.4871254 46.62575 66.5749995 46.62575 66.67 46.62575 66.8600009 46.6787911 66.9945829 46.784875 67.07375 46.8909589 67.1529171 47.0389991 67.1925 47.229 67.1925 47.4475011 67.1925 47.6367075 67.1537087 47.796625 67.076125 47.9565425 66.9985413 48.1156659 66.8774175 48.274 66.71275L48.274 65.95275zM45.6045 63.782C45.8926681 63.522332 46.2109149 63.3283756 46.55925 63.200125 46.9075851 63.0718744 47.2844146 63.00775 47.68975 63.00775 47.9810848 63.00775 48.2415405 63.0552495 48.471125 63.15025 48.7007095 63.2452505 48.8954575 63.3774575 49.055375 63.546875 49.2152925 63.7162925 49.3379996 63.9181655 49.4235 64.1525 49.5090004 64.3868345 49.55175 64.6433319 49.55175 64.922L49.55175 68 48.95325 68C48.8297494 68 48.735542 67.9825835 48.670625 67.94775 48.605708 67.9129165 48.5526669 67.8400839 48.5115 67.72925L48.407 67.41575C48.2834994 67.5234172 48.1639589 67.6184163 48.048375 67.70075 47.9327911 67.7830837 47.8132506 67.8519581 47.68975 67.907375 47.5662494 67.9627919 47.4340424 68.0047499 47.293125 68.03325 47.1522076 68.0617501 46.9946675 68.076 46.8205 68.076 46.6051656 68.076 46.4088342 68.0475003 46.2315 67.9905 46.0541658 67.9334997 45.9013756 67.8487922 45.773125 67.736375 45.6448744 67.6239578 45.545917 67.4838342 45.47625 67.316 45.406583 67.1481658 45.37175 66.9550011 45.37175 66.7365 45.37175 66.5559991 45.4176662 66.3755009 45.5095 66.195 45.6013338 66.0144991 45.7588739 65.8506257 45.982125 65.703375 46.2053761 65.5561243 46.5030398 65.4342088 46.875125 65.337625 47.2472102 65.2410412 47.7134972 65.1864167 48.274 65.17375L48.274 64.922C48.274 64.6148318 48.209084 64.3892091 48.07925 64.245125 47.949416 64.1010409 47.7625846 64.029 47.51875 64.029 47.3382491 64.029 47.1878339 64.0503748 47.0675 64.093125 46.9471661 64.1358752 46.8418755 64.1817914 46.751625 64.230875 46.6613745 64.2799586 46.5766671 64.3258748 46.4975 64.368625 46.4183329 64.4113752 46.3265005 64.43275 46.222 64.43275 46.1301662 64.43275 46.0533753 64.4097919 45.991625 64.363875 45.9298747 64.3179581 45.8784169 64.2633336 45.83725 64.2L45.6045 63.782zM51.79375 63.67275C51.8919172 63.5777495 51.9940411 63.4906671 52.100125 63.4115 52.2062089 63.3323329 52.3186244 63.2642503 52.437375 63.20725 52.5561256 63.1502497 52.6843743 63.1059168 52.822125 63.07425 52.9598757 63.0425832 53.1094992 63.02675 53.271 63.02675 53.5370013 63.02675 53.7729156 63.0726662 53.97875 63.1645 54.1845844 63.2563338 54.3579576 63.3845825 54.498875 63.54925 54.6397924 63.7139175 54.7458746 63.9102489 54.817125 64.13825 54.8883754 64.3662511 54.924 64.6164153 54.924 64.88875L54.924 68 53.61775 68 53.61775 64.88875C53.61775 64.6164153 53.5544173 64.4050424 53.42775 64.254625 53.3010827 64.1042076 53.1142512 64.029 52.86725 64.029 52.6835824 64.029 52.5110008 64.0685829 52.3495 64.14775 52.1879992 64.2269171 52.0344174 64.3377493 51.88875 64.48025L51.88875 68 50.57775 68 50.57775 63.10275 51.38525 63.10275C51.5499175 63.10275 51.6591664 63.1787492 51.713 63.33075L51.79375 63.67275zM59.51725 64.19525C59.4792498 64.2459169 59.4412502 64.2847082 59.40325 64.311625 59.3652498 64.3385418 59.311417 64.352 59.24175 64.352 59.1784163 64.352 59.1174586 64.3337918 59.058875 64.297375 59.0002914 64.2609582 58.9330004 64.2213752 58.857 64.178625 58.7809996 64.1358748 58.6907505 64.0962918 58.58625 64.059875 58.4817495 64.0234582 58.3519174 64.00525 58.19675 64.00525 58.0004157 64.00525 57.8302091 64.0408746 57.686125 64.112125 57.5420409 64.1833754 57.4225005 64.2854993 57.3275 64.4185 57.2324995 64.5515007 57.1620419 64.7129991 57.116125 64.903 57.0702081 65.093001 57.04725 65.3067488 57.04725 65.54425 57.04725 66.0445858 57.1477907 66.4277487 57.348875 66.69375 57.5499593 66.9597513 57.8246649 67.09275 58.173 67.09275 58.2933339 67.09275 58.3970412 67.0824584 58.484125 67.061875 58.5712088 67.0412916 58.647208 67.0151668 58.712125 66.9835 58.777042 66.9518332 58.8332498 66.9170002 58.88075 66.879 58.9282502 66.8409998 58.9733748 66.8061668 59.016125 66.7745 59.0588752 66.7428332 59.1016248 66.7167084 59.144375 66.696125 59.1871252 66.6755416 59.2354164 66.66525 59.28925 66.66525 59.3905838 66.66525 59.4697497 66.7032496 59.52675 66.77925L59.902 67.25425C59.762666 67.4157508 59.6138341 67.5495411 59.4555 67.655625 59.2971659 67.7617089 59.1332925 67.8456247 58.963875 67.907375 58.7944575 67.9691253 58.6226675 68.0118749 58.4485 68.035625 58.2743325 68.0593751 58.1017509 68.07125 57.93075 68.07125 57.6299152 68.07125 57.344918 68.0150422 57.07575 67.902625 56.806582 67.7902078 56.5706677 67.6263344 56.368 67.411 56.1653323 67.1956656 56.0046256 66.9312516 55.885875 66.61775 55.7671244 66.3042484 55.70775 65.9464187 55.70775 65.54425 55.70775 65.1864149 55.7599995 64.8539182 55.8645 64.54675 55.9690005 64.2395818 56.1225823 63.9735845 56.32525 63.74875 56.5279177 63.5239155 56.7788735 63.3473756 57.078125 63.219125 57.3773765 63.0908744 57.7233314 63.02675 58.116 63.02675 58.4896685 63.02675 58.8174153 63.0869161 59.09925 63.20725 59.3810847 63.3275839 59.6344155 63.5017489 59.85925 63.72975L59.51725 64.19525zM63.66875 64.97425C63.66875 64.8380827 63.6505418 64.7082506 63.614125 64.58475 63.5777082 64.4612494 63.5199171 64.3520005 63.44075 64.257 63.3615829 64.1619995 63.2618339 64.0867919 63.1415 64.031375 63.0211661 63.9759581 62.8770842 63.94825 62.70925 63.94825 62.3957484 63.94825 62.1503342 64.0369158 61.973 64.21425 61.7956658 64.3915842 61.6800836 64.644915 61.62625 64.97425L63.66875 64.97425zM61.60725 65.75325C61.6484169 66.212419 61.7790406 66.5480823 61.999125 66.76025 62.2192094 66.9724177 62.5065816 67.0785 62.86125 67.0785 63.0417509 67.0785 63.1977077 67.0571252 63.329125 67.014375 63.4605423 66.9716248 63.5761245 66.9241253 63.675875 66.871875 63.7756255 66.8196247 63.8658746 66.7721252 63.946625 66.729375 64.0273754 66.6866248 64.1073329 66.66525 64.1865 66.66525 64.2878338 66.66525 64.3669997 66.7032496 64.424 66.77925L64.804 67.25425C64.664666 67.4157508 64.5110842 67.5495411 64.34325 67.655625 64.1754158 67.7617089 64.0012509 67.8456247 63.82075 67.907375 63.6402491 67.9691253 63.4581676 68.0118749 63.2745 68.035625 63.0908324 68.0593751 62.9135009 68.07125 62.7425 68.07125 62.4004983 68.07125 62.0814598 68.0150422 61.785375 67.902625 61.4892902 67.7902078 61.2312094 67.6239594 61.011125 67.403875 60.7910406 67.1837906 60.6176673 66.9106683 60.491 66.5845 60.3643327 66.2583317 60.301 65.8799188 60.301 65.44925 60.301 65.1167483 60.3556245 64.8032515 60.464875 64.50875 60.5741255 64.2142485 60.7316656 63.9577511 60.9375 63.73925 61.1433344 63.5207489 61.3934985 63.3473756 61.688 63.219125 61.9825015 63.0908744 62.3149981 63.02675 62.6855 63.02675 62.9990016 63.02675 63.287957 63.0766245 63.552375 63.176375 63.816793 63.2761255 64.0447907 63.420999 64.236375 63.611 64.4279593 63.801001 64.5767911 64.0345403 64.682875 64.311625 64.7889589 64.5887097 64.842 64.9045816 64.842 65.25925 64.842 65.3574172 64.83725 65.4381664 64.82775 65.5015 64.81825 65.5648336 64.8024168 65.6154998 64.78025 65.6535 64.7580832 65.6915002 64.7280002 65.7176249 64.69 65.731875 64.6519998 65.7461251 64.602917 65.75325 64.54275 65.75325L61.60725 65.75325zM68.699 64.10975C68.6641665 64.1635836 68.6285418 64.2023749 68.592125 64.226125 68.5557082 64.2498751 68.5058336 64.26175 68.4425 64.26175 68.3791663 64.26175 68.3142503 64.2459168 68.24775 64.21425 68.1812497 64.1825832 68.1068337 64.1485418 68.0245 64.112125 67.9421663 64.0757082 67.8479589 64.0416668 67.741875 64.01 67.6357911 63.9783332 67.513084 63.9625 67.37375 63.9625 67.1615823 63.9625 66.9969173 64.0060412 66.87975 64.093125 66.7625827 64.1802088 66.704 64.2949993 66.704 64.4375 66.704 64.5356672 66.7372497 64.6179997 66.80375 64.6845 66.8702503 64.7510003 66.9581245 64.8087914 67.067375 64.857875 67.1766255 64.9069586 67.300916 64.9528748 67.44025 64.995625 67.579584 65.0383752 67.7228743 65.0850831 67.870125 65.13575 68.0173757 65.1864169 68.160666 65.2449997 68.3 65.3115 68.439334 65.3780003 68.5636245 65.4611245 68.672875 65.560875 68.7821255 65.6606255 68.8699997 65.7809576 68.9365 65.921875 69.0030003 66.0627924 69.03625 66.232999 69.03625 66.4325 69.03625 66.6700012 68.9927088 66.8892907 68.905625 67.090375 68.8185412 67.2914593 68.6910842 67.4648326 68.52325 67.6105 68.3554158 67.7561674 68.1464179 67.8701663 67.89625 67.9525 67.6460821 68.0348337 67.3579183 68.076 67.03175 68.076 66.8639158 68.076 66.6976675 68.0609585 66.533 68.030875 66.3683325 68.0007915 66.2115841 67.9580419 66.06275 67.902625 65.9139159 67.8472081 65.774584 67.7830837 65.64475 67.71025 65.514916 67.6374163 65.4025005 67.5582504 65.3075 67.47275L65.6115 66.9835C65.6463335 66.9264997 65.6898747 66.8821668 65.742125 66.8505 65.7943753 66.8188332 65.8616663 66.803 65.944 66.803 66.0231671 66.803 66.0959997 66.8227915 66.1625 66.862375 66.2290003 66.9019585 66.3034163 66.9447081 66.38575 66.990625 66.4680837 67.0365419 66.5654578 67.0792915 66.677875 67.118875 66.7902922 67.1584585 66.9304158 67.17825 67.09825 67.17825 67.2249173 67.17825 67.3341662 67.1640001 67.426 67.1355 67.5178338 67.1069999 67.5922497 67.0682086 67.64925 67.019125 67.7062503 66.9700414 67.7482082 66.9146253 67.775125 66.852875 67.8020418 66.7911247 67.8155 66.7270003 67.8155 66.6605 67.8155 66.5528328 67.7814587 66.4649587 67.713375 66.396875 67.6452913 66.3287913 67.5566255 66.2694169 67.447375 66.21875 67.3381245 66.1680831 67.2122507 66.1221669 67.06975 66.081 66.9272493 66.0398331 66.7823757 65.9939169 66.635125 65.94325 66.4878743 65.8925831 66.3437924 65.832417 66.202875 65.76275 66.0619576 65.693083 65.9368755 65.6052089 65.827625 65.499125 65.7183745 65.3930411 65.6297087 65.2624174 65.561625 65.10725 65.4935413 64.9520826 65.4595 64.7636678 65.4595 64.542 65.4595 64.3393323 65.4990829 64.1469592 65.57825 63.964875 65.6574171 63.7827908 65.7761659 63.622084 65.9345 63.48275 66.0928341 63.343416 66.2899572 63.2325837 66.525875 63.15025 66.7617928 63.0679163 67.0349151 63.02675 67.34525 63.02675 67.6935851 63.02675 68.0102486 63.0837494 68.29525 63.19775 68.5802514 63.3117506 68.8145824 63.4605824 68.99825 63.64425L68.699 64.10975zM76.47475 64.599C76.47475 65.1088359 76.3940008 65.5767062 76.2325 66.002625 76.0709992 66.4285438 75.8430015 66.7950818 75.5485 67.10225 75.2539985 67.4094182 74.9001271 67.6477075 74.486875 67.817125 74.0736229 67.9865425 73.6168358 68.07125 73.1165 68.07125 72.6161642 68.07125 72.1601687 67.9865425 71.7485 67.817125 71.3368313 67.6477075 70.9837515 67.4094182 70.68925 67.10225 70.3947485 66.7950818 70.1667508 66.4285438 70.00525 66.002625 69.8437492 65.5767062 69.763 65.1088359 69.763 64.599 69.763 64.0891641 69.8437492 63.6212938 70.00525 63.195375 70.1667508 62.7694562 70.3947485 62.4021265 70.68925 62.093375 70.9837515 61.7846235 71.3368313 61.5447509 71.7485 61.37375 72.1601687 61.2027491 72.6161642 61.11725 73.1165 61.11725 73.6168358 61.11725 74.0736229 61.2027491 74.486875 61.37375 74.9001271 61.5447509 75.2539985 61.7846235 75.5485 62.093375 75.8430015 62.4021265 76.0709992 62.7694562 76.2325 63.195375 76.3940008 63.6212938 76.47475 64.0891641 76.47475 64.599zM75.5295 64.599C75.5295 64.1809979 75.4725006 63.8057517 75.3585 63.47325 75.2444994 63.1407483 75.083001 62.8597095 74.874 62.630125 74.664999 62.4005405 74.4116682 62.2240006 74.114 62.1005 73.8163318 61.9769994 73.4838352 61.91525 73.1165 61.91525 72.7523315 61.91525 72.4214182 61.9769994 72.12375 62.1005 71.8260818 62.2240006 71.5719594 62.4005405 71.361375 62.630125 71.1507906 62.8597095 70.9885006 63.1407483 70.8745 63.47325 70.7604994 63.8057517 70.7035 64.1809979 70.7035 64.599 70.7035 65.0170021 70.7604994 65.3914567 70.8745 65.722375 70.9885006 66.0532933 71.1507906 66.3335405 71.361375 66.563125 71.5719594 66.7927095 71.8260818 66.9684577 72.12375 67.090375 72.4214182 67.2122923 72.7523315 67.27325 73.1165 67.27325 73.4838352 67.27325 73.8163318 67.2122923 74.114 67.090375 74.4116682 66.9684577 74.664999 66.7927095 74.874 66.563125 75.083001 66.3335405 75.2444994 66.0532933 75.3585 65.722375 75.4725006 65.3914567 75.5295 65.0170021 75.5295 64.599zM78.389 63.8865C78.4935005 63.7693327 78.6043327 63.6632505 78.7215 63.56825 78.8386673 63.4732495 78.9629577 63.3917087 79.094375 63.323625 79.2257923 63.2555413 79.3651243 63.2032918 79.512375 63.166875 79.6596257 63.1304582 79.8187491 63.11225 79.98975 63.11225 80.2525846 63.11225 80.4845407 63.1557912 80.685625 63.242875 80.8867093 63.3299588 81.054541 63.4534575 81.189125 63.613375 81.323709 63.7732925 81.425833 63.9656655 81.4955 64.1905 81.565167 64.4153345 81.6 64.6639153 81.6 64.93625L81.6 68 80.74975 68 80.74975 64.93625C80.74975 64.5720815 80.6666258 64.2894593 80.500375 64.088375 80.3341242 63.8872907 80.081585 63.78675 79.74275 63.78675 79.4925821 63.78675 79.2590428 63.8469161 79.042125 63.96725 78.8252072 64.0875839 78.6249176 64.2506656 78.44125 64.4565L78.44125 68 77.591 68 77.591 63.18825 78.09925 63.18825C78.2195839 63.18825 78.2939999 63.2468327 78.3225 63.364L78.389 63.8865zM83.766 61.00325L83.766 68 82.9205 68 82.9205 61.00325 83.766 61.00325zM86.027 63.18825L86.027 68 85.1815 68 85.1815 63.18825 86.027 63.18825zM86.2075 61.67775C86.2075 61.7600837 86.1908752 61.8368746 86.157625 61.908125 86.1243748 61.9793754 86.0800419 62.0427081 86.024625 62.098125 85.9692081 62.1535419 85.904292 62.1970832 85.829875 62.22875 85.755458 62.2604168 85.6770837 62.27625 85.59475 62.27625 85.5124163 62.27625 85.4356254 62.2604168 85.364375 62.22875 85.2931246 62.1970832 85.2305836 62.1535419 85.17675 62.098125 85.1229164 62.0427081 85.0801668 61.9793754 85.0485 61.908125 85.0168332 61.8368746 85.001 61.7600837 85.001 61.67775 85.001 61.5954163 85.0168332 61.517042 85.0485 61.442625 85.0801668 61.368208 85.1229164 61.3032919 85.17675 61.247875 85.2305836 61.1924581 85.2931246 61.1489168 85.364375 61.11725 85.4356254 61.0855832 85.5124163 61.06975 85.59475 61.06975 85.6770837 61.06975 85.755458 61.0855832 85.829875 61.11725 85.904292 61.1489168 85.9692081 61.1924581 86.024625 61.247875 86.0800419 61.3032919 86.1243748 61.368208 86.157625 61.442625 86.1908752 61.517042 86.2075 61.5954163 86.2075 61.67775zM88.212 63.8865C88.3165005 63.7693327 88.4273327 63.6632505 88.5445 63.56825 88.6616673 63.4732495 88.7859577 63.3917087 88.917375 63.323625 89.0487923 63.2555413 89.1881243 63.2032918 89.335375 63.166875 89.4826257 63.1304582 89.6417491 63.11225 89.81275 63.11225 90.0755846 63.11225 90.3075407 63.1557912 90.508625 63.242875 90.7097093 63.3299588 90.877541 63.4534575 91.012125 63.613375 91.146709 63.7732925 91.248833 63.9656655 91.3185 64.1905 91.388167 64.4153345 91.423 64.6639153 91.423 64.93625L91.423 68 90.57275 68 90.57275 64.93625C90.57275 64.5720815 90.4896258 64.2894593 90.323375 64.088375 90.1571242 63.8872907 89.904585 63.78675 89.56575 63.78675 89.3155821 63.78675 89.0820428 63.8469161 88.865125 63.96725 88.6482072 64.0875839 88.4479176 64.2506656 88.26425 64.4565L88.26425 68 87.414 68 87.414 63.18825 87.92225 63.18825C88.0425839 63.18825 88.1169999 63.2468327 88.1455 63.364L88.212 63.8865zM95.9355 65.06925C95.9355 64.8729157 95.9077919 64.6932091 95.852375 64.530125 95.7969581 64.3670409 95.7162089 64.2261256 95.610125 64.107375 95.5040411 63.9886244 95.3750008 63.896792 95.223 63.831875 95.0709992 63.766958 94.8984176 63.7345 94.70525 63.7345 94.2999146 63.7345 93.9792928 63.8524572 93.743375 64.088375 93.5074572 64.3242928 93.3610003 64.6512479 93.304 65.06925L95.9355 65.06925zM96.6195 67.3255C96.5149995 67.4521673 96.3899174 67.5622079 96.24425 67.655625 96.0985826 67.7490421 95.9426258 67.825833 95.776375 67.886 95.6101242 67.946167 95.4383342 67.9912915 95.261 68.021375 95.0836658 68.0514585 94.9079175 68.0665 94.73375 68.0665 94.4012483 68.0665 94.0948764 68.0102922 93.814625 67.897875 93.5343736 67.7854578 93.292126 67.6207928 93.087875 67.403875 92.883624 67.1869572 92.7245006 66.9185849 92.6105 66.59875 92.4964994 66.2789151 92.4395 65.9115854 92.4395 65.49675 92.4395 65.1610817 92.4909578 64.8475848 92.593875 64.55625 92.6967922 64.2649152 92.8448324 64.0123761 93.038 63.798625 93.2311676 63.5848739 93.4670819 63.4170423 93.74575 63.295125 94.0244181 63.1732077 94.3379149 63.11225 94.68625 63.11225 94.9744181 63.11225 95.2412071 63.1605412 95.486625 63.257125 95.7320429 63.3537088 95.9442074 63.4930408 96.123125 63.675125 96.3020426 63.8572092 96.4421662 64.0820403 96.5435 64.349625 96.6448338 64.6172097 96.6955 64.9219983 96.6955 65.264 96.6955 65.3970007 96.6812501 65.4856664 96.65275 65.53 96.6242499 65.5743336 96.5704171 65.5965 96.49125 65.5965L93.2755 65.5965C93.285 65.9005015 93.326958 66.1649155 93.401375 66.38975 93.475792 66.6145845 93.5794993 66.8022076 93.7125 66.952625 93.8455007 67.1030424 94.0038324 67.215458 94.1875 67.289875 94.3711676 67.364292 94.5769989 67.4015 94.805 67.4015 95.0171677 67.4015 95.2000409 67.3769586 95.353625 67.327875 95.5072091 67.2787914 95.6394161 67.2257503 95.75025 67.16875 95.8610839 67.1117497 95.953708 67.0587086 96.028125 67.009625 96.102542 66.9605414 96.1666664 66.936 96.2205 66.936 96.290167 66.936 96.3439998 66.9629164 96.382 67.01675L96.6195 67.3255z"/>
  </g>
</svg>
