<svg xmlns="http://www.w3.org/2000/svg" width="129" height="72" viewBox="0 0 129 72">
  <g fill="none" fill-rule="evenodd">
    <rect width="129" height="72"/>
    <path fill="#7B8BA2" d="M118.428326 6.68970086C119.601634 7.0142209 120.622912 8.10050534 121.338721 9.17027909 122.114397 10.3293023 122.550407 11.2998374 122.877984 12.1323386 123.206279 12.9667051 123.307036 14.1284074 123.369217 15.0319989 123.432832 15.9393212 123.146716 18.065928 123.074348 18.9185903 122.999518 19.7731541 122.741519 21.5659498 122.589625 22.3308353 121.39155 21.3633458 120.075815 20.2504332 119.172096 19.5999728 118.270839 18.9476109 117.116213 17.8965667 116.471837 17.4748523 115.828042 17.0518823 114.930161 16.2283647 114.696422 15.2274262 114.457758 14.2302908 114.396039 13.5715042 114.498627 13.0188902 115.519773 13.8972125 117.187007 14.7975396 117.924077 15.0976684 118.657832 15.3947122 119.661784 16.0677643 120.043924 16.5161924 119.956841 14.9665105 120.107256 13.347929 120.068729 12.3591344 120.01937 11.0625768 119.371751 8.57562613 118.428326 6.68970086zM125.097833 16.0159666C126.022997 17.2615073 126.610393 18.4203593 126.910039 19.8561557 127.205946 21.2965842 127.363474 22.9531224 127.318451 24.0658333 127.274643 25.1759207 126.722583 26.7980021 126.23648 27.8473919 125.750985 28.89547 124.262074 31.5485878 123.747422 32.2396321 122.831952 30.7287542 121.899491 28.8793294 121.150776 28.0136512 120.431958 27.1763793 119.383133 25.943057 118.756215 24.9349311 118.131916 23.9280348 117.290611 21.6167584 117.294948 20.3715644 118.659221 21.8120494 120.125629 22.9012362 120.811323 23.5552776 121.495612 24.2054658 123.086925 25.5241601 123.407862 26.3838638 123.750986 24.441727 124.399902 22.641536 124.578836 21.5357904 124.753935 20.4314386 125.196703 17.4996457 125.097833 16.0159666zM128.302075 26.8853879C128.600658 28.2210085 128.855394 29.5967538 128.706813 31.3762392 128.560827 33.1569421 128.004462 35.0703365 127.327887 36.0571678 126.650719 37.0452777 125.742267 38.1100548 124.940505 38.9649624 124.140632 39.8192001 122.575334 41.2045085 121.988609 42.0280466 121.842315 40.0603328 121.442325 38.6880071 121.035574 37.4666097 120.606053 36.1784866 119.939447 34.3899254 119.267948 32.6971328 118.597634 31.001783 118.109503 28.9778984 118.742661 27.9893654 119.60334 29.1374287 120.676582 30.3821587 121.285874 31.4355671 121.893165 32.4864795 122.341379 33.420691 122.610237 34.0979298 122.854662 34.7154445 123.205781 35.4468631 123.307042 36.216655 123.996225 34.8481501 124.552139 33.6412367 125.137842 32.8608036 125.723545 32.0803704 126.414509 31.0318032 126.880929 30.0521706 127.352199 29.0654753 127.973805 27.6792583 128.302075 26.8853879zM118.889436 36.0348076C119.173122 37.4922942 119.456824 38.9902016 119.833179 40.2813484 120.210817 41.5730973 120.792084 44.1883822 120.914704 45.4676738 121.800515 44.4892166 122.790164 43.6574269 123.757692 42.7655137 124.726012 41.878635 125.764387 40.7697253 126.432141 39.9484884 127.100685 39.132286 128.126372 37.8619831 128.750045 37.0853379 128.899769 37.7835843 128.967715 38.4931831 128.942731 39.2011273 128.900757 40.3705155 128.616493 41.5303119 128.075212 42.6145388 127.20163 44.3588222 125.643672 46.2792491 124.4998 47.2888979 123.357111 48.2959932 121.916606 49.335825 121.002827 49.9296605 120.087075 50.5210151 118.626799 51.1956159 118.066053 51.4251299 118.238315 49.6609577 118.212733 47.2552235 118.017982 45.6731672 117.821457 44.0949411 117.559445 42.044534 117.612347 40.5616308 117.670281 39.0779804 118.006535 36.8856186 118.889436 36.0348076zM115.463702 54.4333855C116.121957 54.2086515 117.182028 53.7872404 117.803895 53.430153 118.423732 53.0705334 119.84173 52.3639435 121.125677 51.652854 122.414544 50.9345998 124.102535 49.8526027 125.854852 48.2133853 125.872885 49.0319149 125.655232 50.3177512 125.271564 51.3361694 124.889097 52.3519935 123.484656 53.9697563 122.139722 55.1133069 120.750795 56.293053 119.003025 57.2032941 117.329015 57.7676017 115.656433 58.3357384 113.233184 58.6020332 110.96655 58.706563 111.349939 57.6437997 111.860818 55.3792025 112.126184 54.0526002 112.388432 52.7292715 112.923581 49.8175929 113.275391 48.4115589 113.629004 47.0016338 114.168466 45.2147014 115.640066 44.1227135 115.530503 44.8087106 115.739023 46.3293371 115.718421 46.933926 115.697706 47.5353033 115.822954 48.9694687 115.778249 50.2622725 115.736775 51.5550142 115.638896 53.0628765 115.463702 54.4333855zM119.958137 58.6609567C119.530802 59.9950973 118.854414 60.9784801 117.922391 61.8619973 116.994156 62.7441956 115.771619 63.3287312 114.723642 63.6839239 113.419923 64.1281394 109.939228 64.6515652 108.023629 64.5747075 106.258072 64.5032366 104.298171 63.8805819 103.387621 63.5755047 102.508857 63.280702 101.310798 62.8313725 100.799994 62.6752237 102.073578 61.8947379 102.780295 61.0928493 103.7704 59.6620381 104.761684 58.2286828 105.815925 56.1620471 106.715665 54.9366054 107.612921 53.7130951 109.391413 51.8563429 110.878912 51.173174 110.307599 52.9244652 109.73222 54.8457507 109.392611 56.1002744 109.054307 57.3554107 108.202865 59.8966675 107.424439 61.3850295 109.459306 61.0672085 112.100932 60.6160653 113.574957 60.3152889 115.050749 60.0106963 117.479765 59.4628488 118.131688 59.2423195 118.785505 59.0211307 119.433859 58.8872004 119.958137 58.6609567zM111.390688 5C112.441119 5.18979109 113.970332 5.58158111 115.176454 6.55416137 116.387343 7.51988095 117.586002 8.91356874 118.079932 10.3115878 118.576899 11.706483 118.767402 12.9529713 118.579942 13.5807476 117.451666 12.9995619 115.802482 12.0464727 115.028131 11.3190317 114.254934 10.5890994 113.405256 9.30008482 112.854693 8.24398304 112.309779 7.18598343 111.721674 5.87114083 111.390688 5zM10.5194695 6.68970086C9.57604508 8.57562613 8.92842568 11.0625768 8.8790665 12.3591344 8.84054 13.347929 8.99095496 14.9665105 8.90387174 16.5161924 9.28601186 16.0677643 10.2899642 15.3947122 11.0237187 15.0976684 11.7607884 14.7975396 13.4280228 13.8972125 14.4491685 13.0188902 14.5517567 13.5715042 14.4900374 14.2302908 14.2513737 15.2274262 14.0176345 16.2283647 13.1197538 17.0518823 12.4759593 17.4748523 11.8315832 17.8965667 10.6769573 18.9476109 9.7757003 19.5999728 8.8719811 20.2504332 7.55624584 21.3633458 6.35817108 22.3308353 6.206277 21.5659498 5.94827792 19.7731541 5.87344777 18.9185903 5.80107987 18.065928 5.51496353 15.9393212 5.57857878 15.0319989 5.64075942 14.1284074 5.74151707 12.9667051 6.06981185 12.1323386 6.39738933 11.2998374 6.83339897 10.3293023 7.60907485 9.17027909 8.32488352 8.10050534 9.34616161 7.0142209 10.5194695 6.68970086zM3.84996243 16.0159666C3.75109303 17.4996457 4.19386131 20.4314386 4.36895996 21.5357904 4.54789348 22.641536 5.19681029 24.441727 5.53993431 26.3838638 5.86087043 25.5241601 7.45218367 24.2054658 8.13647327 23.5552776 8.82216722 22.9012362 10.2885746 21.8120494 11.6528476 20.3715644 11.6571846 21.6167584 10.8158796 23.9280348 10.1915812 24.9349311 9.56466317 25.943057 8.51583833 27.1763793 7.79701962 28.0136512 7.04830476 28.8793294 6.11584433 30.7287542 5.20037381 32.2396321 4.68572218 31.5485878 3.19681112 28.89547 2.71131586 27.8473919 2.22521298 26.7980021 1.67315244 25.1759207 1.62934463 24.0658333 1.58432156 22.9531224 1.74185002 21.2965842 2.03775649 19.8561557 2.33740328 18.4203593 2.92479901 17.2615073 3.84996243 16.0159666zM.645720852 26.8853879C.973991231 27.6792583 1.59559643 29.0654753 2.06686676 30.0521706 2.53328668 31.0318032 3.22425075 32.0803704 3.80995405 32.8608036 4.39565734 33.6412367 4.95157138 34.8481501 5.64075364 36.216655 5.74201539 35.4468631 6.09313421 34.7154445 6.33755864 34.0979298 6.60641737 33.420691 7.0546307 32.4864795 7.66192155 31.4355671 8.27121375 30.3821587 9.34445638 29.1374287 10.2051352 27.9893654 10.838293 28.9778984 10.3501614 31.001783 9.67984753 32.6971328 9.00834911 34.3899254 8.34174337 36.1784866 7.91222212 37.4666097 7.50547064 38.6880071 7.10548137 40.0603328 6.95918731 42.0280466 6.37246221 41.2045085 4.80716359 39.8192001 4.00729059 38.9649624 3.20552851 38.1100548 2.29707704 37.0452777 1.6199092 36.0571678.943333625 35.0703365.386969158 33.1569421.24098246 31.3762392.0924021506 29.5967538.347137854 28.2210085.645720852 26.8853879zM10.0583602 36.0348076C10.9412611 36.8856186 11.2775152 39.0779804 11.3354485 40.5616308 11.3883509 42.044534 11.1263384 44.0949411 10.9298137 45.6731672 10.7350631 47.2552235 10.7094809 49.6609577 10.8817427 51.4251299 10.3209972 51.1956159 8.86072087 50.5210151 7.94496854 49.9296605 7.03119019 49.335825 5.5906851 48.2959932 4.4479961 47.2888979 3.30412427 46.2792491 1.74616591 44.3588222.872583705 42.6145388.331303157 41.5303119.0470384012 40.3705155.00506516563 39.2011273-.0199190611 38.4931831.0480269695 37.7835843.197750678 37.0853379.821424038 37.8619831 1.84711054 39.132286 2.51565517 39.9484884 3.18340867 40.7697253 4.22178422 41.878635 5.19010347 42.7655137 6.15763159 43.6574269 7.1472806 44.4892166 8.03309227 45.4676738 8.15571158 44.1883822 8.73697856 41.5730973 9.11461652 40.2813484 9.49097177 38.9902016 9.77467372 37.4922942 10.0583602 36.0348076zM13.484094 54.4333855C13.3088996 53.0628765 13.2110204 51.5550142 13.1695472 50.2622725 13.1248421 48.9694687 13.2500898 47.5353033 13.2293746 46.933926 13.2087732 46.3293371 13.4172931 44.8087106 13.3077303 44.1227135 14.7793295 45.2147014 15.3187923 47.0016338 15.672405 48.4115589 16.0242152 49.8175929 16.5593636 52.7292715 16.8216116 54.0526002 17.0869776 55.3792025 17.5978571 57.6437997 17.9812462 58.706563 15.7146118 58.6020332 13.2913624 58.3357384 11.6187811 57.7676017 9.94477045 57.2032941 8.19700124 56.293053 6.80807346 55.1133069 5.46313946 53.9697563 4.05869872 52.3519935 3.67623218 51.3361694 3.29256401 50.3177512 3.0749106 49.0319149 3.09294414 48.2133853 4.84526048 49.8526027 6.53325216 50.9345998 7.82211917 51.652854 9.10606571 52.3639435 10.5240638 53.0705334 11.1439006 53.430153 11.7657677 53.7872404 12.8258387 54.2086515 13.484094 54.4333855zM8.98965905 58.6609567C9.51393708 58.8872004 10.1622906 59.0211307 10.8161079 59.2423195 11.4680308 59.4628488 13.8970467 60.0106963 15.3728392 60.3152889 16.8468639 60.6160653 19.48849 61.0672085 21.5233565 61.3850295 20.7449311 59.8966675 19.893489 57.3554107 19.555185 56.1002744 19.2155759 54.8457507 18.6401971 52.9244652 18.0688842 51.173174 19.5563831 51.8563429 21.3348751 53.7130951 22.2321314 54.9366054 23.1318713 56.1620471 24.1861117 58.2286828 25.1773954 59.6620381 26.1675007 61.0928493 26.8742184 61.8947379 28.1478019 62.6752237 27.636998 62.8313725 26.4389389 63.280702 25.560175 63.5755047 24.6496252 63.8805819 22.6897238 64.5032366 20.9241666 64.5747075 19.008568 64.6515652 15.5278733 64.1281394 14.2241541 63.6839239 13.1761773 63.3287312 11.9536396 62.7441956 11.0254051 61.8619973 10.0933819 60.9784801 9.41699434 59.9950973 8.98965905 58.6609567zM17.5571078 5C17.2261216 5.87114083 16.6380167 7.18598343 16.0931027 8.24398304 15.5425399 9.30008482 14.6928614 10.5890994 13.9196649 11.3190317 13.1453143 12.0464727 11.4961297 12.9995619 10.3678536 13.5807476 10.1803939 12.9529713 10.3708973 11.706483 10.8678642 10.3115878 11.3617942 8.91356874 12.560453 7.51988095 13.7713424 6.55416137 14.9774638 5.58158111 16.5066769 5.18979109 17.5571078 5z"/>
    <path stroke="#C0CDDF" stroke-linecap="round" stroke-linejoin="round" stroke-width=".8" d="M24.5,48.5 L104.5,48.5"/>
    <g fill="#7B8BA2" fill-rule="nonzero" transform="translate(36 54)">
      <path d="M15.9 9.45479452C15.8666667 9.35349315 15.7666667 9.2859589 15.6666667 9.31972603 15.4 9.45479452 14.9 9.55609589 14.5333333 9.55609589 12.7333333 9.55609589 11.9666667 8.10410959 11.9666667 6.51705479 11.9666667 5.13260274 12.5 3.78191781 14.0666667 3.78191781 14.6333333 3.78191781 14.9666667 3.9169863 15.0333333 4.28842466L15.1333333 4.89623288C15.1666667 4.99753425 15.2333333 5.03130137 15.3 5.03130137L15.7333333 5.03130137C15.8333333 5.03130137 15.9 4.96376712 15.9 4.86246575L15.9 3.17410959C15.9 3.07280822 15.8333333 3.00527397 15.7666667 2.97150685 15.3666667 2.87020548 14.7 2.80267123 14.3333333 2.80267123 12 2.80267123 10.2666667 4.32219178 10.2666667 6.71965753 10.2666667 8.98205479 11.9 10.6366438 14.2 10.6366438 14.9333333 10.6366438 15.7 10.400274 16 10.2652055 16.0666667 10.2314384 16.1 10.130137 16.0666667 10.0288356 16.0333333 10.0626027 15.9 9.45479452 15.9 9.45479452zM20.2333333 8.77945205C20.2333333 9.21842466 19.9 9.69116438 19.3 9.69116438 18.8 9.69116438 18.4333333 9.35349315 18.4333333 8.88075342 18.4333333 8.27294521 18.8666667 7.80020548 20.1333333 7.80020548 20.2 7.80020548 20.2333333 7.8339726 20.2333333 7.90150685L20.2333333 8.77945205zM22.3333333 9.79246575C22.3333333 9.69116438 22.2666667 9.65739726 22.1666667 9.65739726 22.0666667 9.69116438 22 9.69116438 21.9 9.69116438 21.7 9.69116438 21.6333333 9.55609589 21.6333333 9.35349315L21.6333333 6.75342466C21.6333333 5.23390411 20.7666667 4.65986301 19.4 4.65986301 18.7333333 4.65986301 18.0333333 4.79493151 17.5333333 4.99753425 17.4333333 5.03130137 17.4 5.13260274 17.4333333 5.23390411L17.5666667 5.90924658C17.6 6.04431507 17.7 6.04431507 17.8 6.01054795 18.1 5.84171233 18.5333333 5.70664384 19 5.70664384 19.7 5.70664384 20.2333333 5.97678082 20.2333333 6.65212329L20.2333333 6.88849315C20.2333333 6.9560274 20.2 7.05732877 20.1333333 7.05732877 18.4666667 7.05732877 17.0333333 7.59760274 17.0333333 9.15089041 17.0333333 10.0626027 17.6666667 10.7379452 18.6666667 10.7379452 19.5333333 10.7379452 20 10.3327397 20.3666667 9.96130137L20.4 9.96130137C20.4333333 10.400274 20.6666667 10.7379452 21.2666667 10.7379452 21.6333333 10.7379452 22.1333333 10.6366438 22.3 10.5691096 22.3666667 10.5353425 22.4 10.5015753 22.4 10.400274L22.3333333 9.79246575zM25.0333333 6.65212329C25.0333333 6.11184932 25.4666667 5.74041096 26.0333333 5.74041096 26.9333333 5.74041096 27.3 6.65212329 27.3 7.59760274 27.3 8.54308219 26.9666667 9.58986301 25.9 9.58986301 25.3333333 9.58986301 25.0333333 9.31972603 25.0333333 8.8469863L25.0333333 6.65212329zM25.8666667 12.7302055C25.9666667 12.7302055 26.0333333 12.6626712 26.0333333 12.5613699L26.0333333 12.2912329C26.0333333 12.2236986 26 12.1223973 25.9 12.1223973L25.2333333 12.0210959C25.1333333 11.9873288 25.0333333 11.8860274 25.0333333 11.6834247L25.0333333 10.4678082C25.1666667 10.4678082 25.4333333 10.5015753 25.6333333 10.5015753 27.7 10.5015753 28.8333333 9.21842466 28.8333333 7.29369863 28.8333333 5.70664384 27.9333333 4.65986301 26.6666667 4.65986301 25.8333333 4.65986301 25.3333333 5.09883562 24.9333333 5.5040411L24.9 5.5040411 24.8333333 4.89623288C24.8333333 4.79493151 24.7666667 4.69363014 24.6333333 4.72739726L22.8666667 4.89623288C22.7666667 4.89623288 22.7 4.96376712 22.7 5.06506849L22.7 5.33520548C22.7 5.40273973 22.7333333 5.47027397 22.8333333 5.5040411L23.3333333 5.57157534C23.5 5.60534247 23.5666667 5.80794521 23.5666667 5.9430137L23.5666667 11.6834247C23.5666667 11.9197945 23.4666667 12.0210959 23.3666667 12.0210959L22.9333333 12.1561644C22.8333333 12.1899315 22.8 12.2574658 22.8 12.325L22.8 12.595137C22.8 12.6964384 22.8666667 12.7639726 22.9666667 12.7639726L25.8666667 12.7302055zM33.3 9.58986301C33.3 9.48856164 33.2 9.45479452 33.1 9.45479452 32.8666667 9.52232877 32.6666667 9.58986301 32.4333333 9.58986301 31.8333333 9.58986301 31.5 9.18465753 31.5 8.57684932L31.5 5.9430137C31.5 5.87547945 31.5666667 5.80794521 31.6666667 5.80794521L33.0333333 5.80794521C33.0666667 5.80794521 33.1 5.74041096 33.1 5.70664384L33.1 5.03130137C33.1 4.99753425 33.0666667 4.93 33.0333333 4.93L31.6666667 4.93C31.6 4.93 31.5333333 4.86246575 31.5333333 4.79493151L31.5333333 3.61308219C31.5333333 3.4780137 31.5 3.41047945 31.3666667 3.44424658L30.3 3.78191781C30.1666667 3.81568493 30.1333333 3.9169863 30.1333333 4.05205479L30.1333333 4.76116438C30.1333333 4.86246575 30.1333333 4.93 30 4.93L29.3333333 4.93C29.3 4.93 29.2666667 4.99753425 29.2666667 5.03130137L29.2 5.67287671C29.2 5.77417808 29.2 5.80794521 29.2666667 5.80794521L30 5.80794521C30.0666667 5.80794521 30.1333333 5.84171233 30.1333333 5.9430137L30.1333333 8.91452055C30.1333333 10.0288356 30.9 10.670411 31.9666667 10.670411 32.4 10.670411 32.9666667 10.5691096 33.3333333 10.400274 33.4 10.3665068 33.4333333 10.2989726 33.4333333 10.1976712L33.3 9.58986301zM37.3333333 6.28068493C37.3333333 7.05732877 36.6 7.32746575 35.8666667 7.32746575 35.7 7.32746575 35.5333333 7.32746575 35.4333333 7.29369863 35.3333333 7.29369863 35.3 7.25993151 35.3 7.15863014 35.2666667 6.44952055 35.6333333 5.43650685 36.5 5.43650685 36.9666667 5.40273973 37.3333333 5.80794521 37.3333333 6.28068493zM38.5 9.38726027C38.4666667 9.2859589 38.3666667 9.21842466 38.2666667 9.2859589 38 9.4210274 37.6 9.62363014 37.0333333 9.62363014 36.2666667 9.62363014 35.4333333 9.11712329 35.3666667 8.23917808 35.3666667 8.13787671 35.4 8.10410959 35.5 8.10410959 35.7333333 8.10410959 35.9666667 8.13787671 36.2333333 8.13787671 37.3666667 8.13787671 38.7666667 7.63136986 38.7666667 6.34821918 38.7666667 5.23390411 37.7666667 4.62609589 36.7 4.62609589 35.1333333 4.62609589 33.8333333 5.87547945 33.8333333 7.63136986 33.8333333 9.4210274 34.8333333 10.670411 36.8 10.670411 37.4 10.670411 38.0666667 10.5015753 38.5333333 10.2314384 38.6 10.1976712 38.6666667 10.0963699 38.6333333 9.99506849L38.5 9.38726027zM42.6 10.5353425C42.7 10.5353425 42.7666667 10.4678082 42.7666667 10.3665068L42.7666667 10.0963699C42.7666667 10.0288356 42.7333333 9.96130137 42.6333333 9.92753425L41.9666667 9.82623288C41.8666667 9.82623288 41.7666667 9.69116438 41.7666667 9.48856164L41.7666667 6.92226027C41.7666667 6.34821918 42.2666667 5.97678082 42.8 5.97678082 43 5.97678082 43.3 6.01054795 43.4666667 6.07808219 43.5666667 6.11184932 43.6666667 6.04431507 43.7 5.97678082L43.9333333 4.93C43.9666667 4.79493151 43.9333333 4.72739726 43.8666667 4.69363014 43.7333333 4.62609589 43.5333333 4.59232877 43.3666667 4.59232877 42.6666667 4.59232877 42.1666667 5.06506849 41.7333333 5.67287671L41.7 5.67287671 41.6 4.82869863C41.6 4.69363014 41.5333333 4.62609589 41.4333333 4.62609589L39.6666667 4.82869863C39.5666667 4.82869863 39.5 4.89623288 39.5 4.99753425L39.5 5.26767123C39.5 5.33520548 39.5333333 5.40273973 39.6333333 5.43650685L40.1666667 5.53780822C40.3333333 5.57157534 40.4 5.77417808 40.4 5.90924658L40.4 9.45479452C40.4 9.69116438 40.3 9.79246575 40.2 9.79246575L39.7333333 9.89376712C39.6333333 9.92753425 39.6 9.99506849 39.6 10.0626027L39.6 10.3327397C39.6 10.4340411 39.6666667 10.5015753 39.7666667 10.5015753 39.7 10.5353425 42.6 10.5353425 42.6 10.5353425zM47.4333333 10.5353425C47.5333333 10.5353425 47.6 10.4678082 47.6 10.3665068L47.6 10.0963699C47.6 10.0288356 47.5666667 9.96130137 47.4666667 9.92753425L46.8 9.82623288C46.7 9.82623288 46.6 9.69116438 46.6 9.48856164L46.6 6.92226027C46.6 6.34821918 47.1 5.97678082 47.6333333 5.97678082 47.8333333 5.97678082 48.1333333 6.01054795 48.3 6.07808219 48.4 6.11184932 48.5 6.04431507 48.5333333 5.97678082L48.7666667 4.93C48.8 4.79493151 48.7666667 4.72739726 48.7 4.69363014 48.5666667 4.62609589 48.3666667 4.59232877 48.2 4.59232877 47.5 4.59232877 47 5.06506849 46.5666667 5.67287671L46.5333333 5.67287671 46.4333333 4.82869863C46.4333333 4.69363014 46.3666667 4.62609589 46.2666667 4.62609589L44.5 4.82869863C44.4 4.82869863 44.3333333 4.89623288 44.3333333 4.99753425L44.3333333 5.26767123C44.3333333 5.33520548 44.3666667 5.40273973 44.4666667 5.43650685L45 5.53780822C45.1666667 5.57157534 45.2333333 5.77417808 45.2333333 5.90924658L45.2333333 9.45479452C45.2333333 9.69116438 45.1333333 9.79246575 45.0333333 9.79246575L44.5666667 9.89376712C44.4666667 9.92753425 44.4333333 9.99506849 44.4333333 10.0626027L44.4333333 10.3327397C44.4333333 10.4340411 44.5 10.5015753 44.6 10.5015753 44.5666667 10.5353425 47.4333333 10.5353425 47.4333333 10.5353425zM52.5333333 8.77945205C52.5333333 9.21842466 52.2 9.69116438 51.6 9.69116438 51.1 9.69116438 50.7333333 9.35349315 50.7333333 8.88075342 50.7333333 8.27294521 51.1666667 7.80020548 52.4333333 7.80020548 52.5 7.80020548 52.5333333 7.8339726 52.5333333 7.90150685L52.5333333 8.77945205zM54.6333333 9.79246575C54.6333333 9.69116438 54.5666667 9.65739726 54.4666667 9.65739726 54.3666667 9.69116438 54.3 9.69116438 54.2 9.69116438 54 9.69116438 53.9 9.55609589 53.9 9.35349315L53.9 6.75342466C53.9 5.23390411 53.0333333 4.65986301 51.6666667 4.65986301 51 4.65986301 50.3 4.79493151 49.8 4.99753425 49.7 5.03130137 49.6666667 5.13260274 49.7 5.23390411L49.8333333 5.90924658C49.8666667 6.04431507 49.9666667 6.04431507 50.0666667 6.01054795 50.3666667 5.84171233 50.8 5.70664384 51.2666667 5.70664384 51.9666667 5.70664384 52.5 5.97678082 52.5 6.65212329L52.5 6.88849315C52.5 6.9560274 52.4666667 7.05732877 52.4 7.05732877 50.7 7.05732877 49.3 7.59760274 49.3 9.15089041 49.3 10.0626027 49.9333333 10.7379452 50.9333333 10.7379452 51.8 10.7379452 52.2666667 10.3327397 52.6 9.96130137L52.6333333 9.96130137C52.6666667 10.400274 52.9333333 10.7379452 53.5 10.7379452 53.8666667 10.7379452 54.3666667 10.6366438 54.5333333 10.5691096 54.6 10.5353425 54.6333333 10.5015753 54.6333333 10.400274L54.6333333 9.79246575zM.466666667 6.3819863L2.4 6.3819863C2.46666667 6.3819863 2.53333333 6.34821918 2.53333333 6.28068493 2.73333333 5.5040411 3.4 4.93 4.2 4.93 5 4.93 5.7 5.47027397 5.86666667 6.28068493 5.86666667 6.34821918 5.93333333 6.3819863 6 6.3819863L7.93333333 6.3819863C8 6.3819863 8.06666667 6.31445205 8.06666667 6.24691781L8.06666667 6.11184931C7.96666667 4.79493151 6.96666667 2.39746575 4.3.0337671228 4.23333333-5.03168623e-10 4.16666667-5.03168623e-10 4.1.0337671228 4.06666667.0675342461 1.36666667 2.43123288.5 5.43650685.433333333 5.60534247.4 5.74041096.366666667 5.87547945.366666667 5.87547945.366666667 5.90924657.333333333 6.01054794L.3 6.21315068C.3 6.24691781.3 6.28068493.333333333 6.31445205.4 6.34821918.433333333 6.3819863.466666667 6.3819863zM7.93333333 7.12486301L6 7.12486301C5.93333333 7.12486301 5.86666667 7.15863014 5.86666667 7.22616438 5.66666667 8.00280822 5 8.57684932 4.2 8.57684932 3.4 8.57684932 2.7 8.03657534 2.53333333 7.22616438 2.53333333 7.15863014 2.46666667 7.12486301 2.4 7.12486301L.466666667 7.12486301C.4 7.12486301.333333333 7.19239726.333333333 7.25993151L.333333333 7.395C.433333333 8.71191781 1.46666667 11.1093836 4.1 13.4730822 4.16666667 13.5068493 4.23333333 13.5068493 4.3 13.4730822 4.33333333 13.4393151 7.03333333 11.0756164 7.9 8.07034247 7.96666667 7.90150685 8 7.76643836 8.03333333 7.63136986 8.03333333 7.63136986 8.03333333 7.59760274 8.06666667 7.49630137L8.1 7.29369863C8.1 7.25993151 8.1 7.22616438 8.06666667 7.19239726 8.03333333 7.15863014 7.96666667 7.12486301 7.93333333 7.12486301zM54.7666667 3.44424658C54.7666667 3.30917808 54.8 3.17410959 54.8333333 3.0390411 54.8666667 2.9039726 54.9333333 2.80267123 54.9666667 2.70136986 55.0333333 2.60006849 55.1 2.49876712 55.2 2.39746575 55.3 2.29616438 55.4 2.22863014 55.5 2.16109589 55.6 2.09356164 55.7333333 2.05979452 55.8333333 2.0260274 55.9666667 1.99226027 56.1 1.95849315 56.2333333 1.95849315 56.3666667 1.95849315 56.5 1.99226027 56.6333333 2.0260274 56.7666667 2.05979452 56.8666667 2.12732877 56.9666667 2.16109589 57.0666667 2.22863014 57.1666667 2.29616438 57.2666667 2.39746575 57.3666667 2.49876712 57.4333333 2.60006849 57.5 2.70136986 57.5666667 2.80267123 57.6 2.93773973 57.6333333 3.0390411 57.6666667 3.14034247 57.7 3.30917808 57.7 3.44424658 57.7 3.57931507 57.6666667 3.71438356 57.6333333 3.84945205 57.6 3.98452055 57.5333333 4.08582192 57.5 4.18712329 57.4666667 4.28842466 57.3666667 4.38972603 57.2666667 4.4910274 57.1666667 4.59232877 57.0666667 4.65986301 56.9666667 4.72739726 56.8666667 4.79493151 56.7333333 4.82869863 56.6333333 4.86246575 56.5 4.89623288 56.3666667 4.93 56.2333333 4.93 56.1 4.93 55.9666667 4.89623288 55.8333333 4.86246575 55.7 4.82869863 55.6 4.76116438 55.5 4.72739726 55.4 4.65986301 55.3 4.59232877 55.2 4.4910274 55.1 4.38972603 55.0333333 4.28842466 54.9666667 4.18712329 54.9 4.08582192 54.8666667 3.95075342 54.8333333 3.84945205 54.8 3.74815068 54.7666667 3.57931507 54.7666667 3.44424658zM54.9666667 3.44424658C54.9666667 3.57931507 54.9666667 3.68061644 55 3.78191781 55.0333333 3.88321918 55.0666667 3.98452055 55.1333333 4.08582192 55.2 4.18712329 55.2666667 4.25465753 55.3333333 4.3559589 55.4 4.42349315 55.5 4.4910274 55.6 4.55856164 55.7 4.62609589 55.8 4.65986301 55.9 4.69363014 56 4.72739726 56.1333333 4.72739726 56.2333333 4.72739726 56.4 4.72739726 56.5666667 4.69363014 56.7333333 4.62609589 56.9 4.55856164 57.0333333 4.45726027 57.1333333 4.3559589 57.2333333 4.25465753 57.3333333 4.08582192 57.4 3.95075342 57.4666667 3.78191781 57.5 3.61308219 57.5 3.44424658 57.5 3.30917808 57.5 3.20787671 57.4666667 3.10657534 57.4333333 3.00527397 57.4 2.9039726 57.3333333 2.80267123 57.2666667 2.70136986 57.2 2.63383562 57.1333333 2.53253425 57.0666667 2.43123288 56.9666667 2.39746575 56.8666667 2.32993151 56.7666667 2.26239726 56.6666667 2.22863014 56.5666667 2.19486301 56.4666667 2.16109589 56.3333333 2.16109589 56.2333333 2.16109589 56.0666667 2.16109589 55.9 2.19486301 55.7333333 2.26239726 55.5666667 2.32993151 55.4333333 2.43123288 55.3333333 2.53253425 55.2333333 2.66760274 55.1333333 2.80267123 55.0666667 2.93773973 55 3.07280822 54.9666667 3.24164384 54.9666667 3.44424658zM55.9333333 3.61308219L55.9333333 4.32219178 55.6333333 4.32219178 55.6333333 2.53253425 56.2 2.53253425C56.4333333 2.53253425 56.6 2.56630137 56.7 2.66760274 56.8 2.76890411 56.8666667 2.87020548 56.8666667 3.0390411 56.8666667 3.17410959 56.8333333 3.27541096 56.7666667 3.37671233 56.7 3.4780137 56.6 3.51178082 56.4333333 3.54554795 56.4666667 3.54554795 56.4666667 3.57931507 56.5 3.61308219 56.5 3.64684932 56.5333333 3.64684932 56.5333333 3.68061644L57 4.3559589 56.7 4.3559589C56.6666667 4.3559589 56.6333333 4.3559589 56.6 4.28842466L56.2 3.68061644C56.2 3.64684932 56.1666667 3.64684932 56.1666667 3.64684932L55.9333333 3.64684932 55.9333333 3.61308219zM55.9333333 3.37671233L56.1666667 3.37671233C56.2333333 3.37671233 56.3 3.37671233 56.3666667 3.34294521 56.4333333 3.34294521 56.4666667 3.30917808 56.5 3.27541096 56.5333333 3.24164384 56.5666667 3.20787671 56.5666667 3.17410959 56.5666667 3.14034247 56.6 3.10657534 56.6 3.0390411 56.6 3.00527397 56.6 2.93773973 56.5666667 2.9039726 56.5666667 2.87020548 56.5333333 2.83643836 56.5 2.80267123 56.4666667 2.76890411 56.4333333 2.76890411 56.4 2.73513699 56.3666667 2.73513699 56.3 2.70136986 56.2333333 2.70136986L55.9666667 2.70136986 55.9666667 3.37671233 55.9333333 3.37671233z"/>
    </g>
    <g fill="#7B8BA2" fill-rule="nonzero" transform="translate(22.4 25.8)">
      <path d="M8.3999995 12.5999992L4.89738131 14.4414346C4.50630567 14.6470352 4.02260397 14.496678 3.81700334 14.1056024 3.73513209 13.949874 3.70688035 13.7714996 3.73662182 13.5980935L4.40556237 9.6978708 1.57188473 6.93571777C1.25549789 6.62731681 1.24902404 6.12082623 1.55742499 5.80443939 1.68023187 5.67845249 1.84114579 5.59646275 2.0152554 5.57116314L5.93130159 5.00212833 7.68261068 1.45358851C7.8781485 1.05738561 8.35784914.89471442 8.75405205 1.09025224 8.91182212 1.16811643 9.03952413 1.29581844 9.11738832 1.45358851L10.8686974 5.00212833 14.7847436 5.57116314C15.2219795 5.63469723 15.5249246 6.04065149 15.4613905 6.47788736 15.4360909 6.65199697 15.3541012 6.81291089 15.2281143 6.93571777L12.3944366 9.6978708 13.0633772 13.5980935C13.138066 14.0335626 12.8455957 14.4471273 12.4101266 14.5218161 12.2367205 14.5515576 12.0583461 14.5233059 11.9026177 14.4414346L8.3999995 12.5999992zM25.1999985 12.5999992L21.6973803 14.4414346C21.3063047 14.6470352 20.822603 14.496678 20.6170023 14.1056024 20.5351311 13.949874 20.5068793 13.7714996 20.5366208 13.5980935L21.2055614 9.6978708 18.3718837 6.93571777C18.0554969 6.62731681 18.049023 6.12082623 18.357424 5.80443939 18.4802309 5.67845249 18.6411448 5.59646275 18.8152544 5.57116314L22.7313006 5.00212833 24.4826097 1.45358851C24.6781475 1.05738561 25.1578481.89471442 25.554051 1.09025224 25.7118211 1.16811643 25.8395231 1.29581844 25.9173873 1.45358851L27.6686964 5.00212833 31.5847426 5.57116314C32.0219785 5.63469723 32.3249236 6.04065149 32.2613895 6.47788736 32.2360899 6.65199697 32.1541002 6.81291089 32.0281133 6.93571777L29.1944356 9.6978708 29.8633762 13.5980935C29.938065 14.0335626 29.6455947 14.4471273 29.2101256 14.5218161 29.0367195 14.5515576 28.8583451 14.5233059 28.7026167 14.4414346L25.1999985 12.5999992zM41.9999975 12.5999992L38.4973793 14.4414346C38.1063037 14.6470352 37.622602 14.496678 37.4170013 14.1056024 37.3351301 13.949874 37.3068783 13.7714996 37.3366198 13.5980935L38.0055604 9.6978708 35.1718827 6.93571777C34.8554959 6.62731681 34.849022 6.12082623 35.157423 5.80443939 35.2802299 5.67845249 35.4411438 5.59646275 35.6152534 5.57116314L39.5312996 5.00212833 41.2826087 1.45358851C41.4781465 1.05738561 41.9578471.89471442 42.35405 1.09025224 42.5118201 1.16811643 42.6395221 1.29581844 42.7173863 1.45358851L44.4686954 5.00212833 48.3847416 5.57116314C48.8219775 5.63469723 49.1249226 6.04065149 49.0613885 6.47788736 49.0360889 6.65199697 48.9540992 6.81291089 48.8281123 6.93571777L45.9944346 9.6978708 46.6633752 13.5980935C46.738064 14.0335626 46.4455937 14.4471273 46.0101246 14.5218161 45.8367185 14.5515576 45.6583441 14.5233059 45.5026157 14.4414346L41.9999975 12.5999992zM58.7999965 12.5999992L55.2973783 14.4414346C54.9063027 14.6470352 54.422601 14.496678 54.2170003 14.1056024 54.1351291 13.949874 54.1068773 13.7714996 54.1366188 13.5980935L54.8055594 9.6978708 51.9718817 6.93571777C51.6554949 6.62731681 51.649021 6.12082623 51.957422 5.80443939 52.0802289 5.67845249 52.2411428 5.59646275 52.4152524 5.57116314L56.3312986 5.00212833 58.0826077 1.45358851C58.2781455 1.05738561 58.7578461.89471442 59.154049 1.09025224 59.3118191 1.16811643 59.4395211 1.29581844 59.5173853 1.45358851L61.2686944 5.00212833 65.1847406 5.57116314C65.6219765 5.63469723 65.9249216 6.04065149 65.8613875 6.47788736 65.8360879 6.65199697 65.7540982 6.81291089 65.6281113 6.93571777L62.7944336 9.6978708 63.4633742 13.5980935C63.538063 14.0335626 63.2455927 14.4471273 62.8101236 14.5218161 62.6367175 14.5515576 62.4583431 14.5233059 62.3026147 14.4414346L58.7999965 12.5999992z"/>
      <path d="M75.5999955,12.5999992 L72.0973773,14.4414346 C71.7063017,14.6470352 71.2226,14.496678 71.0169993,14.1056024 C70.9351281,13.949874 70.9068763,13.7714996 70.9366178,13.5980935 L71.6055584,9.6978708 L68.7718807,6.93571777 C68.4554939,6.62731681 68.44902,6.12082623 68.757421,5.80443939 C68.8802279,5.67845249 69.0411418,5.59646275 69.2152514,5.57116314 L73.1312976,5.00212833 L74.8826067,1.45358851 C75.0781445,1.05738561 75.5578451,0.89471442 75.954048,1.09025224 C76.1118181,1.16811643 76.2395201,1.29581844 76.3173843,1.45358851 L78.0686934,5.00212833 L81.9847396,5.57116314 C82.4219755,5.63469723 82.7249206,6.04065149 82.6613865,6.47788736 C82.6360869,6.65199697 82.5540972,6.81291089 82.4281103,6.93571777 L79.5944326,9.6978708 L80.2633732,13.5980935 C80.338062,14.0335626 80.0455917,14.4471273 79.6101226,14.5218161 C79.4367165,14.5515576 79.2583421,14.5233059 79.1026137,14.4414346 L75.5999955,12.5999992 Z" opacity=".2"/>
      <path d="M75.9999955,1.11482006 L75.9999955,12.8102917 L75.5999955,12.5999992 L72.0973773,14.4414346 C71.7063017,14.6470352 71.2226,14.496678 71.0169993,14.1056024 C70.9351281,13.949874 70.9068763,13.7714996 70.9366178,13.5980935 L71.6055584,9.6978708 L68.7718807,6.93571777 C68.4554939,6.62731681 68.44902,6.12082623 68.757421,5.80443939 C68.8802279,5.67845249 69.0411418,5.59646275 69.2152514,5.57116314 L73.1312976,5.00212833 L74.8826067,1.45358851 C75.0781445,1.05738561 75.5578451,0.89471442 75.954048,1.09025224 C75.9696648,1.0979596 75.984987,1.10615526 75.9999955,1.11482006 Z"/>
    </g>
    <path fill="#7B8BA2" d="M32.095998,15.8660001 C32.4279997,15.8660001 32.7249967,15.8100006 32.986998,15.6980001 C33.2489993,15.5859995 33.470997,15.4300011 33.6529979,15.2300001 C33.8349988,15.0299991 33.9739974,14.7890015 34.0699979,14.5070001 C34.1659984,14.2249988 34.2139979,13.9120019 34.2139979,13.5680002 L34.2139979,8.36000051 L35.6119978,8.36000051 L35.6119978,13.5680002 C35.6119978,14.0760027 35.5309986,14.545998 35.3689978,14.9780001 C35.206997,15.4100023 34.9739994,15.7829985 34.6699979,16.0970001 C34.3659964,16.4110016 33.9970001,16.6569991 33.5629979,16.835 C33.1289958,17.0130009 32.6400007,17.102 32.095998,17.102 C31.5519953,17.102 31.0630003,17.0130009 30.6289981,16.835 C30.194996,16.6569991 29.8259997,16.4110016 29.5219982,16.0970001 C29.2179967,15.7829985 28.984999,15.4100023 28.8229982,14.9780001 C28.6609974,14.545998 28.5799982,14.0760027 28.5799982,13.5680002 L28.5799982,8.36000051 L29.9839982,8.36000051 L29.9839982,13.5620002 C29.9839982,13.9060019 30.0319977,14.2189988 30.1279981,14.5010001 C30.2239986,14.7830015 30.3619972,15.0249991 30.5419981,15.2270001 C30.721999,15.4290011 30.9429968,15.5859995 31.2049981,15.6980001 C31.4669994,15.8100006 31.7639964,15.8660001 32.095998,15.8660001 Z M40.9759975,11.9900003 C40.9439973,12.0460006 40.9079977,12.0860002 40.8679975,12.1100003 C40.8279973,12.1340004 40.7779978,12.1460003 40.7179975,12.1460003 C40.6499972,12.1460003 40.5759979,12.1250005 40.4959975,12.0830003 C40.4159971,12.0410001 40.3219981,11.9940006 40.2139975,11.9420003 C40.105997,11.89 39.9789983,11.8430005 39.8329976,11.8010003 C39.6869968,11.7590001 39.5159986,11.7380003 39.3199976,11.7380003 C39.1599968,11.7380003 39.0149983,11.7570001 38.8849976,11.7950003 C38.754997,11.8330005 38.6449981,11.887 38.5549976,11.9570003 C38.4649972,12.0270006 38.3959979,12.1089998 38.3479977,12.2030003 C38.2999974,12.2970008 38.2759977,12.3979997 38.2759977,12.5060003 C38.2759977,12.650001 38.3199972,12.7699998 38.4079977,12.8660002 C38.4959981,12.9620007 38.6119969,13.0449999 38.7559976,13.1150002 C38.8999983,13.1850006 39.0639967,13.2479999 39.2479976,13.3040002 C39.4319985,13.3600005 39.6199966,13.4199999 39.8119976,13.4840002 C40.0039985,13.5480005 40.1919966,13.6219998 40.3759975,13.7060002 C40.5599984,13.7900006 40.7239968,13.8929996 40.8679975,14.0150002 C41.0119982,14.1370008 41.127997,14.2849993 41.2159975,14.4590002 C41.3039979,14.633001 41.3479975,14.8439989 41.3479975,15.0920001 C41.3479975,15.3800015 41.295998,15.6459989 41.1919975,15.8900001 C41.087997,16.1340013 40.9359985,16.3459991 40.7359975,16.526 C40.5359965,16.7060009 40.286999,16.8459995 39.9889976,16.946 C39.6909961,17.0460005 39.3499995,17.096 38.9659976,17.096 C38.7539966,17.096 38.5489986,17.0770002 38.3509977,17.039 C38.1529967,17.0009998 37.9649986,16.9490003 37.7869977,16.883 C37.6089968,16.8169997 37.4429985,16.7380005 37.2889977,16.646 C37.134997,16.5539996 36.9979983,16.4540006 36.8779977,16.346 L37.1779977,15.8540001 C37.2139979,15.7939998 37.2589974,15.7470002 37.3129977,15.7130001 C37.366998,15.6789999 37.4339973,15.6620001 37.5139977,15.6620001 C37.5979981,15.6620001 37.6809973,15.6889998 37.7629977,15.7430001 C37.8449981,15.7970003 37.9409971,15.8559997 38.0509977,15.9200001 C38.1609982,15.9840004 38.2939969,16.0429998 38.4499976,16.0970001 C38.6059984,16.1510003 38.7999965,16.178 39.0319976,16.178 C39.2239986,16.178 39.3899969,16.1550003 39.5299976,16.1090001 C39.6699983,16.0629998 39.7859971,16.0000005 39.8779976,15.9200001 C39.969998,15.8399997 40.0379973,15.7490006 40.0819976,15.6470001 C40.1259978,15.5449996 40.1479975,15.4360007 40.1479975,15.3200001 C40.1479975,15.1639993 40.103998,15.0360006 40.0159976,14.9360001 C39.9279971,14.8359996 39.8109983,14.7500005 39.6649976,14.6780001 C39.5189969,14.6059998 39.3529985,14.5420004 39.1669976,14.4860001 C38.9809967,14.4299999 38.7919986,14.3700005 38.5999976,14.3060002 C38.4079967,14.2419998 38.2189986,14.1680006 38.0329977,14.0840002 C37.8469968,13.9999998 37.6809984,13.8930008 37.5349977,13.7630002 C37.388997,13.6329996 37.2719982,13.4750011 37.1839977,13.2890002 C37.0959973,13.1029993 37.0519977,12.8760016 37.0519977,12.6080003 C37.0519977,12.3639991 37.1009972,12.1320014 37.1989977,11.9120003 C37.2969982,11.6919992 37.4409968,11.4980012 37.6309977,11.3300003 C37.8209986,11.1619995 38.0549963,11.0290008 38.3329977,10.9310004 C38.610999,10.8329999 38.9319958,10.7840004 39.2959976,10.7840004 C39.7079996,10.7840004 40.0819959,10.8499997 40.4179975,10.9820004 C40.7539992,11.114001 41.0359964,11.2939992 41.2639975,11.5220003 L40.9759975,11.9900003 Z M46.5739972,13.2500002 C46.5739972,13.0339992 46.5429975,12.8330012 46.4809972,12.6470003 C46.4189969,12.4609993 46.3279978,12.299001 46.2079972,12.1610003 C46.0879966,12.0229996 45.9389981,11.9150007 45.7609972,11.8370003 C45.5829963,11.7589999 45.3779984,11.7200003 45.1459972,11.7200003 C44.6779949,11.7200003 44.3099986,11.853999 44.0419973,12.1220003 C43.773996,12.3900016 43.6039977,12.7659978 43.5319973,13.2500002 L46.5739972,13.2500002 Z M43.4959973,14.0420002 C43.5119974,14.3900019 43.5659969,14.6909989 43.6579973,14.9450001 C43.7499978,15.1990014 43.8729966,15.4099993 44.0269973,15.5780001 C44.1809981,15.7460009 44.3649962,15.8709997 44.5789973,15.9530001 C44.7929983,16.0350005 45.0319959,16.0760001 45.2959972,16.0760001 C45.5479985,16.0760001 45.7659963,16.0470003 45.9499972,15.9890001 C46.1339981,15.9309998 46.2939965,15.8670004 46.4299972,15.7970001 C46.5659978,15.7269997 46.6819967,15.6630004 46.7779972,15.6050001 C46.8739976,15.5469998 46.9619967,15.5180001 47.0419971,15.5180001 C47.1459977,15.5180001 47.2259968,15.5579997 47.2819971,15.6380001 L47.6479971,16.1120001 C47.4959963,16.2920009 47.3239981,16.4439994 47.1319971,16.568 C46.9399962,16.6920006 46.7359982,16.7929996 46.5199972,16.871 C46.3039961,16.9490004 46.0819983,17.0049998 45.8539972,17.039 C45.6259961,17.0730002 45.4039983,17.09 45.1879972,17.09 C44.7639952,17.09 44.3709991,17.0190007 44.0089973,16.877 C43.6469955,16.7349993 43.3329987,16.5260014 43.0669974,16.25 C42.8009961,15.9739987 42.5929982,15.6320021 42.4429974,15.2240001 C42.2929967,14.8159981 42.2179974,14.3460028 42.2179974,13.8140002 C42.2179974,13.3899981 42.2849968,12.9940021 42.4189974,12.6260003 C42.5529981,12.2579984 42.7449961,11.9380017 42.9949974,11.6660003 C43.2449986,11.393999 43.5489956,11.1790011 43.9069973,11.0210004 C44.2649991,10.8629996 44.669995,10.7840004 45.1219973,10.7840004 C45.4979991,10.7840004 45.8459956,10.8449998 46.1659972,10.9670004 C46.4859988,11.089001 46.761996,11.2679992 46.9939971,11.5040003 C47.2259983,11.7400015 47.4069965,12.0289986 47.5369971,12.3710003 C47.6669977,12.713002 47.7319971,13.1019981 47.7319971,13.5380002 C47.7319971,13.7380012 47.7099973,13.8719998 47.6659971,13.9400002 C47.6219969,14.0080005 47.5419977,14.0420002 47.4259971,14.0420002 L43.4959973,14.0420002 Z M50.149997,12.0140003 C50.3419979,11.6259984 50.5739956,11.3210014 50.8459969,11.0990004 C51.1179983,10.8769993 51.443995,10.7660004 51.8239969,10.7660004 C51.9559975,10.7660004 52.0799963,10.7810002 52.1959968,10.8110004 C52.3119974,10.8410005 52.4159964,10.8860001 52.5079968,10.9460004 L52.4179968,11.9180003 C52.4019967,11.9860006 52.376997,12.0330002 52.3429968,12.0590003 C52.3089967,12.0850004 52.2639971,12.0980003 52.2079968,12.0980003 C52.1479965,12.0980003 52.0619974,12.0870004 51.9499968,12.0650003 C51.8379963,12.0430002 51.7199975,12.0320003 51.5959969,12.0320003 C51.415996,12.0320003 51.2569976,12.058 51.1189969,12.1100003 C50.9809962,12.1620005 50.8569975,12.2379998 50.7469969,12.3380003 C50.6369964,12.4380008 50.5399973,12.5599995 50.4559969,12.7040003 C50.3719965,12.848001 50.2939973,13.0119993 50.2219969,13.1960002 L50.2219969,17 L48.931997,17 L48.931997,10.8800004 L49.681997,10.8800004 C49.8179977,10.8800004 49.9119967,10.9050001 49.963997,10.9550004 C50.0159972,11.0050006 50.0519969,11.0919997 50.071997,11.2160003 L50.149997,12.0140003 Z M59.0959964,12.5000003 C59.415998,12.5000003 59.6959952,12.4610007 59.9359964,12.3830003 C60.1759976,12.3049999 60.3759955,12.196001 60.5359963,12.0560003 C60.6959971,11.9159996 60.8159959,11.7490013 60.8959963,11.5550003 C60.9759967,11.3609994 61.0159963,11.1460015 61.0159963,10.9100004 C61.0159963,10.437998 60.8599979,10.0780017 60.5479963,9.83000043 C60.2359948,9.5819992 59.7639995,9.45800045 59.1319964,9.45800045 L57.9919965,9.45800045 L57.9919965,12.5000003 L59.0959964,12.5000003 Z M63.1639962,17 L61.9099963,17 C61.661995,17 61.4819968,16.904001 61.3699963,16.712 L59.3539964,13.8020002 C59.2859961,13.7019997 59.2119968,13.6300004 59.1319964,13.5860002 C59.051996,13.542 58.9319972,13.5200002 58.7719964,13.5200002 L57.9919965,13.5200002 L57.9919965,17 L56.5879966,17 L56.5879966,8.36000051 L59.1319964,8.36000051 C59.6999992,8.36000051 60.1889943,8.41799993 60.5989963,8.5340005 C61.0089984,8.65000108 61.345995,8.81499942 61.6099963,9.02900048 C61.8739976,9.24300153 62.0689956,9.49999895 62.1949962,9.80000043 C62.3209969,10.1000019 62.3839962,10.4339986 62.3839962,10.8020004 C62.3839962,11.1020019 62.3389967,11.381999 62.2489962,11.6420003 C62.1589958,11.9020016 62.0289971,12.1379992 61.8589963,12.3500003 C61.6889954,12.5620013 61.4799975,12.7459995 61.2319963,12.9020002 C60.9839951,13.058001 60.7019979,13.1799998 60.3859963,13.2680002 C60.5579972,13.3720007 60.7059957,13.5179993 60.8299963,13.7060002 L63.1639962,17 Z M67.9819959,13.2500002 C67.9819959,13.0339992 67.9509962,12.8330012 67.8889959,12.6470003 C67.8269956,12.4609993 67.7359965,12.299001 67.6159959,12.1610003 C67.4959953,12.0229996 67.3469968,11.9150007 67.1689959,11.8370003 C66.9909951,11.7589999 66.7859971,11.7200003 66.553996,11.7200003 C66.0859937,11.7200003 65.7179974,11.853999 65.449996,12.1220003 C65.1819947,12.3900016 65.0119964,12.7659978 64.9399961,13.2500002 L67.9819959,13.2500002 Z M64.9039961,14.0420002 C64.9199962,14.3900019 64.9739956,14.6909989 65.0659961,14.9450001 C65.1579965,15.1990014 65.2809953,15.4099993 65.434996,15.5780001 C65.5889968,15.7460009 65.772995,15.8709997 65.986996,15.9530001 C66.2009971,16.0350005 66.4399947,16.0760001 66.703996,16.0760001 C66.9559972,16.0760001 67.173995,16.0470003 67.3579959,15.9890001 C67.5419968,15.9309998 67.7019952,15.8670004 67.8379959,15.7970001 C67.9739966,15.7269997 68.0899954,15.6630004 68.1859959,15.6050001 C68.2819964,15.5469998 68.3699955,15.5180001 68.4499959,15.5180001 C68.5539964,15.5180001 68.6339956,15.5579997 68.6899958,15.6380001 L69.0559958,16.1120001 C68.9039951,16.2920009 68.7319968,16.4439994 68.5399959,16.568 C68.3479949,16.6920006 68.143997,16.7929996 67.9279959,16.871 C67.7119948,16.9490004 67.4899971,17.0049998 67.2619959,17.039 C67.0339948,17.0730002 66.811997,17.09 66.595996,17.09 C66.1719939,17.09 65.7789978,17.0190007 65.416996,16.877 C65.0549943,16.7349993 64.7409974,16.5260014 64.4749961,16.25 C64.2089948,15.9739987 64.0009969,15.6320021 63.8509961,15.2240001 C63.7009954,14.8159981 63.6259961,14.3460028 63.6259961,13.8140002 C63.6259961,13.3899981 63.6929955,12.9940021 63.8269961,12.6260003 C63.9609968,12.2579984 64.1529949,11.9380017 64.4029961,11.6660003 C64.6529973,11.393999 64.9569943,11.1790011 65.314996,11.0210004 C65.6729978,10.8629996 66.0779937,10.7840004 66.529996,10.7840004 C66.9059978,10.7840004 67.2539943,10.8449998 67.5739959,10.9670004 C67.8939975,11.089001 68.1699947,11.2679992 68.4019959,11.5040003 C68.633997,11.7400015 68.8149952,12.0289986 68.9449958,12.3710003 C69.0749965,12.713002 69.1399958,13.1019981 69.1399958,13.5380002 C69.1399958,13.7380012 69.117996,13.8719998 69.0739958,13.9400002 C69.0299956,14.0080005 68.9499964,14.0420002 68.8339958,14.0420002 L64.9039961,14.0420002 Z M75.7279954,10.8800004 L73.2679956,17 L72.1039956,17 L69.6439958,10.8800004 L70.7059957,10.8800004 C70.8059962,10.8800004 70.8889954,10.9050001 70.9549957,10.9550004 C71.020996,11.0050006 71.0639956,11.064 71.0839957,11.1320003 L72.4399956,14.6960001 C72.4959959,14.864001 72.5459954,15.0299993 72.5899956,15.1940001 C72.6339958,15.3580009 72.6719954,15.5239992 72.7039956,15.6920001 C72.7359958,15.5239992 72.7749954,15.3590009 72.8209956,15.1970001 C72.8669958,15.0349993 72.9179953,14.868001 72.9739956,14.6960001 L74.3539955,11.1320003 C74.3779956,11.06 74.4219952,11.0000006 74.4859955,10.9520004 C74.5499958,10.9040001 74.627995,10.8800004 74.7199955,10.8800004 L75.7279954,10.8800004 Z M77.9539953,10.8800004 L77.9539953,17 L76.6639954,17 L76.6639954,10.8800004 L77.9539953,10.8800004 Z M78.1699953,9.03200047 C78.1699953,9.14800105 78.1469955,9.25799994 78.1009953,9.36200046 C78.0549951,9.46600097 77.9919957,9.55700005 77.9119953,9.63500044 C77.8319949,9.71300082 77.7389958,9.7750002 77.6329953,9.82100043 C77.5269948,9.86700066 77.4139959,9.89000042 77.2939953,9.89000042 C77.1779948,9.89000042 77.0689959,9.86700066 76.9669954,9.82100043 C76.8649948,9.7750002 76.7759957,9.71300082 76.6999954,9.63500044 C76.623995,9.55700005 76.5629956,9.46600097 76.5169954,9.36200046 C76.4709952,9.25799994 76.4479954,9.14800105 76.4479954,9.03200047 C76.4479954,8.91199988 76.4709952,8.80000101 76.5169954,8.69600049 C76.5629956,8.59199998 76.623995,8.5010009 76.6999954,8.42300051 C76.7759957,8.34500013 76.8649948,8.28300075 76.9669954,8.23700052 C77.0689959,8.1910003 77.1779948,8.16800053 77.2939953,8.16800053 C77.4139959,8.16800053 77.5269948,8.1910003 77.6329953,8.23700052 C77.7389958,8.28300075 77.8319949,8.34500013 77.9119953,8.42300051 C77.9919957,8.5010009 78.0549951,8.59199998 78.1009953,8.69600049 C78.1469955,8.80000101 78.1699953,8.91199988 78.1699953,9.03200047 Z M83.593995,13.2500002 C83.593995,13.0339992 83.5629953,12.8330012 83.500995,12.6470003 C83.4389947,12.4609993 83.3479956,12.299001 83.227995,12.1610003 C83.1079944,12.0229996 82.9589959,11.9150007 82.780995,11.8370003 C82.6029941,11.7589999 82.3979962,11.7200003 82.165995,11.7200003 C81.6979927,11.7200003 81.3299964,11.853999 81.0619951,12.1220003 C80.7939938,12.3900016 80.6239955,12.7659978 80.5519951,13.2500002 L83.593995,13.2500002 Z M80.5159951,14.0420002 C80.5319952,14.3900019 80.5859947,14.6909989 80.6779951,14.9450001 C80.7699956,15.1990014 80.8929943,15.4099993 81.0469951,15.5780001 C81.2009959,15.7460009 81.384994,15.8709997 81.5989951,15.9530001 C81.8129961,16.0350005 82.0519937,16.0760001 82.315995,16.0760001 C82.5679963,16.0760001 82.7859941,16.0470003 82.969995,15.9890001 C83.1539959,15.9309998 83.3139943,15.8670004 83.449995,15.7970001 C83.5859956,15.7269997 83.7019945,15.6630004 83.7979949,15.6050001 C83.8939954,15.5469998 83.9819945,15.5180001 84.0619949,15.5180001 C84.1659954,15.5180001 84.2459946,15.5579997 84.3019949,15.6380001 L84.6679949,16.1120001 C84.5159941,16.2920009 84.3439959,16.4439994 84.1519949,16.568 C83.959994,16.6920006 83.755996,16.7929996 83.539995,16.871 C83.3239939,16.9490004 83.1019961,17.0049998 82.873995,17.039 C82.6459939,17.0730002 82.4239961,17.09 82.207995,17.09 C81.7839929,17.09 81.3909969,17.0190007 81.0289951,16.877 C80.6669933,16.7349993 80.3529965,16.5260014 80.0869952,16.25 C79.8209939,15.9739987 79.6129959,15.6320021 79.4629952,15.2240001 C79.3129945,14.8159981 79.2379952,14.3460028 79.2379952,13.8140002 C79.2379952,13.3899981 79.3049945,12.9940021 79.4389952,12.6260003 C79.5729959,12.2579984 79.7649939,11.9380017 80.0149952,11.6660003 C80.2649964,11.393999 80.5689933,11.1790011 80.9269951,11.0210004 C81.2849969,10.8629996 81.6899928,10.7840004 82.141995,10.7840004 C82.5179969,10.7840004 82.8659934,10.8449998 83.185995,10.9670004 C83.5059966,11.089001 83.7819938,11.2679992 84.0139949,11.5040003 C84.2459961,11.7400015 84.4269943,12.0289986 84.5569949,12.3710003 C84.6869955,12.713002 84.7519949,13.1019981 84.7519949,13.5380002 C84.7519949,13.7380012 84.7299951,13.8719998 84.6859949,13.9400002 C84.6419947,14.0080005 84.5619955,14.0420002 84.4459949,14.0420002 L80.5159951,14.0420002 Z M94.5499943,10.8800004 L92.5879944,17 L91.5619945,17 C91.4419939,17 91.3579947,16.9220008 91.3099945,16.766 L90.0919946,12.9560002 C90.0599944,12.8479997 90.0309947,12.7400008 90.0049946,12.6320003 C89.9789944,12.5239997 89.9559947,12.4180008 89.9359946,12.3140003 C89.8919944,12.5300013 89.8379949,12.7459992 89.7739946,12.9620002 L88.5379947,16.766 C88.4939944,16.9220008 88.3999954,17 88.2559947,17 L87.2779947,17 L85.3159949,10.8800004 L86.3359948,10.8800004 C86.4359953,10.8800004 86.5189945,10.9050001 86.5849948,10.9550004 C86.6509951,11.0050006 86.6939947,11.064 86.7139948,11.1320003 L87.7339947,14.6960001 C87.7739949,14.8600009 87.8089946,15.0189993 87.8389947,15.1730001 C87.8689949,15.3270009 87.8959946,15.4799993 87.9199947,15.6320001 C87.9599949,15.4799993 88.0019945,15.3270009 88.0459947,15.1730001 C88.0899949,15.0189993 88.1359944,14.8600009 88.1839947,14.6960001 L89.3299946,11.1140004 C89.3499947,11.042 89.3909943,10.9830006 89.4529946,10.9370004 C89.5149949,10.8910001 89.5899942,10.8680004 89.6779946,10.8680004 L90.2419946,10.8680004 C90.333995,10.8680004 90.4119942,10.8910001 90.4759945,10.9370004 C90.5399949,10.9830006 90.5819944,11.042 90.6019945,11.1140004 L91.7179945,14.6960001 C91.7659947,14.8600009 91.8109943,15.0199993 91.8529945,15.1760001 C91.8949947,15.3320009 91.9339943,15.4879993 91.9699945,15.6440001 C91.9979946,15.4919993 92.0279943,15.3380009 92.0599945,15.1820001 C92.0919946,15.0259993 92.1299942,14.864001 92.1739944,14.6960001 L93.2119944,11.1320003 C93.2359945,11.06 93.2799941,11.0000006 93.3439944,10.9520004 C93.4079947,10.9040001 93.4859939,10.8800004 93.5779944,10.8800004 L94.5499943,10.8800004 Z M99.139994,11.9900003 C99.1079939,12.0460006 99.0719942,12.0860002 99.031994,12.1100003 C98.9919938,12.1340004 98.9419943,12.1460003 98.881994,12.1460003 C98.8139937,12.1460003 98.7399945,12.1250005 98.6599941,12.0830003 C98.5799937,12.0410001 98.4859946,11.9940006 98.3779941,11.9420003 C98.2699935,11.89 98.1429948,11.8430005 97.9969941,11.8010003 C97.8509934,11.7590001 97.6799951,11.7380003 97.4839941,11.7380003 C97.3239933,11.7380003 97.1789948,11.7570001 97.0489942,11.7950003 C96.9189935,11.8330005 96.8089946,11.887 96.7189942,11.9570003 C96.6289937,12.0270006 96.5599944,12.1089998 96.5119942,12.2030003 C96.463994,12.2970008 96.4399942,12.3979997 96.4399942,12.5060003 C96.4399942,12.650001 96.4839937,12.7699998 96.5719942,12.8660002 C96.6599946,12.9620007 96.7759935,13.0449999 96.9199942,13.1150002 C97.0639949,13.1850006 97.2279932,13.2479999 97.4119941,13.3040002 C97.595995,13.3600005 97.7839932,13.4199999 97.9759941,13.4840002 C98.167995,13.5480005 98.3559932,13.6219998 98.5399941,13.7060002 C98.723995,13.7900006 98.8879933,13.8929996 99.031994,14.0150002 C99.1759947,14.1370008 99.2919936,14.2849993 99.379994,14.4590002 C99.4679945,14.633001 99.511994,14.8439989 99.511994,15.0920001 C99.511994,15.3800015 99.4599945,15.6459989 99.355994,15.8900001 C99.2519935,16.1340013 99.099995,16.3459991 98.899994,16.526 C98.6999931,16.7060009 98.4509956,16.8459995 98.1529941,16.946 C97.8549926,17.0460005 97.513996,17.096 97.1299942,17.096 C96.9179931,17.096 96.7129952,17.0770002 96.5149942,17.039 C96.3169932,17.0009998 96.1289951,16.9490003 95.9509942,16.883 C95.7729933,16.8169997 95.606995,16.7380005 95.4529943,16.646 C95.2989935,16.5539996 95.1619949,16.4540006 95.0419943,16.346 L95.3419943,15.8540001 C95.3779944,15.7939998 95.422994,15.7470002 95.4769942,15.7130001 C95.5309945,15.6789999 95.5979938,15.6620001 95.6779942,15.6620001 C95.7619947,15.6620001 95.8449938,15.6889998 95.9269942,15.7430001 C96.0089946,15.7970003 96.1049937,15.8559997 96.2149942,15.9200001 C96.3249947,15.9840004 96.4579934,16.0429998 96.6139942,16.0970001 C96.769995,16.1510003 96.963993,16.178 97.1959941,16.178 C97.3879951,16.178 97.5539934,16.1550003 97.6939941,16.1090001 C97.8339948,16.0629998 97.9499936,16.0000005 98.0419941,15.9200001 C98.1339946,15.8399997 98.2019939,15.7490006 98.2459941,15.6470001 C98.2899943,15.5449996 98.3119941,15.4360007 98.3119941,15.3200001 C98.3119941,15.1639993 98.2679945,15.0360006 98.1799941,14.9360001 C98.0919937,14.8359996 97.9749948,14.7500005 97.8289941,14.6780001 C97.6829934,14.6059998 97.5169951,14.5420004 97.3309941,14.4860001 C97.1449932,14.4299999 96.9559951,14.3700005 96.7639942,14.3060002 C96.5719932,14.2419998 96.3829951,14.1680006 96.1969942,14.0840002 C96.0109933,13.9999998 95.844995,13.8930008 95.6989942,13.7630002 C95.5529935,13.6329996 95.4359947,13.4750011 95.3479943,13.2890002 C95.2599938,13.1029993 95.2159943,12.8760016 95.2159943,12.6080003 C95.2159943,12.3639991 95.2649938,12.1320014 95.3629943,11.9120003 C95.4609947,11.6919992 95.6049933,11.4980012 95.7949942,11.3300003 C95.9849952,11.1619995 96.2189928,11.0290008 96.4969942,10.9310004 C96.7749956,10.8329999 97.0959923,10.7840004 97.4599941,10.7840004 C97.8719962,10.7840004 98.2459924,10.8499997 98.5819941,10.9820004 C98.9179957,11.114001 99.1999929,11.2939992 99.427994,11.5220003 L99.139994,11.9900003 Z"/>
  </g>
</svg>
