<svg width="162" height="43" viewBox="0 0 162 43" fill="none" xmlns="http://www.w3.org/2000/svg">
<path d="M0 35.801H17.8625V29.9737H6.46542V7.7439H0V35.801ZM26.9062 35.801V16.4759H20.4413V35.801H26.9062ZM23.6743 13.8378C25.9283 13.8378 27.3316 12.3538 27.3316 10.4981C27.2898 8.60211 25.9283 7.16016 23.7173 7.16016C21.5056 7.16016 20.0595 8.60267 20.0595 10.4981C20.0595 12.3538 21.4627 13.8378 23.632 13.8378H23.6743V13.8378ZM29.9076 35.801H36.3724V25.0086C36.3724 24.431 36.4142 23.8534 36.5854 23.442C37.052 22.288 38.1158 21.0925 39.902 21.0925C42.2419 21.0925 43.1779 22.865 43.1779 25.4615V35.8005H49.6417V24.7201C49.6417 18.7839 46.4522 16.0218 42.1984 16.0218C38.7112 16.0218 37.1797 17.9588 36.3289 19.2784H36.3724V16.4759H29.9076C29.9929 18.2894 29.9076 35.801 29.9076 35.801V35.801ZM58.7622 7.7439H52.2973V35.801H58.7622V29.5354L60.3778 27.5142L65.4394 35.801H73.3923L64.8869 23.8046L72.3291 15.6435H64.5469C64.5469 15.6435 59.2305 22.9447 58.7622 23.8114V7.7439Z" fill="white"/>
<path d="M90.5449 28.1426C90.6314 27.6442 90.7608 26.6879 90.7608 25.6064C90.7608 20.5882 88.1729 15.4934 81.3594 15.4934C74.0711 15.4934 70.707 21.1673 70.707 26.3135C70.707 32.6781 74.8043 36.6526 81.9626 36.6526C84.8094 36.6526 87.4392 36.2399 89.5963 35.3699L88.7337 31.1084C86.9649 31.6858 85.1537 31.975 82.9117 31.975C79.8501 31.975 77.1768 30.7374 76.9609 28.1009L90.5449 28.1415V28.1426V28.1426ZM76.9179 23.7773C77.0903 22.1208 78.2125 19.6765 81.0152 19.6765C83.9903 19.6765 84.6811 22.286 84.6811 23.7773H76.9185H76.9179ZM106.941 8.05574V17.8125H106.854C105.905 16.4468 103.922 15.5357 101.292 15.5357C96.246 15.5357 91.8045 19.5107 91.8469 26.3016C91.8469 32.5964 95.8582 36.6961 100.86 36.6961C103.577 36.6961 106.164 35.5357 107.459 33.2995H107.587L107.847 36.2405H113.668C113.582 34.8737 113.495 32.5135 113.495 30.1944V8.05518H106.94L106.941 8.05574ZM106.941 27.2545C106.941 27.7507 106.898 28.2486 106.811 28.6613C106.424 30.4431 104.871 31.6841 102.974 31.6841C100.257 31.6841 98.4885 29.5313 98.4885 26.1359C98.4885 22.9479 99.999 20.3802 103.017 20.3802C105.044 20.3802 106.467 21.7464 106.855 23.4435C106.941 23.8174 106.941 24.2318 106.941 24.6039V27.254V27.2545Z" fill="white"/>
<path fill-rule="evenodd" clip-rule="evenodd" d="M123.043 0C121.326 0 119.934 1.37874 119.934 3.07752V39.8849C119.934 41.5837 121.326 42.9613 123.043 42.9613H158.891C160.608 42.9613 162 41.5837 162 39.8844V3.07752C162 1.37874 160.608 0 158.891 0H123.043ZM132.212 16.4757V35.8005H125.688V16.4757H132.212ZM132.642 10.4992C132.642 12.3537 131.226 13.8377 128.951 13.8377H128.951H128.909C126.719 13.8377 125.304 12.3537 125.304 10.4992C125.304 8.60264 126.762 7.16016 128.995 7.16016C131.226 7.16016 132.599 8.60264 132.642 10.4992ZM142.345 35.8005H135.822C135.823 35.6867 135.908 18.2832 135.823 16.4762H142.346V19.212C143.213 17.8954 144.765 16.0227 148.225 16.0227C152.517 16.0227 155.735 18.7848 155.735 24.7203V35.8005H149.212V25.4634C149.212 22.8653 148.267 21.0933 145.907 21.0933C144.105 21.0933 143.032 22.2883 142.56 23.4428C142.388 23.8548 142.345 24.4329 142.345 25.0099V35.8005ZM135.822 35.801V35.8005C135.822 35.8009 135.822 35.801 135.822 35.801Z" fill="white"/>
</svg>
