<svg  transform="scale (-1, 1)"  width="163" height="159" viewBox="0 0 163 159" fill="none" xmlns="http://www.w3.org/2000/svg">
<path d="M107.918 149.994C125.125 131.122 144.083 107.593 139.37 80.3263C134.565 52.5504 107.615 37.5899 82.7461 30.3248C69.8054 26.5441 55.8387 25.3307 42.4611 27.8961C36.6889 29.0025 31.9974 33.526 32.4958 39.7723C32.9286 45.2005 38.3887 50.7 44.1967 49.5905C48.8867 48.6931 54.8393 48.1363 58.8142 48.2756C60.0322 48.3134 63.4273 48.6297 65.4233 48.9001C67.8942 49.2371 70.3507 49.6837 72.7861 50.2343C77.6809 51.3334 80.8057 52.3409 86.057 54.4912C90.9715 56.5027 95.7481 58.8629 100.325 61.5533C100.667 61.7519 100.838 61.8511 100.901 61.8817C101.29 62.1303 101.674 62.3974 102.063 62.658C103.253 63.4679 104.427 64.3093 105.563 65.1961C107.311 66.5525 109.924 68.8555 110.916 69.8871C114.031 73.1204 115.972 76.8833 117.447 81.4386C117.61 81.9294 117.68 82.1098 117.714 82.1609C117.715 82.239 117.728 82.4483 117.792 82.9117C117.962 84.1597 118.118 85.3968 118.192 86.6531C118.256 87.7359 118.279 88.8163 118.259 89.8944C118.26 89.9064 118.254 89.9128 118.261 89.9183C118.193 90.7902 118.095 91.6706 117.979 92.5347C117.688 94.7129 117.246 96.8743 116.675 99.0049C116.644 99.1338 116.406 99.9183 116.281 100.344C116.169 100.649 116.035 101.045 116.035 101.045C115.569 102.246 115.121 103.452 114.605 104.634C109.426 116.5 100.339 126.249 91.3565 136.097C87.4882 140.338 88.0795 147.989 92.5844 151.438C97.4118 155.134 103.77 154.542 107.918 149.994Z" fill="#FB0F5A"/>
</svg>
