<svg  transform="scale (-1, 1)"  width="143" height="152" viewBox="0 0 143 152" fill="none" xmlns="http://www.w3.org/2000/svg">
<path d="M110.457 13.3081C95.5771 2.51805 76.3371 -2.27195 58.0371 1.02805C40.4671 4.19805 25.3971 15.758 15.0071 29.948C6.05709 42.168 1.8471 55.9881 1.3971 69.9681C-4.4329 98.9181 8.17705 130.978 35.597 144.238C51.457 151.908 70.3171 153.728 87.3971 148.418C107.567 142.148 122.797 126.618 132.797 108.348C141.917 91.678 145.427 72.628 140.047 54.358C135.107 37.598 124.477 23.4781 110.457 13.3081ZM104.717 42.5881C105.237 43.1581 105.737 43.738 106.237 44.328C106.337 44.448 106.657 44.838 106.927 45.168C107.197 45.528 107.577 46.0381 107.677 46.1881C108.117 46.8181 108.547 47.458 108.967 48.098C109.907 49.548 110.787 51.028 111.607 52.548C112.417 54.068 113.147 55.618 113.857 57.178C113.877 57.218 113.887 57.248 113.907 57.288C114.167 57.998 114.417 58.708 114.657 59.428C115.587 62.258 116.267 65.158 116.747 68.108C116.677 67.878 116.967 70.578 116.997 71.228C117.057 72.748 117.047 74.268 116.967 75.798C116.937 76.318 116.447 79.8981 116.687 78.7581C116.277 80.9281 115.787 83.0681 115.147 85.1881C111.267 98.1081 101.227 112.828 89.5471 119.768C88.1571 120.598 86.7071 121.288 85.2871 122.048C85.0571 122.168 84.877 122.268 84.717 122.348C84.087 122.598 83.4371 122.838 82.7971 123.058C81.2771 123.588 79.7371 124.048 78.1771 124.438C77.3971 124.638 76.6171 124.818 75.8271 124.978C75.7371 124.998 73.6571 125.358 73.5371 125.418C70.6071 125.768 67.6271 125.848 64.6971 125.728C63.8971 125.698 63.0971 125.628 62.2871 125.588C62.1371 125.578 61.7271 125.528 61.4171 125.498C59.8071 125.258 58.2171 124.948 56.6371 124.578C54.8771 124.158 53.1871 123.588 51.4571 123.078C51.2171 123.008 51.0371 122.958 50.8671 122.908C50.5971 122.798 50.3271 122.678 50.0571 122.558C49.6571 121.998 49.2071 121.448 48.6871 120.938C46.2671 118.568 44.017 116.078 41.837 113.488C41.627 113.238 41.4571 113.038 41.3271 112.888C40.8971 112.318 40.4771 111.738 40.0771 111.158C38.8671 109.428 37.7071 107.648 36.6271 105.828C34.8871 102.918 33.4071 99.8881 31.9571 96.8181C31.8771 96.6581 31.5571 95.8981 31.4571 95.6881C31.2471 95.1381 31.0471 94.578 30.8471 94.018C30.2171 92.238 29.6471 90.428 29.1471 88.598C27.3671 82.088 26.787 78.6681 26.907 72.5681C27.387 70.7481 27.9671 68.938 28.6371 67.178C28.6971 67.058 28.767 66.9281 28.837 66.7781C29.397 65.6781 29.937 64.578 30.527 63.488C32.437 59.978 32.617 55.888 31.277 52.388C32.457 50.008 33.7271 47.6881 35.1871 45.4681C35.4671 45.0381 37.487 42.3581 37.097 42.7781C38.217 41.4281 39.377 40.098 40.597 38.828C41.707 37.678 42.8771 36.578 44.0671 35.518C44.6071 35.038 47.017 33.228 46.587 33.488C49.167 31.728 51.8071 30.108 54.6271 28.758C54.7771 28.688 55.3571 28.428 55.7871 28.238C56.2171 28.078 56.8271 27.848 56.9771 27.798C58.4571 27.288 59.9571 26.8381 61.4771 26.4681C62.2371 26.2781 63.007 26.1181 63.777 25.9681C63.927 25.9381 64.567 25.8481 65.027 25.7781C65.497 25.7381 66.1971 25.678 66.3671 25.668C67.3571 25.608 68.347 25.568 69.337 25.578C73.147 25.588 74.9171 25.8281 78.8871 26.8081C80.7471 27.2681 82.5871 27.808 84.3971 28.428C84.8171 28.578 85.2471 28.728 85.6671 28.878C85.6071 28.888 87.5771 29.758 87.7271 29.828C90.5071 31.158 93.177 32.7181 95.717 34.4381C96.247 34.7981 96.757 35.168 97.277 35.548C97.377 35.628 97.4871 35.7281 97.6171 35.8381C98.9371 36.9681 100.247 38.088 101.497 39.298C102.617 40.338 103.687 41.4481 104.717 42.5881Z" fill="#1BBAFF"/>
</svg>
