<svg  transform="scale (-1, 1)"  width="197" height="161" viewBox="0 0 197 161" fill="none" xmlns="http://www.w3.org/2000/svg">
<path d="M116.709 17.8076C109.95 23.5687 105.508 31.5073 104.735 40.459C104.037 48.4977 105.596 56.2192 107.094 64.0472C107.796 67.7093 108.45 71.3943 108.748 75.1253C108.822 76.0676 108.878 77.017 108.898 77.9624C108.907 78.2953 108.888 79.7147 108.902 79.6927C108.806 81.4372 108.572 83.187 108.18 84.8876C108.09 85.2846 107.98 85.6722 107.883 86.0661C107.867 86.1282 107.855 86.1885 107.84 86.2388C107.822 86.2676 107.807 86.3012 107.783 86.3435C107.423 87.0407 107.202 87.8609 106.872 88.5807C106.497 89.4065 106.088 90.2166 105.642 91.0011C105.544 91.1768 105.435 91.3512 105.33 91.5238C105.32 91.5108 104.734 92.4021 104.656 92.5091C103.708 93.8179 102.656 95.0529 101.529 96.2082C101.554 96.1826 101.012 96.7047 100.775 96.9424C100.614 97.0849 100.436 97.2394 100.381 97.2875C99.6076 97.9389 98.8048 98.5562 97.9778 99.1374C97.2355 99.6598 96.4707 100.151 95.6901 100.615C95.4043 100.78 95.1166 100.941 94.824 101.104C94.7469 101.137 94.6599 101.175 94.5501 101.226C92.8807 101.962 91.2222 102.56 89.4946 103.122C89.3844 103.156 89.3005 103.187 89.2248 103.209C88.8056 103.3 88.3877 103.379 87.9663 103.448C87.0821 103.596 86.1952 103.706 85.302 103.768C84.5679 103.822 83.8311 103.838 83.0938 103.837C83.0238 103.829 82.9489 103.823 82.8605 103.81C82.2626 103.748 81.6665 103.69 81.0712 103.604C74.3082 102.619 67.9297 99.7448 61.0697 99.3217C56.2491 99.025 51.622 99.7508 47.425 102.349C42.2978 105.521 39.4989 110.917 37.97 116.596C36.5557 121.869 36.4381 127.482 35.9892 132.892C35.4961 138.793 35.0031 144.695 34.51 150.597C34.2056 154.255 36.1819 157.767 39.976 158.404C43.3112 158.961 47.4267 156.477 47.7356 152.8C48.5521 143.031 48.9355 133.1 50.2965 123.386C50.4398 122.353 50.6132 121.326 50.8332 120.304C50.9259 119.883 51.0217 119.456 51.1376 119.039C51.1881 118.886 51.3273 118.409 51.3443 118.364C51.6548 117.544 51.9997 116.713 52.4296 115.945C52.5016 115.852 52.7867 115.423 52.8431 115.363C52.8512 115.355 53.8806 114.302 53.769 114.348C54.1856 114.051 55.123 113.497 54.8877 113.571C55.3816 113.363 55.8881 113.19 56.396 113.005C56.6919 112.959 56.986 112.908 57.2873 112.877C57.6416 112.838 57.9945 112.81 58.3442 112.789C58.52 112.781 59.3861 112.814 59.4139 112.798C65.7422 113.387 71.6845 115.814 77.9253 116.883C85.3158 118.15 93.1461 116.959 99.8928 113.573C107.09 109.967 112.942 104.659 117.165 97.7304C121.269 90.9963 122.607 83.1673 122.22 75.3835C121.857 68.1119 119.991 61.0514 118.823 53.8992C118.27 50.5247 117.922 47.1431 117.914 43.716C117.928 44.0304 117.995 42.3132 118.022 42.051C118.107 41.2411 118.22 40.4321 118.37 39.6322C118.515 38.834 118.717 38.0542 118.916 37.2646C118.923 37.2394 118.931 37.2143 118.94 37.1941C119.177 36.5701 119.41 35.9527 119.678 35.3395C119.862 34.925 120.06 34.5168 120.271 34.1149C120.313 34.0322 120.628 33.4694 120.793 33.157C120.941 32.9349 121.193 32.5519 121.244 32.4773C121.575 32.0206 121.919 31.5703 122.273 31.133C122.964 30.2989 123.699 29.4819 124.497 28.7432C124.58 28.6794 124.69 28.5999 124.825 28.4948C125.37 28.0891 125.892 27.6525 126.449 27.2649C128.414 25.8827 128.659 25.7265 130.89 24.847C131.94 24.4315 133.02 24.0717 134.113 23.7916C133.817 23.866 133.115 23.9476 134.419 23.7419C134.973 23.6524 135.53 23.5563 136.087 23.4934C144.445 22.5083 151.966 25.9584 158.067 32.4134C160.49 34.9729 165.453 34.31 167.533 31.6025C169.965 28.4362 169.407 24.772 166.817 22.027C153.982 8.4724 131.546 5.15504 116.709 17.8076Z" fill="#770FFB"/>
</svg>
