<svg  transform="scale (-1, 1)"  width="210" height="161" viewBox="0 0 210 161" fill="none" xmlns="http://www.w3.org/2000/svg">
<path d="M116.709 17.8074C109.95 23.5685 105.508 31.5071 104.735 40.4588C104.037 48.4975 105.596 56.219 107.094 64.0469C107.796 67.709 108.45 71.3941 108.748 75.1251C108.822 76.0674 108.878 77.0168 108.898 77.9622C108.907 78.295 108.888 79.7145 108.902 79.6925C108.806 81.437 108.572 83.1867 108.18 84.8873C108.09 85.2844 107.98 85.672 107.883 86.0659C107.867 86.1279 107.855 86.1882 107.84 86.2386C107.822 86.2673 107.807 86.301 107.783 86.3433C107.423 87.0405 107.202 87.8607 106.872 88.5804C106.497 89.4063 106.088 90.2164 105.642 91.0008C105.544 91.1766 105.435 91.351 105.33 91.5236C105.32 91.5105 104.734 92.4019 104.656 92.5089C103.708 93.8177 102.656 95.0526 101.529 96.2079C101.554 96.1823 101.012 96.7045 100.775 96.9422C100.614 97.0846 100.436 97.2392 100.381 97.2873C99.6076 97.9387 98.8048 98.5559 97.9778 99.1372C97.2355 99.6596 96.4707 100.151 95.6901 100.614C95.4043 100.78 95.1166 100.941 94.824 101.103C94.7469 101.137 94.6599 101.174 94.5501 101.225C92.8807 101.962 91.2222 102.56 89.4946 103.122C89.3844 103.156 89.3005 103.187 89.2248 103.209C88.8056 103.299 88.3877 103.379 87.9663 103.448C87.0821 103.596 86.1952 103.706 85.302 103.768C84.5679 103.822 83.8311 103.838 83.0938 103.837C83.0238 103.829 82.9489 103.823 82.8605 103.81C82.2626 103.747 81.6665 103.69 81.0712 103.604C74.3082 102.618 67.9297 99.7446 61.0697 99.3215C56.2491 99.0248 51.622 99.7506 47.425 102.349C42.2978 105.521 39.4989 110.916 37.97 116.595C36.5557 121.868 36.4381 127.482 35.9892 132.891C35.4961 138.793 35.0031 144.695 34.51 150.597C34.2056 154.255 36.1819 157.767 39.976 158.404C43.3112 158.961 47.4267 156.477 47.7356 152.8C48.5521 143.031 48.9355 133.1 50.2965 123.385C50.4398 122.352 50.6132 121.325 50.8332 120.304C50.9259 119.883 51.0217 119.456 51.1376 119.038C51.1881 118.885 51.3273 118.409 51.3443 118.363C51.6548 117.544 51.9997 116.712 52.4296 115.945C52.5016 115.852 52.7867 115.423 52.8431 115.363C52.8512 115.355 53.8806 114.302 53.769 114.348C54.1856 114.051 55.123 113.496 54.8877 113.571C55.3816 113.363 55.8881 113.19 56.396 113.005C56.6919 112.959 56.986 112.908 57.2873 112.877C57.6416 112.838 57.9945 112.81 58.3442 112.789C58.52 112.781 59.3861 112.813 59.4139 112.798C65.7422 113.386 71.6845 115.814 77.9253 116.883C85.3158 118.149 93.1461 116.958 99.8928 113.572C107.09 109.967 112.942 104.659 117.165 97.7301C121.269 90.996 122.607 83.167 122.22 75.3832C121.857 68.1117 119.991 61.0512 118.823 53.899C118.27 50.5244 117.922 47.1429 117.914 43.7157C117.928 44.0301 117.995 42.3129 118.022 42.0508C118.107 41.2408 118.22 40.4319 118.37 39.6319C118.515 38.8337 118.717 38.054 118.916 37.2644C118.923 37.2392 118.931 37.2141 118.94 37.1939C119.177 36.5698 119.41 35.9525 119.678 35.3393C119.862 34.9247 120.06 34.5165 120.271 34.1146C120.313 34.0319 120.628 33.4692 120.793 33.1567C120.941 32.9347 121.193 32.5516 121.244 32.477C121.575 32.0204 121.919 31.57 122.273 31.1328C122.964 30.2986 123.699 29.4816 124.497 28.7429C124.58 28.6791 124.69 28.5996 124.825 28.4945C125.37 28.0889 125.892 27.6523 126.449 27.2646C128.414 25.8825 128.659 25.7262 130.89 24.8467C131.94 24.4312 133.02 24.0715 134.113 23.7914C133.817 23.8657 133.115 23.9473 134.419 23.7416C134.973 23.6522 135.53 23.5561 136.087 23.4932C144.445 22.5081 151.966 25.9582 158.067 32.4132C160.49 34.9727 165.453 34.3097 167.533 31.6023C169.965 28.4359 169.407 24.7717 166.817 22.0268C153.982 8.47215 131.546 5.1548 116.709 17.8074Z" fill="#770FFB"/>
<path d="M187.773 112.74C182.983 117.53 182.553 126.26 187.643 130.9C192.753 135.56 200.673 135.9 205.803 130.77C210.593 125.98 211.023 117.25 205.933 112.61C200.833 107.94 192.903 107.61 187.773 112.74Z" fill="#FB0F5A"/>
</svg>
