<svg  transform="scale (-1, 1)"  width="125" height="198" viewBox="0 0 125 198" fill="none" xmlns="http://www.w3.org/2000/svg">
<path d="M115.133 131.194C82.3329 124.774 49.403 115.014 19.163 102.354C12.803 99.6941 5.37292 100.754 1.61292 107.314C-1.55708 112.834 -0.0871305 122.114 6.31287 124.794C39.2329 138.574 73.313 149.224 108.433 156.094C115.213 157.424 122.303 153.804 124.183 146.814C125.913 140.364 121.953 132.524 115.133 131.194Z" fill="#FFCE22"/>
<path d="M69.0214 1.63C67.0614 0.540005 64.9514 0 62.6914 0C61.6014 0.15 60.5215 0.290002 59.4315 0.440002C57.1915 1.05 55.2414 2.17996 53.5814 3.82996L51.8414 5.57001C50.5314 6.78001 49.6214 8.22 49.0914 9.87C48.3214 11.37 47.9614 12.97 48.0114 14.68C47.9314 16.39 48.2714 17.99 49.0214 19.47C49.5214 21.12 50.4214 22.54 51.7114 23.73C52.6214 24.42 53.5315 25.11 54.4315 25.8C56.3915 26.89 58.5014 27.43 60.7614 27.43C61.8514 27.28 62.9314 27.14 64.0214 26.99C66.2614 26.38 68.2115 25.25 69.8715 23.6L71.6114 21.86C72.9214 20.65 73.8314 19.21 74.3614 17.56C75.1314 16.06 75.4914 14.46 75.4414 12.75C75.5214 11.04 75.1815 9.43996 74.4315 7.95996C73.9315 6.30996 73.0314 4.88995 71.7414 3.69995C70.8314 3.00995 69.9214 2.32 69.0214 1.63Z" fill="#FB0F5A"/>
<path d="M92.73 171.021C91.24 170.271 89.65 169.931 87.94 170.011C86.23 169.961 84.63 170.321 83.13 171.091C81.48 171.621 80.04 172.531 78.83 173.841C78.13 174.761 77.42 175.681 76.72 176.591C75.6 178.571 75.03 180.691 75 182.951C75.13 184.041 75.26 185.121 75.39 186.211C75.97 188.441 77.07 190.381 78.69 192.011L80.41 193.731C81.6 195.021 83.02 195.911 84.67 196.421C86.16 197.171 87.75 197.511 89.46 197.431C91.17 197.481 92.77 197.121 94.27 196.351C95.92 195.821 97.36 194.911 98.57 193.601C99.27 192.681 99.98 191.761 100.68 190.851C101.8 188.871 102.37 186.751 102.4 184.491C102.27 183.401 102.14 182.321 102.01 181.231C101.43 179.001 100.33 177.061 98.71 175.431L96.99 173.711C95.79 172.411 94.37 171.521 92.73 171.021Z" fill="#770FFB"/>
<path d="M82.773 69.7404C77.983 74.5304 77.553 83.2604 82.643 87.9004C87.753 92.5604 95.673 92.9004 100.803 87.7704C105.593 82.9804 106.023 74.2504 100.933 69.6104C95.833 64.9404 87.903 64.6104 82.773 69.7404Z" fill="#1BBAFF"/>
</svg>
