<svg  transform="scale (-1, 1)"  width="154" height="243" viewBox="0 0 154 243" fill="none" xmlns="http://www.w3.org/2000/svg">
<path d="M115.134 85.1941C82.3339 78.7741 49.4039 69.0141 19.1639 56.3541C12.8039 53.6941 5.37389 54.7541 1.61389 61.3141C-1.55611 66.8341 -0.086154 76.1141 6.31385 78.7941C39.2338 92.5741 73.314 103.224 108.434 110.094C115.214 111.424 122.304 107.804 124.184 100.814C125.914 94.3641 121.954 86.5241 115.134 85.1941Z" fill="#FF971E"/>
<path d="M131.774 3.74039C126.984 8.53039 126.554 17.2604 131.644 21.9004C136.754 26.5604 144.674 26.9004 149.804 21.7704C154.594 16.9804 155.024 8.25038 149.934 3.61038C144.834 -1.05962 136.904 -1.38962 131.774 3.74039Z" fill="#FB0F5A"/>
<path d="M57.731 216.021C56.241 215.271 54.651 214.931 52.941 215.011C51.231 214.961 49.631 215.321 48.131 216.091C46.481 216.621 45.0409 217.531 43.8309 218.841C43.1309 219.761 42.4209 220.681 41.7209 221.591C40.6009 223.571 40.031 225.691 40.001 227.951C40.131 229.041 40.2609 230.121 40.3909 231.211C40.9709 233.441 42.071 235.381 43.691 237.011L45.4109 238.731C46.6009 240.021 48.021 240.911 49.671 241.421C51.161 242.171 52.7509 242.511 54.4609 242.431C56.1709 242.481 57.7709 242.121 59.2709 241.351C60.9209 240.821 62.361 239.911 63.571 238.601C64.271 237.681 64.981 236.761 65.681 235.851C66.801 233.871 67.3709 231.751 67.4009 229.491C67.2709 228.401 67.1409 227.321 67.0109 226.231C66.4309 224.001 65.3309 222.061 63.7109 220.431L61.991 218.711C60.791 217.411 59.371 216.521 57.731 216.021Z" fill="#770FFB"/>
</svg>
