<svg  transform="scale (-1, 1)"  width="434" height="168" viewBox="0 0 434 168" fill="none" xmlns="http://www.w3.org/2000/svg">
<path d="M433.079 42.0457C430.986 38.4995 426.812 37.8779 423.305 39.5095C414.382 43.655 405.541 47.9615 396.783 52.4233C395.159 47.1512 393.624 41.8514 392.172 36.5294C398.848 33.4994 405.541 30.5137 412.261 27.5946C415.795 26.0574 416.612 20.9407 414.823 17.9162C412.692 14.309 408.594 13.8373 405.049 15.3801C399.549 17.772 394.066 20.2137 388.594 22.6777C387.18 16.8674 385.866 11.0292 384.657 5.16892C383.884 1.42298 379.411 -0.735771 375.871 0.229849C371.939 1.30091 370.106 5.17449 370.879 8.93153C372.243 15.5521 373.751 22.1505 375.374 28.7101C367.571 32.3228 359.802 36.0022 352.071 39.7592C350.801 34.1376 349.586 28.5048 348.438 22.8553C347.676 19.1094 343.181 16.9506 339.652 17.9162C335.715 18.9873 333.898 22.8609 334.66 26.6179C335.997 33.1719 337.416 39.7093 338.912 46.23C330.397 50.4754 321.921 54.7985 313.494 59.2215C310.087 61.0084 309.044 65.7034 310.932 68.8999C312.953 72.3184 317.282 73.2341 320.706 71.4361C327.868 67.679 335.063 63.9885 342.286 60.3591C343.904 66.8688 345.61 73.3562 347.383 79.8214C339.481 84.5774 331.656 89.461 323.926 94.4833C320.701 96.5755 319.342 100.743 321.363 104.162C323.235 107.336 327.896 108.807 331.137 106.698C337.83 102.353 344.589 98.1127 351.409 93.9672C354.054 102.963 356.848 111.914 359.808 120.81C361.011 124.44 364.744 126.798 368.593 125.749C372.182 124.773 374.794 120.688 373.585 117.048C370.211 106.903 367.047 96.692 364.076 86.4198C372.111 81.736 380.228 77.1909 388.417 72.7846C391.99 83.1345 395.894 93.3734 400.124 103.485C401.598 107.014 404.862 109.528 408.909 108.424C412.272 107.508 415.387 103.274 413.901 99.7221C409.268 88.6507 405.027 77.424 401.184 66.0641C410.859 61.0861 420.633 56.2969 430.506 51.7129C434.007 50.1036 434.901 45.1312 433.079 42.0457ZM360.144 72.3018C358.493 66.1695 356.903 60.0262 355.395 53.8551C363.237 50.0203 371.111 46.2578 379.024 42.5673C380.565 48.1113 382.199 53.6276 383.922 59.1216C375.921 63.3837 367.991 67.7734 360.144 72.3018Z" fill="#1BBAFF"/>
<path d="M10.412 138.483C34.0307 148.198 62.6247 157.965 86.6354 144.211C111.093 130.195 115.934 99.7542 114.255 73.9C113.382 60.4466 109.745 46.9072 102.759 35.2138C99.745 30.1681 93.8897 27.3067 88.1905 29.9114C83.2377 32.1746 79.9373 39.1864 82.9663 44.2646C85.4137 48.3649 87.9728 53.7681 89.2014 57.551C89.5825 58.7084 90.4465 62.0069 90.8751 63.975C91.4035 66.4122 91.824 68.8732 92.1396 71.3501C92.7808 76.3256 92.9029 79.6066 92.6783 85.2767C92.469 90.5827 91.8848 95.8785 90.922 101.1C90.8525 101.489 90.8177 101.684 90.8104 101.753C90.7097 102.203 90.5901 102.656 90.4785 103.111C90.1242 104.505 89.7351 105.897 89.2903 107.267C88.6136 109.374 87.3432 112.617 86.7131 113.902C84.7403 117.935 81.8681 121.046 78.092 123.99C77.6866 124.311 77.541 124.439 77.5048 124.488C77.4317 124.516 77.2391 124.599 76.8258 124.818C75.711 125.404 74.602 125.974 73.4467 126.473C72.4513 126.904 71.4437 127.295 70.4238 127.645C70.4129 127.65 70.405 127.647 70.4021 127.655C69.5595 127.889 68.6989 128.099 67.8469 128.285C65.7007 128.757 63.5184 129.08 61.3209 129.272C61.1892 129.287 60.3706 129.332 59.9276 129.36C59.6034 129.359 59.185 129.369 59.185 129.369C57.8967 129.342 56.6105 129.334 55.3236 129.253C42.4014 128.444 30.1325 123.24 17.8064 118.167C12.4981 115.983 5.51049 119.155 3.81088 124.568C1.98812 130.369 4.71939 136.141 10.412 138.483Z" fill="#770FFB"/>
<path d="M236.622 37.39C234.622 35.39 232.622 33.39 230.622 31.39C227.902 28.67 223.862 27 220.012 27C216.332 27 211.942 28.63 209.402 31.39C206.782 34.25 204.832 38 205.012 42C205.192 45.98 206.532 49.74 209.402 52.61L215.402 58.61C218.122 61.33 222.162 63 226.012 63C229.692 63 234.082 61.37 236.622 58.61C239.242 55.75 241.192 52 241.012 48C240.832 44.02 239.492 40.27 236.622 37.39Z" fill="#FF971E"/>
</svg>
