<svg  transform="scale (-1, 1)"  width="205" height="411" viewBox="0 0 205 411" fill="none" xmlns="http://www.w3.org/2000/svg">
<path d="M79.412 127.483C103.031 137.198 131.625 146.965 155.635 133.211C180.093 119.195 184.934 88.7542 183.255 62.9C182.382 49.4466 178.745 35.9072 171.759 24.2138C168.745 19.1681 162.89 16.3067 157.19 18.9114C152.238 21.1746 148.937 28.1864 151.966 33.2646C154.414 37.3649 156.973 42.7681 158.201 46.551C158.583 47.7084 159.446 51.0069 159.875 52.975C160.403 55.4122 160.824 57.8732 161.14 60.3501C161.781 65.3256 161.903 68.6066 161.678 74.2767C161.469 79.5827 160.885 84.8785 159.922 90.0996C159.852 90.489 159.818 90.6836 159.81 90.7531C159.71 91.2032 159.59 91.6556 159.479 92.1108C159.124 93.5055 158.735 94.8965 158.29 96.2673C157.614 98.374 156.343 101.617 155.713 102.902C153.74 106.935 150.868 110.046 147.092 112.99C146.687 113.311 146.541 113.439 146.505 113.488C146.432 113.516 146.239 113.599 145.826 113.818C144.711 114.404 143.602 114.974 142.447 115.473C141.451 115.904 140.444 116.295 139.424 116.645C139.413 116.65 139.405 116.647 139.402 116.655C138.56 116.889 137.699 117.099 136.847 117.285C134.701 117.757 132.518 118.08 130.321 118.272C130.189 118.287 129.371 118.332 128.928 118.36C128.603 118.359 128.185 118.369 128.185 118.369C126.897 118.342 125.611 118.334 124.324 118.253C111.401 117.444 99.1325 112.24 86.8064 107.167C81.4981 104.983 74.5105 108.155 72.8109 113.568C70.9881 119.369 73.7194 125.141 79.412 127.483Z" fill="#FB0F5A"/>
<path d="M116.709 267.807C109.95 273.568 105.508 281.507 104.735 290.459C104.037 298.497 105.596 306.219 107.094 314.047C107.796 317.709 108.45 321.394 108.748 325.125C108.822 326.067 108.878 327.017 108.898 327.962C108.907 328.295 108.888 329.714 108.902 329.692C108.806 331.437 108.572 333.187 108.18 334.887C108.09 335.284 107.98 335.672 107.883 336.066C107.867 336.128 107.855 336.188 107.84 336.239C107.822 336.267 107.807 336.301 107.783 336.343C107.423 337.041 107.202 337.861 106.872 338.58C106.497 339.406 106.088 340.216 105.642 341.001C105.544 341.177 105.435 341.351 105.33 341.524C105.32 341.511 104.734 342.402 104.656 342.509C103.708 343.818 102.656 345.053 101.529 346.208C101.554 346.182 101.012 346.704 100.775 346.942C100.614 347.085 100.436 347.239 100.381 347.287C99.6076 347.939 98.8048 348.556 97.9778 349.137C97.2355 349.66 96.4707 350.151 95.6901 350.614C95.4043 350.78 95.1166 350.941 94.824 351.103C94.7469 351.137 94.6599 351.174 94.5501 351.225C92.8807 351.962 91.2222 352.56 89.4946 353.122C89.3844 353.156 89.3005 353.187 89.2248 353.209C88.8056 353.299 88.3877 353.379 87.9663 353.448C87.0821 353.596 86.1952 353.706 85.302 353.768C84.5679 353.822 83.8311 353.838 83.0938 353.837C83.0238 353.829 82.9489 353.823 82.8605 353.81C82.2626 353.747 81.6665 353.69 81.0712 353.604C74.3082 352.618 67.9297 349.745 61.0697 349.321C56.2491 349.025 51.622 349.751 47.425 352.349C42.2978 355.521 39.4989 360.916 37.97 366.595C36.5557 371.868 36.4381 377.482 35.9892 382.891C35.4961 388.793 35.0031 394.695 34.51 400.597C34.2056 404.255 36.1819 407.767 39.976 408.404C43.3112 408.961 47.4267 406.477 47.7356 402.8C48.5521 393.031 48.9355 383.1 50.2965 373.385C50.4398 372.352 50.6132 371.325 50.8332 370.304C50.9259 369.883 51.0217 369.456 51.1376 369.038C51.1881 368.885 51.3273 368.409 51.3443 368.363C51.6548 367.544 51.9997 366.712 52.4296 365.945C52.5016 365.852 52.7867 365.423 52.8431 365.363C52.8512 365.355 53.8806 364.302 53.769 364.348C54.1856 364.051 55.123 363.496 54.8877 363.571C55.3816 363.363 55.8881 363.19 56.396 363.005C56.6919 362.959 56.986 362.908 57.2873 362.877C57.6416 362.838 57.9945 362.81 58.3442 362.789C58.52 362.781 59.3861 362.813 59.4139 362.798C65.7422 363.386 71.6845 365.814 77.9253 366.883C85.3158 368.149 93.1461 366.958 99.8928 363.572C107.09 359.967 112.942 354.659 117.165 347.73C121.269 340.996 122.607 333.167 122.22 325.383C121.857 318.112 119.991 311.051 118.823 303.899C118.27 300.524 117.922 297.143 117.914 293.716C117.928 294.03 117.995 292.313 118.022 292.051C118.107 291.241 118.22 290.432 118.37 289.632C118.515 288.834 118.717 288.054 118.916 287.264C118.923 287.239 118.931 287.214 118.94 287.194C119.177 286.57 119.41 285.952 119.678 285.339C119.862 284.925 120.06 284.517 120.271 284.115C120.313 284.032 120.628 283.469 120.793 283.157C120.941 282.935 121.193 282.552 121.244 282.477C121.575 282.02 121.919 281.57 122.273 281.133C122.964 280.299 123.699 279.482 124.497 278.743C124.58 278.679 124.69 278.6 124.825 278.495C125.37 278.089 125.892 277.652 126.449 277.265C128.414 275.882 128.659 275.726 130.89 274.847C131.94 274.431 133.02 274.071 134.113 273.791C133.817 273.866 133.115 273.947 134.419 273.742C134.973 273.652 135.53 273.556 136.087 273.493C144.445 272.508 151.966 275.958 158.067 282.413C160.49 284.973 165.453 284.31 167.533 281.602C169.965 278.436 169.407 274.772 166.817 272.027C153.982 258.472 131.546 255.155 116.709 267.807Z" fill="#FFCE22"/>
<path d="M37.773 240.74C32.983 245.53 32.553 254.26 37.643 258.9C42.753 263.56 50.673 263.9 55.803 258.77C60.593 253.98 61.023 245.25 55.933 240.61C50.833 235.94 42.903 235.61 37.773 240.74Z" fill="#1BBAFF"/>
</svg>
