<svg  transform="scale (-1, 1)" width="573" height="339" viewBox="0 0 573 339" fill="none" xmlns="http://www.w3.org/2000/svg">
<g filter="url(#filter0_d)">
<path d="M521.93 71.9363H382.232C365.23 71.9363 351.448 85.7186 351.448 102.72V167.995C351.448 184.996 365.231 198.778 382.232 198.778H521.93C538.931 198.778 552.713 184.996 552.713 167.995V102.72C552.713 85.7186 538.931 71.9363 521.93 71.9363Z" fill="white" fill-opacity="0.01"/>
</g>
<path d="M521.93 71.9363H382.232C365.23 71.9363 351.448 85.7186 351.448 102.72V167.995C351.448 184.996 365.231 198.778 382.232 198.778H521.93C538.931 198.778 552.713 184.996 552.713 167.995V102.72C552.713 85.7186 538.931 71.9363 521.93 71.9363Z" fill="white"/>
<path d="M528.165 99.0845H375.996C373.682 99.0845 371.807 100.96 371.807 103.274C371.807 105.588 373.682 107.464 375.996 107.464H528.165C530.479 107.464 532.355 105.588 532.355 103.274C532.355 100.96 530.479 99.0845 528.165 99.0845Z" fill="#EFF0F7"/>
<g filter="url(#filter1_d)">
<path d="M431.255 99.0845H375.996C373.682 99.0845 371.807 100.96 371.807 103.274C371.807 105.588 373.682 107.464 375.996 107.464H431.255C433.569 107.464 435.445 105.588 435.445 103.274C435.445 100.96 433.569 99.0845 431.255 99.0845Z" fill="#3F80FD" fill-opacity="0.01"/>
</g>
<path d="M431.448 99.0845H376.189C373.875 99.0845 372 100.96 372 103.274C372 105.588 373.875 107.464 376.189 107.464H431.448C433.762 107.464 435.638 105.588 435.638 103.274C435.638 100.96 433.762 99.0845 431.448 99.0845Z" fill="#3F80FD"/>
<path d="M528.165 115.126H375.996C373.682 115.126 371.807 117.002 371.807 119.316C371.807 121.63 373.682 123.506 375.996 123.506H528.165C530.479 123.506 532.355 121.63 532.355 119.316C532.355 117.002 530.479 115.126 528.165 115.126Z" fill="#EFF0F7"/>
<g filter="url(#filter2_d)">
<path d="M511.765 115.126H375.996C373.682 115.126 371.807 117.002 371.807 119.316C371.807 121.63 373.682 123.506 375.996 123.506H511.765C514.079 123.506 515.955 121.63 515.955 119.316C515.955 117.002 514.079 115.126 511.765 115.126Z" fill="#3F80FD" fill-opacity="0.01"/>
</g>
<path d="M511.958 115.126H376.189C373.875 115.126 372 117.002 372 119.316C372 121.63 373.875 123.506 376.189 123.506H511.958C514.272 123.506 516.148 121.63 516.148 119.316C516.148 117.002 514.272 115.126 511.958 115.126Z" fill="#3F80FD"/>
<path d="M528.165 131.168H375.996C373.682 131.168 371.807 133.044 371.807 135.357C371.807 137.671 373.682 139.547 375.996 139.547H528.165C530.479 139.547 532.355 137.671 532.355 135.357C532.355 133.044 530.479 131.168 528.165 131.168Z" fill="#EFF0F7"/>
<g filter="url(#filter3_d)">
<path d="M422.841 131.063L376.189 131.063C373.875 131.063 372 132.939 372 135.253C372 137.567 373.875 139.443 376.189 139.443H422.841C425.155 139.443 427.031 137.567 427.031 135.253C427.031 132.939 425.155 131.063 422.841 131.063Z" fill="#3F80FD" fill-opacity="0.01"/>
</g>
<path d="M422.944 131.063L376.189 131.063C373.875 131.063 372 132.939 372 135.253C372 137.567 373.875 139.443 376.189 139.443H422.944C425.258 139.443 427.134 137.567 427.134 135.253C427.134 132.939 425.258 131.063 422.944 131.063Z" fill="#3F80FD"/>
<path d="M528.165 147.209H375.996C373.682 147.209 371.807 149.085 371.807 151.399C371.807 153.713 373.682 155.589 375.996 155.589H528.165C530.479 155.589 532.355 153.713 532.355 151.399C532.355 149.085 530.479 147.209 528.165 147.209Z" fill="#EFF0F7"/>
<g filter="url(#filter4_d)">
<path d="M485.702 147.209H375.996C373.682 147.209 371.807 149.085 371.807 151.399C371.807 153.713 373.682 155.589 375.996 155.589H485.702C488.016 155.589 489.892 153.713 489.892 151.399C489.892 149.085 488.016 147.209 485.702 147.209Z" fill="#3F80FD" fill-opacity="0.01"/>
</g>
<path d="M485.702 147H375.996C373.682 147 371.807 148.876 371.807 151.19C371.807 153.504 373.682 155.38 375.996 155.38H485.702C488.016 155.38 489.892 153.504 489.892 151.19C489.892 148.876 488.016 147 485.702 147Z" fill="#3F80FD"/>
<path d="M528.165 163.251H375.996C373.682 163.251 371.807 165.127 371.807 167.441C371.807 169.755 373.682 171.63 375.996 171.63H528.165C530.479 171.63 532.355 169.755 532.355 167.441C532.355 165.127 530.479 163.251 528.165 163.251Z" fill="#EFF0F7"/>
<g filter="url(#filter5_d)">
<path d="M444.447 163.251H375.996C373.682 163.251 371.807 165.127 371.807 167.441C371.807 169.755 373.682 171.63 375.996 171.63H444.447C446.761 171.63 448.637 169.755 448.637 167.441C448.637 165.127 446.761 163.251 444.447 163.251Z" fill="#3F80FD" fill-opacity="0.01"/>
</g>
<path d="M444.64 163.251H376.189C373.875 163.251 372 165.127 372 167.441C372 169.755 373.875 171.63 376.189 171.63H444.64C446.954 171.63 448.83 169.755 448.83 167.441C448.83 165.127 446.954 163.251 444.64 163.251Z" fill="#3F80FD"/>
<g filter="url(#filter6_d)">
<path d="M140.103 154.989H52C34.3269 154.989 20 169.316 20 186.989V280.258C20 297.931 34.3269 312.258 52 312.258H140.103C157.776 312.258 172.103 297.931 172.103 280.258V186.989C172.103 169.316 157.776 154.989 140.103 154.989Z" fill="white" fill-opacity="0.01"/>
</g>
<path d="M140.103 154.989H52C34.3269 154.989 20 169.316 20 186.989V280.258C20 297.931 34.3269 312.258 52 312.258H140.103C157.776 312.258 172.103 297.931 172.103 280.258V186.989C172.103 169.316 157.776 154.989 140.103 154.989Z" fill="white"/>
<path d="M152.966 233.623C152.966 265.056 127.484 290.538 96.0515 290.538C64.6185 290.538 39.137 265.056 39.137 233.623C39.137 202.19 64.6185 176.709 96.0515 176.709C127.484 176.709 152.966 202.19 152.966 233.623ZM64.6391 233.623C64.6391 250.972 78.7029 265.036 96.0515 265.036C113.4 265.036 127.464 250.972 127.464 233.623C127.464 216.275 113.4 202.211 96.0515 202.211C78.7029 202.211 64.6391 216.275 64.6391 233.623Z" fill="#F5F7FC"/>
<g filter="url(#filter7_d)">
<path d="M102.057 189.779C108.223 190.624 114.141 192.759 119.425 196.046C124.709 199.333 129.241 203.697 132.724 208.854C136.207 214.011 138.563 219.845 139.639 225.974C140.715 232.103 140.485 238.391 138.966 244.426" stroke="#FFC226" stroke-opacity="0.01" stroke-width="25.3218" stroke-linecap="round"/>
</g>
<path d="M102.057 189.779C108.223 190.624 114.141 192.759 119.425 196.046C124.709 199.333 129.241 203.697 132.724 208.854C136.207 214.011 138.563 219.845 139.639 225.974C140.715 232.103 140.485 238.391 138.966 244.426" stroke="#FFC226" stroke-width="25.3218" stroke-linecap="round"/>
<g filter="url(#filter8_d)">
<path d="M60.2085 207.668C66.8745 198.463 76.8268 192.175 88.0029 190.108C99.179 188.041 110.722 190.353 120.24 196.565" stroke="#FF8139" stroke-opacity="0.01" stroke-width="25.3218" stroke-linecap="round"/>
</g>
<path d="M60.2085 207.668C66.8745 198.463 76.8268 192.175 88.0029 190.108C99.179 188.041 110.722 190.353 120.24 196.565" stroke="#FF8139" stroke-width="25.3218" stroke-linecap="round"/>
<g filter="url(#filter9_d)">
<path d="M104.758 277.012C96.3567 278.698 87.6468 277.908 79.6856 274.739C71.7244 271.571 64.8545 266.159 59.9098 259.161C54.9651 252.163 52.1583 243.88 51.8303 235.317C51.5023 226.755 53.6672 218.281 58.062 210.926" stroke="#FF3951" stroke-opacity="0.01" stroke-width="25.3218" stroke-linecap="round"/>
</g>
<path d="M104.758 277.012C96.3567 278.698 87.6468 277.908 79.6856 274.739C71.7244 271.571 64.8545 266.159 59.9098 259.161C54.9651 252.163 52.1583 243.88 51.8303 235.317C51.5023 226.755 53.6672 218.281 58.062 210.926" stroke="#FF3951" stroke-width="25.3218" stroke-linecap="round"/>
<g filter="url(#filter10_d)">
<path d="M283.845 14H152.783C138.423 14 126.783 25.6406 126.783 40V93.7258C126.783 108.085 138.423 119.726 152.783 119.726H283.845C298.204 119.726 309.845 108.085 309.845 93.7258V40C309.845 25.6406 298.204 14 283.845 14Z" fill="white" fill-opacity="0.01"/>
</g>
<path d="M283.845 14H152.783C138.423 14 126.783 25.6406 126.783 40V93.7258C126.783 108.085 138.423 119.726 152.783 119.726H283.845C298.204 119.726 309.845 108.085 309.845 93.7258V40C309.845 25.6406 298.204 14 283.845 14Z" fill="white"/>
<path opacity="0.1" d="M250.399 59.2007C226.954 45.9786 238.583 91.73 204.037 70.3918C174.209 51.9672 169.837 88.7893 153.476 100.452C150.897 102.29 147.343 107.987 144.057 108.021L288.212 107.264C290.639 107.252 292.6 105.28 292.6 102.853V25.7046C279.44 30.3434 273.844 72.4229 250.399 59.2007Z" fill="#F4263E"/>
<g filter="url(#filter11_d)">
<path d="M144.967 105.211C168.931 105.211 170.095 49.5765 204.407 69.6469C238.719 89.7173 226.399 44.7737 249.686 57.2103C272.972 69.6469 278.529 30.0674 291.601 25.7043" stroke="#F4263E" stroke-opacity="0.01" stroke-width="3.15095" stroke-linecap="round"/>
</g>
<path d="M144.967 105.211C168.931 105.211 170.095 49.5765 204.407 69.6469C238.719 89.7173 226.399 44.7737 249.686 57.2103C272.972 69.6469 278.529 30.0674 291.601 25.7043" stroke="#F4263E" stroke-width="3.15095" stroke-linecap="round"/>
<defs>
<filter id="filter0_d" x="331.448" y="57.9363" width="241.265" height="166.842" filterUnits="userSpaceOnUse" color-interpolation-filters="sRGB">
<feFlood flood-opacity="0" result="BackgroundImageFix"/>
<feColorMatrix in="SourceAlpha" type="matrix" values="0 0 0 0 0 0 0 0 0 0 0 0 0 0 0 0 0 0 127 0"/>
<feOffset dy="6"/>
<feGaussianBlur stdDeviation="10"/>
<feColorMatrix type="matrix" values="0 0 0 0 0.247059 0 0 0 0 0.501961 0 0 0 0 0.992157 0 0 0 0.05 0"/>
<feBlend mode="normal" in2="BackgroundImageFix" result="effect1_dropShadow"/>
<feBlend mode="normal" in="SourceGraphic" in2="effect1_dropShadow" result="shape"/>
</filter>
<filter id="filter1_d" x="362.753" y="93.6521" width="81.746" height="26.4875" filterUnits="userSpaceOnUse" color-interpolation-filters="sRGB">
<feFlood flood-opacity="0" result="BackgroundImageFix"/>
<feColorMatrix in="SourceAlpha" type="matrix" values="0 0 0 0 0 0 0 0 0 0 0 0 0 0 0 0 0 0 127 0"/>
<feOffset dy="3.62159"/>
<feGaussianBlur stdDeviation="4.52699"/>
<feColorMatrix type="matrix" values="0 0 0 0 0.247059 0 0 0 0 0.501961 0 0 0 0 0.992157 0 0 0 0.29 0"/>
<feBlend mode="normal" in2="BackgroundImageFix" result="effect1_dropShadow"/>
<feBlend mode="normal" in="SourceGraphic" in2="effect1_dropShadow" result="shape"/>
</filter>
<filter id="filter2_d" x="362.753" y="109.694" width="162.256" height="26.488" filterUnits="userSpaceOnUse" color-interpolation-filters="sRGB">
<feFlood flood-opacity="0" result="BackgroundImageFix"/>
<feColorMatrix in="SourceAlpha" type="matrix" values="0 0 0 0 0 0 0 0 0 0 0 0 0 0 0 0 0 0 127 0"/>
<feOffset dy="3.62159"/>
<feGaussianBlur stdDeviation="4.52699"/>
<feColorMatrix type="matrix" values="0 0 0 0 0.247059 0 0 0 0 0.501961 0 0 0 0 0.992157 0 0 0 0.29 0"/>
<feBlend mode="normal" in2="BackgroundImageFix" result="effect1_dropShadow"/>
<feBlend mode="normal" in="SourceGraphic" in2="effect1_dropShadow" result="shape"/>
</filter>
<filter id="filter3_d" x="362.946" y="125.631" width="73.1388" height="26.4875" filterUnits="userSpaceOnUse" color-interpolation-filters="sRGB">
<feFlood flood-opacity="0" result="BackgroundImageFix"/>
<feColorMatrix in="SourceAlpha" type="matrix" values="0 0 0 0 0 0 0 0 0 0 0 0 0 0 0 0 0 0 127 0"/>
<feOffset dy="3.62159"/>
<feGaussianBlur stdDeviation="4.52699"/>
<feColorMatrix type="matrix" values="0 0 0 0 0.247059 0 0 0 0 0.501961 0 0 0 0 0.992157 0 0 0 0.29 0"/>
<feBlend mode="normal" in2="BackgroundImageFix" result="effect1_dropShadow"/>
<feBlend mode="normal" in="SourceGraphic" in2="effect1_dropShadow" result="shape"/>
</filter>
<filter id="filter4_d" x="362.753" y="141.777" width="136.193" height="26.488" filterUnits="userSpaceOnUse" color-interpolation-filters="sRGB">
<feFlood flood-opacity="0" result="BackgroundImageFix"/>
<feColorMatrix in="SourceAlpha" type="matrix" values="0 0 0 0 0 0 0 0 0 0 0 0 0 0 0 0 0 0 127 0"/>
<feOffset dy="3.62159"/>
<feGaussianBlur stdDeviation="4.52699"/>
<feColorMatrix type="matrix" values="0 0 0 0 0.247059 0 0 0 0 0.501961 0 0 0 0 0.992157 0 0 0 0.29 0"/>
<feBlend mode="normal" in2="BackgroundImageFix" result="effect1_dropShadow"/>
<feBlend mode="normal" in="SourceGraphic" in2="effect1_dropShadow" result="shape"/>
</filter>
<filter id="filter5_d" x="362.753" y="157.819" width="94.9379" height="26.487" filterUnits="userSpaceOnUse" color-interpolation-filters="sRGB">
<feFlood flood-opacity="0" result="BackgroundImageFix"/>
<feColorMatrix in="SourceAlpha" type="matrix" values="0 0 0 0 0 0 0 0 0 0 0 0 0 0 0 0 0 0 127 0"/>
<feOffset dy="3.62159"/>
<feGaussianBlur stdDeviation="4.52699"/>
<feColorMatrix type="matrix" values="0 0 0 0 0.247059 0 0 0 0 0.501961 0 0 0 0 0.992157 0 0 0 0.29 0"/>
<feBlend mode="normal" in2="BackgroundImageFix" result="effect1_dropShadow"/>
<feBlend mode="normal" in="SourceGraphic" in2="effect1_dropShadow" result="shape"/>
</filter>
<filter id="filter6_d" x="0" y="140.989" width="192.103" height="197.269" filterUnits="userSpaceOnUse" color-interpolation-filters="sRGB">
<feFlood flood-opacity="0" result="BackgroundImageFix"/>
<feColorMatrix in="SourceAlpha" type="matrix" values="0 0 0 0 0 0 0 0 0 0 0 0 0 0 0 0 0 0 127 0"/>
<feOffset dy="6"/>
<feGaussianBlur stdDeviation="10"/>
<feColorMatrix type="matrix" values="0 0 0 0 1 0 0 0 0 0.505882 0 0 0 0 0.223529 0 0 0 0.1 0"/>
<feBlend mode="normal" in2="BackgroundImageFix" result="effect1_dropShadow"/>
<feBlend mode="normal" in="SourceGraphic" in2="effect1_dropShadow" result="shape"/>
</filter>
<filter id="filter7_d" x="81.6032" y="173.221" width="79.1541" height="95.556" filterUnits="userSpaceOnUse" color-interpolation-filters="sRGB">
<feFlood flood-opacity="0" result="BackgroundImageFix"/>
<feColorMatrix in="SourceAlpha" type="matrix" values="0 0 0 0 0 0 0 0 0 0 0 0 0 0 0 0 0 0 127 0"/>
<feOffset dy="3.89567"/>
<feGaussianBlur stdDeviation="3.89567"/>
<feColorMatrix type="matrix" values="0 0 0 0 1 0 0 0 0 0.760784 0 0 0 0 0.14902 0 0 0 0.21 0"/>
<feBlend mode="normal" in2="BackgroundImageFix" result="effect1_dropShadow"/>
<feBlend mode="normal" in="SourceGraphic" in2="effect1_dropShadow" result="shape"/>
</filter>
<filter id="filter8_d" x="39.7553" y="172.813" width="100.938" height="59.2036" filterUnits="userSpaceOnUse" color-interpolation-filters="sRGB">
<feFlood flood-opacity="0" result="BackgroundImageFix"/>
<feColorMatrix in="SourceAlpha" type="matrix" values="0 0 0 0 0 0 0 0 0 0 0 0 0 0 0 0 0 0 127 0"/>
<feOffset dy="3.89567"/>
<feGaussianBlur stdDeviation="3.89567"/>
<feColorMatrix type="matrix" values="0 0 0 0 1 0 0 0 0 0.505882 0 0 0 0 0.223529 0 0 0 0.16 0"/>
<feBlend mode="normal" in2="BackgroundImageFix" result="effect1_dropShadow"/>
<feBlend mode="normal" in="SourceGraphic" in2="effect1_dropShadow" result="shape"/>
</filter>
<filter id="filter9_d" x="23.5543" y="188.524" width="109.45" height="123.44" filterUnits="userSpaceOnUse" color-interpolation-filters="sRGB">
<feFlood flood-opacity="0" result="BackgroundImageFix"/>
<feColorMatrix in="SourceAlpha" type="matrix" values="0 0 0 0 0 0 0 0 0 0 0 0 0 0 0 0 0 0 127 0"/>
<feOffset dy="5.8435"/>
<feGaussianBlur stdDeviation="7.79134"/>
<feColorMatrix type="matrix" values="0 0 0 0 1 0 0 0 0 0.223529 0 0 0 0 0.317647 0 0 0 0.34 0"/>
<feBlend mode="normal" in2="BackgroundImageFix" result="effect1_dropShadow"/>
<feBlend mode="normal" in="SourceGraphic" in2="effect1_dropShadow" result="shape"/>
</filter>
<filter id="filter10_d" x="106.783" y="0" width="223.062" height="145.726" filterUnits="userSpaceOnUse" color-interpolation-filters="sRGB">
<feFlood flood-opacity="0" result="BackgroundImageFix"/>
<feColorMatrix in="SourceAlpha" type="matrix" values="0 0 0 0 0 0 0 0 0 0 0 0 0 0 0 0 0 0 127 0"/>
<feOffset dy="6"/>
<feGaussianBlur stdDeviation="10"/>
<feColorMatrix type="matrix" values="0 0 0 0 0.956863 0 0 0 0 0.14902 0 0 0 0 0.243137 0 0 0 0.1 0"/>
<feBlend mode="normal" in2="BackgroundImageFix" result="effect1_dropShadow"/>
<feBlend mode="normal" in="SourceGraphic" in2="effect1_dropShadow" result="shape"/>
</filter>
<filter id="filter11_d" x="140.241" y="22.2378" width="156.087" height="88.96" filterUnits="userSpaceOnUse" color-interpolation-filters="sRGB">
<feFlood flood-opacity="0" result="BackgroundImageFix"/>
<feColorMatrix in="SourceAlpha" type="matrix" values="0 0 0 0 0 0 0 0 0 0 0 0 0 0 0 0 0 0 127 0"/>
<feOffset dy="1.26038"/>
<feGaussianBlur stdDeviation="1.57548"/>
<feColorMatrix type="matrix" values="0 0 0 0 0.956863 0 0 0 0 0.14902 0 0 0 0 0.243137 0 0 0 0.33 0"/>
<feBlend mode="normal" in2="BackgroundImageFix" result="effect1_dropShadow"/>
<feBlend mode="normal" in="SourceGraphic" in2="effect1_dropShadow" result="shape"/>
</filter>
</defs>
</svg>
