<svg transform="scale (-1, 1)" width="670" height="476" viewBox="0 0 670 476" fill="none" xmlns="http://www.w3.org/2000/svg">
<path d="M183.671 320.41H100.845C99.4043 320.41 98.0225 319.838 97.0037 318.819C95.985 317.8 95.4126 316.418 95.4126 314.978C95.4126 313.537 95.985 312.155 97.0037 311.136C98.0225 310.117 99.4043 309.545 100.845 309.545H183.671C185.112 309.545 186.493 310.117 187.512 311.136C188.531 312.155 189.103 313.537 189.103 314.978C189.103 316.418 188.531 317.8 187.512 318.819C186.493 319.838 185.112 320.41 183.671 320.41Z" fill="#407BFF"/>
<path opacity="0.8" d="M183.671 320.41H100.845C99.4043 320.41 98.0225 319.838 97.0037 318.819C95.985 317.8 95.4126 316.418 95.4126 314.978C95.4126 313.537 95.985 312.155 97.0037 311.136C98.0225 310.117 99.4043 309.545 100.845 309.545H183.671C185.112 309.545 186.493 310.117 187.512 311.136C188.531 312.155 189.103 313.537 189.103 314.978C189.103 316.418 188.531 317.8 187.512 318.819C186.493 319.838 185.112 320.41 183.671 320.41Z" fill="#A0A3BD"/>
<path d="M258.258 460.185L270.463 454.59L264.578 423.082L252.391 428.695L258.258 460.185Z" fill="#FFD5BD"/>
<path d="M269.883 451.24L256.176 457.523C255.941 457.62 255.753 457.805 255.655 458.039C255.556 458.274 255.555 458.537 255.65 458.773L259.96 469.927C260.221 470.498 260.696 470.943 261.282 471.166C261.868 471.39 262.518 471.374 263.093 471.122C267.837 468.841 269.974 467.501 276.004 464.748C279.716 463.046 295.669 456.201 300.775 453.884C305.882 451.566 303.437 446.532 301.047 447.075C290.382 449.483 277.018 452.181 272.328 451.059C271.516 450.842 270.655 450.906 269.883 451.24Z" fill="#14142B"/>
<path opacity="0.2" d="M252.373 428.695L264.577 423.1L267.619 439.343L255.397 444.938L252.373 428.695Z" fill="#14142B"/>
<path d="M172.209 257.575C172.209 257.575 276.656 265.054 272.436 303.316C266.388 358.31 271.368 427.881 271.368 427.881L248.624 437.26C248.624 437.26 228.706 359.74 234.011 316.879C207.954 306.014 137.297 316.426 128.985 293.918C124.922 282.255 123.851 269.759 125.871 257.575H172.209Z" fill="#14142B"/>
<path opacity="0.3" d="M223.092 289.427C223.092 289.427 220.557 300.799 218.819 313.149H219.054L221.734 313.565L223.092 313.819L224.631 314.108C226.73 314.523 228.803 315.055 230.842 315.702C231.331 315.847 231.784 316.01 232.237 316.173C232.689 316.336 233.45 316.607 234.047 316.843C233.42 322.125 233.112 327.44 233.124 332.76C248.968 309.491 235.351 289.427 223.092 289.427Z" fill="#14142B"/>
<path d="M246.578 444.739L276.003 431.231L274.102 420.402L243.844 431.466L246.578 444.739Z" fill="#FF3951"/>
<path d="M275.315 451.385C274.202 451.852 273.043 452.204 271.857 452.435C271.799 452.448 271.738 452.443 271.683 452.42C271.628 452.397 271.581 452.358 271.549 452.308C271.515 452.257 271.496 452.197 271.496 452.136C271.496 452.075 271.515 452.015 271.549 451.964C271.802 451.511 274.175 447.582 275.931 447.473C276.133 447.459 276.334 447.498 276.516 447.587C276.697 447.676 276.851 447.812 276.963 447.98C277.171 448.205 277.314 448.482 277.378 448.782C277.442 449.081 277.424 449.392 277.325 449.682C276.893 450.482 276.175 451.09 275.315 451.385ZM272.454 451.656C274.826 451.095 276.402 450.298 276.71 449.465C276.775 449.276 276.786 449.072 276.741 448.876C276.697 448.681 276.598 448.502 276.456 448.361C276.405 448.274 276.33 448.204 276.24 448.16C276.15 448.115 276.049 448.096 275.949 448.107C274.953 448.161 273.396 450.189 272.4 451.656H272.454Z" fill="#FF3951"/>
<path d="M271.875 452.417H271.694C271.639 452.42 271.586 452.406 271.54 452.377C271.494 452.348 271.459 452.305 271.44 452.254C271.44 452.127 269.466 448.741 270.154 446.984C270.236 446.758 270.37 446.554 270.547 446.39C270.723 446.226 270.936 446.107 271.168 446.043C271.415 445.936 271.69 445.916 271.95 445.985C272.209 446.054 272.438 446.208 272.599 446.423C273.486 447.618 272.853 451.004 271.965 452.29L271.875 452.417ZM271.259 446.695C271.144 446.746 271.041 446.821 270.957 446.915C270.873 447.008 270.809 447.118 270.77 447.238C270.633 448.719 270.976 450.204 271.748 451.475C272.473 450.032 272.61 448.363 272.128 446.822C272.02 446.659 271.838 446.514 271.404 446.64L271.259 446.695Z" fill="#FF3951"/>
<path d="M177.297 148.71L189.973 185.47C192.127 191.59 194.264 197.692 196.473 203.722C198.682 209.752 200.946 215.764 203.372 221.486L202.775 220.4C202.167 219.521 201.352 218.806 200.403 218.317C199.291 217.729 198.034 217.472 196.781 217.575C195.133 217.792 195.188 218.136 195.369 218.009C196.421 217.507 197.386 216.841 198.23 216.036C200.748 213.789 203.136 211.401 205.382 208.883C207.791 206.257 210.163 203.451 212.626 200.716L219.76 192.314L228.416 197.493C226.913 201.115 225.211 204.519 223.472 207.978C221.734 211.436 219.851 214.768 217.696 218.118C215.537 221.611 213.116 224.934 210.453 228.059C208.765 230.022 206.83 231.757 204.694 233.22C202.735 234.576 200.458 235.399 198.085 235.61C195.909 235.786 193.728 235.334 191.801 234.307C190.025 233.357 188.518 231.974 187.419 230.287L187.202 229.961L186.822 229.218C183.78 223.062 181.1 216.977 178.528 210.821C175.957 204.664 173.512 198.562 171.176 192.387C168.841 186.212 166.559 180.037 164.386 173.826C162.213 167.615 160.076 161.404 158.103 155.066L177.297 148.71Z" fill="#FFD5BD"/>
<path d="M179.579 150.702C190.443 163.233 198.99 175.658 197.687 180.761C196.383 185.865 169.148 197.946 169.148 197.946C160.909 187.914 150.642 161.332 150.207 152.368C149.574 138.588 167.808 137.212 179.579 150.702Z" fill="#FF3951"/>
<path opacity="0.3" d="M169.51 163.486C175.74 168.72 179.993 181.195 182.021 191.752L169.257 197.946C165.183 192.984 160.601 183.985 156.962 175.039C159.787 166.166 164.006 158.851 169.51 163.486Z" fill="#14142B"/>
<path d="M173.549 459.135H186.985L193.124 428.062H179.706L173.549 459.135Z" fill="#FFD5BD"/>
<path d="M187.401 455.875H172.317C172.191 455.871 172.065 455.891 171.947 455.934C171.829 455.978 171.72 456.045 171.628 456.131C171.535 456.216 171.461 456.32 171.408 456.434C171.355 456.549 171.326 456.673 171.321 456.799L170.579 468.732C170.579 469.36 170.826 469.962 171.266 470.41C171.707 470.857 172.305 471.113 172.933 471.122C178.184 471.032 180.701 470.724 187.329 470.724C191.403 470.724 205.256 471.14 210.869 471.14C216.482 471.14 216.301 465.563 213.947 465.056C203.246 462.793 193.485 459.624 189.683 456.708C189.041 456.176 188.235 455.882 187.401 455.875Z" fill="#14142B"/>
<path opacity="0.2" d="M179.705 428.062H193.123L189.954 444.087H176.518L179.705 428.062Z" fill="#14142B"/>
<path d="M145.898 257.575C145.898 257.575 234.41 265.054 232.237 303.479C229.846 345.562 195.785 440.212 195.785 440.212H171.195C171.195 440.212 182.313 354.58 187.691 311.736C162.756 311.736 110.986 316.426 102.692 293.918C98.6594 282.248 97.6196 269.752 99.6682 257.575H145.898Z" fill="#14142B"/>
<path d="M168.551 440.212H200.928L202.775 427.446L168.986 428.967L168.551 440.212Z" fill="#FF3951"/>
<path d="M192.146 458.211C190.925 458.183 189.711 458.026 188.524 457.741C188.464 457.729 188.408 457.7 188.365 457.656C188.321 457.613 188.291 457.557 188.28 457.497C188.268 457.436 188.275 457.374 188.299 457.317C188.323 457.261 188.364 457.212 188.416 457.179C188.85 456.871 192.635 454.282 194.283 454.916C194.467 454.993 194.63 455.114 194.756 455.269C194.882 455.423 194.969 455.607 195.007 455.803C195.092 456.096 195.102 456.405 195.035 456.703C194.969 457 194.828 457.276 194.627 457.505C193.914 458.037 193.031 458.288 192.146 458.211ZM189.43 457.288C191.838 457.759 193.613 457.686 194.228 457.071C194.365 456.922 194.459 456.739 194.5 456.542C194.542 456.344 194.529 456.139 194.464 455.948C194.449 455.849 194.407 455.756 194.344 455.68C194.28 455.603 194.196 455.545 194.101 455.513C193.232 455.169 190.987 456.292 189.43 457.288Z" fill="#FF3951"/>
<path d="M188.651 457.741C188.604 457.759 188.553 457.759 188.506 457.741C188.459 457.706 188.424 457.658 188.404 457.603C188.385 457.549 188.382 457.489 188.397 457.433C188.397 457.27 188.071 453.413 189.429 452.109C189.603 451.942 189.812 451.817 190.041 451.742C190.27 451.666 190.513 451.643 190.751 451.674C191.019 451.684 191.276 451.781 191.482 451.951C191.688 452.122 191.832 452.355 191.892 452.616C192.2 454.083 190.19 456.89 188.868 457.686L188.651 457.741ZM190.462 452.308C190.211 452.308 189.971 452.405 189.792 452.58C189.046 453.866 188.735 455.358 188.904 456.835C190.081 455.857 191.403 453.721 191.204 452.761C191.204 452.58 191.059 452.363 190.606 452.308H190.462Z" fill="#FF3951"/>
<path d="M217.75 196.877L221.915 181.993L235.333 190.848C235.333 190.848 228.09 203.74 223.545 202.69L217.75 196.877Z" fill="#FFD5BD"/>
<path d="M230.218 177.034C232.744 176.254 235.429 177.18 237.164 179.174C239.568 181.939 239.555 186.055 237.133 188.804L235.333 190.848C235.333 190.848 220.682 185.684 221.915 181.975C222.647 179.774 226.888 178.063 230.218 177.034Z" fill="#FFD5BD"/>
<path d="M172.1 258.245H100.32C99.8132 251.835 101.298 230.975 100.193 204.41C99.511 184.721 97.1238 165.127 93.0589 145.849C92.733 144.401 92.407 142.97 92.063 141.522C92.063 141.522 95.6846 140.779 100.918 140.019C105.246 139.385 110.678 138.733 116.002 138.479C126.164 137.9 136.351 137.9 146.514 138.479C151.204 138.914 155.785 139.693 159.443 140.399C164.114 141.34 166.867 142.21 166.867 142.21C166.867 142.21 184.558 182.771 172.1 258.245Z" fill="#FF3951"/>
<path opacity="0.3" d="M100.194 204.429C99.5111 184.739 97.124 165.145 93.0591 145.867C97.8577 145.451 106.061 145.867 107.419 153.672C108.885 162.002 107.038 181.594 100.194 204.429Z" fill="#14142B"/>
<path d="M105.988 159.249C104.413 163.722 102.711 168.539 101.208 173.229C99.7048 177.919 98.2199 182.699 96.8799 187.443C94.095 196.613 92.1316 206.011 91.013 215.529L90.8862 217.195V218.028C90.8862 218.209 90.8862 218.861 90.8862 218.354C90.7523 217.316 90.3531 216.331 89.7273 215.493C88.9802 214.437 87.9137 213.65 86.6852 213.247C85.9971 213.066 85.816 213.12 85.7979 213.138C85.9877 213.189 86.1875 213.189 86.3773 213.138C87.227 213.085 88.0697 212.952 88.8943 212.74C93.3665 211.523 97.7375 209.961 101.968 208.068C111.022 204.193 120.203 199.702 129.257 195.248L134.798 203.65C126.649 210.43 117.993 216.574 108.904 222.029C104.1 224.977 99.0247 227.457 93.7473 229.436C92.1245 230.006 90.4595 230.448 88.7676 230.758C87.6982 230.959 86.6142 231.074 85.5263 231.102C83.9371 231.131 82.3535 230.905 80.8363 230.432C78.3688 229.666 76.2194 228.114 74.7158 226.013C73.3754 224.081 72.6095 221.808 72.5066 219.458C72.4796 218.933 72.4796 218.408 72.5066 217.883V214.605C72.65 209.043 73.2008 203.5 74.1545 198.018C75.0237 192.586 76.1463 187.407 77.4501 182.246C78.7539 177.086 80.1663 171.979 81.796 166.945C83.4257 161.911 85.0554 157.004 87.1197 151.897L105.988 159.249Z" fill="#FFD5BD"/>
<path d="M92.0632 141.54C105.137 137.411 113.503 147.859 109.881 165.985C107.415 177.566 100.504 197.993 97.4594 199.05C94.4144 200.108 72.3686 189.701 71.0399 186.52C69.7111 183.339 78.6814 145.759 92.0632 141.54Z" fill="#FF3951"/>
<path d="M116.654 104.328L124.821 111.1L135.939 120.335C135.609 121.816 135.373 123.316 135.233 124.826C134.635 130.856 136.192 136.343 145.065 138.443C145.065 138.443 153.793 146.592 136.337 146.845C118.881 147.099 114.825 138.624 114.825 138.624C121.398 132.015 118.917 114.106 116.654 104.328Z" fill="#FFD5BD"/>
<path opacity="0.2" d="M135.884 120.281C135.555 121.762 135.319 123.261 135.178 124.772C131.031 123.939 125.49 119.52 124.911 115.283C124.707 113.88 124.659 112.459 124.766 111.046L135.884 120.281Z" fill="#14142B"/>
<path d="M148.886 94.0969C152.091 86.8538 150.081 76.3693 144.649 72.4761C143.461 71.5892 142.048 71.0529 140.571 70.9281C139.094 70.8032 137.612 71.0948 136.292 71.7698C134.972 72.4447 133.868 73.476 133.105 74.7467C132.341 76.0174 131.949 77.4766 131.973 78.9587C131.683 87.8678 145.228 102.336 148.886 94.0969Z" fill="#14142B"/>
<path d="M113.286 90.1314C116.129 103.187 117.124 110.937 124.838 116.895C127.323 118.855 130.295 120.099 133.435 120.493C136.575 120.887 139.763 120.415 142.654 119.129C145.545 117.842 148.03 115.79 149.84 113.195C151.65 110.599 152.717 107.558 152.924 104.4C153.938 92.25 149.139 72.9289 135.395 69.2348C132.441 68.3592 129.309 68.2751 126.313 68.9911C123.316 69.707 120.56 71.1977 118.321 73.314C116.082 75.4303 114.438 78.0978 113.554 81.0494C112.671 84.0009 112.578 87.1328 113.286 90.1314Z" fill="#FFD5BD"/>
<path d="M118.827 100.308C122.973 93.5354 122.322 82.8879 117.469 78.3247C116.408 77.2693 115.071 76.5347 113.612 76.2053C112.152 75.8759 110.629 75.965 109.218 76.4625C107.807 76.96 106.565 77.8456 105.635 79.0174C104.705 80.1893 104.124 81.5999 103.96 83.0871C102.584 91.9057 114.155 107.949 118.827 100.308Z" fill="#14142B"/>
<path d="M120.909 84.1509C123.881 82.6049 125.037 78.9422 123.491 75.97C121.945 72.9977 118.282 71.8414 115.31 73.3874C112.338 74.9333 111.182 78.596 112.728 81.5683C114.274 84.5405 117.936 85.6968 120.909 84.1509Z" fill="#14142B"/>
<path d="M118.754 76.2967C118.44 77.3302 117.826 78.2467 116.989 78.9292C116.152 79.6117 115.13 80.0293 114.055 80.1284C112.979 80.2276 111.899 80.0039 110.951 79.486C110.003 78.9681 109.231 78.1795 108.734 77.2208C108.237 76.2621 108.036 75.1768 108.158 74.1038C108.281 73.0307 108.72 72.0184 109.421 71.1963C110.121 70.3741 111.051 69.7793 112.091 69.488C113.131 69.1967 114.234 69.2219 115.259 69.5606C116.606 70.0052 117.725 70.9586 118.378 72.2172C119.031 73.4759 119.166 74.9399 118.754 76.2967Z" fill="#14142B"/>
<path d="M127.862 75.3549C127.542 76.3823 126.924 77.2915 126.086 77.9671C125.249 78.6427 124.229 79.0542 123.157 79.1495C122.085 79.2449 121.009 79.0197 120.065 78.5025C119.122 77.9854 118.353 77.1995 117.856 76.2447C117.36 75.29 117.158 74.2092 117.277 73.1396C117.395 72.07 117.829 71.0598 118.523 70.237C119.216 69.4142 120.139 68.816 121.173 68.5182C122.207 68.2205 123.306 68.2365 124.331 68.5644C125.697 69.0013 126.834 69.9603 127.496 71.2323C128.157 72.5043 128.289 73.9862 127.862 75.3549Z" fill="#14142B"/>
<path d="M117.106 69.3978C116.685 70.7421 115.875 71.9313 114.777 72.8146C113.68 73.6979 112.345 74.2356 110.941 74.3596C109.538 74.4836 108.13 74.1882 106.894 73.5111C105.659 72.8339 104.652 71.8053 104.002 70.5556C103.352 69.3058 103.087 67.8913 103.242 66.491C103.396 65.0907 103.962 63.7677 104.869 62.6897C105.776 61.6116 106.983 60.827 108.336 60.4351C109.689 60.0433 111.128 60.0619 112.471 60.4886C113.362 60.7668 114.189 61.2184 114.905 61.8174C115.62 62.4164 116.211 63.151 116.641 63.979C117.072 64.807 117.335 65.712 117.415 66.642C117.495 67.5719 117.39 68.5085 117.106 69.3978Z" fill="#14142B"/>
<path d="M127.772 65.6675C127.346 67.0373 126.523 68.2497 125.408 69.1513C124.292 70.0528 122.934 70.6028 121.505 70.7315C120.077 70.8602 118.642 70.5619 117.383 69.8743C116.124 69.1867 115.098 68.1409 114.434 66.8693C113.77 65.5978 113.499 64.1578 113.655 62.7318C113.81 61.3059 114.386 59.9583 115.308 58.8598C116.231 57.7614 117.458 56.9615 118.836 56.5616C120.213 56.1617 121.679 56.1798 123.046 56.6136C124.87 57.1923 126.391 58.4694 127.276 60.1658C128.162 61.8622 128.34 63.8401 127.772 65.6675Z" fill="#14142B"/>
<path d="M137.188 63.1687C136.763 64.5383 135.942 65.751 134.827 66.6533C133.713 67.5556 132.356 68.1068 130.928 68.2371C129.5 68.3675 128.066 68.071 126.806 67.3854C125.547 66.6998 124.519 65.6558 123.854 64.3858C123.188 63.1157 122.915 61.6767 123.068 60.251C123.221 58.8253 123.793 57.4771 124.713 56.3772C125.633 55.2773 126.859 54.4751 128.235 54.0724C129.611 53.6696 131.076 53.6844 132.444 54.1147C134.271 54.6897 135.796 55.9652 136.685 57.6621C137.574 59.3589 137.755 61.3389 137.188 63.1687Z" fill="#14142B"/>
<path d="M148.125 63.2047C147.681 64.5603 146.847 65.7547 145.726 66.6379C144.606 67.5211 143.25 68.0538 141.828 68.1691C140.406 68.2845 138.982 67.9774 137.734 67.2864C136.486 66.5954 135.47 65.5513 134.813 64.2849C134.156 63.0186 133.887 61.5865 134.041 60.1683C134.195 58.75 134.764 57.4088 135.678 56.3128C136.591 55.2169 137.808 54.415 139.175 54.0079C140.542 53.6007 141.999 53.6063 143.363 54.024C144.284 54.3059 145.139 54.7687 145.879 55.3852C146.619 56.0017 147.228 56.7595 147.672 57.6144C148.115 58.4693 148.384 59.404 148.462 60.3639C148.54 61.3237 148.425 62.2895 148.125 63.2047Z" fill="#14142B"/>
<path d="M111.928 77.0393C111.537 78.2722 110.79 79.3617 109.781 80.1699C108.772 80.9782 107.545 81.4689 106.257 81.58C104.969 81.6912 103.676 81.4177 102.543 80.7943C101.411 80.1708 100.488 79.2253 99.8925 78.0775C99.2971 76.9296 99.0554 75.631 99.1982 74.3457C99.3409 73.0605 99.8616 71.8465 100.694 70.8573C101.527 69.8681 102.635 69.148 103.877 68.7883C105.119 68.4286 106.44 68.4453 107.672 68.8364C109.324 69.3605 110.7 70.5189 111.498 72.0571C112.296 73.5952 112.45 75.3873 111.928 77.0393Z" fill="#14142B"/>
<path d="M134.074 71.0995C133.722 72.2129 133.049 73.1972 132.139 73.9279C131.228 74.6586 130.122 75.1029 128.959 75.2047C127.796 75.3066 126.629 75.0613 125.605 74.4999C124.581 73.9385 123.747 73.0861 123.208 72.0507C122.669 71.0153 122.449 69.8432 122.575 68.6827C122.702 67.5222 123.17 66.4254 123.921 65.5309C124.671 64.6363 125.669 63.9843 126.79 63.6573C127.911 63.3302 129.103 63.3428 130.217 63.6934C130.956 63.9263 131.643 64.3026 132.237 64.8009C132.831 65.2991 133.321 65.9096 133.679 66.5974C134.038 67.2851 134.257 68.0368 134.324 68.8092C134.392 69.5817 134.307 70.36 134.074 71.0995Z" fill="#14142B"/>
<path d="M141.317 70.5568C141.02 71.5038 140.449 72.3415 139.676 72.9639C138.903 73.5863 137.962 73.9653 136.974 74.0531C135.985 74.1409 134.993 73.9335 134.122 73.457C133.252 72.9806 132.542 72.2566 132.083 71.3766C131.624 70.4967 131.436 69.5004 131.544 68.5138C131.651 67.5271 132.049 66.5946 132.687 65.8341C133.324 65.0736 134.173 64.5194 135.126 64.2415C136.079 63.9637 137.093 63.9748 138.039 64.2733C139.306 64.673 140.363 65.5591 140.978 66.7371C141.592 67.9152 141.714 69.2889 141.317 70.5568Z" fill="#14142B"/>
<path d="M152.362 66.6631C152.063 67.6043 151.491 68.4356 150.719 69.0519C149.947 69.6683 149.009 70.042 148.025 70.1259C147.041 70.2099 146.054 70.0002 145.188 69.5235C144.323 69.0468 143.619 68.3244 143.164 67.4475C142.709 66.5707 142.524 65.5787 142.633 64.5968C142.741 63.615 143.139 62.6873 143.774 61.9311C144.41 61.1748 145.255 60.6238 146.203 60.3477C147.152 60.0715 148.161 60.0827 149.103 60.3797C149.73 60.5774 150.312 60.8969 150.816 61.3199C151.319 61.743 151.734 62.2612 152.037 62.8449C152.34 63.4286 152.524 64.0664 152.58 64.7216C152.636 65.3768 152.562 66.0366 152.362 66.6631Z" fill="#14142B"/>
<path d="M147.89 70.7559C147.606 71.6619 147.059 72.4632 146.319 73.0584C145.58 73.6536 144.68 74.0159 143.734 74.0996C142.788 74.1832 141.839 73.9844 141.006 73.5282C140.173 73.0721 139.495 72.3791 139.056 71.5371C138.617 70.695 138.438 69.7418 138.541 68.7979C138.644 67.854 139.025 66.962 139.636 66.2347C140.246 65.5074 141.059 64.9775 141.97 64.7122C142.882 64.4468 143.852 64.4579 144.757 64.744C145.359 64.9316 145.917 65.2362 146.4 65.6403C146.884 66.0444 147.282 66.54 147.573 67.0987C147.865 67.6573 148.042 68.2681 148.097 68.8957C148.151 69.5233 148.081 70.1555 147.89 70.7559Z" fill="#14142B"/>
<path d="M156.817 64.3276C156.583 65.0732 156.133 65.7326 155.524 66.2223C154.916 66.712 154.175 67.0101 153.397 67.0786C152.618 67.1472 151.837 66.9832 151.152 66.6075C150.467 66.2318 149.909 65.6611 149.548 64.9679C149.188 64.2747 149.041 63.4901 149.127 62.7134C149.212 61.9368 149.527 61.203 150.03 60.6051C150.533 60.0071 151.202 59.5719 151.952 59.3546C152.703 59.1372 153.501 59.1475 154.246 59.3841C154.74 59.5386 155.199 59.7893 155.596 60.1218C155.993 60.4542 156.32 60.8619 156.559 61.3213C156.798 61.7806 156.944 62.2828 156.988 62.7987C157.032 63.3146 156.974 63.8342 156.817 64.3276Z" fill="#14142B"/>
<path d="M158.791 67.9669C158.653 68.4131 158.386 68.8083 158.022 69.1021C157.659 69.3958 157.217 69.575 156.752 69.6166C156.287 69.6583 155.82 69.5607 155.41 69.3361C155 69.1115 154.667 68.7702 154.452 68.3556C154.237 67.941 154.15 67.4717 154.203 67.0076C154.255 66.5435 154.444 66.1055 154.747 65.7493C155.049 65.3931 155.45 65.1348 155.899 65.0074C156.349 64.8799 156.826 64.8889 157.27 65.0334C157.562 65.1261 157.834 65.2755 158.069 65.473C158.303 65.6706 158.497 65.9126 158.638 66.185C158.779 66.4574 158.866 66.755 158.892 67.0607C158.918 67.3665 158.884 67.6744 158.791 67.9669Z" fill="#14142B"/>
<path d="M119.714 70.8825C119.574 71.3266 119.306 71.7194 118.943 72.0111C118.58 72.3028 118.139 72.4804 117.675 72.5213C117.211 72.5622 116.746 72.4646 116.338 72.2409C115.929 72.0173 115.596 71.6777 115.381 71.2648C115.166 70.852 115.078 70.3846 115.128 69.9217C115.178 69.4588 115.365 69.0212 115.664 68.6643C115.963 68.3075 116.361 68.0474 116.808 67.9168C117.255 67.7862 117.731 67.7911 118.175 67.9308C118.767 68.1223 119.261 68.5391 119.549 69.0914C119.837 69.6436 119.896 70.2869 119.714 70.8825Z" fill="#14142B"/>
<path d="M111.167 102.227C112.952 104.548 115.532 106.128 118.41 106.664C122.032 107.316 123.227 103.929 121.597 100.634C120.112 97.6639 116.437 93.7526 113.014 94.5855C109.592 95.4185 108.976 99.3479 111.167 102.227Z" fill="#FFD5BD"/>
<path d="M135.649 91.3265C135.812 92.3949 136.518 93.1373 137.224 93.1373C137.931 93.1373 138.365 92.1233 138.202 91.0549C138.039 89.9865 137.333 89.2441 136.627 89.2441C135.921 89.2441 135.486 90.2582 135.649 91.3265Z" fill="#14142B"/>
<path d="M147.799 89.8413C147.962 90.9096 148.669 91.6521 149.375 91.6521C150.081 91.6521 150.516 90.6199 150.353 89.5515C150.19 88.4832 149.483 87.7407 148.777 87.7407C148.071 87.7407 147.636 88.8091 147.799 89.8413Z" fill="#14142B"/>
<path d="M144.105 90.3123C144.398 90.2277 149.404 97.3477 149.175 97.9357C148.946 98.5238 147.878 98.7663 147.13 98.9479C146.381 99.1296 145.041 99.194 144.848 98.986C144.654 98.778 143.812 90.3969 144.105 90.3123Z" fill="#FF97B8"/>
<path d="M139.868 104.491C138.613 104.505 137.367 104.265 136.207 103.786C135.046 103.306 133.994 102.598 133.114 101.702C133.059 101.64 133.031 101.558 133.036 101.475C133.041 101.392 133.079 101.314 133.141 101.259C133.204 101.203 133.285 101.175 133.369 101.18C133.452 101.185 133.53 101.223 133.585 101.286C134.562 102.239 135.743 102.959 137.038 103.392C138.333 103.825 139.709 103.959 141.063 103.785C141.144 103.779 141.224 103.804 141.288 103.854C141.352 103.904 141.394 103.976 141.407 104.056C141.418 104.14 141.395 104.225 141.345 104.292C141.294 104.36 141.219 104.405 141.136 104.418C140.715 104.469 140.292 104.493 139.868 104.491Z" fill="#14142B"/>
<path d="M130.76 85.1517C130.661 85.1215 130.569 85.0723 130.488 85.0068C130.428 84.9478 130.38 84.8774 130.348 84.7997C130.315 84.7219 130.298 84.6385 130.298 84.5541C130.298 84.4698 130.315 84.3863 130.348 84.3086C130.38 84.2309 130.428 84.1604 130.488 84.1014C131.148 83.3276 131.99 82.7303 132.939 82.3636C133.887 81.9968 134.912 81.8722 135.921 82.0009C136.004 82.0138 136.084 82.0436 136.155 82.0885C136.226 82.1335 136.288 82.1926 136.335 82.2622C136.383 82.3318 136.415 82.4104 136.431 82.4931C136.447 82.5759 136.446 82.6611 136.428 82.7433C136.415 82.8248 136.385 82.9027 136.342 82.9726C136.298 83.0425 136.24 83.1029 136.173 83.1502C136.105 83.1975 136.029 83.2307 135.948 83.2479C135.868 83.2651 135.784 83.266 135.703 83.2504C134.92 83.1722 134.13 83.2864 133.401 83.583C132.672 83.8797 132.027 84.3498 131.52 84.9525C131.431 85.0616 131.309 85.1396 131.172 85.1754C131.036 85.2112 130.892 85.2029 130.76 85.1517Z" fill="#14142B"/>
<path d="M152.182 84.409C152.082 84.4384 151.977 84.4421 151.876 84.42C151.774 84.3978 151.68 84.3504 151.602 84.2822C150.986 83.7491 150.257 83.3616 149.47 83.1485C148.683 82.9353 147.859 82.902 147.057 83.0509C146.978 83.0756 146.894 83.0839 146.811 83.0752C146.728 83.0665 146.648 83.0411 146.575 83.0005C146.502 82.9598 146.438 82.9048 146.387 82.8388C146.336 82.7727 146.299 82.697 146.279 82.6163C146.234 82.4554 146.254 82.2834 146.336 82.1376C146.417 81.9918 146.553 81.884 146.713 81.8377C147.71 81.6232 148.742 81.6441 149.73 81.8987C150.717 82.1534 151.631 82.6347 152.399 83.3044C152.529 83.4137 152.611 83.5696 152.628 83.7387C152.645 83.9078 152.595 84.0769 152.49 84.2098C152.403 84.2987 152.298 84.3668 152.182 84.409Z" fill="#14142B"/>
<path d="M126.45 196.769C126.45 196.769 129.352 187.189 131.158 185.325C132.964 183.46 141.081 195.882 141.081 195.882C141.081 195.882 136.283 207.108 130.706 204.139L126.45 196.769Z" fill="#FFD5BD"/>
<path d="M138.265 180.435C141.202 178.793 144.872 179.853 146.614 182.731C148.064 185.128 147.798 188.188 145.956 190.298L141.081 195.882C141.081 195.882 130.746 187.157 131.174 185.406C131.406 184.457 135.01 182.255 138.265 180.435Z" fill="#FFD5BD"/>
<path d="M436.911 79.5018C445.651 79.5018 452.737 72.4161 452.737 63.6754C452.737 54.9348 445.651 47.8491 436.911 47.8491C428.17 47.8491 421.084 54.9348 421.084 63.6754C421.084 72.4161 428.17 79.5018 436.911 79.5018Z" fill="#14142B"/>
<path d="M407.087 88.6827C416.038 88.6827 423.294 81.4268 423.294 72.4761C423.294 63.5254 416.038 56.2695 407.087 56.2695C398.137 56.2695 390.881 63.5254 390.881 72.4761C390.881 81.4268 398.137 88.6827 407.087 88.6827Z" fill="#14142B"/>
<path d="M391.369 47.9396C389.395 57.2471 396.15 73.5443 403.248 74.4316C410.346 75.3188 411.741 57.5912 405.584 49.8591C399.427 42.127 392.854 41.1673 391.369 47.9396Z" fill="#14142B"/>
<path d="M404.642 118.488C405.493 123.613 405.946 128.411 406.326 133.391C406.707 138.371 406.779 143.296 406.707 148.294C406.674 158.444 405.36 168.55 402.795 178.371C399.989 187.968 396.621 196.932 393.126 205.968L387.693 219.404C385.792 223.84 383.963 228.277 381.953 232.695L375.579 230.377L379.509 216.525L383.51 202.726L387.422 188.964C388.725 184.401 389.957 179.784 391.043 175.347C392.837 166.441 393.579 157.355 393.252 148.276C393.252 143.658 392.963 139.023 392.582 134.405C392.202 129.788 391.713 125.043 391.152 120.679L404.642 118.488Z" fill="#FFD5BD"/>
<path d="M391.949 104.654C386.897 107.243 386.347 128.164 388.165 130.222C389.982 132.281 411.904 139.53 411.904 139.53C411.904 139.53 414.385 111.39 408.916 106.41C403.448 101.431 399.355 100.869 391.949 104.654Z" fill="#FFC226"/>
<path opacity="0.2" d="M393.561 109.489L394.739 133.343L404.068 137.084L393.561 109.489Z" fill="#14142B"/>
<path d="M378.241 226.937L363.139 233.093L374.764 239.25C374.764 239.25 382.514 235.52 382.75 229.979L378.241 226.937Z" fill="#FFD5BD"/>
<path d="M420.197 457.487H406.815L404.552 426.504H417.934L420.197 457.487Z" fill="#FFD5BD"/>
<path d="M494.458 437.514L481.33 440.103L471.117 410.551L484.227 407.962L494.458 437.514Z" fill="#FFD5BD"/>
<path d="M479.41 437.84L493.552 432.77C493.794 432.679 494.061 432.681 494.301 432.775C494.541 432.868 494.739 433.047 494.856 433.277L500.488 443.888C500.62 444.16 500.693 444.457 500.703 444.76C500.712 445.062 500.658 445.363 500.544 445.644C500.429 445.924 500.257 446.177 500.039 446.386C499.82 446.595 499.559 446.756 499.275 446.858C494.313 448.542 491.832 449.103 485.603 451.33C481.782 452.689 474.503 456.763 469.215 458.574C463.928 460.384 461.791 455.332 463.783 454.083C469.73 450.627 474.52 445.484 477.545 439.307C477.978 438.616 478.637 438.098 479.41 437.84Z" fill="#14142B"/>
<path d="M405.82 455.93H420.849C421.107 455.928 421.357 456.021 421.55 456.191C421.744 456.362 421.868 456.597 421.899 456.853L423.62 468.732C423.653 469.033 423.622 469.337 423.53 469.625C423.438 469.913 423.286 470.178 423.084 470.404C422.883 470.629 422.636 470.81 422.36 470.933C422.084 471.057 421.785 471.122 421.483 471.122C416.232 471.032 413.715 470.724 407.105 470.724C403.031 470.724 394.629 471.141 388.997 471.141C383.366 471.141 383.094 465.581 385.376 465.092C395.842 462.829 399.971 459.66 403.484 456.763C404.133 456.207 404.965 455.911 405.82 455.93Z" fill="#14142B"/>
<g opacity="0.2">
<path opacity="0.2" d="M404.552 426.522L405.783 443.381H419.165L417.934 426.522H404.552Z" fill="#14142B"/>
<path opacity="0.2" d="M484.245 407.962L471.117 410.569L476.821 427.03L489.804 424.042L484.245 407.962Z" fill="#14142B"/>
</g>
<path d="M391.949 104.654C391.949 104.654 386.245 108.275 416.087 181.957L469.071 169.915C463.276 148.566 460.234 135.274 460.488 88.6826C452.719 88.8371 444.973 89.5573 437.309 90.8375C429.174 92.0722 421.138 93.8876 413.262 96.2699C403.122 99.6017 391.949 104.654 391.949 104.654Z" fill="#FFC226"/>
<path opacity="0.2" d="M460.451 95.8716C456.19 98.8503 453.148 103.268 451.886 108.312C450.492 114.704 459.365 125.496 461.447 127.904C460.813 119.339 460.487 109.054 460.451 95.8716Z" fill="#14142B"/>
<path d="M429.414 67.1885C429.668 75.2827 430.7 86.908 437.291 90.8374C434.284 100.842 428.599 109.834 420.849 116.84C408.173 110.702 413.244 96.3061 413.244 96.3061C421.41 92.2861 420.396 88.8275 417.517 83.1597L429.414 67.1885Z" fill="#FFD5BD"/>
<path opacity="0.2" d="M424.561 73.7075L417.517 83.1599C418.243 84.4668 418.849 85.8365 419.328 87.2523C422.515 86.0209 427.06 82.0372 426.952 78.2888C426.548 76.5868 425.727 75.0122 424.561 73.7075Z" fill="#14142B"/>
<path d="M428.491 47.6684C432.456 60.3439 434.394 65.6133 430.573 74.3594C424.797 87.5058 408.373 89.5882 400.713 78.3613C393.814 68.2571 388.49 49.2256 398.739 39.6827C400.987 37.5681 403.738 36.0632 406.731 35.3107C409.724 34.5582 412.86 34.5831 415.841 35.3832C418.822 36.1832 421.548 37.7318 423.762 39.8819C425.976 42.0321 427.604 44.7123 428.491 47.6684Z" fill="#FFD5BD"/>
<path d="M416.087 181.957C416.087 181.957 385.665 259.422 386.534 300.202C387.458 342.628 402.995 439.397 402.995 439.397H421.102C421.102 439.397 418.223 345.164 419.817 303.515C421.628 258.101 454.874 173.138 454.874 173.138L416.087 181.957Z" fill="#407BFF"/>
<path d="M416.087 181.957C416.087 181.957 385.665 259.422 386.534 300.202C387.458 342.628 402.995 439.397 402.995 439.397H421.102C421.102 439.397 418.223 345.164 419.817 303.515C421.628 258.101 454.874 173.138 454.874 173.138L416.087 181.957Z" fill="#A0A3BD"/>
<path d="M422.66 440.031H401.437L399.88 433.277L423.638 432.444L422.66 440.031Z" fill="#14142B"/>
<path opacity="0.2" d="M429.958 205.732C419.6 224.076 420.523 253.99 423.312 276.534C427.898 254.781 433.782 233.321 440.931 212.269C439.482 200.101 436.313 194.469 429.958 205.732Z" fill="#14142B"/>
<path d="M430.066 178.77C430.066 178.77 422.823 263.497 432.167 297.884C443.194 338.717 472.692 423.39 472.692 423.39L490.583 419.859C490.583 419.859 476.096 322.166 467.586 300.654C449.586 254.751 489.786 195.936 469.125 169.915L430.066 178.77Z" fill="#407BFF"/>
<path d="M430.066 178.77C430.066 178.77 422.823 263.497 432.167 297.884C443.194 338.717 472.692 423.39 472.692 423.39L490.583 419.859C490.583 419.859 476.096 322.166 467.586 300.654C449.586 254.751 489.786 195.936 469.125 169.915L430.066 178.77Z" fill="#A0A3BD"/>
<path d="M492.756 420.384L470.555 424.766L466.825 418.265L492.701 411.909L492.756 420.384Z" fill="#14142B"/>
<path d="M410.003 58.4786C410.383 59.4926 410.166 60.5067 409.496 60.7602C408.826 61.0137 407.993 60.398 407.685 59.384C407.377 58.3699 407.522 57.3559 408.174 57.1205C408.825 56.8851 409.622 57.4826 410.003 58.4786Z" fill="#14142B"/>
<path d="M398.613 62.8243C398.993 63.8384 398.776 64.8524 398.106 65.1059C397.436 65.3594 396.603 64.7438 396.295 63.7297C395.987 62.7157 396.132 61.7016 396.784 61.4481C397.436 61.1946 398.214 61.8103 398.613 62.8243Z" fill="#14142B"/>
<path d="M397.037 61.394L394.339 61.6294C394.339 61.6294 396.313 63.0418 397.037 61.394Z" fill="#14142B"/>
<path d="M402.814 63.2951C401.958 63.4165 401.446 70.6806 401.673 71.0996C401.9 71.5186 403.005 71.3015 403.669 71.1826C404.332 71.0637 405.462 70.9872 405.512 70.4115C405.561 69.8359 403.669 63.1737 402.814 63.2951Z" fill="#FF97B8"/>
<path d="M412.52 72.2589C412.063 72.5277 411.584 72.7579 411.089 72.947C411.01 72.9769 410.922 72.9748 410.844 72.941C410.766 72.9072 410.705 72.8444 410.673 72.766C410.655 72.727 410.646 72.6847 410.646 72.642C410.646 72.5993 410.654 72.557 410.672 72.5178C410.689 72.4787 410.714 72.4435 410.745 72.4145C410.776 72.3855 410.813 72.3634 410.854 72.3495C412.118 71.8946 413.258 71.1499 414.182 70.1751C415.107 69.2003 415.79 68.0225 416.178 66.736C416.197 66.6544 416.248 66.5837 416.319 66.5395C416.39 66.4954 416.476 66.4814 416.558 66.5006C416.639 66.5198 416.71 66.5707 416.754 66.642C416.798 66.7133 416.812 66.7992 416.793 66.8809C416.471 68.0151 415.928 69.0743 415.194 69.9974C414.461 70.9205 413.552 71.6891 412.52 72.2589Z" fill="#14142B"/>
<path d="M406.037 41.7106C410.111 51.9959 427.658 60.9594 433.959 58.2251C441.492 54.9475 439.392 38.6504 427.295 33.5258C417.173 29.2161 403.067 34.2139 406.037 41.7106Z" fill="#14142B"/>
<path d="M415.67 32.8376C411.687 28.8901 387.784 29.8679 385.774 40.3524C382.986 54.8388 396.892 51.5612 404.498 48.5553C414.222 44.7345 420.886 37.9984 415.67 32.8376Z" fill="#14142B"/>
<path d="M435.299 59.6195C435.259 62.1874 434.204 64.635 432.366 66.4281C429.921 68.7822 427.096 66.9714 426.426 63.8206C425.829 60.9777 426.426 56.342 429.505 55.1831C430.188 54.939 430.922 54.8698 431.639 54.9819C432.355 55.094 433.033 55.3838 433.609 55.8249C434.185 56.266 434.642 56.8444 434.937 57.5072C435.232 58.17 435.357 58.8962 435.299 59.6195Z" fill="#FFD5BD"/>
<path d="M411.125 53.6254C411.001 53.6731 410.864 53.6813 410.735 53.6489C410.605 53.6165 410.489 53.5451 410.401 53.4443C409.623 52.7656 408.713 52.2545 407.729 51.9429C406.744 51.6313 405.706 51.526 404.679 51.6336C404.596 51.6419 404.512 51.6337 404.432 51.6096C404.351 51.5854 404.277 51.5457 404.212 51.4927C404.147 51.4398 404.094 51.3746 404.054 51.3009C404.015 51.2272 403.99 51.1464 403.982 51.0632C403.973 50.9799 403.982 50.8959 404.006 50.8158C404.03 50.7357 404.07 50.6612 404.122 50.5964C404.175 50.5317 404.241 50.478 404.314 50.4385C404.388 50.399 404.469 50.3743 404.552 50.366C405.781 50.2384 407.024 50.376 408.195 50.7697C409.366 51.1633 410.44 51.8037 411.343 52.6476C411.403 52.7066 411.451 52.7771 411.483 52.8548C411.516 52.9325 411.533 53.016 411.533 53.1003C411.533 53.1846 411.516 53.2681 411.483 53.3458C411.451 53.4235 411.403 53.494 411.343 53.553L411.125 53.6254Z" fill="#14142B"/>
<path d="M391.732 59.0579C391.638 59.1119 391.532 59.1404 391.424 59.1404C391.316 59.1404 391.21 59.1119 391.116 59.0579C390.969 58.9741 390.861 58.8366 390.814 58.6745C390.766 58.5124 390.784 58.3382 390.862 58.1887C391.339 57.3012 392.022 56.5415 392.854 55.9741C393.686 55.4067 394.643 55.0483 395.643 54.9293C395.726 54.9244 395.81 54.936 395.888 54.9634C395.967 54.9908 396.04 55.0335 396.102 55.089C396.164 55.1445 396.215 55.2117 396.251 55.2869C396.287 55.362 396.308 55.4436 396.313 55.5269C396.318 55.6101 396.306 55.6935 396.279 55.7723C396.251 55.8511 396.209 55.9236 396.153 55.9859C396.098 56.0481 396.03 56.0988 395.955 56.135C395.88 56.1712 395.799 56.1922 395.715 56.1968C394.926 56.3029 394.174 56.5967 393.522 57.0536C392.869 57.5104 392.336 58.117 391.967 58.8225C391.912 58.9217 391.831 59.0033 391.732 59.0579Z" fill="#14142B"/>
<path d="M473.398 441.842H473.253C472.969 441.718 472.722 441.522 472.535 441.275C472.348 441.028 472.227 440.737 472.185 440.429C472.14 440.244 472.143 440.05 472.194 439.867C472.245 439.683 472.341 439.515 472.475 439.379C473.706 438.202 478.414 439.289 478.939 439.379C479 439.396 479.055 439.428 479.1 439.472C479.144 439.517 479.176 439.572 479.193 439.633C479.203 439.695 479.195 439.759 479.169 439.817C479.143 439.875 479.101 439.924 479.048 439.959C477.599 440.882 474.992 442.349 473.398 441.842ZM478.052 439.814C476.241 439.433 473.561 439.162 472.928 439.814C472.864 439.872 472.818 439.947 472.795 440.031C472.773 440.114 472.775 440.202 472.801 440.285C472.827 440.489 472.904 440.683 473.024 440.851C473.144 441.018 473.304 441.153 473.489 441.244C474.34 441.57 476.006 441.136 478.124 439.814H478.052Z" fill="#FFC226"/>
<path d="M478.342 439.868C476.748 439.361 474.087 437.695 473.887 436.246C473.854 435.997 473.905 435.743 474.034 435.527C474.162 435.31 474.359 435.143 474.594 435.051C474.817 434.957 475.057 434.908 475.3 434.908C475.542 434.908 475.783 434.957 476.006 435.051C477.817 435.776 479.12 439.397 479.175 439.56C479.2 439.608 479.214 439.66 479.214 439.714C479.214 439.768 479.2 439.821 479.175 439.868C479.135 439.908 479.086 439.938 479.033 439.957C478.98 439.976 478.923 439.983 478.867 439.977L478.342 439.868ZM475.68 435.703C475.554 435.649 475.419 435.622 475.282 435.622C475.145 435.622 475.009 435.649 474.883 435.703C474.521 435.902 474.485 436.102 474.521 436.246C474.648 437.17 476.803 438.709 478.342 439.234C477.853 438.039 476.839 436.12 475.771 435.613L475.68 435.703Z" fill="#FFC226"/>
<path d="M400.786 458.266C399.644 458.37 398.501 458.082 397.544 457.451C397.336 457.256 397.177 457.016 397.08 456.748C396.982 456.481 396.949 456.194 396.983 455.912C396.993 455.737 397.046 455.568 397.138 455.42C397.229 455.271 397.357 455.148 397.508 455.061C399.156 454.155 404.48 456.871 405.095 457.197C405.15 457.231 405.195 457.279 405.223 457.337C405.252 457.395 405.264 457.459 405.258 457.523C405.251 457.59 405.223 457.653 405.177 457.702C405.131 457.751 405.071 457.783 405.005 457.795C403.615 458.079 402.203 458.236 400.786 458.266ZM398.45 455.513C398.244 455.495 398.038 455.532 397.852 455.622C397.789 455.654 397.736 455.703 397.701 455.764C397.666 455.825 397.649 455.895 397.653 455.966C397.62 456.152 397.636 456.343 397.7 456.521C397.763 456.699 397.872 456.857 398.015 456.98C398.812 457.704 401.021 457.831 403.991 457.342C402.262 456.42 400.388 455.801 398.45 455.513Z" fill="#FFC226"/>
<path d="M404.932 457.795H404.806C403.212 457.071 400.061 454.173 400.315 452.67C400.315 452.308 400.623 451.855 401.492 451.783C401.815 451.735 402.145 451.759 402.458 451.853C402.771 451.947 403.059 452.108 403.303 452.326C404.987 453.721 405.295 457.324 405.313 457.469C405.318 457.524 405.309 457.58 405.287 457.63C405.265 457.681 405.23 457.725 405.186 457.759C405.109 457.801 405.019 457.814 404.932 457.795ZM401.746 452.363H401.564C400.985 452.363 400.949 452.652 400.931 452.743C400.786 453.648 402.923 455.912 404.552 456.908C404.427 455.388 403.832 453.945 402.85 452.779C402.546 452.51 402.151 452.368 401.746 452.381V452.363Z" fill="#FFC226"/>
<path d="M408.427 57.0483L405.693 57.2474C405.693 57.2474 407.703 58.6961 408.427 57.0483Z" fill="#14142B"/>
<path d="M469.071 166.619L471.497 171.056C471.769 171.382 471.497 171.852 470.809 171.997L416.286 184.383C415.815 184.492 415.362 184.383 415.254 184.057L413.715 179.422C413.606 179.114 413.95 178.733 414.475 178.625L468.111 166.42C468.275 166.371 468.448 166.364 468.616 166.398C468.783 166.433 468.94 166.509 469.071 166.619Z" fill="white"/>
<path d="M463.113 174.297L464.562 173.971C464.833 173.971 465.033 173.718 464.96 173.536L462.896 167.525C462.823 167.43 462.724 167.361 462.61 167.325C462.497 167.29 462.375 167.29 462.262 167.325L460.832 167.651C460.542 167.651 460.361 167.923 460.415 168.086L462.498 174.098C462.552 174.279 462.842 174.369 463.113 174.297Z" fill="#14142B"/>
<path d="M420.505 184.003L421.954 183.677C422.243 183.677 422.425 183.423 422.352 183.242L420.288 177.23C420.221 177.129 420.122 177.054 420.006 177.018C419.891 176.982 419.766 176.986 419.654 177.031L418.223 177.357C417.934 177.357 417.753 177.629 417.807 177.792L419.889 183.804C419.944 184.003 420.179 184.003 420.505 184.003Z" fill="#14142B"/>
<path d="M441.728 179.168L443.158 178.842C443.448 178.842 443.629 178.57 443.575 178.407L441.492 172.396C441.492 172.215 441.148 172.124 440.877 172.196L439.428 172.522C439.138 172.522 438.957 172.776 439.03 172.957L441.094 178.969C441.166 179.063 441.266 179.133 441.379 179.168C441.493 179.204 441.614 179.204 441.728 179.168Z" fill="#14142B"/>
<path d="M358.015 241.749L368.68 244.393L374.764 239.25L363.139 233.093L358.015 241.749Z" fill="#FFD5BD"/>
<path d="M443.14 154.107L432.728 144.165L431.823 157.746C431.823 157.746 439.066 162.364 443.919 159.666L443.14 154.107Z" fill="#FFD5BD"/>
<path d="M469.07 101.032C469.541 101.63 469.777 101.974 470.103 102.427L470.972 103.676C471.515 104.509 472.04 105.342 472.547 106.175C473.537 107.841 474.479 109.525 475.372 111.227C477.074 114.631 478.607 118.09 479.971 121.603C481.366 125.098 482.525 128.683 483.593 132.268C484.118 134.079 484.553 135.89 485.005 137.701L485.187 138.389L485.386 139.258C485.563 140.038 485.672 140.832 485.712 141.63C485.791 143.378 485.507 145.122 484.879 146.755C483.718 149.509 481.748 151.846 479.229 153.455C477.336 154.685 475.299 155.676 473.163 156.406C469.43 157.653 465.576 158.503 461.664 158.941C454.278 159.815 446.823 159.949 439.41 159.34V152.567C442.814 152.151 446.345 151.716 449.749 151.119C453.154 150.521 456.594 149.924 459.872 149.091C463.024 148.325 466.102 147.283 469.07 145.976C470.289 145.441 471.439 144.76 472.493 143.948C473.362 143.242 473.67 142.608 473.597 142.518C473.525 142.427 473.597 142.518 473.597 142.355L473.163 141.051C472.62 139.421 472.076 137.791 471.461 136.198C470.356 132.957 468.998 129.806 467.694 126.691C466.39 123.577 464.888 120.516 463.294 117.637C462.534 116.17 461.719 114.704 460.886 113.309C460.469 112.603 460.035 111.933 459.6 111.263L458.984 110.285L458.441 109.507L469.07 101.032Z" fill="#FFD5BD"/>
<path d="M460.469 88.6824C471.787 88.8862 477.618 104.318 476.658 105.921C475.697 107.525 463.179 123.56 460.542 123.377C457.904 123.195 448.446 111.77 449.152 104.328C449.822 96.7405 449.152 88.4786 460.469 88.6824Z" fill="#FFC226"/>
<path d="M428.319 143.618C424.679 143.241 421.502 146.074 421.462 149.733C421.431 152.462 423.184 154.891 425.783 155.723L431.823 157.656L432.728 144.075L428.319 143.618Z" fill="#FFD5BD"/>
<path d="M640.154 320.41H557.329C555.888 320.41 554.506 319.838 553.487 318.819C552.469 317.8 551.896 316.418 551.896 314.978C551.896 313.537 552.469 312.155 553.487 311.136C554.506 310.118 555.888 309.545 557.329 309.545H640.154C641.595 309.545 642.977 310.118 643.996 311.136C645.014 312.155 645.587 313.537 645.587 314.978C645.587 316.418 645.014 317.8 643.996 318.819C642.977 319.838 641.595 320.41 640.154 320.41Z" fill="#407BFF"/>
<path opacity="0.8" d="M640.154 320.41H557.329C555.888 320.41 554.506 319.838 553.487 318.819C552.469 317.8 551.896 316.418 551.896 314.978C551.896 313.537 552.469 312.155 553.487 311.136C554.506 310.118 555.888 309.545 557.329 309.545H640.154C641.595 309.545 642.977 310.118 643.996 311.136C645.014 312.155 645.587 313.537 645.587 314.978C645.587 316.418 645.014 317.8 643.996 318.819C642.977 319.838 641.595 320.41 640.154 320.41Z" fill="#A0A3BD"/>
<path d="M533.119 459.135H519.701L511.896 428.062H525.314L533.119 459.135Z" fill="#FFD5BD"/>
<path d="M518.759 455.876H533.843C533.969 455.871 534.094 455.891 534.213 455.934C534.331 455.978 534.44 456.045 534.532 456.131C534.625 456.217 534.699 456.32 534.752 456.434C534.804 456.549 534.834 456.673 534.839 456.799L535.563 468.732C535.563 469.36 535.316 469.962 534.876 470.41C534.435 470.857 533.837 471.113 533.209 471.122C527.958 471.032 525.459 470.724 518.831 470.724C514.739 470.724 497.391 471.141 491.669 471.141C485.947 471.141 486.237 465.563 488.591 465.056C499.293 462.793 512.566 459.624 516.35 456.708C517.033 456.161 517.884 455.866 518.759 455.876Z" fill="#14142B"/>
<path opacity="0.2" d="M525.332 428.062H511.896L515.934 444.087H529.352L525.332 428.062Z" fill="#14142B"/>
<path d="M568.809 257.575C568.809 257.575 459.564 265.054 461.827 303.515C464.218 345.598 510.158 440.248 510.158 440.248H534.748C534.748 440.248 512.457 359.777 507.079 316.915C533.136 306.05 603.812 316.462 612.105 293.954C616.168 282.292 617.239 269.796 615.22 257.612L568.809 257.575Z" fill="#407BFF"/>
<path opacity="0.3" d="M508.329 326.277C508.021 324.357 507.749 322.474 507.496 320.663C507.315 319.378 507.134 318.11 506.989 316.879C511.884 315.028 516.985 313.775 522.181 313.149C520.371 300.799 517.908 289.427 517.908 289.427C505.232 289.427 490.945 311.157 509.922 335.566C509.608 333.9 509.319 332.253 509.053 330.623C508.8 329.156 508.564 327.689 508.329 326.277Z" fill="#14142B"/>
<path d="M536.732 437.76C537.023 439.014 536.071 440.212 534.784 440.212H506.467C505.558 440.212 504.763 439.599 504.533 438.72L502.742 431.894C502.426 430.69 503.276 429.492 504.518 429.393L532.524 427.166C533.511 427.088 534.407 427.743 534.631 428.707L536.732 437.76Z" fill="#14142B"/>
<path d="M513.996 458.211C515.217 458.182 516.431 458.024 517.618 457.741C517.675 457.721 517.727 457.688 517.768 457.644C517.809 457.6 517.838 457.546 517.853 457.487C517.86 457.429 517.852 457.371 517.83 457.317C517.808 457.263 517.772 457.216 517.727 457.179C517.292 456.871 513.489 454.282 511.86 454.916C511.674 454.994 511.51 455.115 511.381 455.27C511.252 455.424 511.162 455.607 511.117 455.803C511.035 456.097 511.028 456.408 511.097 456.705C511.167 457.003 511.311 457.278 511.516 457.505C512.228 458.037 513.111 458.288 513.996 458.211ZM516.713 457.288C514.322 457.759 512.548 457.686 511.914 457.071C511.784 456.918 511.695 456.735 511.657 456.538C511.619 456.341 511.633 456.138 511.697 455.948C511.71 455.851 511.749 455.76 511.809 455.683C511.87 455.607 511.95 455.548 512.041 455.513C512.928 455.169 515.155 456.292 516.713 457.288Z" fill="#407BFF"/>
<path d="M517.509 457.741C517.556 457.756 517.607 457.756 517.654 457.741C517.7 457.715 517.738 457.678 517.767 457.634C517.795 457.59 517.813 457.539 517.817 457.487C517.817 457.324 518.125 453.467 516.785 452.163C516.608 451.996 516.396 451.871 516.164 451.796C515.932 451.72 515.687 451.698 515.445 451.729C515.18 451.739 514.926 451.837 514.723 452.007C514.519 452.178 514.378 452.411 514.322 452.67C514.015 454.137 516.006 456.944 517.346 457.741H517.509ZM515.699 452.308C515.955 452.305 516.202 452.403 516.387 452.58C517.119 453.871 517.423 455.361 517.256 456.835C516.097 455.857 514.757 453.721 514.956 452.761C514.956 452.58 515.101 452.363 515.554 452.308H515.699Z" fill="#407BFF"/>
<path d="M582.861 155.555C580.815 161.187 578.588 166.692 576.397 172.233C574.205 177.774 571.906 183.278 569.534 188.747C564.844 199.739 559.936 210.621 554.504 221.468L553.725 223.007L552.929 223.822C549.069 227.69 544.665 230.972 539.855 233.564C535.267 236.037 530.405 237.964 525.368 239.304C520.521 240.618 515.562 241.479 510.556 241.876C508.075 242.093 505.613 242.147 503.15 242.147C500.627 242.148 498.106 242.009 495.599 241.731L495.798 231.645C497.699 231.355 499.981 230.975 502.063 230.54C504.146 230.106 506.301 229.562 508.383 229.001C512.483 227.913 516.496 226.521 520.389 224.836C524.113 223.247 527.668 221.288 531 218.987C534.118 216.834 536.937 214.276 539.384 211.382L537.808 213.736C542.299 203.052 546.555 192.007 550.864 181.142L557.329 164.682L563.866 148.276L582.861 155.555Z" fill="#FFD5BD"/>
<path d="M561.421 150.702C550.556 163.233 544.254 176.961 543.313 180.761C542.506 184.023 564.106 194.345 570.245 197.205C571.2 197.65 572.316 197.39 572.94 196.542C580.969 185.629 590.394 160.941 590.792 152.368C591.426 138.588 573.191 137.212 561.421 150.702Z" fill="#14142B"/>
<path opacity="0.3" d="M571.489 163.486C565.26 168.72 560.842 179.603 558.904 190.159L571.833 197.946C575.907 192.984 580.489 183.985 584.128 175.039C581.213 166.166 576.994 158.851 571.489 163.486Z" fill="#14142B"/>
<path d="M586.103 450.715L573.047 453.793L559.918 424.947L572.992 421.869L586.103 450.715Z" fill="#FFD5BD"/>
<path d="M570.801 450.19L584.943 444.974C585.182 444.883 585.446 444.886 585.682 444.984C585.918 445.082 586.107 445.266 586.211 445.5L591.01 456.364C591.197 456.954 591.16 457.593 590.906 458.157C590.652 458.722 590.199 459.173 589.633 459.425C584.998 461.887 582.39 462.05 575.998 464.024C573.191 464.875 566.057 470.796 557.8 470.796H550.556C546.283 470.796 545.704 466.233 548.076 465.599C559.538 462.539 566.328 455.803 568.864 451.693C569.315 450.981 570 450.45 570.801 450.19Z" fill="#14142B"/>
<path opacity="0.2" d="M572.992 421.869L559.918 424.947L566.691 439.814L579.765 436.735L572.992 421.869Z" fill="#14142B"/>
<path d="M595.102 257.575C595.102 257.575 506.59 265.054 508.763 303.479C511.153 345.562 560.135 437.387 560.135 437.387L584.056 431.756C584.056 431.756 558.705 354.58 553.273 311.736C578.225 311.736 629.978 316.426 638.38 293.918C642.443 282.255 643.514 269.759 641.494 257.575H595.102Z" fill="#407BFF"/>
<path d="M586.17 429.194C586.423 430.269 585.756 431.345 584.682 431.599L556.926 438.139C555.907 438.379 554.876 437.793 554.56 436.795L552.385 429.917C552.047 428.849 552.653 427.711 553.728 427.395L581.649 419.187C582.75 418.863 583.897 419.531 584.16 420.648L586.17 429.194Z" fill="#14142B"/>
<path d="M567.143 454.101C568.261 453.651 569.329 453.087 570.33 452.417C570.38 452.384 570.42 452.338 570.446 452.283C570.472 452.229 570.482 452.169 570.475 452.109C570.466 452.048 570.438 451.991 570.396 451.946C570.354 451.901 570.3 451.869 570.24 451.856C569.733 451.729 565.278 450.588 563.956 451.765C563.806 451.899 563.693 452.069 563.627 452.259C563.56 452.449 563.543 452.653 563.576 452.851C563.587 453.158 563.683 453.455 563.852 453.711C564.021 453.966 564.258 454.17 564.536 454.3C565.399 454.561 566.329 454.49 567.143 454.101ZM569.371 452.29C567.288 453.558 565.604 454.101 564.789 453.739C564.612 453.643 564.464 453.502 564.359 453.33C564.254 453.159 564.196 452.962 564.192 452.761C564.177 452.665 564.186 452.567 564.217 452.476C564.249 452.385 564.302 452.302 564.373 452.236C565.043 451.602 567.56 451.892 569.371 452.29Z" fill="#407BFF"/>
<path d="M570.276 452.453C570.32 452.433 570.357 452.402 570.385 452.363C570.41 452.318 570.423 452.268 570.423 452.218C570.423 452.167 570.41 452.117 570.385 452.073C570.385 451.91 569.298 448.18 567.578 447.437C567.362 447.326 567.123 447.268 566.881 447.268C566.638 447.268 566.399 447.326 566.184 447.437C565.935 447.539 565.727 447.72 565.593 447.953C565.458 448.186 565.405 448.457 565.441 448.723C565.658 450.208 568.501 452.145 570.041 452.435L570.276 452.453ZM566.654 447.98C566.769 447.932 566.892 447.906 567.017 447.906C567.141 447.906 567.264 447.932 567.379 447.98C568.411 448.433 569.19 450.479 569.678 451.602C568.248 451.095 566.256 449.556 566.057 448.578C566.057 448.397 566.057 448.161 566.455 447.944L566.654 447.98Z" fill="#407BFF"/>
<path d="M498.188 231.373C498.188 231.373 484.627 227.85 483.032 228.277C481.437 228.703 484.933 243.017 484.933 243.017C484.933 243.017 499.601 243.65 500.705 239.178L498.188 231.373Z" fill="#FFD5BD"/>
<path d="M473.885 234.935C472.727 235.93 472.348 237.551 472.918 238.969L475.952 246.511L484.933 243.017C484.933 243.017 484.75 228.271 483.032 228.277C481.808 228.281 476.715 232.505 473.885 234.935Z" fill="#FFD5BD"/>
<path d="M568.882 258.245H640.68C641.187 251.835 639.702 230.975 640.807 204.41C641.489 184.721 643.876 165.127 647.941 145.849C648.267 144.401 647.597 143.332 647.941 141.884C645.398 140.987 642.762 140.379 640.082 140.073C635.755 139.439 630.322 138.787 624.998 138.534C614.836 137.954 604.649 137.954 594.487 138.534C589.797 138.968 585.215 139.747 581.557 140.453C576.886 141.395 574.133 142.264 574.133 142.264C574.133 142.264 556.442 182.771 568.882 258.245Z" fill="#14142B"/>
<path opacity="0.3" d="M640.807 204.429C641.489 184.739 643.876 165.145 647.941 145.867C643.143 145.451 634.94 145.867 633.582 153.672C632.042 162.002 633.962 181.594 640.807 204.429Z" fill="#14142B"/>
<path d="M659.421 167.325C657.737 162.128 656.108 157.131 653.989 151.897L634.957 159.358C636.587 163.939 638.271 168.901 639.847 173.681C641.422 178.462 642.907 183.369 644.283 188.168C645.659 192.966 646.891 197.837 647.905 202.654C648.949 207.312 649.935 213.088 650.313 217.847C649.204 219.186 647.89 220.341 646.42 221.269C642.425 223.843 638.221 226.078 633.853 227.951C629.308 230.087 624.509 231.862 619.765 233.709C615.021 235.556 610.077 237.276 605.279 238.942L607.361 248.811C618.165 247.641 628.843 245.508 639.267 242.437C644.816 240.827 650.19 238.667 655.311 235.991C658.432 234.359 661.284 232.258 663.767 229.762C665.542 227.906 666.906 225.697 667.769 223.279C668.293 221.745 668.568 220.137 668.584 218.517V216.307C668.638 213.283 668.548 210.368 668.222 207.561C667.896 204.755 667.588 201.912 667.135 199.195C666.302 193.654 665.125 188.294 663.84 182.989C662.554 177.683 661.105 172.522 659.421 167.325Z" fill="#FFD5BD"/>
<path d="M647.941 141.902C634.867 137.773 627.497 147.859 631.118 165.985C633.443 176.855 637.28 187.341 642.515 197.139C643.092 198.22 644.419 198.642 645.526 198.117L668.416 187.253C669.334 186.817 669.865 185.834 669.713 184.828C667.067 167.349 660.901 145.988 647.941 141.902Z" fill="#14142B"/>
<path d="M624.962 107.949L616.795 114.722L605.677 123.957C606.007 125.437 606.242 126.937 606.383 128.448C606.981 134.478 602.092 137.284 595.935 138.443C595.935 138.443 587.207 146.592 604.663 146.845C622.119 147.099 626.175 138.624 626.175 138.624C619.53 132.015 622.698 117.728 624.962 107.949Z" fill="#FFD5BD"/>
<path d="M624.491 138.516C618.824 142.467 612.438 145.272 605.695 146.773C608.359 149.423 610.289 155.082 611.012 157.457C611.196 158.06 611.804 158.425 612.407 158.243C616.429 157.025 630.331 151.876 630.919 138.733C629.915 138.285 628.865 137.951 627.786 137.737C627.213 137.64 626.626 137.658 626.06 137.792C625.494 137.926 624.96 138.172 624.491 138.516Z" fill="#407BFF"/>
<path d="M597.311 138.878C596.877 141.015 597.311 144.926 605.695 146.773C602.063 148.863 599.893 153.394 598.926 155.893C598.617 156.692 597.599 156.966 597.01 156.345C594.135 153.313 587.912 145.474 592.639 138.498C593.734 138.021 594.884 137.68 596.062 137.483C596.246 137.452 596.436 137.467 596.612 137.529C596.789 137.59 596.947 137.695 597.072 137.835C597.197 137.974 597.285 138.143 597.326 138.325C597.368 138.508 597.363 138.698 597.311 138.878Z" fill="#407BFF"/>
<path opacity="0.2" d="M605.677 123.903C606.006 125.383 606.242 126.883 606.383 128.393C613.264 127.343 617.719 123.269 618.298 119.05C618.515 117.456 616.904 115.772 616.795 114.668L605.677 123.903Z" fill="#14142B"/>
<path d="M595.211 103.187C588.837 98.461 585.432 88.3567 588.221 82.2906C588.816 80.9218 589.783 79.7476 591.013 78.9018C592.242 78.0559 593.685 77.5724 595.176 77.5063C596.667 77.4403 598.146 77.7943 599.446 78.5281C600.745 79.2619 601.813 80.346 602.526 81.6568C607.108 89.3165 602.454 108.565 595.211 103.187Z" fill="#14142B"/>
<path d="M625.523 90.584C625.632 103.948 626.392 111.734 620.181 119.249C618.193 121.714 615.568 123.588 612.591 124.669C609.614 125.75 606.398 125.996 603.291 125.38C600.184 124.765 597.305 123.312 594.965 121.178C592.624 119.044 590.912 116.31 590.013 113.273C586.392 101.648 586.754 81.7654 599.321 75.1198C602.007 73.6091 605.042 72.8307 608.124 72.8628C611.205 72.8948 614.224 73.7361 616.878 75.3023C619.531 76.8686 621.727 79.1047 623.244 81.7868C624.762 84.4688 625.547 87.5025 625.523 90.584Z" fill="#FFD5BD"/>
<path d="M620.906 101.213C616.089 94.8935 615.636 84.2461 620.019 79.1939C620.974 78.062 622.227 77.2196 623.636 76.7617C625.045 76.3039 626.554 76.2489 627.992 76.6029C629.431 76.9568 630.742 77.7057 631.777 78.7651C632.813 79.8244 633.532 81.1521 633.853 82.5983C636.189 91.1814 626.356 108.384 620.906 101.213Z" fill="#14142B"/>
<path d="M591.372 80.2986C587.334 77.8722 596.659 69.6693 608.756 66.0839C622.264 62.0821 639.34 72.5847 640.173 81.6929C641.042 91.2902 634.559 86.6183 633.545 89.6242C633.545 89.6242 599.647 85.2783 591.372 80.2986Z" fill="#407BFF"/>
<path d="M587.28 83.6484C587.467 81.6957 588.265 79.8518 589.561 78.379C590.249 77.7452 630.304 85.8213 634.469 89.4067C635.247 90.0767 632.441 95.7988 631.825 95.0564C627.443 89.8413 587.443 85.097 587.28 83.6484Z" fill="#407BFF"/>
<path opacity="0.3" d="M587.28 83.6484C587.467 81.6957 588.265 79.8518 589.561 78.379C590.249 77.7452 630.304 85.8213 634.469 89.4067C635.247 90.0767 632.441 95.7988 631.825 95.0564C627.443 89.8413 587.443 85.097 587.28 83.6484Z" fill="#14142B"/>
<path d="M629.851 98.1893C629.917 98.2041 629.985 98.2041 630.05 98.1893C630.15 98.1259 630.221 98.026 630.248 97.911C630.275 97.796 630.256 97.6749 630.195 97.5737C628.04 94.0426 613.264 92.8475 611.598 92.7207C606.815 92.4742 602.02 92.7903 597.311 93.6624C596.72 93.4433 596.088 93.3605 595.461 93.4201C594.834 93.4796 594.228 93.6801 593.69 94.0064C590.575 93.9715 587.467 94.2751 584.418 94.9118C584.36 94.9246 584.305 94.9489 584.256 94.9832C584.207 95.0175 584.165 95.0612 584.133 95.1117C584.101 95.1622 584.079 95.2186 584.069 95.2775C584.059 95.3364 584.061 95.3968 584.074 95.4551C584.087 95.5134 584.111 95.5687 584.146 95.6177C584.18 95.6666 584.224 95.7083 584.274 95.7403C584.325 95.7723 584.381 95.7939 584.44 95.804C584.499 95.8141 584.559 95.8124 584.617 95.7991C587.63 95.1707 590.703 94.8732 593.78 94.9118C593.858 94.9284 593.938 94.9284 594.015 94.9118C594.446 94.6276 594.939 94.4499 595.452 94.3932C595.965 94.3365 596.484 94.4025 596.967 94.5859C597.067 94.6218 597.175 94.6218 597.275 94.5859C601.945 93.6919 606.706 93.3696 611.453 93.6261C615.89 93.9521 627.751 95.4369 629.344 98.0445C629.404 98.1165 629.485 98.1687 629.575 98.1946C629.666 98.2204 629.762 98.2186 629.851 98.1893Z" fill="#14142B"/>
<path d="M605.605 105.125H606.039C606.959 105.033 607.847 104.739 608.639 104.263C609.431 103.787 610.108 103.141 610.621 102.372C612.902 98.8409 611.363 93.318 611.309 93.137C611.292 93.077 611.252 93.0261 611.198 92.9956C611.143 92.965 611.079 92.9572 611.019 92.974C610.962 92.9945 610.916 93.0361 610.889 93.09C610.862 93.1439 610.857 93.206 610.874 93.2637C610.874 93.2637 612.413 98.6961 610.24 102.137C609.765 102.853 609.133 103.454 608.393 103.892C607.653 104.331 606.824 104.598 605.967 104.672C605.158 104.828 604.325 104.803 603.527 104.6C602.728 104.396 601.985 104.019 601.349 103.495C598.018 100.688 597.728 94.151 597.728 94.0967C597.728 94.0342 597.703 93.9743 597.659 93.9302C597.615 93.8861 597.555 93.8613 597.492 93.8613C597.435 93.8695 597.381 93.8974 597.342 93.9403C597.302 93.9832 597.279 94.0384 597.275 94.0967C597.275 94.3683 597.492 100.905 600.987 103.839C601.627 104.36 602.367 104.744 603.161 104.965C603.956 105.186 604.788 105.241 605.605 105.125Z" fill="#14142B"/>
<path d="M589.579 106.284C590.277 106.26 590.963 106.086 591.588 105.774C592.213 105.461 592.763 105.018 593.201 104.473C595.645 101.213 594.124 95.0206 594.07 94.7671C594.049 94.7149 594.009 94.6719 593.959 94.6462C593.909 94.6204 593.852 94.6135 593.797 94.6266C593.742 94.6398 593.694 94.6721 593.661 94.7178C593.628 94.7636 593.612 94.8196 593.617 94.8757C593.617 94.8757 595.156 101.123 592.839 104.201C592.42 104.767 591.874 105.225 591.244 105.54C590.615 105.854 589.92 106.016 589.217 106.012C588.746 106.043 588.275 105.966 587.839 105.787C587.403 105.608 587.013 105.332 586.7 104.98C584.292 102.318 585.179 95.4733 585.179 95.4009C585.184 95.3723 585.183 95.3429 585.177 95.3146C585.171 95.2863 585.159 95.2595 585.142 95.2359C585.125 95.2122 585.104 95.1922 585.079 95.177C585.054 95.1618 585.026 95.1517 584.998 95.1473C584.969 95.1422 584.94 95.1428 584.912 95.1491C584.883 95.1555 584.856 95.1675 584.833 95.1844C584.809 95.2012 584.789 95.2227 584.774 95.2474C584.759 95.2722 584.749 95.2997 584.744 95.3284C584.744 95.6181 583.821 102.571 586.374 105.288C586.734 105.683 587.178 105.993 587.672 106.197C588.167 106.4 588.701 106.492 589.235 106.465L589.579 106.284Z" fill="#14142B"/>
<path d="M630.231 101.92C629.017 104.561 626.879 106.666 624.219 107.841C620.761 109.289 618.932 106.229 619.783 102.644C620.562 99.4206 623.296 94.8031 626.809 94.8574C630.322 94.9117 631.77 98.6239 630.231 101.92Z" fill="#FFD5BD"/>
<path d="M603.975 96.7045C603.975 97.7729 603.54 98.7145 602.834 98.7869C602.128 98.8594 601.512 98.0445 601.422 96.9761C601.331 95.9078 601.856 94.948 602.562 94.8756C603.269 94.8032 603.902 95.618 603.975 96.7045Z" fill="#14142B"/>
<path d="M591.806 97.9902C591.806 99.0586 591.372 100 590.665 100.073C589.959 100.145 589.325 99.3302 589.253 98.2618C589.181 97.1934 589.688 96.2518 590.394 96.1794C591.1 96.107 591.734 96.9037 591.806 97.9902Z" fill="#14142B"/>
<path d="M595.982 98.5335C595.457 98.4749 592.463 108.154 592.558 108.583C592.653 109.012 594.076 109.195 594.883 109.21C595.689 109.226 596.98 109.382 597.225 108.674C597.47 107.965 596.506 98.5921 595.982 98.5335Z" fill="#FF97B8"/>
<path d="M602.78 110.485C604.008 110.219 605.171 109.709 606.198 108.984C607.224 108.259 608.094 107.334 608.756 106.265C608.791 106.19 608.797 106.104 608.774 106.024C608.75 105.944 608.699 105.876 608.629 105.831C608.552 105.793 608.463 105.787 608.382 105.814C608.3 105.841 608.233 105.899 608.194 105.976C607.456 107.124 606.466 108.088 605.298 108.794C604.131 109.5 602.817 109.93 601.458 110.05C601.375 110.063 601.3 110.109 601.249 110.176C601.198 110.244 601.176 110.328 601.186 110.412C601.191 110.453 601.203 110.492 601.223 110.528C601.243 110.563 601.27 110.595 601.302 110.62C601.334 110.645 601.37 110.664 601.41 110.675C601.449 110.686 601.49 110.689 601.53 110.684C601.951 110.647 602.369 110.58 602.78 110.485Z" fill="#14142B"/>
<path d="M609.48 91.471C609.584 91.4292 609.675 91.3595 609.743 91.2695C609.811 91.1795 609.852 91.0727 609.863 90.9607C609.875 90.8487 609.855 90.7358 609.806 90.6342C609.758 90.5326 609.682 90.4463 609.588 90.3846C608.782 89.7906 607.843 89.4012 606.852 89.2498C605.862 89.0984 604.85 89.1895 603.902 89.5154C603.825 89.5471 603.754 89.5939 603.695 89.6531C603.636 89.7122 603.589 89.7826 603.557 89.86C603.525 89.9375 603.508 90.0206 603.509 90.1044C603.509 90.1882 603.526 90.2711 603.558 90.3483C603.626 90.5019 603.751 90.6234 603.906 90.6875C604.061 90.7516 604.235 90.7533 604.391 90.6924C605.138 90.4479 605.932 90.386 606.707 90.5121C607.482 90.6381 608.216 90.9483 608.846 91.4167C608.935 91.4866 609.042 91.5289 609.155 91.5386C609.267 91.5482 609.38 91.5248 609.48 91.471Z" fill="#14142B"/>
<path d="M586.374 93.6443C586.477 93.6507 586.579 93.6327 586.674 93.5918C586.768 93.5509 586.852 93.4882 586.917 93.4089C587.393 92.7479 588.015 92.2051 588.734 91.8221C589.453 91.4391 590.25 91.2262 591.064 91.1997C591.147 91.2046 591.231 91.193 591.309 91.1656C591.388 91.1382 591.461 91.0955 591.523 91.04C591.585 90.9845 591.636 90.9172 591.672 90.8421C591.708 90.767 591.729 90.6854 591.734 90.6021C591.739 90.5189 591.727 90.4355 591.7 90.3567C591.672 90.2779 591.63 90.2053 591.574 90.1431C591.519 90.0809 591.451 90.0302 591.376 89.994C591.301 89.9578 591.22 89.9368 591.136 89.9321C590.117 89.944 589.114 90.1942 588.209 90.6627C587.303 91.1312 586.52 91.805 585.921 92.6302C585.869 92.6958 585.831 92.7715 585.808 92.8525C585.786 92.9335 585.781 93.0181 585.793 93.1012C585.805 93.1843 585.834 93.2641 585.878 93.3357C585.921 93.4073 585.979 93.4692 586.048 93.5175C586.136 93.6 586.253 93.6454 586.374 93.6443Z" fill="#14142B"/>
<path d="M608.647 238.327C607.929 238.383 597.535 232.743 597.535 232.743C597.362 233.65 597.076 247.381 597.076 247.381C597.076 247.381 608.085 252.614 610.313 246.711C610.313 246.711 609.364 238.271 608.647 238.327Z" fill="#FFD5BD"/>
<path d="M586.333 233.824C584.365 234.556 583.189 236.496 583.222 238.595L583.368 247.996L597.076 247.254C597.076 247.254 602.152 235.158 597.546 232.749C594.617 231.218 589.598 232.608 586.333 233.824Z" fill="#FFD5BD"/>
<path d="M649.064 475.975H638.199V268.82C638.199 264.498 636.482 260.353 633.425 257.297C630.369 254.24 626.224 252.523 621.902 252.523H188.633C184.311 252.523 180.165 254.24 177.109 257.297C174.053 260.353 172.336 264.498 172.336 268.82V475.975H161.471V268.82C161.471 261.617 164.333 254.708 169.426 249.614C174.52 244.52 181.429 241.658 188.633 241.658H621.902C629.105 241.658 636.014 244.52 641.108 249.614C646.202 254.708 649.064 261.617 649.064 268.82V475.975Z" fill="#14142B"/>
<path opacity="0.7" d="M649.064 475.975H638.199V268.82C638.199 264.498 636.482 260.353 633.425 257.297C630.369 254.24 626.224 252.523 621.902 252.523H188.633C184.311 252.523 180.165 254.24 177.109 257.297C174.053 260.353 172.336 264.498 172.336 268.82V475.975H161.471V268.82C161.471 261.617 164.333 254.708 169.426 249.614C174.52 244.52 181.429 241.658 188.633 241.658H621.902C629.105 241.658 636.014 244.52 641.108 249.614C646.202 254.708 649.064 261.617 649.064 268.82V475.975Z" fill="#A0A3BD"/>
<path d="M610.077 475.975H599.212V268.82C599.212 264.498 597.495 260.353 594.439 257.297C591.383 254.24 587.238 252.523 582.915 252.523H149.647C145.324 252.523 141.179 254.24 138.123 257.297C135.066 260.353 133.349 264.498 133.349 268.82V475.975H122.485V268.82C122.485 261.617 125.346 254.708 130.44 249.614C135.534 244.52 142.443 241.658 149.647 241.658H582.915C590.119 241.658 597.028 244.52 602.122 249.614C607.215 254.708 610.077 261.617 610.077 268.82V475.975Z" fill="#14142B"/>
<path d="M610.077 475.975H599.212V268.82C599.212 264.498 597.495 260.353 594.439 257.297C591.383 254.24 587.238 252.523 582.915 252.523H149.647C145.324 252.523 141.179 254.24 138.123 257.297C135.066 260.353 133.349 264.498 133.349 268.82V475.975H122.485V268.82C122.485 261.617 125.346 254.708 130.44 249.614C135.534 244.52 142.443 241.658 149.647 241.658H582.915C590.119 241.658 597.028 244.52 602.122 249.614C607.215 254.708 610.077 261.617 610.077 268.82V475.975Z" fill="#6E7191"/>
<path d="M373.243 237.258H279.915C278.577 237.239 277.291 236.737 276.293 235.846C275.295 234.954 274.652 233.733 274.483 232.405L268.253 173.627C268.172 173.016 268.224 172.395 268.406 171.805C268.588 171.216 268.895 170.674 269.306 170.214C269.717 169.755 270.222 169.39 270.788 169.145C271.353 168.899 271.965 168.779 272.581 168.792H365.91C367.246 168.807 368.532 169.305 369.53 170.194C370.528 171.082 371.172 172.301 371.342 173.627L377.571 232.405C377.652 233.017 377.6 233.639 377.418 234.229C377.237 234.819 376.93 235.363 376.519 235.824C376.109 236.284 375.603 236.651 375.038 236.899C374.473 237.146 373.86 237.269 373.243 237.258Z" fill="#14142B"/>
<path opacity="0.2" d="M373.243 237.258H279.915C278.577 237.239 277.291 236.737 276.293 235.846C275.295 234.954 274.652 233.733 274.483 232.405L268.253 173.627C268.172 173.016 268.224 172.395 268.406 171.805C268.588 171.216 268.895 170.674 269.306 170.214C269.717 169.755 270.222 169.39 270.788 169.145C271.353 168.899 271.965 168.779 272.581 168.792H365.91C367.246 168.807 368.532 169.305 369.53 170.194C370.528 171.082 371.172 172.301 371.342 173.627L377.571 232.405C377.652 233.017 377.6 233.639 377.418 234.229C377.237 234.819 376.93 235.363 376.519 235.824C376.109 236.284 375.603 236.651 375.038 236.899C374.473 237.146 373.86 237.269 373.243 237.258Z" fill="#A0A3BD"/>
<path d="M370.654 237.258H277.344C276.003 237.246 274.713 236.747 273.714 235.854C272.714 234.961 272.074 233.736 271.911 232.405L265.664 173.627C265.586 173.016 265.64 172.396 265.823 171.809C266.006 171.221 266.313 170.679 266.723 170.221C267.134 169.762 267.638 169.397 268.202 169.151C268.766 168.904 269.376 168.782 269.992 168.792H363.32C364.658 168.804 365.945 169.3 366.944 170.189C367.943 171.078 368.586 172.3 368.753 173.627L375 232.405C375.078 233.018 375.023 233.641 374.839 234.231C374.656 234.82 374.347 235.364 373.935 235.824C373.523 236.284 373.017 236.651 372.45 236.898C371.884 237.146 371.272 237.268 370.654 237.258Z" fill="#A0A3BD"/>
<path d="M374.909 236.824H281.653C280.37 236.824 279.138 237.332 278.228 238.239C277.319 239.145 276.805 240.375 276.801 241.658H379.817C379.814 241.018 379.685 240.385 379.437 239.794C379.189 239.204 378.826 238.669 378.37 238.219C377.913 237.77 377.373 237.415 376.779 237.176C376.185 236.936 375.55 236.816 374.909 236.824Z" fill="#6E7191"/>
<path d="M406.906 236.824H373.569C372.289 236.828 371.062 237.339 370.156 238.245C369.25 239.151 368.739 240.378 368.735 241.658H411.759C411.754 240.375 411.241 239.145 410.331 238.239C409.422 237.332 408.19 236.824 406.906 236.824Z" fill="#14142B"/>
<path opacity="0.2" d="M406.906 236.824H373.569C372.289 236.828 371.062 237.339 370.156 238.245C369.25 239.151 368.739 240.378 368.735 241.658H411.759C411.754 240.375 411.241 239.145 410.331 238.239C409.422 237.332 408.19 236.824 406.906 236.824Z" fill="#A0A3BD"/>
<path d="M51.2807 98.5236C50.889 97.8716 50.6821 97.1253 50.6821 96.3647C50.6821 95.6042 50.889 94.8579 51.2807 94.2059C51.5043 93.8426 51.7139 93.4793 51.9095 93.1021C52.1051 92.7248 52.3147 92.3335 52.4964 91.9563C52.8181 91.2714 53.3192 90.6863 53.9465 90.2632C54.5738 89.8401 55.304 89.5946 56.0595 89.5529L56.6565 89.5341C59.2593 89.4519 61.3026 87.2753 61.2205 84.6725L60.9726 76.8145C60.8906 74.2168 58.722 72.1752 56.124 72.25L55.4866 72.2684C54.7291 72.2877 53.9815 72.0935 53.3292 71.7081C52.6769 71.3226 52.1462 70.7614 51.7977 70.0886C51.3925 69.362 50.9454 68.6913 50.4703 67.9507C50.0284 67.3256 49.7662 66.5914 49.712 65.8278C49.6578 65.0642 49.8137 64.3003 50.1629 63.6191L50.4461 63.0906C51.6725 60.8022 50.8182 57.9528 48.5349 56.7167L41.6255 52.9763C39.3286 51.7328 36.4585 52.5934 35.2247 54.8955L34.9603 55.389C34.5879 56.058 34.0394 56.6123 33.3744 56.9916C32.7093 57.371 31.953 57.5609 31.1876 57.5408C30.3436 57.5197 29.4992 57.5477 28.6585 57.6247C27.9066 57.6886 27.1515 57.5483 26.4727 57.2188C25.794 56.8892 25.2167 56.3826 24.8019 55.7523L24.4875 55.2413C23.1192 53.0178 20.2046 52.3294 17.9861 53.7057L11.3197 57.8413C9.1102 59.2119 8.42723 62.1124 9.79295 64.3249L10.1163 64.8487C10.4985 65.481 10.7005 66.2058 10.7005 66.9447C10.7005 67.6835 10.4985 68.4083 10.1163 69.0406C9.89273 69.4318 9.66918 69.8091 9.45958 70.2143C9.24999 70.6195 9.04039 71.0108 8.84477 71.416C8.52879 72.0948 8.03149 72.6733 7.40771 73.0875C6.78392 73.5017 6.05787 73.7356 5.30961 73.7635L4.72872 73.7803C2.11958 73.8558 0.0682442 76.0367 0.152402 78.6455L0.40686 86.5337C0.490786 89.1354 2.66709 91.1769 5.26883 91.0945L5.85455 91.076C6.60334 91.0487 7.34495 91.2303 7.99642 91.6005C8.64789 91.9706 9.18353 92.5147 9.54342 93.1719C9.96947 93.9729 10.4359 94.7517 10.9407 95.5054C11.3623 96.1146 11.6076 96.8283 11.6495 97.5679C11.6914 98.3076 11.5284 99.0444 11.1783 99.6973L10.904 100.209C9.674 102.504 10.5371 105.362 12.8317 106.592L19.7652 110.31C22.0606 111.541 24.9191 110.677 26.1494 108.382L26.4228 107.872C26.797 107.205 27.3463 106.654 28.0112 106.277C28.6762 105.9 29.4315 105.712 30.1955 105.734C31.0348 105.748 31.8742 105.72 32.7106 105.65C33.4673 105.574 34.2303 105.71 34.9139 106.043C35.5975 106.376 36.1749 106.893 36.5812 107.536L36.8918 108.039C38.2625 110.26 41.176 110.945 43.3925 109.568L50.0319 105.443C52.2533 104.062 52.9271 101.138 51.5334 98.9248L51.2807 98.5236ZM25.7102 94.9605C22.941 93.9141 20.5691 92.0266 18.9276 89.5631C17.2861 87.0996 16.4574 84.1837 16.558 81.2251C16.6586 78.2665 17.6833 75.4138 19.4884 73.0674C21.2934 70.7211 23.788 68.999 26.6219 68.1431C29.4557 67.2872 32.4865 67.3404 35.2886 68.2953C38.0907 69.2501 40.5233 71.0587 42.2448 73.4669C43.9664 75.8752 44.8904 78.7622 44.887 81.7225C44.8837 84.6828 43.9532 87.5677 42.2263 89.9721C40.4064 92.5058 37.8013 94.3681 34.815 95.27C31.8287 96.1719 28.6283 96.0631 25.7102 94.9605Z" fill="#FFC226"/>
<path d="M64.0664 24.8999C62.2846 25.9257 61.6735 28.2029 62.7022 29.983L65.0514 34.0481C66.0733 35.8164 68.3366 36.4193 70.1027 35.3936C70.566 35.1303 71.093 35.0001 71.6256 35.0173C72.1582 35.0346 72.6756 35.1986 73.1209 35.4914C73.6281 35.8261 74.1554 36.1295 74.6998 36.3996C75.1736 36.6396 75.5726 37.0048 75.8535 37.4556C76.1343 37.9064 76.2862 38.4256 76.2927 38.9567C76.2927 41.0094 77.9568 42.6735 80.0096 42.6735H84.6905C86.7432 42.6735 88.4073 41.0094 88.4073 38.9567C88.4107 38.4249 88.5614 37.9045 88.8425 37.4531C89.1237 37.0017 89.5244 36.6371 90.0002 36.3996C90.5401 36.1293 91.0627 35.826 91.5652 35.4914C92.0105 35.1986 92.5279 35.0346 93.0605 35.0173C93.5931 35.0001 94.1201 35.1303 94.5834 35.3936C96.3576 36.4195 98.6277 35.8114 99.6515 34.0358L101.987 29.9849C103.014 28.2032 102.402 25.926 100.62 24.8999C100.164 24.6263 99.7926 24.2325 99.5462 23.7617C99.2997 23.2909 99.1877 22.7613 99.2224 22.231C99.2224 21.9376 99.2224 21.6302 99.2224 21.3367C99.2224 21.0433 99.2224 20.7359 99.2224 20.4425C99.1788 19.9129 99.2871 19.3819 99.5346 18.9116C99.7821 18.4414 100.158 18.0515 100.62 17.7876C102.404 16.7527 103.014 14.4693 101.984 12.6825L99.6575 8.64815C98.6299 6.86581 96.3523 6.25338 94.5694 7.27993C94.1061 7.54323 93.5791 7.67342 93.0465 7.65616C92.5139 7.6389 91.9965 7.47485 91.5512 7.18211C91.0503 6.85267 90.5326 6.54952 90.0002 6.27387C89.5182 6.04434 89.112 5.68153 88.8297 5.22837C88.5474 4.77522 88.4008 4.25067 88.4073 3.71682C88.4073 1.66408 86.7432 0 84.6905 0H80.0096C77.9568 0 76.2927 1.66408 76.2927 3.71682C76.2893 4.24858 76.1387 4.76902 75.8575 5.22038C75.5764 5.67174 75.1756 6.03639 74.6998 6.27387C74.1612 6.54638 73.6387 6.84962 73.1348 7.18211C72.6896 7.47485 72.1721 7.6389 71.6395 7.65616C71.107 7.67342 70.58 7.54323 70.1167 7.27993C68.3419 6.25364 66.0712 6.86075 65.0454 8.63582L62.7022 12.6904C61.6735 14.4706 62.2846 16.7477 64.0664 17.7736C64.5231 18.046 64.8954 18.4396 65.142 18.9107C65.3887 19.3818 65.5 19.912 65.4637 20.4425C65.4637 20.7359 65.4637 21.0433 65.4637 21.3367C65.4637 21.6302 65.4637 21.9376 65.4637 22.231C65.5 22.7615 65.3887 23.2917 65.142 23.7628C64.8954 24.2339 64.5231 24.6275 64.0664 24.8999ZM72.4222 21.3367C72.425 19.3752 73.0092 17.4585 74.101 15.8288C75.1928 14.1992 76.7431 12.9298 78.5562 12.1811C80.3692 11.4323 82.3635 11.2378 84.287 11.6222C86.2106 12.0066 87.977 12.9526 89.363 14.3406C90.7491 15.7286 91.6926 17.4963 92.0742 19.4204C92.4559 21.3444 92.2586 23.3385 91.5073 25.1505C90.756 26.9624 89.4845 28.511 87.8533 29.6005C86.2221 30.69 84.3046 31.2715 82.343 31.2715C79.7167 31.2715 77.1975 30.2302 75.3378 28.3757C73.4781 26.5212 72.4296 24.005 72.4222 21.3787V21.3367Z" fill="#FFC226"/>
<path d="M489.821 4.26758C470.019 4.26758 453.911 17.2979 453.911 33.3036C453.982 37.2943 454.961 41.2165 456.774 44.7721C458.588 48.3278 461.188 51.4234 464.376 53.8238C464.609 54.7987 464.645 55.8102 464.483 56.7993C464.321 57.7884 463.964 58.7354 463.432 59.5852C462.901 60.435 462.206 61.1706 461.387 61.7491C460.569 62.3277 459.643 62.7377 458.665 62.9552C458.272 63.0378 457.921 63.2557 457.673 63.5709C457.398 63.9309 457.216 64.3538 457.144 64.8015C457.073 65.2493 457.113 65.7078 457.263 66.1359C457.546 66.7247 457.979 67.2281 458.52 67.5946C459.061 67.961 459.689 68.1776 460.341 68.2221C461.526 68.4318 462.728 68.5348 463.932 68.5299C470.277 68.2376 476.322 65.7468 481.032 61.4846C483.914 62.0714 486.846 62.3693 489.787 62.3738C509.589 62.3738 525.697 49.3435 525.697 33.3378C525.697 17.3321 509.623 4.26758 489.821 4.26758Z" fill="#6A35FF"/>
<g filter="url(#filter0_d)">
<path d="M491.863 6.81152C475.099 6.81152 461.462 17.8428 461.462 31.393C461.522 34.7715 462.351 38.092 463.886 41.1021C465.421 44.1123 467.623 46.733 470.321 48.7652C470.519 49.5905 470.549 50.4469 470.412 51.2842C470.275 52.1216 469.973 52.9233 469.522 53.6427C469.073 54.3621 468.484 57.9849 467.791 58.4746C467.098 58.9645 466.315 59.3116 465.487 59.4957C465.154 59.5656 464.857 59.7501 464.647 60.017C464.414 60.3217 464.26 60.6798 464.199 61.0588C464.139 61.4379 464.173 61.826 464.3 62.1885C464.539 62.6869 464.906 63.1131 465.364 63.4234C465.822 63.7336 466.353 63.9169 466.905 63.9546C467.909 64.1321 468.926 64.2193 469.946 64.2152C475.317 63.9677 480.435 58.8591 484.422 55.2507C486.862 55.7475 489.344 55.9997 491.834 56.0035C508.598 56.0035 522.235 44.9722 522.235 31.422C522.235 17.8718 508.627 6.81152 491.863 6.81152Z" fill="#6A35FF" fill-opacity="0.4"/>
</g>
<path d="M501.804 33.3299C501.801 34.0201 502.002 34.6958 502.384 35.271C502.765 35.8463 503.309 36.2953 503.946 36.5609C504.583 36.8266 505.285 36.8969 505.962 36.763C506.639 36.6292 507.261 36.2971 507.75 35.809C508.238 35.321 508.57 34.6988 508.704 34.0217C508.837 33.3445 508.767 32.6429 508.501 32.0058C508.236 31.3687 507.787 30.8249 507.212 30.4434C506.636 30.062 505.961 29.86 505.27 29.8633C504.351 29.8633 503.469 30.2285 502.819 30.8786C502.169 31.5287 501.804 32.4105 501.804 33.3299Z" fill="white"/>
<path d="M486.321 33.3299C486.318 34.0201 486.52 34.6958 486.902 35.271C487.283 35.8463 487.827 36.2953 488.464 36.5609C489.101 36.8266 489.803 36.8969 490.48 36.763C491.157 36.6292 491.779 36.2971 492.267 35.809C492.755 35.321 493.087 34.6988 493.221 34.0217C493.355 33.3445 493.285 32.6429 493.019 32.0058C492.753 31.3687 492.304 30.8249 491.729 30.4434C491.154 30.062 490.478 29.86 489.788 29.8633C489.333 29.8633 488.882 29.9529 488.461 30.1271C488.041 30.3014 487.659 30.5567 487.337 30.8786C487.015 31.2005 486.759 31.5827 486.585 32.0033C486.411 32.4239 486.321 32.8747 486.321 33.3299Z" fill="white"/>
<path d="M470.839 33.3299C470.836 34.0201 471.038 34.6958 471.419 35.271C471.801 35.8463 472.345 36.2953 472.982 36.5609C473.619 36.8266 474.32 36.8969 474.998 36.763C475.675 36.6292 476.297 36.2971 476.785 35.809C477.273 35.321 477.605 34.6988 477.739 34.0217C477.873 33.3445 477.802 32.6429 477.537 32.0058C477.271 31.3687 476.822 30.8249 476.247 30.4434C475.672 30.062 474.996 29.86 474.306 29.8633C473.386 29.8633 472.505 30.2285 471.855 30.8786C471.204 31.5287 470.839 32.4105 470.839 33.3299Z" fill="white"/>
<defs>
<filter id="filter0_d" x="450.512" y="3.16166" width="82.6723" height="79.3029" filterUnits="userSpaceOnUse" color-interpolation-filters="sRGB">
<feFlood flood-opacity="0" result="BackgroundImageFix"/>
<feColorMatrix in="SourceAlpha" type="matrix" values="0 0 0 0 0 0 0 0 0 0 0 0 0 0 0 0 0 0 127 0"/>
<feOffset dy="7.2997"/>
<feGaussianBlur stdDeviation="5.47478"/>
<feColorMatrix type="matrix" values="0 0 0 0 0.415686 0 0 0 0 0.207843 0 0 0 0 1 0 0 0 0.17 0"/>
<feBlend mode="normal" in2="BackgroundImageFix" result="effect1_dropShadow"/>
<feBlend mode="normal" in="SourceGraphic" in2="effect1_dropShadow" result="shape"/>
</filter>
</defs>
</svg>
