<svg width="1058" height="982" fill="none" xmlns="http://www.w3.org/2000/svg"><path d="M773.627 857.323h-38.301v6.73h38.301v-6.73z" fill="#4E4B66"/><path d="M794.393 955.858h-4.128l-33.742-157.476-1.92-8.973-6.067-28.269-2.244-10.553-8.489-39.558-2.962-13.837h14.737l2.386 13.837 1.579 9.1 1.06 6.049 6.048 34.962 1.938 11.236 31.804 183.482z" fill="#4E4B66"/><path d="M749.578 697.192l2.386 13.837h-14.161l-2.962-13.837h14.737zm13.011 75.183l-6.066 26.006-1.92-8.973-6.067-28.268-2.244-10.554 7.251-30.458 1.06 6.049 6.048 34.963 1.938 11.235z" fill="#14142B"/><path d="M774.345 697.192l-2.961 13.837-10.733 50.111-6.048 28.269-35.681 166.449h-4.11l33.724-194.718 6.067-34.962 2.62-15.149 2.405-13.837h14.717z" fill="#4E4B66"/><path d="M774.345 697.192l-2.961 13.837h-14.161l2.405-13.837h14.717z" fill="#14142B"/><path d="M1029.56 857.323h-38.304v6.73h38.304v-6.73z" fill="#4E4B66"/><path d="M1050.32 955.858h-4.13l-33.74-157.476-1.92-8.973-6.07-28.269-2.24-10.553-8.487-39.558-2.962-13.837h14.739l2.38 13.837 1.58 9.1 1.06 6.049 6.05 34.962 1.94 11.236 31.8 183.482z" fill="#4E4B66"/><path d="M1005.51 697.192l2.38 13.837h-14.157l-2.962-13.837h14.739zm13.01 75.183l-6.07 26.006-1.92-8.973-6.07-28.268-2.24-10.554 7.25-30.458 1.06 6.049 6.05 34.963 1.94 11.235z" fill="#14142B"/><path d="M1030.27 697.192l-2.96 13.837-10.73 50.111-6.05 28.269-35.662 166.449h-4.127l33.719-194.718 6.07-34.962 2.62-15.149 2.41-13.837h14.71z" fill="#4E4B66"/><path d="M1030.27 697.192l-2.96 13.837h-14.16l2.41-13.837h14.71z" fill="#14142B"/><path d="M1053.23 678.238H698.575a3.831 3.831 0 00-3.83 3.831v11.292a3.832 3.832 0 003.83 3.831h354.655c2.12 0 3.83-1.715 3.83-3.831v-11.292a3.827 3.827 0 00-3.83-3.831z" fill="#4E4B66"/><path d="M783.516 678.238h-91.512a4.007 4.007 0 01-3.981-3.553l-6.446-56.583a4.006 4.006 0 013.981-4.459h87.024a4.007 4.007 0 013.981 3.553l6.953 61.042z" fill="#D9DBE9"/><path d="M778.348 673.893h-82.163a4.004 4.004 0 01-3.979-3.552l-5.968-52.373h85.737l6.373 55.925z" fill="#fff"/><path d="M811.426 673.894H689.092v4.325h122.334v-4.325z" fill="#D9DBE9"/><path d="M837.988 673.894H715.654v4.325h122.334v-4.325z" fill="#EFF0F7"/><path d="M772.281 620.696l-.306-2.728h-85.737l.323 2.728h85.72z" fill="#fff"/><path d="M902.214 626.489l1.813 2.809 1.949 3.081a278.3 278.3 0 013.725 6.297c2.418 4.251 4.758 8.56 6.922 12.928a178.248 178.248 0 0110.9 26.733c.702 2.261 1.325 4.523 1.949 6.784l.8 3.413.331 1.695.175.858c0 .274.118.644.118.566 0-.078.156 0 .351-.507.209-.451.531-.84.936-1.13.331-.195.389 0 .214.175a5.819 5.819 0 01-1.345.917 21.87 21.87 0 01-5.245 1.794 63.991 63.991 0 01-6.688 1.188c-4.641.605-9.749.898-14.546 1.151h-.488a6.841 6.841 0 00-5.511 10.358 6.846 6.846 0 003.562 2.921 84.376 84.376 0 0016.612 4.114 51.222 51.222 0 0019.069-.488 27.468 27.468 0 005.85-2.164 22.564 22.564 0 006.279-4.719 20.611 20.611 0 004.562-7.994 23.103 23.103 0 00.799-8.268c0-.74 0-1.014-.116-1.384l-.137-1.072-.254-2.184c-.214-1.423-.408-2.866-.643-4.289-.486-2.848-1.033-5.674-1.716-8.444a170.51 170.51 0 00-11.192-31.84c-2.359-5.031-4.875-9.983-7.623-14.799a177.582 177.582 0 00-4.29-7.156c-.741-1.19-1.502-2.36-2.301-3.55a123.674 123.674 0 00-2.555-3.665 13.645 13.645 0 00-18.622-3.146 13.641 13.641 0 00-5.679 8.444 13.644 13.644 0 001.742 10.028l.293.545z" fill="#CAB7FF"/><path d="M850.075 547.794c-.195 1.326-1.053 2.281-1.949 2.164-.898-.116-1.405-1.306-1.209-2.612.195-1.307 1.053-2.282 1.949-2.165.898.117 1.405 1.307 1.209 2.613z" fill="#14142B"/><path d="M849.138 550.095c-2.166 3.786-8.223 9.22-7.955 10.315.268 1.094 1.764 1.364 2.819 1.728a7.63 7.63 0 003.284.377l1.852-12.42z" fill="#FF97B8"/><path d="M855.827 541.204a.64.64 0 01-.429-.214 6.15 6.15 0 00-5.343-1.814.797.797 0 01-.936-.604.778.778 0 01.605-.916 7.683 7.683 0 016.766 2.222.8.8 0 010 1.112.82.82 0 01-.663.214z" fill="#14142B"/><path d="M888.702 562.321c-.565 12.283.37 34.472 9.905 41.199 0 0-1.463 12.577-23.632 15.892-24.353 3.626-13.453-10.374-13.453-10.374 12.83-5.148 11.015-14.975 7.311-23.885l19.869-22.832z" fill="#FFD5BD"/><path d="M902.429 608.435c.955-5.558 1.949-11.895-2.244-12.87-4.601-1.073-28.428 2.107-35.954 7.8-7.527 5.693-3.666 15.599-3.666 15.599l41.864-10.529z" fill="#fff"/><path d="M838.181 629.142c-.897 19.655 0 58.631 13.337 117.633h88.171c.546-12.264-12.109-65.143-11.016-123.249a21.96 21.96 0 00-21.897-22.365c-1.736 0-3.568 0-5.46.215a312.856 312.856 0 00-37.163 4.836 149.591 149.591 0 00-10.471 2.808 22.068 22.068 0 00-15.501 20.122z" fill="#0048F0"/><path opacity=".2" d="M851.499 664.512c1.403 9.983 4.64 27.298-7.039 46.445a564.514 564.514 0 01-3.276-22.306l10.315-24.139z" fill="#14142B"/><path d="M782.786 688.67l-14.839-5.108 6.044-15.599a18.817 18.817 0 0114.995 12.226l-6.2 8.481z" fill="#FFD5BD"/><path d="M760.443 679.346c-.782-1.758-3.159-11.693-1.58-12.596 1.58-.903 15.482 1.287 15.482 1.287l-6.045 15.657s-7.076-2.591-7.857-4.348z" fill="#FFD5BD"/><path d="M838.278 627.328a407.998 407.998 0 01-2.807 9.32c-.976 3.12-1.95 6.317-3.081 9.457-2.105 6.279-4.427 12.459-6.864 18.504-2.437 6.045-5.167 11.914-8.111 17.393a76.962 76.962 0 01-9.749 14.487l14.292-2.204c-2.749-1.188-5.576-2.417-8.423-3.899-2.847-1.482-5.752-2.807-8.618-4.368l-8.775-4.621c-2.924-1.54-5.849-3.217-8.833-4.659l-.311-.157a6.904 6.904 0 00-9.995 6.011 6.908 6.908 0 001.396 4.323 104.52 104.52 0 006.98 8.287c2.437 2.633 4.992 5.129 7.644 7.585 2.651 2.457 5.459 4.776 8.384 6.999a105.647 105.647 0 009.32 6.357 11.272 11.272 0 0013.533-1.501l.759-.722a91.582 91.582 0 0014.916-18.855 167.586 167.586 0 0010.433-19.79c3.06-6.688 5.693-13.474 8.092-20.298 1.188-3.413 2.339-6.844 3.373-10.296 1.033-3.451 1.95-6.843 2.944-10.665a13.654 13.654 0 00-20.029-15.336 13.647 13.647 0 00-6.352 8.296l-.118.352z" fill="#CAB7FF"/><path d="M894.356 551.576c-3.412 15.989-4.582 25.524-13.981 32.601-14.136 10.647-32.972.273-34.414-16.437-1.287-15.033 4.485-38.665 21.254-42.74a22.328 22.328 0 0126.772 15.348 22.338 22.338 0 01.369 11.228z" fill="#FFD5BD"/><path d="M859.903 553.254c-7.644-.585-7.196-4.114-5.48-6.708 1.716-2.593 6.384-9.622 3.802-11.913-2.582-2.292-10.626 2.808-8.443-7.371 2.184-10.178 16.535-23.066 29.073-15.169 24.977-4.115 33.147 5.966 29.247 15.286 19.831 8.775 5.518 26.538-2.378 26.538 7.038 6.278-18.02 26.967-20.512 25.484-2.494-1.482-30.886-10.996-25.309-26.147z" fill="#14142B"/><path d="M875.346 517.201a1.956 1.956 0 001.384-.604 23.554 23.554 0 0122.657-6.181 1.95 1.95 0 002.34-1.443 1.95 1.95 0 00-1.442-2.34 27.65 27.65 0 00-26.402 7.253 1.953 1.953 0 000 2.75 1.948 1.948 0 001.463.565zm25.835 54.478a1.934 1.934 0 001.384-.565c5.499-5.538 7.8-9.866 7.097-13.649a8.841 8.841 0 00-5.537-6.317 1.951 1.951 0 00-2.603.926 1.958 1.958 0 00-.077 1.493 1.96 1.96 0 001.002 1.11c2.048.975 3.14 2.105 3.374 3.451.235 1.346-.546 4.719-6.025 10.218a1.95 1.95 0 001.385 3.333z" fill="#14142B"/><path d="M869.299 552.006a18.603 18.603 0 01-7.213 9.437c-4.467 2.944-7.489-.39-6.904-5.206.527-4.348 3.491-11.114 8.288-12.148 4.796-1.033 7.331 3.257 5.829 7.917z" fill="#FFD5BD"/><path d="M716.842 964.281c-2.106 0-4.154-.293-4.835-1.229a1.501 1.501 0 010-1.715 1.936 1.936 0 011.228-.917c2.749-.741 8.502 2.535 8.755 2.691a.362.362 0 01.154.165c.032.07.038.149.022.225a.4.4 0 01-.096.212.402.402 0 01-.198.12 30.947 30.947 0 01-5.03.448zm-2.612-3.197c-.251-.002-.5.032-.741.097-.162.03-.314.096-.448.19a1.13 1.13 0 00-.332.356c-.273.487-.176.722 0 .858.78 1.071 4.952 1.092 8.013.663a17.798 17.798 0 00-6.57-2.164h.078z" fill="#3F80FD"/><path d="M721.834 963.833h-.156c-1.951-.878-5.947-4.446-5.635-6.318 0-.429.37-.975 1.442-1.091a2.9 2.9 0 012.164.662c2.107 1.735 2.555 6.181 2.574 6.357a.4.4 0 01-.175.35.288.288 0 01-.214.04zm-4.037-6.688h-.234c-.702 0-.74.351-.759.429-.177 1.13 2.494 3.899 4.542 5.147a9.18 9.18 0 00-2.183-5.088 2.097 2.097 0 00-1.366-.488z" fill="#3F80FD"/><path d="M740.571 963.443h-16.496l3.14-38.179h16.496l-3.14 38.179z" fill="#FFD5BD"/><path d="M724.056 961.532h17.997a1.208 1.208 0 011.249 1.13l1.071 14.586a2.83 2.83 0 01-1.707 2.706 2.835 2.835 0 01-1.1.238c-6.473-.118-15.794-.488-23.964-.488-9.534 0-10.529.507-21.721.507-6.765 0-7.623-6.844-4.698-7.449 13.297-2.826 16.554-3.139 28.72-10.002a8.614 8.614 0 014.153-1.228z" fill="#14142B"/><path opacity=".2" d="M727.234 925.283l-1.638 19.675h16.496l1.619-19.675h-16.477z" fill="#14142B"/><path d="M819.444 964.281a5.408 5.408 0 01-3.901-1.073 1.662 1.662 0 010-1.949 1.841 1.841 0 011.228-.898c2.399-.566 6.961 2.555 7.157 2.691a.41.41 0 01.155.39.35.35 0 01-.292.292 19.91 19.91 0 01-4.347.547zm-2.067-3.14a1.992 1.992 0 00-.488 0 1.064 1.064 0 00-.721.526c-.352.644-.137.917 0 .995.702.936 4.075.936 6.531.527a12.668 12.668 0 00-5.206-2.048h-.116z" fill="#3F80FD"/><path d="M823.694 963.833h-.177c-1.715-.936-5.009-4.544-4.66-6.376a1.292 1.292 0 011.249-1.034 2.121 2.121 0 011.657.508c1.95 1.559 2.32 6.317 2.32 6.511a.39.39 0 01-.175.372.402.402 0 01-.214.019zm-3.315-6.688h-.176c-.507 0-.566.293-.585.39-.195 1.092 1.95 3.899 3.607 5.108a9.424 9.424 0 00-1.949-5.167 1.404 1.404 0 00-.897-.331z" fill="#3F80FD"/><path d="M838.785 963.443h-16.476l-8.286-38.179h16.475l8.287 38.179z" fill="#FFD5BD"/><path d="M821.139 961.532h18.504a1.424 1.424 0 011.403 1.13l3.257 14.585c.079.357.077.727-.006 1.083a2.427 2.427 0 01-2.393 1.862c-6.473-.118-9.612-.488-17.762-.488-5.011 0-11.427.507-18.348.507-6.923 0-7.8-6.844-4.992-7.449 12.693-2.788 13.648-6.61 17.646-10.275a4.01 4.01 0 012.691-.955z" fill="#14142B"/><path d="M877.938 746.775s-91.447 27.746-93.71 64.482c-4.153 67.659 29.034 125.315 29.034 125.315h24.724s-9.398-28.583-12.772-89.867c-4.231-77.019 141.403 1.793 114.475-99.93h-61.751z" fill="#171347"/><path opacity=".2" d="M830.519 925.283h-16.496l4.269 19.675h16.497l-4.27-19.675z" fill="#14142B"/><path d="M851.519 746.775s-118.259 7.8-122.938 70.564c-5.363 72.146-6.923 119.233-6.923 119.233h24.491s12.596-44.241 23.397-107.845c3.257-19.049 43.657-22.325 81.895-24.588 32.951-1.949 58.26-3.899 61.029-40.4l-.429-16.964h-60.522z" fill="#171347"/><path d="M715.674 930.021c-.137 0 1.579 11.701 1.579 11.701h33.946l.917-10.355-36.442-1.346zm90.12 0c-.137 0 3.119 11.701 3.119 11.701h33.927l-.623-10.355-36.423-1.346zm51.047-131.068l16.554-112.447a12.8 12.8 0 014.298-7.838 12.803 12.803 0 018.376-3.12h97.668a12.817 12.817 0 019.698 4.439 12.808 12.808 0 012.976 10.243l-15.989 108.723c0 1.251-.247 2.49-.726 3.647a9.524 9.524 0 01-8.808 5.869H792.846a9.513 9.513 0 015.889-8.797 9.503 9.503 0 013.646-.719h54.46z" fill="#3F80FD"/><path opacity=".5" d="M856.841 798.953l16.554-112.447a12.8 12.8 0 014.298-7.838 12.803 12.803 0 018.376-3.12h97.668a12.817 12.817 0 019.698 4.439 12.808 12.808 0 012.976 10.243l-15.989 108.723c0 1.251-.247 2.49-.726 3.647a9.524 9.524 0 01-8.808 5.869H792.846a9.513 9.513 0 015.889-8.797 9.503 9.503 0 013.646-.719h54.46z" fill="#fff"/><path opacity=".3" d="M886.069 675.548h97.668a12.817 12.817 0 019.698 4.439 12.808 12.808 0 012.976 10.243l-15.989 108.723c0 1.251-.247 2.49-.726 3.647a9.524 9.524 0 01-8.808 5.869H867.331l18.738-132.921z" fill="#3F80FD"/><path d="M979.174 981.615h5.518l-13.804-173.146h-5.539l13.825 173.146z" fill="#3F80FD"/><path opacity=".6" d="M979.174 981.615h5.518l-13.804-173.146h-5.539l13.825 173.146z" fill="#fff"/><path d="M885.289 981.615h5.519l-13.825-173.146h-5.518l13.824 173.146z" fill="#3F80FD"/><path opacity=".6" d="M885.289 981.615h5.519l-13.825-173.146h-5.518l13.824 173.146z" fill="#fff"/><path d="M876.788 981.615h5.537l13.805-173.146h-5.518l-13.824 173.146z" fill="#3F80FD"/><path opacity=".7" d="M876.788 981.615h5.537l13.805-173.146h-5.518l-13.824 173.146z" fill="#fff"/><path d="M782.903 981.615h5.518l13.824-173.146h-5.517l-13.825 173.146z" fill="#3F80FD"/><path opacity=".7" d="M782.903 981.615h5.518l13.824-173.146h-5.517l-13.825 173.146z" fill="#fff"/><g filter="url(#filter0_dd)"><path d="M638.708 346.029H354.594c-14.929 0-27.032 12.102-27.032 27.032V610.51c0 14.93 12.103 27.032 27.032 27.032h284.114c14.93 0 27.032-12.102 27.032-27.032V373.061c0-14.93-12.102-27.032-27.032-27.032z" fill="#fff" fill-opacity=".01"/></g><path d="M638.708 346.029H354.594c-14.929 0-27.032 12.102-27.032 27.032V610.51c0 14.93 12.103 27.032 27.032 27.032h284.114c14.93 0 27.032-12.102 27.032-27.032V373.061c0-14.93-12.102-27.032-27.032-27.032z" fill="#fff"/><g filter="url(#filter1_d)"><path d="M352.417 367.369a5.925 5.925 0 01-10.118 4.191 5.933 5.933 0 01-1.285-6.459 5.923 5.923 0 015.477-3.659 5.927 5.927 0 015.926 5.927z" fill="#FF3951" fill-opacity=".01"/></g><path d="M352.417 367.369a5.925 5.925 0 01-10.118 4.191 5.933 5.933 0 01-1.285-6.459 5.923 5.923 0 015.477-3.659 5.927 5.927 0 015.926 5.927z" fill="#FF3951"/><g filter="url(#filter2_d)"><path d="M369.678 367.369a5.925 5.925 0 01-10.118 4.191 5.933 5.933 0 01-1.285-6.459 5.923 5.923 0 015.477-3.659 5.927 5.927 0 015.926 5.927z" fill="#FFC226" fill-opacity=".01"/></g><path d="M369.678 367.369a5.925 5.925 0 01-10.118 4.191 5.933 5.933 0 01-1.285-6.459 5.923 5.923 0 015.477-3.659 5.927 5.927 0 015.926 5.927z" fill="#FFC226"/><g filter="url(#filter3_d)"><path d="M386.941 367.369a5.934 5.934 0 01-.999 3.293 5.917 5.917 0 01-2.661 2.183 5.92 5.92 0 01-6.459-1.285 5.918 5.918 0 01-1.284-6.459 5.914 5.914 0 012.183-2.66 5.927 5.927 0 019.22 4.928z" fill="#9AE886" fill-opacity=".01"/></g><path d="M386.941 367.369a5.934 5.934 0 01-.999 3.293 5.917 5.917 0 01-2.661 2.183 5.92 5.92 0 01-6.459-1.285 5.918 5.918 0 01-1.284-6.459 5.914 5.914 0 012.183-2.66 5.927 5.927 0 019.22 4.928z" fill="#9AE886"/><path d="M665.74 379.383H327.562v1.974H665.74v-1.974z" fill="#F5F7FC"/><path d="M638.107 404.714H519.385a5.406 5.406 0 000 10.813h118.722a5.407 5.407 0 000-10.813zm-44.304 18.923h-74.418a5.406 5.406 0 100 10.812h74.418a5.406 5.406 0 000-10.812z" fill="#EFF0F7"/><g filter="url(#filter4_dd)"><path d="M840.635 24.128H576.279c-14.929 0-27.032 12.102-27.032 27.032v239.963c0 14.929 12.103 27.032 27.032 27.032h264.356c14.93 0 27.032-12.103 27.032-27.032V51.16c0-14.93-12.102-27.032-27.032-27.032z" fill="#fff" fill-opacity=".01"/></g><path d="M840.635 24.128H576.279c-14.929 0-27.032 12.102-27.032 27.032v239.963c0 14.929 12.103 27.032 27.032 27.032h264.356c14.93 0 27.032-12.103 27.032-27.032V51.16c0-14.93-12.102-27.032-27.032-27.032z" fill="#fff"/><g filter="url(#filter5_d)"><path d="M573.708 46.836a5.93 5.93 0 01-3.659 5.476 5.93 5.93 0 01-7.745-7.744 5.934 5.934 0 015.477-3.66 5.928 5.928 0 015.927 5.928z" fill="#FF3951" fill-opacity=".01"/></g><path d="M573.708 46.836a5.93 5.93 0 01-3.659 5.476 5.93 5.93 0 01-7.745-7.744 5.934 5.934 0 015.477-3.66 5.928 5.928 0 015.927 5.928z" fill="#FF3951"/><g filter="url(#filter6_d)"><path d="M592.32 46.838a5.922 5.922 0 01-3.659 5.476 5.929 5.929 0 113.659-5.476z" fill="#FFC226" fill-opacity=".01"/></g><path d="M592.32 46.838a5.922 5.922 0 01-3.659 5.476 5.929 5.929 0 113.659-5.476z" fill="#FFC226"/><g filter="url(#filter7_d)"><path d="M610.933 46.838a5.922 5.922 0 01-3.659 5.476 5.927 5.927 0 113.659-5.476z" fill="#9AE886" fill-opacity=".01"/></g><path d="M610.933 46.838a5.922 5.922 0 01-3.659 5.476 5.927 5.927 0 113.659-5.476z" fill="#9AE886"/><path d="M867.331 58.85h-318.42v1.976h318.42v-1.975z" fill="#F5F7FC"/><path d="M792.457 83.054H584.153a5.407 5.407 0 100 10.813h208.304a5.407 5.407 0 000-10.813zm-136.898 18.922h-71.406a5.407 5.407 0 000 10.813h71.406a5.406 5.406 0 005.406-5.407 5.406 5.406 0 00-5.406-5.406z" fill="#EFF0F7"/><path d="M833.407 133.505H583.508a4.762 4.762 0 100 9.523h249.899a4.761 4.761 0 100-9.523z" fill="#F5F7FC"/><g filter="url(#filter8_d)"><path d="M711.433 133.504H591.949a4.761 4.761 0 00-4.762 4.762 4.76 4.76 0 004.76 4.762h119.486a4.761 4.761 0 004.761-4.762 4.761 4.761 0 00-4.761-4.762z" fill="#FF3951" fill-opacity=".01"/></g><path d="M711.433 133.504H591.949a4.761 4.761 0 00-4.762 4.762 4.76 4.76 0 004.76 4.762h119.486a4.761 4.761 0 004.761-4.762 4.761 4.761 0 00-4.761-4.762z" fill="#624DE3"/><path d="M832.86 165.829H584.055a5.31 5.31 0 000 10.62H832.86a5.31 5.31 0 000-10.62z" fill="#F5F7FC"/><g filter="url(#filter9_d)"><path d="M783.742 165.829H591.949a4.761 4.761 0 00-.002 9.523h191.795a4.76 4.76 0 100-9.523z" fill="#FFC226" fill-opacity=".01"/></g><path d="M783.742 165.829H591.949a4.761 4.761 0 00-.002 9.523h191.795a4.76 4.76 0 100-9.523z" fill="#CAB7FF"/><path d="M833.407 198.152H583.508a4.762 4.762 0 100 9.524h249.899a4.761 4.761 0 100-9.524z" fill="#F5F7FC"/><g filter="url(#filter10_d)"><path d="M632.885 198.152h-40.936a4.761 4.761 0 100 9.524h40.936a4.761 4.761 0 004.761-4.762 4.761 4.761 0 00-4.761-4.762z" fill="#FF3951" fill-opacity=".01"/></g><path d="M632.885 198.152h-40.936a4.761 4.761 0 100 9.524h40.936a4.761 4.761 0 004.761-4.762 4.761 4.761 0 00-4.761-4.762z" fill="#624DE3"/><path d="M833.407 230.477H583.508a4.762 4.762 0 100 9.523h249.899a4.761 4.761 0 100-9.523z" fill="#F5F7FC"/><g filter="url(#filter11_d)"><path d="M742.334 230.478H591.949a4.762 4.762 0 100 9.523h150.385a4.763 4.763 0 000-9.523z" fill="#FFC226" fill-opacity=".01"/></g><path d="M742.334 230.478H591.949a4.762 4.762 0 100 9.523h150.385a4.763 4.763 0 000-9.523z" fill="#CAB7FF"/><path d="M833.407 262.801H583.508a4.762 4.762 0 000 9.524h249.899a4.762 4.762 0 100-9.524z" fill="#F5F7FC"/><g filter="url(#filter12_d)"><path d="M766.067 262.801H591.949a4.762 4.762 0 100 9.524h174.118a4.761 4.761 0 000-9.524z" fill="#FF3951" fill-opacity=".01"/></g><path d="M766.067 262.801H591.949a4.762 4.762 0 100 9.524h174.118a4.761 4.761 0 000-9.524z" fill="#624DE3"/><path d="M504.461 513.435c0 43.623-35.363 78.986-78.986 78.986-43.623 0-78.986-35.363-78.986-78.986 0-43.623 35.363-78.986 78.986-78.986 43.623 0 78.986 35.363 78.986 78.986zm-122.579 0c0 24.076 19.517 43.595 43.593 43.595 24.076 0 43.595-19.519 43.595-43.595s-19.519-43.594-43.595-43.594-43.593 19.518-43.593 43.594z" fill="#F5F7FC"/><g filter="url(#filter13_d)"><path d="M433.811 452.588a61.417 61.417 0 0152.155 50.231 61.397 61.397 0 01-.934 25.607" stroke="#FFC226" stroke-opacity=".01" stroke-width="35.142" stroke-linecap="round"/></g><path d="M433.811 452.588a61.417 61.417 0 0152.155 50.231 61.397 61.397 0 01-.934 25.607" stroke="#CAB7FF" stroke-width="35.142" stroke-linecap="round"/><g filter="url(#filter14_d)"><path d="M375.732 477.414a61.418 61.418 0 0183.311-15.409" stroke="#FF8139" stroke-opacity=".01" stroke-width="35.142" stroke-linecap="round"/></g><path d="M375.732 477.414a61.418 61.418 0 0183.311-15.409" stroke="#14142B" stroke-width="35.142" stroke-linecap="round"/><g filter="url(#filter15_d)"><path d="M437.558 573.65a61.417 61.417 0 01-64.805-91.714" stroke="#FF3951" stroke-opacity=".01" stroke-width="35.142" stroke-linecap="round"/></g><path d="M437.558 573.65a61.417 61.417 0 01-64.805-91.714" stroke="#FF3951" stroke-width="35.142" stroke-linecap="round"/><g filter="url(#filter16_d)"><path d="M546.36 493.161a8.11 8.11 0 100-16.219 8.11 8.11 0 100 16.219z" fill="#FF3951" fill-opacity=".01"/></g><path d="M546.36 493.161a8.11 8.11 0 100-16.219 8.11 8.11 0 100 16.219z" fill="#171347"/><path d="M630.348 480.996h-65.065a4.054 4.054 0 100 8.11h65.065a4.056 4.056 0 000-8.11z" fill="#EFF0F7"/><g filter="url(#filter17_d)"><path d="M546.36 521.544a8.11 8.11 0 100-16.22 8.11 8.11 0 000 16.22z" fill="#FF8139" fill-opacity=".01"/></g><path d="M546.36 521.544a8.11 8.11 0 100-16.22 8.11 8.11 0 000 16.22z" fill="#7545FF"/><path d="M630.348 509.38h-65.065a4.054 4.054 0 100 8.109h65.065a4.055 4.055 0 100-8.109z" fill="#EFF0F7"/><g filter="url(#filter18_d)"><path d="M546.36 549.928a8.11 8.11 0 100-16.219 8.11 8.11 0 100 16.219z" fill="#FFC226" fill-opacity=".01"/></g><path d="M546.36 549.928a8.11 8.11 0 100-16.219 8.11 8.11 0 100 16.219z" fill="#CAB7FF"/><path d="M630.348 537.763h-65.065a4.054 4.054 0 100 8.11h65.065a4.055 4.055 0 000-8.11z" fill="#EFF0F7"/><g filter="url(#filter19_dd)"><path d="M489.139 21.625H205.025c-14.929 0-27.032 12.103-27.032 27.032V288.62c0 14.93 12.103 27.032 27.032 27.032h284.114c14.93 0 27.032-12.102 27.032-27.032V48.657c0-14.929-12.102-27.031-27.032-27.031z" fill="#fff" fill-opacity=".01"/></g><path d="M489.139 21.625H205.025c-14.929 0-27.032 12.103-27.032 27.032V288.62c0 14.93 12.103 27.032 27.032 27.032h284.114c14.93 0 27.032-12.102 27.032-27.032V48.657c0-14.929-12.102-27.031-27.032-27.031z" fill="#fff"/><path d="M516.171 57.494H177.993v1.976h338.178v-1.976z" fill="#F5F7FC"/><path d="M451.781 81.697H242.422a4.88 4.88 0 000 9.759h209.359a4.88 4.88 0 000-9.759zM414.3 99.564H279.884a4.879 4.879 0 100 9.759H414.3a4.879 4.879 0 100-9.758z" fill="#EFF0F7"/><g filter="url(#filter20_d)"><path d="M426.827 167.626v110.963a8.11 8.11 0 1016.219 0V167.626a8.11 8.11 0 00-16.219 0z" fill="#FFC226" fill-opacity=".01"/></g><path d="M426.827 167.626v110.963a8.11 8.11 0 1016.219 0V167.626a8.11 8.11 0 00-16.219 0z" fill="#CAB7FF"/><path d="M391.685 184.559v94.01a8.11 8.11 0 1016.219 0v-94.01a8.11 8.11 0 00-16.219 0z" fill="#624DE3"/><g filter="url(#filter21_d)"><path d="M356.543 243.852v34.717a8.11 8.11 0 008.11 8.109 8.11 8.11 0 008.11-8.109v-34.717a8.11 8.11 0 00-16.22 0z" fill="#FFC226" fill-opacity=".01"/></g><path d="M356.543 243.852v34.717a8.11 8.11 0 008.11 8.109 8.11 8.11 0 008.11-8.109v-34.717a8.11 8.11 0 00-16.22 0z" fill="#CAB7FF"/><path d="M321.402 155.04v123.529a8.11 8.11 0 1016.219 0V155.04a8.11 8.11 0 10-16.219 0z" fill="#624DE3"/><g filter="url(#filter22_d)"><path d="M286.26 143.976v134.593a8.11 8.11 0 0016.22 0V143.976a8.11 8.11 0 00-16.22 0z" fill="#FFC226" fill-opacity=".01"/></g><path d="M286.26 143.976v134.593a8.11 8.11 0 0016.22 0V143.976a8.11 8.11 0 00-16.22 0z" fill="#CAB7FF"/><path d="M251.119 199.238v79.331a8.11 8.11 0 1016.219 0v-79.331a8.11 8.11 0 00-8.11-8.109 8.109 8.109 0 00-8.109 8.109z" fill="#624DE3"/><g filter="url(#filter23_d)"><path d="M204.2 45.48a5.93 5.93 0 01-7.084 5.814 5.926 5.926 0 117.084-5.814z" fill="#FF3951" fill-opacity=".01"/></g><path d="M204.2 45.48a5.93 5.93 0 01-7.084 5.814 5.926 5.926 0 117.084-5.814z" fill="#FF3951"/><g filter="url(#filter24_d)"><path d="M221.461 45.48a5.93 5.93 0 01-7.084 5.814 5.926 5.926 0 117.084-5.814z" fill="#FFC226" fill-opacity=".01"/></g><path d="M221.461 45.48a5.93 5.93 0 01-7.084 5.814 5.926 5.926 0 117.084-5.814z" fill="#FFC226"/><g filter="url(#filter25_d)"><path d="M238.723 45.48a5.93 5.93 0 01-7.084 5.814 5.926 5.926 0 117.084-5.814z" fill="#9AE886" fill-opacity=".01"/></g><path d="M238.723 45.48a5.93 5.93 0 01-7.084 5.814 5.926 5.926 0 117.084-5.814z" fill="#9AE886"/><g clip-path="url(#clip0)"><path d="M335.396 328.854l26.374-18.308s2.532-12.915 5.79-15.948c4.476-3.221 22.767-11.291 29.057-9.06 4.935 2.109 4.915 28.317 0 29.644-4.917 1.329-24.581 7.426-24.581 7.426l-28.143 22.784-8.497-16.538z" fill="#FFD5BD"/><path d="M171.677 334.67s1.179 1.099 3.135 3.055c4.612 4.503 14.958 13.59 25.68 23.32 21.442 17.583 47.898 37.231 64.329 35.73 29.485-2.681 93.814-54.922 93.814-54.922l-12.116-22.248s-46.853 31.147-74.998 37.688c-28.144 6.539-73.71-77.571-95.583-83.441l-4.261 60.818z" fill="#0048F0"/><path d="M343.141 318.011a1.571 1.571 0 00-.745 2.132l12.8 25.51c.542 1.077 2.046 1.17 2.714.167l3.352-5.03c.315-.47.351-1.074.096-1.579l-11.42-22.671a1.57 1.57 0 00-2.064-.719l-4.733 2.19z" fill="#14142A"/><path opacity=".2" d="M174.732 337.724c4.612 4.503 14.126 13.59 25.598 23.319-5.2-23.748-21.738-43.341-21.738-43.341l-3.86 20.022z" fill="#14142B"/><path d="M172.4 945.881l21.739 2.279 4.074-46.881-21.737-2.305-4.076 46.907zm-108.502-1.582h21.068l1.742-48.81H65.613l-1.715 48.81z" fill="#FFD5BD"/><path d="M87.914 941.859H62.316c-.858 0-1.608.59-1.796 1.449l-4.154 18.762a3.169 3.169 0 002.52 3.7c.187.027.374.054.562.054 8.283-.136 14.313-.645 24.713-.645 6.407 0 25.732.671 34.578.671 8.845 0 9.997-8.739 6.379-9.542-16.243-3.538-28.466-8.444-33.666-13.107a5.072 5.072 0 00-3.538-1.342z" fill="#171347"/><path d="M94.856 945.559a6.372 6.372 0 004.047-1.073c.778-.67 1.18-1.662 1.046-2.681a1.472 1.472 0 00-.858-1.393c-2.332-1.206-9.14 2.975-9.89 3.458a.418.418 0 00-.242.483.522.522 0 00.375.429c1.796.454 3.646.723 5.522.777zm3.136-4.37c.214-.027.456.027.643.135.134 0 .295.187.322.59.08.67-.16 1.34-.67 1.796a10.233 10.233 0 01-7.505.374 20.126 20.126 0 017.21-2.895z" fill="#FF3951"/><path d="M89.468 944.807h.242c2.17-1.179 6.379-5.816 5.95-8.041a1.634 1.634 0 00-1.608-1.313 2.656 2.656 0 00-2.118.643c-2.439 1.983-2.948 8.041-2.975 8.337 0 .187.08.347.241.454a.45.45 0 00.268-.08zm4.235-8.55h.241c.644 0 .697.375.724.509.268 1.368-2.412 4.879-4.583 6.514.134-2.413 1.018-4.692 2.492-6.594a1.683 1.683 0 011.126-.429z" fill="#FF3951"/><path d="M196.444 941.19h-25.598c-.858 0-1.608.59-1.797 1.447l-4.154 18.762a3.168 3.168 0 002.519 3.7c.189.027.376.054.563.054 8.283-.134 14.315-.644 24.714-.644 6.406 0 25.732.67 34.578.67 8.844 0 9.997-8.737 6.379-9.542-16.244-3.538-28.466-8.444-33.666-13.107a5.075 5.075 0 00-3.538-1.34z" fill="#171347"/><path d="M203.413 944.889a6.371 6.371 0 004.047-1.073c.777-.669 1.179-1.662 1.046-2.681a1.475 1.475 0 00-.859-1.393c-2.332-1.206-9.14 2.975-9.89 3.458-.187.08-.296.296-.24.483a.519.519 0 00.374.429 25.52 25.52 0 005.522.777zm3.135-4.45c.215-.027.456.027.645.134.133 0 .294.188.32.589a2.068 2.068 0 01-.669 1.797 10.228 10.228 0 01-7.505.375 20.129 20.129 0 017.209-2.895z" fill="#FF3951"/><path d="M198.024 944.138h.243c2.171-1.18 6.379-5.816 5.949-8.041a1.633 1.633 0 00-1.608-1.313 2.652 2.652 0 00-2.117.643c-2.44 1.983-2.948 8.041-2.974 8.336 0 .188.08.348.24.455a.453.453 0 00.267-.08zm4.236-8.551h.241c.643 0 .696.376.725.51.267 1.368-2.414 4.879-4.585 6.514.135-2.414 1.019-4.692 2.494-6.595a1.68 1.68 0 011.125-.429z" fill="#FF3951"/><path opacity=".2" d="M176.475 898.974l21.738 2.305-2.118 24.178-21.738-2.279 2.118-24.204zm-110.862-3.458h21.095l-.912 25.169H64.702l.911-25.169z" fill="#14142B"/><path d="M74.325 467.349h111.827c10.72 58.057 43.904 263.536 20.022 446.634l-37.848-4.69s3.511-243.058-29.913-332.905c-3.86 48.085-8.416 99.174-12.383 126.46-9.73 67.011-30.557 213.467-30.557 213.467H56.93s7.88-140.184 11.526-206.042c3.994-71.487 5.709-228.182 5.87-242.924z" fill="#EE283C"/><path opacity=".2" d="M138.413 576.388a301.035 301.035 0 0112.491 48.381c3.136-42.887-9.382-88.185-9.382-88.185l-3.109 39.804z" fill="#14142B"/><path d="M211.197 920.017a3.145 3.145 0 01-3.517 2.364l-41.026-6.103a3.144 3.144 0 01-2.663-3.452l.742-6.774a3.144 3.144 0 013.535-2.775l42.088 5.506a3.143 3.143 0 012.646 3.866l-1.805 7.368zm-110.758-6.153a3.145 3.145 0 01-3.123 2.773h-39.52a3.144 3.144 0 01-3.146-3.144v-7.359a3.146 3.146 0 013.086-3.145l40.483-.757a3.144 3.144 0 013.182 3.514l-.962 8.118z" fill="#D9DBE9"/><path d="M187.089 468.688H74.512v13.403l114.025-1.393-1.448-12.01z" fill="#14142B"/><path d="M112.27 462.659h.876c.868 0 1.572.703 1.572 1.572v20.658c0 .867-.704 1.572-1.572 1.572h-.876a1.573 1.573 0 01-1.573-1.572v-20.658c0-.869.704-1.572 1.573-1.572zm56.959 0h.875c.868 0 1.573.703 1.573 1.572v20.658c0 .867-.705 1.572-1.573 1.572h-.875a1.574 1.574 0 01-1.573-1.572v-20.658c0-.869.705-1.572 1.573-1.572z" fill="#6E7191"/><path d="M138.904 466.356h14.538a3.145 3.145 0 013.144 3.145v8.722a3.145 3.145 0 01-3.144 3.145h-14.538a3.145 3.145 0 01-3.144-3.145v-8.722a3.145 3.145 0 013.144-3.145z" fill="#fff"/><path d="M175.938 273.852s-71.137-3.351-124.129 10.024c0 0 23.4 117.804 22.516 184.815h112.764s7.317-125.684-11.151-194.839z" fill="#0048F0"/><path d="M137.032 282.781c.955.054 1.64.943 1.45 1.881l-2.547 12.598c-.045.224-.049.422.004.645 1.203 5.048 16.98 71.657 20.654 107.524.048.47-.122.921-.458 1.254l-4.877 4.835a1.571 1.571 0 01-1.95.211l-8.058-5.116a1.58 1.58 0 01-.732-1.308c-.127-8.346-1.398-75.92-9.403-105.895a1.517 1.517 0 00-.515-.788l-12.932-10.59c-.962-.788-.672-2.328.511-2.712l9.205-2.987c.185-.061.381-.086.575-.075l9.073.523zm17.061-104.916s4.396 29.029-11.016 40.206c-15.412 11.178-15.412-42.886-15.412-42.886l26.428 2.68z" fill="#14142B"/><path d="M92.257 276.37c10.266 9.328 35.408 5.87 35.408 5.87s15.707-4.288 12.41-9.193c-9.247-1.528-13.724-5.844-15.573-11.365a26.565 26.565 0 01-.938-10.561c.161-1.984.402-3.94.777-5.897l-31.066-23.132c4.048 15.305 9.033 43.262-1.018 54.278z" fill="#FFD5BD"/><path opacity=".2" d="M100.432 236.835c1.233 18.763 16.565 23.802 24.123 24.847a26.581 26.581 0 01-.938-10.561l-23.185-14.286z" fill="#14142B"/><path d="M98.341 241.149c6.648 9.838 19.031 14.019 30.262 10.213a29.387 29.387 0 0016.753-13.643 31.46 31.46 0 001.393-2.681c7.586-17.744 9.998-48.783-8.764-60.416-13.376-8.39-31.013-4.369-39.402 9.006a28.55 28.55 0 00-4.235 12.437c-2.305 20.666-4.637 32.808 3.993 45.084z" fill="#FFD5BD"/><path d="M124.582 207.135c-.402 1.635.375 3.163 1.474 3.351 1.099.188 2.225-1.019 2.52-2.68.295-1.662-.402-3.163-1.474-3.351-1.073-.188-2.198.965-2.52 2.68zm18.951 3.217c-.403 1.636.375 3.19 1.474 3.378 1.099.187 2.198-1.046 2.493-2.681.294-1.635-.376-3.189-1.475-3.377-1.099-.188-2.224 1.019-2.492 2.68z" fill="#14142B"/><path d="M137.367 210.165a61.73 61.73 0 005.549 15.68 9.797 9.797 0 01-8.31 0l2.761-15.68z" fill="#FF97B8"/><path d="M119.758 199.979c.348.107.75.027 1.018-.214 1.796-1.796 4.343-2.6 6.862-2.225a.99.99 0 001.206-.724.99.99 0 00-.723-1.206 9.886 9.886 0 00-8.685 2.681c-.375.375-.402.991-.027 1.367l.027.026c.08.108.188.215.322.295zm10.667 34.202a15.244 15.244 0 01-12.41-6.754.488.488 0 01.161-.697l.027-.027a.517.517 0 01.697.161 14.643 14.643 0 0011.552 6.218.57.57 0 01.509.51.527.527 0 01-.509.509l-.027.08zm22.355-28.975c.161.108.375.161.563.161.536-.134.831-.697.697-1.206v-.027a9.84 9.84 0 00-6.138-6.728.953.953 0 00-1.207.617c0 .027.001.027-.026.054a.976.976 0 00.67 1.232 8.088 8.088 0 014.771 5.361c.134.268.375.483.67.536zm-38.946-32.244v9.247a6.896 6.896 0 00-4.476 8.041c2.01 8.041-3.806 19.406-10.266 23.454 0 0 .214-3.351-2.68-2.922-2.896.429-4.263 17.878.214 26.804 0 0-7.371-8.47-9.837-27.233-2.252-17.369-1.1-31.441 3.163-37.525l23.882.134z" fill="#14142B"/><path d="M89.952 175.641s-6.942-15.654 18.95-19.218c25.893-3.565 53.179 6.701 53.179 6.701s1.341 24.82-20.612 24.579c-21.389-.241-51.517-12.062-51.517-12.062z" fill="#14142B"/><path d="M82.553 211.371a19.97 19.97 0 009.543 11.82c6.138 3.297 10.721-1.849 10.292-8.416-.429-5.87-4.047-14.823-10.855-15.332-6.809-.509-10.802 5.709-8.98 11.928z" fill="#FFD5BD"/><path d="M96.84 264.523l29.726 13.402 1.742-10.722 10.909 3.833a8.933 8.933 0 015.951 9.409l-1.207 11.793-15.09-8.255-7.505 10.721-35.703-17.181 11.177-13z" fill="#CAB7FF"/><path opacity=".2" d="M61.566 339.307c1.876 11.874 3.833 24.928 5.629 38.382 7.237-14.366 8.014-31.091 2.198-46.076l-7.827 7.694z" fill="#14142B"/><path d="M51.809 283.876C38.997 289.773-2.63 373.268.131 420.415c2.68 45.942 74.381 103.223 74.381 103.223s15.52-12.598 17.69-23.427c0 0-50.525-52.348-51.865-79.796-1.314-26.964 28.144-75.052 28.144-75.052s3.35-20.102-2.68-37.524c-6.031-17.423-13.992-23.963-13.992-23.963z" fill="#0048F0"/><path d="M92.203 489.06s-11.686 26.216-21.443 31.522c0 0-2.118 8.872 6.38 20.935 8.496 12.061 41.251-29.405 15.063-52.457z" fill="#CAB7FF"/></g><defs><filter id="filter0_dd" x="307.289" y="324.404" width="378.726" height="341.522" filterUnits="userSpaceOnUse" color-interpolation-filters="sRGB"><feFlood flood-opacity="0" result="BackgroundImageFix"/><feColorMatrix in="SourceAlpha" values="0 0 0 0 0 0 0 0 0 0 0 0 0 0 0 0 0 0 127 0" result="hardAlpha"/><feOffset dy="9.461"/><feGaussianBlur stdDeviation="9.461"/><feColorMatrix values="0 0 0 0 0.078875 0 0 0 0 0.0770833 0 0 0 0 0.166667 0 0 0 0.03 0"/><feBlend in2="BackgroundImageFix" result="effect1_dropShadow"/><feColorMatrix in="SourceAlpha" values="0 0 0 0 0 0 0 0 0 0 0 0 0 0 0 0 0 0 127 0" result="hardAlpha"/><feOffset dy="-1.352"/><feGaussianBlur stdDeviation="10.137"/><feColorMatrix values="0 0 0 0 0.078875 0 0 0 0 0.0770833 0 0 0 0 0.166667 0 0 0 0.02 0"/><feBlend in2="effect1_dropShadow" result="effect2_dropShadow"/><feBlend in="SourceGraphic" in2="effect2_dropShadow" result="shape"/></filter><filter id="filter1_d" x="329.751" y="353.332" width="33.48" height="33.48" filterUnits="userSpaceOnUse" color-interpolation-filters="sRGB"><feFlood flood-opacity="0" result="BackgroundImageFix"/><feColorMatrix in="SourceAlpha" values="0 0 0 0 0 0 0 0 0 0 0 0 0 0 0 0 0 0 127 0" result="hardAlpha"/><feOffset dy="2.703"/><feGaussianBlur stdDeviation="5.406"/><feColorMatrix values="0 0 0 0 1 0 0 0 0 0.223529 0 0 0 0 0.317647 0 0 0 0.14 0"/><feBlend in2="BackgroundImageFix" result="effect1_dropShadow"/><feBlend in="SourceGraphic" in2="effect1_dropShadow" result="shape"/></filter><filter id="filter2_d" x="348.363" y="354.684" width="30.776" height="30.777" filterUnits="userSpaceOnUse" color-interpolation-filters="sRGB"><feFlood flood-opacity="0" result="BackgroundImageFix"/><feColorMatrix in="SourceAlpha" values="0 0 0 0 0 0 0 0 0 0 0 0 0 0 0 0 0 0 127 0" result="hardAlpha"/><feOffset dy="2.703"/><feGaussianBlur stdDeviation="4.731"/><feColorMatrix values="0 0 0 0 1 0 0 0 0 0.760784 0 0 0 0 0.14902 0 0 0 0.14 0"/><feBlend in2="BackgroundImageFix" result="effect1_dropShadow"/><feBlend in="SourceGraphic" in2="effect1_dropShadow" result="shape"/></filter><filter id="filter3_d" x="366.977" y="356.036" width="28.074" height="28.074" filterUnits="userSpaceOnUse" color-interpolation-filters="sRGB"><feFlood flood-opacity="0" result="BackgroundImageFix"/><feColorMatrix in="SourceAlpha" values="0 0 0 0 0 0 0 0 0 0 0 0 0 0 0 0 0 0 127 0" result="hardAlpha"/><feOffset dy="2.703"/><feGaussianBlur stdDeviation="4.055"/><feColorMatrix values="0 0 0 0 0.603922 0 0 0 0 0.909804 0 0 0 0 0.52549 0 0 0 0.29 0"/><feBlend in2="BackgroundImageFix" result="effect1_dropShadow"/><feBlend in="SourceGraphic" in2="effect1_dropShadow" result="shape"/></filter><filter id="filter4_dd" x="524.919" y="2.502" width="367.077" height="348.091" filterUnits="userSpaceOnUse" color-interpolation-filters="sRGB"><feFlood flood-opacity="0" result="BackgroundImageFix"/><feColorMatrix in="SourceAlpha" values="0 0 0 0 0 0 0 0 0 0 0 0 0 0 0 0 0 0 127 0" result="hardAlpha"/><feOffset dy="8.11"/><feGaussianBlur stdDeviation="12.164"/><feColorMatrix values="0 0 0 0 0.0987208 0 0 0 0 0.0910417 0 0 0 0 0.475 0 0 0 0.02 0"/><feBlend in2="BackgroundImageFix" result="effect1_dropShadow"/><feColorMatrix in="SourceAlpha" values="0 0 0 0 0 0 0 0 0 0 0 0 0 0 0 0 0 0 127 0" result="hardAlpha"/><feOffset dy="-1.352"/><feGaussianBlur stdDeviation="10.137"/><feColorMatrix values="0 0 0 0 0.078875 0 0 0 0 0.0770833 0 0 0 0 0.166667 0 0 0 0.04 0"/><feBlend in2="effect1_dropShadow" result="effect2_dropShadow"/><feBlend in="SourceGraphic" in2="effect2_dropShadow" result="shape"/></filter><filter id="filter5_d" x="551.04" y="32.799" width="33.48" height="33.48" filterUnits="userSpaceOnUse" color-interpolation-filters="sRGB"><feFlood flood-opacity="0" result="BackgroundImageFix"/><feColorMatrix in="SourceAlpha" values="0 0 0 0 0 0 0 0 0 0 0 0 0 0 0 0 0 0 127 0" result="hardAlpha"/><feOffset dy="2.703"/><feGaussianBlur stdDeviation="5.406"/><feColorMatrix values="0 0 0 0 1 0 0 0 0 0.223529 0 0 0 0 0.317647 0 0 0 0.14 0"/><feBlend in2="BackgroundImageFix" result="effect1_dropShadow"/><feBlend in="SourceGraphic" in2="effect1_dropShadow" result="shape"/></filter><filter id="filter6_d" x="571.004" y="34.152" width="30.777" height="30.777" filterUnits="userSpaceOnUse" color-interpolation-filters="sRGB"><feFlood flood-opacity="0" result="BackgroundImageFix"/><feColorMatrix in="SourceAlpha" values="0 0 0 0 0 0 0 0 0 0 0 0 0 0 0 0 0 0 127 0" result="hardAlpha"/><feOffset dy="2.703"/><feGaussianBlur stdDeviation="4.731"/><feColorMatrix values="0 0 0 0 1 0 0 0 0 0.760784 0 0 0 0 0.14902 0 0 0 0.14 0"/><feBlend in2="BackgroundImageFix" result="effect1_dropShadow"/><feBlend in="SourceGraphic" in2="effect1_dropShadow" result="shape"/></filter><filter id="filter7_d" x="590.969" y="35.504" width="28.074" height="28.074" filterUnits="userSpaceOnUse" color-interpolation-filters="sRGB"><feFlood flood-opacity="0" result="BackgroundImageFix"/><feColorMatrix in="SourceAlpha" values="0 0 0 0 0 0 0 0 0 0 0 0 0 0 0 0 0 0 127 0" result="hardAlpha"/><feOffset dy="2.703"/><feGaussianBlur stdDeviation="4.055"/><feColorMatrix values="0 0 0 0 0.603922 0 0 0 0 0.909804 0 0 0 0 0.52549 0 0 0 0.29 0"/><feBlend in2="BackgroundImageFix" result="effect1_dropShadow"/><feBlend in="SourceGraphic" in2="effect1_dropShadow" result="shape"/></filter><filter id="filter8_d" x="576.374" y="126.746" width="150.633" height="31.149" filterUnits="userSpaceOnUse" color-interpolation-filters="sRGB"><feFlood flood-opacity="0" result="BackgroundImageFix"/><feColorMatrix in="SourceAlpha" values="0 0 0 0 0 0 0 0 0 0 0 0 0 0 0 0 0 0 127 0" result="hardAlpha"/><feOffset dy="4.055"/><feGaussianBlur stdDeviation="5.406"/><feColorMatrix values="0 0 0 0 1 0 0 0 0 0.223529 0 0 0 0 0.317647 0 0 0 0.15 0"/><feBlend in2="BackgroundImageFix" result="effect1_dropShadow"/><feBlend in="SourceGraphic" in2="effect1_dropShadow" result="shape"/></filter><filter id="filter9_d" x="576.374" y="157.72" width="222.942" height="31.149" filterUnits="userSpaceOnUse" color-interpolation-filters="sRGB"><feFlood flood-opacity="0" result="BackgroundImageFix"/><feColorMatrix in="SourceAlpha" values="0 0 0 0 0 0 0 0 0 0 0 0 0 0 0 0 0 0 127 0" result="hardAlpha"/><feOffset dy="2.703"/><feGaussianBlur stdDeviation="5.406"/><feColorMatrix values="0 0 0 0 0.890196 0 0 0 0 0.795294 0 0 0 0 0.458824 0 0 0 0.31 0"/><feBlend in2="BackgroundImageFix" result="effect1_dropShadow"/><feBlend in="SourceGraphic" in2="effect1_dropShadow" result="shape"/></filter><filter id="filter10_d" x="576.374" y="191.394" width="72.085" height="31.149" filterUnits="userSpaceOnUse" color-interpolation-filters="sRGB"><feFlood flood-opacity="0" result="BackgroundImageFix"/><feColorMatrix in="SourceAlpha" values="0 0 0 0 0 0 0 0 0 0 0 0 0 0 0 0 0 0 127 0" result="hardAlpha"/><feOffset dy="4.055"/><feGaussianBlur stdDeviation="5.406"/><feColorMatrix values="0 0 0 0 1 0 0 0 0 0.223529 0 0 0 0 0.317647 0 0 0 0.15 0"/><feBlend in2="BackgroundImageFix" result="effect1_dropShadow"/><feBlend in="SourceGraphic" in2="effect1_dropShadow" result="shape"/></filter><filter id="filter11_d" x="576.374" y="222.368" width="181.534" height="31.149" filterUnits="userSpaceOnUse" color-interpolation-filters="sRGB"><feFlood flood-opacity="0" result="BackgroundImageFix"/><feColorMatrix in="SourceAlpha" values="0 0 0 0 0 0 0 0 0 0 0 0 0 0 0 0 0 0 127 0" result="hardAlpha"/><feOffset dy="2.703"/><feGaussianBlur stdDeviation="5.406"/><feColorMatrix values="0 0 0 0 0.890196 0 0 0 0 0.795294 0 0 0 0 0.458824 0 0 0 0.31 0"/><feBlend in2="BackgroundImageFix" result="effect1_dropShadow"/><feBlend in="SourceGraphic" in2="effect1_dropShadow" result="shape"/></filter><filter id="filter12_d" x="576.374" y="256.043" width="205.267" height="31.15" filterUnits="userSpaceOnUse" color-interpolation-filters="sRGB"><feFlood flood-opacity="0" result="BackgroundImageFix"/><feColorMatrix in="SourceAlpha" values="0 0 0 0 0 0 0 0 0 0 0 0 0 0 0 0 0 0 127 0" result="hardAlpha"/><feOffset dy="4.055"/><feGaussianBlur stdDeviation="5.406"/><feColorMatrix values="0 0 0 0 1 0 0 0 0 0.223529 0 0 0 0 0.317647 0 0 0 0.15 0"/><feBlend in2="BackgroundImageFix" result="effect1_dropShadow"/><feBlend in="SourceGraphic" in2="effect1_dropShadow" result="shape"/></filter><filter id="filter13_d" x="405.425" y="429.609" width="109.849" height="132.611" filterUnits="userSpaceOnUse" color-interpolation-filters="sRGB"><feFlood flood-opacity="0" result="BackgroundImageFix"/><feColorMatrix in="SourceAlpha" values="0 0 0 0 0 0 0 0 0 0 0 0 0 0 0 0 0 0 127 0" result="hardAlpha"/><feOffset dy="5.406"/><feGaussianBlur stdDeviation="5.406"/><feColorMatrix values="0 0 0 0 1 0 0 0 0 0.760784 0 0 0 0 0.14902 0 0 0 0.21 0"/><feBlend in2="BackgroundImageFix" result="effect1_dropShadow"/><feBlend in="SourceGraphic" in2="effect1_dropShadow" result="shape"/></filter><filter id="filter14_d" x="347.347" y="429.042" width="140.081" height="82.163" filterUnits="userSpaceOnUse" color-interpolation-filters="sRGB"><feFlood flood-opacity="0" result="BackgroundImageFix"/><feColorMatrix in="SourceAlpha" values="0 0 0 0 0 0 0 0 0 0 0 0 0 0 0 0 0 0 127 0" result="hardAlpha"/><feOffset dy="5.406"/><feGaussianBlur stdDeviation="5.406"/><feColorMatrix values="0 0 0 0 1 0 0 0 0 0.505882 0 0 0 0 0.223529 0 0 0 0.16 0"/><feBlend in2="BackgroundImageFix" result="effect1_dropShadow"/><feBlend in="SourceGraphic" in2="effect1_dropShadow" result="shape"/></filter><filter id="filter15_d" x="324.864" y="450.846" width="151.894" height="171.31" filterUnits="userSpaceOnUse" color-interpolation-filters="sRGB"><feFlood flood-opacity="0" result="BackgroundImageFix"/><feColorMatrix in="SourceAlpha" values="0 0 0 0 0 0 0 0 0 0 0 0 0 0 0 0 0 0 127 0" result="hardAlpha"/><feOffset dy="8.11"/><feGaussianBlur stdDeviation="10.813"/><feColorMatrix values="0 0 0 0 1 0 0 0 0 0.223529 0 0 0 0 0.317647 0 0 0 0.34 0"/><feBlend in2="BackgroundImageFix" result="effect1_dropShadow"/><feBlend in="SourceGraphic" in2="effect1_dropShadow" result="shape"/></filter><filter id="filter16_d" x="527.438" y="471.536" width="37.845" height="37.845" filterUnits="userSpaceOnUse" color-interpolation-filters="sRGB"><feFlood flood-opacity="0" result="BackgroundImageFix"/><feColorMatrix in="SourceAlpha" values="0 0 0 0 0 0 0 0 0 0 0 0 0 0 0 0 0 0 127 0" result="hardAlpha"/><feOffset dy="5.406"/><feGaussianBlur stdDeviation="5.406"/><feColorMatrix values="0 0 0 0 1 0 0 0 0 0.223529 0 0 0 0 0.317647 0 0 0 0.19 0"/><feBlend in2="BackgroundImageFix" result="effect1_dropShadow"/><feBlend in="SourceGraphic" in2="effect1_dropShadow" result="shape"/></filter><filter id="filter17_d" x="532.844" y="505.325" width="27.032" height="27.032" filterUnits="userSpaceOnUse" color-interpolation-filters="sRGB"><feFlood flood-opacity="0" result="BackgroundImageFix"/><feColorMatrix in="SourceAlpha" values="0 0 0 0 0 0 0 0 0 0 0 0 0 0 0 0 0 0 127 0" result="hardAlpha"/><feOffset dy="5.406"/><feGaussianBlur stdDeviation="2.703"/><feColorMatrix values="0 0 0 0 1 0 0 0 0 0.505882 0 0 0 0 0.223529 0 0 0 0.13 0"/><feBlend in2="BackgroundImageFix" result="effect1_dropShadow"/><feBlend in="SourceGraphic" in2="effect1_dropShadow" result="shape"/></filter><filter id="filter18_d" x="528.789" y="532.357" width="35.142" height="35.142" filterUnits="userSpaceOnUse" color-interpolation-filters="sRGB"><feFlood flood-opacity="0" result="BackgroundImageFix"/><feColorMatrix in="SourceAlpha" values="0 0 0 0 0 0 0 0 0 0 0 0 0 0 0 0 0 0 127 0" result="hardAlpha"/><feOffset dy="8.11"/><feGaussianBlur stdDeviation="4.731"/><feColorMatrix values="0 0 0 0 1 0 0 0 0 0.760784 0 0 0 0 0.14902 0 0 0 0.44 0"/><feBlend in2="BackgroundImageFix" result="effect1_dropShadow"/><feBlend in="SourceGraphic" in2="effect1_dropShadow" result="shape"/></filter><filter id="filter19_dd" x="153.664" y="0" width="386.836" height="348.09" filterUnits="userSpaceOnUse" color-interpolation-filters="sRGB"><feFlood flood-opacity="0" result="BackgroundImageFix"/><feColorMatrix in="SourceAlpha" values="0 0 0 0 0 0 0 0 0 0 0 0 0 0 0 0 0 0 127 0" result="hardAlpha"/><feOffset dy="8.11"/><feGaussianBlur stdDeviation="12.164"/><feColorMatrix values="0 0 0 0 0.0987208 0 0 0 0 0.0910417 0 0 0 0 0.475 0 0 0 0.02 0"/><feBlend in2="BackgroundImageFix" result="effect1_dropShadow"/><feColorMatrix in="SourceAlpha" values="0 0 0 0 0 0 0 0 0 0 0 0 0 0 0 0 0 0 127 0" result="hardAlpha"/><feOffset dy="-1.352"/><feGaussianBlur stdDeviation="10.137"/><feColorMatrix values="0 0 0 0 0.078875 0 0 0 0 0.0770833 0 0 0 0 0.166667 0 0 0 0.04 0"/><feBlend in2="effect1_dropShadow" result="effect2_dropShadow"/><feBlend in="SourceGraphic" in2="effect2_dropShadow" result="shape"/></filter><filter id="filter20_d" x="411.959" y="150.055" width="45.954" height="156.918" filterUnits="userSpaceOnUse" color-interpolation-filters="sRGB"><feFlood flood-opacity="0" result="BackgroundImageFix"/><feColorMatrix in="SourceAlpha" values="0 0 0 0 0 0 0 0 0 0 0 0 0 0 0 0 0 0 127 0" result="hardAlpha"/><feOffset dy="5.406"/><feGaussianBlur stdDeviation="7.434"/><feColorMatrix values="0 0 0 0 1 0 0 0 0 0.760784 0 0 0 0 0.14902 0 0 0 0.22 0"/><feBlend in2="BackgroundImageFix" result="effect1_dropShadow"/><feBlend in="SourceGraphic" in2="effect1_dropShadow" result="shape"/></filter><filter id="filter21_d" x="341.676" y="226.281" width="45.954" height="80.671" filterUnits="userSpaceOnUse" color-interpolation-filters="sRGB"><feFlood flood-opacity="0" result="BackgroundImageFix"/><feColorMatrix in="SourceAlpha" values="0 0 0 0 0 0 0 0 0 0 0 0 0 0 0 0 0 0 127 0" result="hardAlpha"/><feOffset dy="5.406"/><feGaussianBlur stdDeviation="7.434"/><feColorMatrix values="0 0 0 0 1 0 0 0 0 0.760784 0 0 0 0 0.14902 0 0 0 0.22 0"/><feBlend in2="BackgroundImageFix" result="effect1_dropShadow"/><feBlend in="SourceGraphic" in2="effect1_dropShadow" result="shape"/></filter><filter id="filter22_d" x="271.393" y="126.405" width="45.955" height="180.548" filterUnits="userSpaceOnUse" color-interpolation-filters="sRGB"><feFlood flood-opacity="0" result="BackgroundImageFix"/><feColorMatrix in="SourceAlpha" values="0 0 0 0 0 0 0 0 0 0 0 0 0 0 0 0 0 0 127 0" result="hardAlpha"/><feOffset dy="5.406"/><feGaussianBlur stdDeviation="7.434"/><feColorMatrix values="0 0 0 0 1 0 0 0 0 0.760784 0 0 0 0 0.14902 0 0 0 0.22 0"/><feBlend in2="BackgroundImageFix" result="effect1_dropShadow"/><feBlend in="SourceGraphic" in2="effect1_dropShadow" result="shape"/></filter><filter id="filter23_d" x="181.532" y="31.443" width="33.48" height="33.48" filterUnits="userSpaceOnUse" color-interpolation-filters="sRGB"><feFlood flood-opacity="0" result="BackgroundImageFix"/><feColorMatrix in="SourceAlpha" values="0 0 0 0 0 0 0 0 0 0 0 0 0 0 0 0 0 0 127 0" result="hardAlpha"/><feOffset dy="2.703"/><feGaussianBlur stdDeviation="5.406"/><feColorMatrix values="0 0 0 0 1 0 0 0 0 0.223529 0 0 0 0 0.317647 0 0 0 0.14 0"/><feBlend in2="BackgroundImageFix" result="effect1_dropShadow"/><feBlend in="SourceGraphic" in2="effect1_dropShadow" result="shape"/></filter><filter id="filter24_d" x="200.145" y="32.795" width="30.777" height="30.777" filterUnits="userSpaceOnUse" color-interpolation-filters="sRGB"><feFlood flood-opacity="0" result="BackgroundImageFix"/><feColorMatrix in="SourceAlpha" values="0 0 0 0 0 0 0 0 0 0 0 0 0 0 0 0 0 0 127 0" result="hardAlpha"/><feOffset dy="2.703"/><feGaussianBlur stdDeviation="4.731"/><feColorMatrix values="0 0 0 0 1 0 0 0 0 0.760784 0 0 0 0 0.14902 0 0 0 0.14 0"/><feBlend in2="BackgroundImageFix" result="effect1_dropShadow"/><feBlend in="SourceGraphic" in2="effect1_dropShadow" result="shape"/></filter><filter id="filter25_d" x="218.758" y="34.146" width="28.074" height="28.074" filterUnits="userSpaceOnUse" color-interpolation-filters="sRGB"><feFlood flood-opacity="0" result="BackgroundImageFix"/><feColorMatrix in="SourceAlpha" values="0 0 0 0 0 0 0 0 0 0 0 0 0 0 0 0 0 0 127 0" result="hardAlpha"/><feOffset dy="2.703"/><feGaussianBlur stdDeviation="4.055"/><feColorMatrix values="0 0 0 0 0.603922 0 0 0 0 0.909804 0 0 0 0 0.52549 0 0 0 0.29 0"/><feBlend in2="BackgroundImageFix" result="effect1_dropShadow"/><feBlend in="SourceGraphic" in2="effect1_dropShadow" result="shape"/></filter><clipPath id="clip0"><path fill="#fff" transform="translate(0 155.67)" d="M0 0h400.948v811.33H0z"/></clipPath></defs></svg>