<svg transform="scale (-1, 1)" width="443" height="411" viewBox="0 0 443 411" fill="none" xmlns="http://www.w3.org/2000/svg">
<g clip-path="url(#clip0)">
<path d="M377.959 0H65.0413C29.0737 0 0 26.2168 0 58.6499V759.026C0 791.369 29.0737 817.676 65.0413 817.676H377.959C413.826 817.676 443 791.459 443 759.026V58.6499C443 26.2168 413.826 0 377.959 0ZM424.417 755.692C424.417 780.918 402.636 801.369 375.661 801.369H67.3392C40.4635 801.369 18.5832 780.918 18.5832 755.692V66.3078C18.5832 41.082 40.3636 20.6311 67.3392 20.6311H102.607C106.604 20.6311 109.801 23.6942 109.801 27.388C109.801 40.8117 121.39 51.7128 135.777 51.7128H307.123C321.51 51.8029 333.099 40.9018 333.099 27.388C333.099 23.6942 336.296 20.6311 340.293 20.6311H375.661C402.537 20.6311 424.417 41.082 424.417 66.3078V755.692Z" fill="#020A26" stroke="#020A26" stroke-miterlimit="10"/>
<path d="M242.581 33.1539H196.223C194.225 33.1539 192.626 31.7124 192.626 29.9106C192.626 28.1087 194.225 26.6672 196.223 26.6672H242.581C244.579 26.6672 246.178 28.1087 246.178 29.9106C246.178 31.7124 244.579 33.1539 242.581 33.1539Z" stroke="#000F42" stroke-width="4" stroke-miterlimit="10"/>
<path d="M269.257 34.8657C272.292 34.8657 274.752 32.6472 274.752 29.9106C274.752 27.174 272.292 24.9556 269.257 24.9556C266.222 24.9556 263.762 27.174 263.762 29.9106C263.762 32.6472 266.222 34.8657 269.257 34.8657Z" stroke="#000F42" stroke-width="4" stroke-miterlimit="10"/>
</g>
<defs>
<clipPath id="clip0">
<rect width="443" height="411" fill="white"/>
</clipPath>
</defs>
</svg>
