<svg width="130" height="120" viewBox="0 0 130 120" fill="none" xmlns="http://www.w3.org/2000/svg">
<path d="M129.654 84.7784C125.079 71.2474 127.256 58.1367 127.422 57.1869C128.195 53.7555 128.581 50.223 128.568 46.6856C128.496 26.2383 115.413 8.36175 96.0153 2.20297C95.0146 1.88571 93.9424 2.43893 93.623 3.44028C93.3047 4.44262 93.8591 5.51237 94.8618 5.83162C112.678 11.4877 124.693 27.9118 124.759 46.6995C124.771 49.9653 124.414 53.2251 123.698 56.3907C123.692 56.4185 123.686 56.4463 123.681 56.474C123.573 57.0738 121.086 71.3277 126.047 85.9979C126.35 86.8971 126.177 87.835 125.569 88.5707C124.959 89.3093 124.027 89.6741 123.077 89.5433C119.056 88.996 115.58 87.9451 112.743 86.4203C108.677 84.2341 103.849 84.0448 99.8259 85.9136C93.8819 88.6758 87.5193 90.0172 80.8999 89.8972C69.6844 89.6959 59.1214 85.1641 51.1561 77.1365C43.1918 69.1098 38.7424 58.5134 38.6294 47.3003C38.5143 35.8582 42.8426 25.0426 50.8169 16.8454C58.7753 8.66513 69.4364 4.03811 80.8364 3.81504C83.071 3.77142 85.3165 3.89733 87.5094 4.1898C88.5499 4.33059 89.5089 3.59593 89.6478 2.55394C89.7867 1.51194 89.0537 0.554217 88.0113 0.415417C85.6279 0.0981581 83.189 -0.0376684 80.762 0.00892903C68.3533 0.250839 56.749 5.28732 48.0864 14.1914C44.5198 17.8577 41.6247 22.0059 39.4575 26.4851C28.9293 28.475 19.3334 34.0766 12.4214 42.2747C5.3745 50.6335 1.47167 61.3122 1.432 72.3459C1.4191 75.8833 1.80492 79.4168 2.57755 82.8481C2.74517 83.7979 4.92322 96.9017 0.345948 110.439C-0.379076 112.582 0.0503845 114.906 1.49448 116.654C2.94949 118.417 5.17117 119.285 7.43749 118.976C11.9116 118.366 15.8224 117.175 19.0607 115.434C22.0758 113.812 25.6305 113.66 28.5693 115.026C34.7771 117.911 42.6006 119.364 49.1685 119.364C56.5625 119.364 63.908 117.307 70.4153 113.802C76.7134 110.409 82.2508 105.533 86.4303 99.7015C87.0433 98.8469 86.8469 97.6572 85.9919 97.0454C85.137 96.4327 83.9468 96.63 83.3348 97.4837C79.4905 102.847 74.3985 107.331 68.6082 110.45C62.6335 113.67 55.8871 115.436 49.101 115.557C42.4886 115.676 36.1181 114.336 30.1751 111.574C26.1532 109.704 21.324 109.894 17.2575 112.081C14.4219 113.605 10.9446 114.656 6.92273 115.204C5.97356 115.333 5.04224 114.97 4.43127 114.231C3.82428 113.495 3.64971 112.557 3.9542 111.658C8.90241 97.0246 6.44269 82.8184 6.3197 82.1383C6.31475 82.1095 6.30879 82.0798 6.30284 82.051C5.58675 78.8854 5.22969 75.6245 5.2406 72.3588C5.2773 62.2174 8.86175 52.4042 15.3334 44.7275C21.1257 37.8579 28.969 32.9721 37.6425 30.781C35.7332 36.0148 34.7632 41.6035 34.8208 47.339C34.9447 59.5485 39.7858 71.0828 48.4524 79.8173C57.1199 88.5518 68.6172 93.7033 80.8315 93.7033C88.3991 93.7033 95.2228 92.2509 101.432 89.3658C104.37 87.9996 107.925 88.1523 110.939 89.7723C114.179 91.5142 118.089 92.7059 122.563 93.3157C124.829 93.623 127.05 92.7555 128.506 90.9937C129.95 89.2458 130.379 86.9219 129.654 84.7784V84.7784Z" fill="#F7F9FC"/>
</svg>
